<svg xmlns="http://www.w3.org/2000/svg" width="400" height="320" fill-rule="evenodd" xmlns:v="https://vecta.io/nano"><path d="M197.52 36.156l-4.606.668-3.366.617c-.292.121-1.328.339-2.303.484l-7.161 1.26c-.886.168-1.872 2.839-1.875 5.078-.001.695-.172 1.875-.379 2.622s-.513 2.421-.679 3.72l-.876 5.905-.843 5.324c-.348 2.299-.368 2.324-2.704 3.553l-2.59 1.398-2.733 1.594-2.835 1.668-1.417.787c-.389.198-1.506.84-2.48 1.428l-2.303 1.317c-.292.137-1.667.936-3.056 1.776l-2.733 1.527c-.181 0-5.837 3.292-7.32 4.261a13.57 13.57 0 0 1-1.24.69c-.389.189-1.505.824-2.48 1.412l-2.303 1.313c-.292.134-1.089.584-1.771.999s-2.037 1.045-3.012 1.399c-2.231.812-3.676 1.42-6.458 2.716l-2.379 1.028c-.34 0-6.779 4.006-8.043 5.003-.71.561-1.394 1.02-1.52 1.02s-.582.33-1.012.734-1.244 1.082-1.809 1.506c-7.596 5.711-12.861 16.489-14.828 30.355-.465 3.279-.535 21.645-.094 24.574.253 1.678-.223 3.415-.936 3.415-.903 0-8.802 8.907-8.802 9.925 0 .192-.131.35-.292.35s-.644.678-1.076 1.506c-.838 1.609-1.254 2.377-1.823 3.365-.196.342-.451.86-.566 1.152-.36.916-1.291 2.972-1.788 3.952-.263.517-.478 1.265-.478 1.662s-.146.811-.324.921-.435.877-.572 1.704-.35 1.664-.473 1.858c-1.155 1.821-2.136 13.597-2.156 25.877l-.018 10.643.974 1.096c.912 1.025 2.005 2.036 8.559 7.911l11.972 10.895c.861.828 1.651 1.506 1.756 1.506s1.091.861 2.193 1.913c6.155 5.876 7.229 5.827 9.978-.453.203-.463.904-1.977 1.557-3.365 1.016-2.157 2.526-6.308 3.752-10.318.303-.991.72-3.16 1.429-7.441.162-.974.305-3.749.32-6.166.026-4.44.38-5.616 2.145-7.12.114-.097.84-.974 1.613-1.948l1.582-1.949c.097-.097.727-.895 1.399-1.771s1.429-1.722 1.683-1.878.461-.446.461-.645c0-1.439 1.893-1.718 2.723-.4.971 1.539 5.454 7.59 6.3 8.503.66.711 2.427 3.979 3.401 6.288 1.503 3.563 1.69 8.82.535 15.058l-.873 5.137a165.11 165.11 0 0 1-1.485 8.326c-.184.877-.491 2.711-.682 4.075s-.514 3.357-.718 4.428c-.371 1.952.164 21.507.672 24.572.216 1.303.382 1.448 3.591 3.144 5.876 3.105 11.671 5.942 12.137 5.942.117 0 1.221.458 2.452 1.017s3.435 1.448 4.896 1.974l3.529 1.312c.479.196 1.834.671 3.011 1.057s2.385.832 2.684.992 1.096.399 1.771.533 1.547.379 1.937.546c1.069.458 7.349 2.008 10.098 2.492l8.503 1.396c7.215 1.015 16.761.614 24.095-1.012l4.426-.96c3.631-.776 9.449-2.337 10.983-2.947.389-.155 1.745-.612 3.011-1.017 3.014-.962 4.535-1.497 5.9-2.075.614-.26 1.293-.473 1.51-.473s.671-.152 1.01-.337 1.252-.596 2.032-.912l4.783-2.024 6.888-3.174c.378-.207 2.233-1.153 4.121-2.104s3.604-1.933 3.811-2.183c.817-.984 1.512-25.044.779-26.971-.189-.497-.51-2.062-.714-3.478-.38-2.638-1.041-6.646-1.974-11.962l-.886-5.491c-.197-1.364-.511-3.038-.698-3.72-.649-2.367-.069-8.168 1.081-10.806l1.08-2.569c.424-1.023.911-1.86 1.082-1.86s.31-.215.31-.477.329-.861.73-1.329l1.333-1.56c1.87-2.198 4.467-5.908 5.007-7.153.77-1.775 1.646-1.686 3.228.327l4.639 5.756c.518.599 1.57 1.926 2.338 2.948l1.397 1.859.245 5.572c.135 3.064.49 6.688.788 8.052 1.051 4.808 2.304 9.205 3.002 10.535.177.339.323.786.323.994 0 .598 2.136 5.15 4.856 10.348 1.338 2.558 2.821 1.853 9.5-4.517l6.283-5.846c.39-.292 2.323-2.062 4.295-3.934l5.853-5.492 4.544-4.283 2.276-2.194-.175-11.446c-.173-11.263-.395-14.494-1.261-18.355-.86-3.833-2.543-9.605-2.94-10.08-.155-.185-.282-.559-.282-.832 0-2.941-8.69-17.417-13.476-22.448-1.484-1.56-1.737-2.674-1.082-4.762 1.345-4.29 1.07-21.446-.46-28.663-.964-4.545-1.351-6.02-1.671-6.359-.174-.185-.317-.64-.317-1.01s-.218-1.175-.483-1.789l-1.13-2.711c-.355-.876-.855-1.846-1.111-2.153s-.465-.746-.465-.975-.148-.414-.33-.414-.443-.359-.579-.798-.347-.877-.467-.974-.85-.974-1.623-1.949-1.525-1.857-1.671-1.962-1.347-1.229-2.669-2.498c-2.696-2.588-5.99-5.134-7.984-6.171-.731-.379-1.329-.813-1.329-.964s-.227-.273-.506-.273-.727-.222-.998-.493c-.7-.699-9.383-4.822-10.157-4.822-.217 0-.671-.139-1.01-.308s-1.332-.642-2.209-1.05c-1.695-.788-5.018-2.597-5.315-2.893-.097-.098-.735-.476-1.417-.841-2.236-1.196-3.703-2.031-4.783-2.723-.584-.374-1.302-.79-1.594-.924s-1.089-.589-1.772-1.011c-1.219-.754-3.952-2.296-6.361-3.588-.673-.361-1.442-.856-1.708-1.099s-.712-.443-.99-.443-.507-.125-.507-.277-.438-.461-.974-.687-1.771-.896-2.746-1.49-2.01-1.191-2.303-1.327c-.534-.249-4.677-2.672-5.668-3.316a10.62 10.62 0 0 0-1.255-.662c-1.359-.595-1.69-1.63-2.668-8.362l-.865-5.491a240.66 240.66 0 0 1-.997-6.732c-.491-3.764-.955-4.885-2.109-5.096l-3.089-.589c-1.267-.245-2.782-.504-3.366-.577s-2.259-.362-3.72-.643c-8.04-1.545-15.123-1.979-20.018-1.226m2.464 7.642c2.015.773 2.519 28.261.566 30.781-.152.195-.372.76-.49 1.256-.399 1.677-3.152 5.463-5.833 8.019l-2.667 2.543 1.563 1.347c4.927 4.243 7.315 7.888 8.092 12.35.562 3.227.576 91.26.014 92.309-.587 1.097-2.626.931-3.507-.286l-4.77-6.643-4.989-6.909c-.509-.682-2.744-3.791-4.967-6.909l-12.799-17.831c-2.244-2.827-2.237-2.778-2.21-14.203.016-6.874-.111-10.824-.368-11.479-.215-.548-.391-1.562-.391-2.252 0-1.637-.876-5.479-2.207-9.682-3.38-10.677-9.378-18.047-18.136-22.286-3.489-1.689-3.927-2.152-3.927-4.155 0-2.521-1.108-1.854 25.864-15.546l7.794-3.957 3.458-4.567 9.034-12.159c7.652-10.415 8.092-10.809 10.876-9.741m10.33.052c.347.229 4.032 4.956 5.984 7.674.85 1.184 4.468 5.994 5.583 7.42.437.56 1.193 1.597 1.68 2.305.823 1.196 3.165 4.373 3.819 5.181a49.01 49.01 0 0 1 1.157 1.585c1.365 1.931 1.366 1.932 6.749 4.718l25.529 13.079c4.707 2.376 4.602 5.488-.266 7.854-11.965 5.816-17.73 14.826-21.11 32.995-.312 1.677-.465 5.921-.471 13.109-.008 8.748-.102 10.781-.534 11.492-.288.476-1.441 2.15-2.562 3.721l-2.54 3.564-3.43 4.783-4.538 6.378-1.893 2.657c-.36.451-7.61 10.503-11.756 16.3-3.472 4.854-4.669 5.577-6.026 3.639-.705-1.007-.849-87.584-.153-91.655.854-4.985 4.311-10.344 8.193-12.7 1.797-1.09 1.646-1.768-.901-4.044-4.157-3.716-6.369-7.702-7.325-13.199-.513-2.949-.484-24.111.034-25.114.966-1.869 3.298-2.72 4.777-1.742m-71.898 48.319c2.934 1.031 7.911 3.409 9.211 4.401.622.474 1.235.861 1.364.861.456 0 4.524 4.1 5.801 5.846 3.387 4.632 2.725 5.579-5.811 8.313-1.948.625-4.101 1.372-4.783 1.661l-1.948.816c-8.373 3.433-14.703 11.164-14.703 17.956 0 2.151-2.478 5.153-7.417 8.987l-3.359 2.657c-.215.195-1.905 1.628-3.754 3.185l-4.245 3.632c-3.342 3.034-6.25 1.259-7.306-4.459-4.328-23.436 3.426-41.919 21.652-51.615l2.834-1.555c2.665-1.772 8.466-2.091 12.464-.686m137.985-.783c7.642 1.251 19.099 10.23 24.404 19.125 1.405 2.356 1.939 3.456 3.196 6.584 2.365 5.883 3.297 18.651 1.924 26.367-1.799 10.12-3.429 10.683-11.328 3.914a387.33 387.33 0 0 0-8.453-7.002c-3.999-3.196-6.056-5.544-6.424-7.336l-.704-3.625c-1.693-8.846-7.509-13.578-22.506-18.314-4.893-1.545-6.612-2.761-6.204-4.391 1.902-7.575 17.495-16.731 26.095-15.322m-116.987 21.375c2.9 1.468 4.754 11.595 4.521 24.706-.21 11.845-.458 12.387-6.547 14.33l-12.666 4.134c-10.462 3.44-11.889 3.683-13.404 2.279l-.937-.869v-11.988c0-16.459 1.373-20.477 8.967-26.239 3.923-2.976 17.957-7.42 20.066-6.353m97.208 1.674c12.078 4.084 15.41 6.816 19.071 15.636.757 1.823.797 2.44.926 14.396l.135 12.492-1.06 1.06c-1.577 1.577-2.85 1.42-11.293-1.388l-12.497-4.113c-7.819-2.535-8.143-2.864-8.811-8.952-1.264-11.509.971-28.077 4.121-30.555 1.355-1.066 2.602-.877 9.408 1.424m-128.826 29.344c.303.384.402 1.102.276 2.014-.675 4.912-.576 23.49.151 28.236 1.681 10.977-2.94 21.019-15.336 33.326-6.384 6.337-8.854 7.417-10.66 4.661-.712-1.087-.416-2.377 1.621-7.056 2.899-6.66 4.561-13.659 4.577-19.277.036-12.564 4.111-25.596 11.264-36.022 4.434-6.463 6.478-7.946 8.107-5.882m154.971.105c9.417 9.633 14.847 24.323 15.731 42.558.302 6.223 1.3 10.154 4.927 19.404 2.115 5.392 2.09 6.607-.154 7.389-1.965.685-3.685-.449-9.587-6.318-10.795-10.734-16.745-22.505-15.379-30.423 1.301-7.544 1.509-16.699.657-28.972-.319-4.596 1.329-6.171 3.805-3.638m-171.052 8.167c1.975 1.052 2.027 1.762.378 5.189-.705 1.466-1.41 3.077-1.568 3.581s-.624 1.792-1.038 2.864c-2.129 5.52-3.241 9.655-4.474 16.646-.327 1.848-.718 3.602-.87 3.897s-.626 1.255-1.053 2.132-.879 1.674-1.004 1.771c-1.586 1.233-4.235 5.872-5.159 9.035-3.143 10.763-11.859 18.119-13.601 11.479-.836-3.188-.272-15.203.979-20.868.747-3.38 3.668-11.522 4.64-12.932.134-.195.768-1.311 1.408-2.48 4.143-7.563 16.313-19.868 20.476-20.704.062-.012.46.163.886.39m187.83 1.63c6.873 5.06 13.467 12.124 16.496 17.672l1.459 2.579c4.733 8.059 7.627 23.153 6.345 33.099-.56 4.343-3.362 5.607-6.208 2.801-3.036-2.994-7.274-9.752-7.274-11.6 0-1.221-2.268-5.798-4.039-8.151-2.76-3.667-4.818-8.676-4.818-11.726 0-1.864-2.603-11.631-3.554-13.337-.189-.338-.343-.792-.343-1.009s-.251-.976-.558-1.688l-1.007-2.356a139.74 139.74 0 0 0-1.391-3.108c-1.098-2.386-1.182-3.482-.322-4.231 1.434-1.249 2.331-1.068 5.214 1.055m-135.032.77c1.261.48 4.845 4.799 8.744 10.537.544.801 4.631 6.443 8.681 11.983 14.432 19.744 14.473 19.839 10.291 23.675-.462.424-2.803 2.924-5.203 5.554l-21.547 23.409c-.305.306-1.737 1.861-3.182 3.454-3.302 3.642-4.278 3.763-4.81.595-.597-3.551-2.222-7.602-5.116-12.755-1.089-1.939-2.169-3.65-6.595-10.451-8.86-13.611-12.04-21.664-13.453-34.069-1.418-12.452-.818-13.88 6.579-15.665 4.081-.984 10.63-2.941 17.165-5.129 4.27-1.43 6.787-1.769 8.446-1.138m83.398.174c1.641.621 9.898 3.299 12.319 3.994l2.835.817c.584.169 2.696.7 4.691 1.181 7.616 1.834 8.367 3.424 7.003 14.844-1.774 14.856-3.959 20.067-16.755 39.951-4.789 7.443-7.4 12.841-8.231 17.019-1.076 5.41-.467 5.81-14.871-9.756l-9.417-10.097-3.039-3.228c-.459-.509-2.667-2.876-4.908-5.26-7.004-7.452-7.129-6.36 2.228-19.474 19.792-27.738 20.811-29.107 22.213-29.846 1.481-.782 4.085-.845 5.932-.145m-46.809 47.156c.71 1.084.798 84.672.09 86.001-1.361 2.556-4.088 1.984-7.963-1.671-.81-.765-2.529-2.203-4.927-4.124-6.876-5.506-11.465-7.36-20.011-8.086-7.164-.608-7.674-1.575-8.52-16.151-1.015-17.51-1.281-15.897 3.436-20.845l6.678-7.112 5.137-5.502 3.332-3.588 6.583-7.063 8.006-8.64c4.536-4.979 6.498-5.753 8.159-3.219m8.844-.941c.209.123 1.724 1.664 3.366 3.425l7.237 7.752 5.092 5.478 4.429 4.792 3.944 4.251 9.427 10.008c4.81 5.039 4.723 4.411 3.531 25.477-.547 9.668-2.075 11.847-8.309 11.848-3.762.001-9.205 1.486-13.331 3.638-3.045 1.588-4.373 2.557-10.973 8.008-5.699 4.707-7.234 5.042-8.826 1.929-.517-1.012-.566-83.586-.05-84.943.662-1.741 2.904-2.577 4.463-1.663m-59.92 23.518l.697 3.1 1.098 4.96.925 4.074c.192.78.495 2.295.673 3.366s.565 3.224.862 4.783c1.163 6.111 2.556 15.071 3.003 19.309l.558 4.783c.62 4.57-8.6 7.271-11.919 3.491-2.093-2.384-2.95-18.879-1.304-25.103.206-.779.5-2.294.654-3.365s.541-3.384.862-5.138l1.979-11.514c.54-3.348 1.487-4.709 1.912-2.746m108.243-.112c.202.377.367 1.091.367 1.587s.246 2.221.548 3.832l2.123 11.965c.308 1.851.702 3.924.876 4.606 1.563 6.124 1.589 12.03.092 21.435-.869 5.46-1.859 6.346-6.701 5.995-7.357-.533-7.506-1.444-3.856-23.533l.869-5.315a70.17 70.17 0 0 1 .672-3.543c.197-.876.622-2.949.946-4.605s.739-3.57.925-4.252.493-1.997.682-2.923c1.329-6.502 1.543-6.958 2.457-5.249" fill="#49516d"/><path d="M150.24 114.446c-8.864 3.022-10.062 3.675-13.944 7.602-5.311 5.372-5.915 7.751-5.915 23.305v11.988l.937.869c1.515 1.404 2.942 1.161 13.404-2.279l12.666-4.134c3.56-1.136 5.385-2.46 5.978-4.337.829-2.624.823-18.095-.009-22.925-2.345-13.62-2.472-13.717-13.117-10.089m96.974-1.435c-3.15 2.478-5.385 19.046-4.121 30.555.668 6.088.992 6.417 8.811 8.952l12.497 4.113c8.443 2.808 9.716 2.965 11.293 1.388l1.06-1.06-.135-12.492c-.129-11.956-.169-12.573-.926-14.396-3.661-8.82-6.993-11.552-19.071-15.636-6.806-2.301-8.053-2.49-9.408-1.424m-91.147 42.578c-6.535 2.188-13.084 4.145-17.165 5.129-7.397 1.785-7.997 3.213-6.579 15.665 1.413 12.405 4.593 20.458 13.453 34.069l6.595 10.451c2.894 5.153 4.519 9.204 5.116 12.755.532 3.168 1.508 3.047 4.81-.595l3.182-3.454c.696-.699 15.713-17.014 21.547-23.409l5.203-5.554c4.182-3.836 4.141-3.931-10.291-23.675l-8.681-11.983c-1.375-2.024-6.38-8.659-7.08-9.385-1.862-1.933-4.367-1.937-10.11-.014m85.912-.819c-1.402.739-2.421 2.108-22.213 29.846-9.357 13.114-9.232 12.022-2.228 19.474l4.908 5.26c.459.508 1.827 1.961 3.039 3.228l9.417 10.097c14.404 15.566 13.795 15.166 14.871 9.756.831-4.178 3.442-9.576 8.231-17.019 12.796-19.884 14.981-25.095 16.755-39.951 1.364-11.42.613-13.01-7.003-14.844l-4.691-1.181-2.835-.817c-2.421-.695-10.678-3.373-12.319-3.994-1.847-.7-4.451-.637-5.932.145" fill="#f7064d"/><path d="M196.811 35.451l-4.606.677c-14.32 2.656-14.319 2.656-14.341 4.907-.004.452-.238 2.126-.52 3.72l-1.094 6.618-.889 5.314c-.168.877-.413 2.472-.544 3.543-.366 3.003-.596 3.322-3.746 5.176l-3.659 2.162c-.394.236-.955.545-1.247.686s-1.701.944-3.13 1.785-2.661 1.529-2.739 1.529-1.184.637-2.457 1.417-2.387 1.417-2.474 1.417-1.559.847-3.271 1.882-3.352 1.993-3.644 2.129-1.09.585-1.772.998c-1.597.968-7.01 3.995-9.743 5.447-1.169.622-3.162 1.502-4.428 1.958-19.755 7.099-31.445 20.676-34.543 40.118-1.391 8.723-1.548 20.969-.357 27.76.173.989-.02 1.311-1.808 3.012-4.012 3.817-5.717 5.778-7.966 9.167-1.697 2.557-3.908 6.773-5.111 9.743l-.872 2.126c-.696 1.653-1.835 6.112-2.897 11.338-.28 1.383-.479 7.112-.567 16.402l-.137 14.277 1.356 1.313c1.715 1.658 4.896 4.55 8.262 7.512l3.918 3.543a57.74 57.74 0 0 0 2.367 2.125c.587.488 2.641 2.338 4.564 4.112 11.991 11.056 12.128 11.127 14.433 7.482 5.496-8.692 8.764-19.577 9.321-31.044.215-4.439.291-4.818 1.159-5.846.511-.604 1.36-1.683 1.886-2.397s1.162-1.511 1.411-1.771 1.007-1.191 1.684-2.068c3.272-4.241 3.188-4.229 5.504-.81a74.81 74.81 0 0 0 3.265 4.353c2.43 2.983 2.22 2.663 3.498 5.318 2.207 4.581 2.987 11.111 1.895 15.847-.191.826-.503 2.5-.693 3.72l-1.969 11.608c-1.52 8.641-1.595 9.587-1.386 17.36l.292 11.692c.066 3.095.229 4.29.677 4.973.794 1.209 7.328 4.661 16.02 8.462l2.48 1.091c2.12.944 4.18 1.777 6.555 2.65l3.365 1.271c.939.39 6.89 2.247 9.566 2.985l3.85 1.091c.948.278 1.984.506 2.303.505s1.615.224 2.882.5c9.533 2.072 21.221 2.441 29.021.916l4.814-.906c1.754-.323 4.703-.987 6.555-1.475l4.428-1.156c2.821-.714 13.7-4.559 17.025-6.018l2.816-1.232a184.91 184.91 0 0 0 10.858-5.084c6.635-3.313 6.48-3.134 6.592-7.635l.457-11.797c.236-5.277.247-8.751.029-9.743-.329-1.497-.848-4.455-1.48-8.45l-1.959-11.515c-1.817-10.294-1.525-14.582 1.366-20.018 1-1.881 3.261-5.102 4.594-6.544.355-.385 1.233-1.58 1.952-2.658 2.459-3.686 1.97-3.788 5.983 1.252l3.366 4.215 2.254 2.819.222 5.153c.348 8.067 1.692 14.4 4.441 20.918l.802 1.949c.821 2.081 3.851 7.805 4.514 8.526 1.976 2.149 2.739 1.775 9.552-4.682l9.373-8.762a614.47 614.47 0 0 0 12.64-11.874l1.93-1.911-.158-12.615c-.103-8.177-.313-13.3-.597-14.563L327 188.485c-1.441-6.525-6.824-19.67-8.85-21.612-.102-.097-.892-1.274-1.755-2.615s-1.737-2.617-1.941-2.835-1.005-1.193-1.781-2.167-1.623-1.993-1.884-2.264c-1.449-1.504-1.507-1.856-.884-5.371 1.766-9.974.317-27.862-2.984-36.829-4.086-11.101-14.316-20.597-28.976-26.899-.974-.418-2.048-.915-2.387-1.103s-.826-.342-1.084-.342c-.422 0-4.599-1.999-5.918-2.832-1.606-1.016-5.35-3.191-5.491-3.191-.091 0-1.244-.661-2.563-1.468s-3.274-1.946-4.346-2.528l-6.043-3.38-8.729-5.009c-8.702-4.964-7.806-3.564-9.31-14.541a150 150 0 0 0-.685-4.429l-.934-5.62c-.76-4.71-.952-4.87-7.071-5.904l-4.961-.862c-8.83-1.561-15.431-1.937-21.612-1.233m18.601 1.156l11.102 1.975c2.536.436 2.945 1.044 3.606 5.351l.906 5.846.848 5.491c1.394 9.169.92 8.203 5.29 10.775l9.641 5.523c.063 0 1.56.877 3.328 1.948s3.307 1.949 3.422 1.949 1.39.717 2.834 1.594 2.695 1.595 2.779 1.595 1.598.877 3.365 1.948 3.282 1.949 3.366 1.949 1.369.739 2.857 1.642 3.939 2.084 5.447 2.623c7.409 2.648 15.005 7.083 21.603 12.613 1.375 1.153 6.763 7.228 6.763 7.626 0 .143.454.947 1.008 1.785 4.812 7.267 8.067 26.568 6.445 38.222l-.77 5.501-.405 2.872 2.566 2.97c6.434 7.445 11.71 17.428 14.493 27.423 2.006 7.206 2.526 12.286 2.526 24.669v10.164l-4.317 4.018-8.243 7.739-7.816 7.263-6.615 6.112c-3.118 2.939-4.278 3.271-5.778 1.653-1.317-1.422-4.924-9.081-6.492-13.788-1.292-3.878-1.636-5.231-2.572-10.097-.169-.877-.417-4.036-.55-7.021l-.244-5.426-1.804-2.214-3.044-3.763-3.074-3.798-1.834-2.251-.561.81c-.308.446-1.794 2.465-3.303 4.488-4.816 6.456-5.339 7.26-6.273 9.639-2.138 5.448-2.268 8.463-.727 16.976l2.15 12.489 1.063 6.03c.831 4.462.364 26.653-.593 28.185-.689 1.103-14.168 7.581-22.463 10.796-28.847 11.181-49.313 11.972-75.28 2.909-4.445-1.552-9.097-3.286-10.436-3.89l-3.027-1.355-3.72-1.66c-3.043-1.36-9.966-4.874-11.455-5.814-1.736-1.095-1.676-.702-2.209-14.563l-.382-9.921.932-5.491c3.889-22.909 3.966-23.436 3.877-26.75-.15-5.573-1.847-9.858-5.868-14.816-1.293-1.594-3.05-3.922-3.904-5.174-2.094-3.068-1.785-3.196-6.529 2.707l-4.659 5.705c-.278.289-.451 1.443-.453 3.012-.012 9.504-2.737 20.303-7.491 29.68-3.362 6.632-3.879 6.759-8.889 2.186l-4.084-3.636c-.589-.487-2.541-2.239-4.339-3.893l-3.884-3.543c-4.5-3.921-14.511-13.25-14.674-13.676-.367-.956-.235-24.389.154-27.313 1.952-14.671 6.955-25.433 15.826-34.038l3.378-3.277-.397-2.672c-1.986-13.347.62-32.521 5.872-43.209 4.238-8.625 15.716-17.657 28.861-22.709 3.208-1.233 4.499-1.914 14.271-7.52l5.669-3.241 14.548-8.342 4.961-2.836c2.397-1.314 3.011-1.903 3.011-2.885 0-.458.482-3.821 1.072-7.474l1.62-10.184c.964-6.226.201-5.623 9.177-7.257 11.924-2.171 20.396-2.454 28.521-.954m-18.057 7.781c-.481.242-1.729 1.554-2.773 2.915l-2.581 3.275c-.375.44-.681.945-.681 1.122s-.129.376-.287.441c-.257.106-.875.921-3.53 4.654-.442.623-1.118 1.531-1.501 2.018s-1.584 2.082-2.671 3.543l-2.412 3.197c-.241.296-.981 1.333-1.645 2.303-1.614 2.359-1.947 2.666-4.046 3.738l-25.184 12.894c-8.349 4.281-8.922 6.075-2.834 8.884 14.834 6.844 23.044 25.919 21.355 49.616-.469 6.569-.299 7.185 3.331 12.101 1.33 1.8 2.418 3.353 2.418 3.45s.231.458.514.802c1.456 1.766 6.571 9.017 6.571 9.314 0 .189.12.345.266.347s.664.599 1.151 1.328 1.045 1.509 1.24 1.732c.464.53 6.626 9.188 7.087 9.956.194.325.513.778.708 1.006s.594.768.886 1.199.771 1.092 1.063 1.467 1.488 2.036 2.657 3.691c2.143 3.032 3.459 3.98 4.11 2.961.179-.28.277-20.316.228-46.726l-.086-46.236-1.029-2.48c-.979-2.36-3.591-6.218-4.61-6.81-3.05-1.77-4.566-3.967-3.307-4.791 2.89-1.895 6.572-6.677 8.145-10.578 1.112-2.759 1.442-28.853.377-29.789-.965-.848-1.96-1.032-2.93-.544m9.83.153c-1.359.855-1.435 1.783-1.253 15.394.166 12.47.187 12.643 2.035 16.771.921 2.059 3.574 5.41 5.835 7.373 2.521 2.188 2.483 2.483-.648 5.097-2.76 2.303-5.198 5.631-6.436 8.787-.818 2.085-1.315 92.576-.517 94.067.625 1.167 3.542-.166 3.542-1.618 0-.113.199-.425.443-.694s2.009-2.688 3.923-5.377l8.503-11.856 5.555-7.74c.292-.426 2.478-3.46 4.858-6.743 5.804-8.007 5.386-6.556 5.375-18.681-.005-6.007.153-11.052.385-12.306l.75-4.251c.362-2.17.517-2.782 1.568-6.201 3.368-10.956 9.79-18.92 18.696-23.186 5.189-2.485 5.204-4.805.048-7.372l-8.474-4.335-13.818-7.076-7.794-3.96-9.254-12.497c-11.337-15.312-11.055-15.023-13.322-13.596M128.787 92.44c-7.282 2.487-16.496 9.608-20.668 15.975-2.055 3.136-2.591 4.127-4.118 7.617-3.267 7.466-3.993 20.356-1.726 30.646 1.133 5.141 3.441 5.912 7.259 2.425 1.438-1.313 2.016-1.807 5.093-4.346 1.162-.96 2.273-1.922 2.468-2.139s1.39-1.183 2.657-2.148c3.874-2.952 4.162-3.204 5.527-4.833.842-1.005 1.913-3.896 1.913-5.164 0-3.709 3.79-9.953 7.939-13.08 1.966-1.482 8.866-5.081 9.742-5.081.2 0 .888-.223 1.528-.496s2.518-.927 4.175-1.453c5.73-1.821 6.222-2.339 4.858-5.113-2.194-4.463-7.363-8.356-16.019-12.064-3.56-1.526-7.529-1.804-10.628-.746m140.301.254l-3.136 1.086c-1.066.341-6.029 2.963-6.635 3.506-.308.275-.708.5-.889.5-.627 0-6.091 5.897-6.858 7.402-1.505 2.949-.929 3.419 7.42 6.07 2.046.649 3.88 1.282 4.075 1.407s1.35.611 2.568 1.082 2.215.978 2.215 1.127.201.272.447.272c.641 0 4.068 2.363 5.866 4.045 3.098 2.897 5.733 8.159 5.733 11.449 0 2.743 2.261 5.978 6.377 9.124 1.267.968 2.479 1.923 2.693 2.123s1.092.942 1.949 1.65l5.094 4.323c4.276 4.277 7.518 4.349 8.379.185 4.803-23.21-.951-40.053-17.426-51.009-7.652-5.088-12.453-6.254-17.872-4.342m-144.582 51.599c-.921.987-5.593 7.334-5.929 8.054-.137.293-.589 1.09-1.006 1.772-1.212 1.982-2.689 5.049-4.173 8.665-.426 1.04-1.528 4.351-2.126 6.392-1.127 3.845-1.864 9.587-2.342 18.246-.333 6.029-2.395 13.863-4.779 18.153-.188.339-.343.817-.345 1.063s-.234.893-.518 1.437c-2.159 4.14.389 6.223 4.193 3.427 1.447-1.064 7.172-6.533 8.557-8.175 9.718-11.522 13.527-20.809 11.68-28.482-.709-2.948-1.022-15.158-.598-23.384.414-8.045-.207-9.749-2.614-7.168m155.297-.36c-.083.243-.08 6.182.005 13.197.111 9.093.029 13.569-.284 15.589-1.353 8.731-.675 12.151 4.069 20.549 4.148 7.342 15.792 19.664 18.581 19.664 2.312 0 2.67-1.983 1.075-5.959l-1.637-4.139-.82-2.125c-2.048-5.29-2.892-10.268-3.382-19.953-.295-5.824-1.798-12.947-3.715-17.603l-.947-2.303c-2.968-7.226-9.964-17.36-11.984-17.36-.446 0-.879.199-.961.443M106.58 155.054c-7.036 5.207-14.265 13.802-17.392 20.677-4.28 9.413-5.543 15.299-5.563 25.929-.014 7.755.692 9.669 3.32 9.009 2.684-.673 8.069-8.517 9.272-13.503.486-2.012 1.891-4.795 3.445-6.824 3.152-4.115 4.226-6.41 4.847-10.36.893-5.679 1.834-9.52 3.419-13.956l1.273-3.581c.205-.585.511-1.215.679-1.4s.306-.54.306-.789.558-1.645 1.24-3.102c1.449-3.095 1.459-3.171.531-4.098-1.064-1.065-1.416-.934-5.377 1.998m188.422-2.176c-.763.763-.735 1.723.101 3.505 1.726 3.675 2.525 5.661 3.939 9.782.835 2.436 1.663 5.066 1.839 5.846.667 2.943 1.357 6.456 1.701 8.66.41 2.617 2.275 6.745 3.859 8.539.594.673 1.173 1.503 1.285 1.844s.335.62.494.62.383.279.497.62a6.74 6.74 0 0 0 .537 1.152c.418.676 1.203 2.779 2.045 5.478 1.734 5.559 7.25 12.242 9.666 11.711 2.219-.488 2.319-.882 2.315-9.16-.006-13.04-4.317-26.935-10.593-34.146a22.09 22.09 0 0 1-.73-.892c-6.164-8.017-15.239-15.275-16.955-13.559m-98.436 49.02c-.389.552-3.659 4.079-10.206 11.009l-3.366 3.615-19.33 20.709c-3.882 4.065-4.049 4.537-3.742 10.58l.736 14.722c.193 3.978.743 7.348 1.32 8.08 1.572 1.992 3.974 2.903 7.653 2.903 2.413 0 5.948.64 7.694 1.393a195.81 195.81 0 0 0 2.657 1.095c3.018 1.223 12.961 8.386 15.235 10.975 1.47 1.674 3.507 2.183 4.881 1.221l.788-.552v-42.647c0-47.557.215-43.761-2.486-43.761-.933 0-1.519.21-1.834.658m9.943-.072c-.604.727-.922 84.072-.327 85.637.784 2.062 2.802 1.69 6.335-1.166l6.047-4.986c4.882-4.467 12.82-7.758 18.865-7.822 7.328-.077 8.555-1.982 8.994-13.967.115-3.118.355-7.104.536-8.858.796-7.748.443-9.204-3.1-12.805-1.129-1.147-3.965-4.156-6.303-6.686l-9.212-9.901-3.344-3.587-4.783-5.121-6.709-7.174c-4.118-4.436-5.635-5.208-6.999-3.564m-57.223 23.899c-.218.271-.836 3.124-1.372 6.339l-1.455 8.503-.845 4.96c-.201 1.267-.512 2.781-.689 3.366-.529 1.736-.762 8.606-.415 12.223 1.158 12.086 1.473 12.551 7.955 11.753 4.367-.538 4.697-.882 4.571-4.766-.085-2.634-.293-4.32-1.539-12.479-.737-4.827-2.154-12.846-2.973-16.829l-1.052-5.137c-.319-1.559-.737-3.392-.93-4.074s-.465-1.941-.605-2.797c-.2-1.227-.338-1.452-.651-1.062m107.755.885l-.531 2.442c-1.649 7.425-3.146 15.012-4.057 20.549l-.941 5.492c-.434 2.362-.878 5.877-1.447 11.437l-.426 4.173.914.915c1.161 1.161 6.165 1.913 8.351 1.256 1.791-.539 2.255-1.428 2.809-5.381 1.191-8.493 1.321-14.575.391-18.246-.198-.779-.49-2.214-.65-3.189l-1.979-11.337-.971-5.593c-.52-3.118-1.118-4.149-1.463-2.518" fill="#9babcb"/><path d="M0 177.148v177.148h200 200V177.148 0H200 0v177.148M211.515 35.609l6.908 1.075 4.961.862c6.119 1.034 6.311 1.194 7.071 5.904l.934 5.62.685 4.429c1.504 10.977.608 9.577 9.31 14.541l8.729 5.009c1.716 1.009 2.914 1.679 6.043 3.38 1.072.582 3.027 1.72 4.346 2.528s2.472 1.468 2.563 1.468c.141 0 3.885 2.175 5.491 3.191 1.319.833 5.496 2.832 5.918 2.832.258 0 .746.154 1.084.342s1.413.685 2.387 1.103c10.373 4.459 18.381 10.347 23.721 17.442 7.379 9.803 11.048 30.419 8.239 46.286-.623 3.515-.565 3.867.884 5.371.261.271 1.109 1.289 1.884 2.264s1.577 1.949 1.781 2.167 1.077 1.494 1.941 2.835 1.653 2.518 1.755 2.615c2.026 1.942 7.409 15.087 8.85 21.612l1.104 4.961c.284 1.263.494 6.386.597 14.563l.158 12.615-1.93 1.911a614.47 614.47 0 0 1-12.64 11.874c-2.365 2.13-3.203 2.914-9.373 8.762-6.813 6.457-7.576 6.831-9.552 4.682-.663-.721-3.693-6.445-4.514-8.526l-.802-1.949c-2.749-6.518-4.093-12.851-4.441-20.918l-.222-5.153-2.254-2.819-3.366-4.215c-4.013-5.04-3.524-4.938-5.983-1.252-.719 1.078-1.597 2.273-1.952 2.658-1.333 1.442-3.594 4.663-4.594 6.544-2.891 5.436-3.183 9.724-1.366 20.018l1.959 11.515c.632 3.995 1.151 6.953 1.48 8.45.218.992.207 4.466-.029 9.743l-.457 11.797c-.112 4.501.043 4.322-6.592 7.635a184.91 184.91 0 0 1-10.858 5.084l-2.816 1.232c-3.325 1.459-14.204 5.304-17.025 6.018l-4.428 1.156c-1.852.488-4.801 1.152-6.555 1.475l-4.814.906c-7.8 1.525-19.488 1.156-29.021-.916-1.267-.276-2.564-.5-2.882-.5s-1.355-.227-2.303-.505l-3.85-1.091c-2.676-.738-8.627-2.595-9.566-2.985-.389-.162-1.904-.734-3.365-1.271-2.375-.873-4.435-1.706-6.555-2.65l-2.48-1.091c-8.692-3.801-15.226-7.253-16.02-8.462-.448-.683-.611-1.878-.677-4.973l-.292-11.692c-.209-7.773-.134-8.719 1.386-17.36l1.969-11.608c.19-1.22.502-2.894.693-3.72 1.092-4.736.312-11.266-1.895-15.847-1.278-2.655-1.068-2.335-3.498-5.318a74.81 74.81 0 0 1-3.265-4.353c-2.316-3.419-2.232-3.431-5.504.81-.677.877-1.434 1.808-1.684 2.068s-.884 1.058-1.411 1.771-1.375 1.793-1.886 2.397c-.868 1.028-.944 1.407-1.159 5.846-.557 11.467-3.825 22.352-9.321 31.044-2.305 3.645-2.442 3.574-14.433-7.482l-4.564-4.112a57.74 57.74 0 0 1-2.367-2.125c-.715-.682-2.479-2.277-3.918-3.543-3.366-2.962-6.547-5.854-8.262-7.512l-1.356-1.313.137-14.277c.088-9.29.287-15.019.567-16.402 1.062-5.226 2.201-9.685 2.897-11.338l.872-2.126c3.072-7.59 6.716-12.859 13.077-18.91 1.788-1.701 1.981-2.023 1.808-3.012-1.444-8.237-.939-22.388 1.127-31.576 2.577-11.454 6.286-17.868 14.641-25.319 3.651-3.256 13.728-9.041 19.132-10.983 1.266-.456 3.259-1.336 4.428-1.958 2.733-1.452 8.146-4.479 9.743-5.447.682-.413 1.48-.862 1.772-.998s1.932-1.094 3.644-2.129 3.184-1.882 3.271-1.882 1.2-.638 2.474-1.417 2.379-1.417 2.457-1.417 1.311-.688 2.739-1.529l3.13-1.785c.292-.141.853-.45 1.247-.686l3.659-2.162c3.15-1.854 3.38-2.173 3.746-5.176.131-1.071.376-2.666.544-3.543s.569-3.268.889-5.314l1.094-6.618c.282-1.594.516-3.268.52-3.72.022-2.251.021-2.251 14.341-4.907 5.959-1.105 13.554-1.309 19.31-.519" fill="#14181D"/><path d="M193.977 36.349l-2.126.474 1.949-.187 3.72-.47 1.771-.282-1.594-.005c-.877-.002-2.551.209-3.72.47m17.006-.028c1.364.259 3.038.465 3.72.46.737-.006.162-.2-1.417-.477-1.461-.256-3.135-.463-3.72-.459s.053.218 1.417.476m-23.206 1.094c-1.941.467-1.942.469-.355.331 2.236-.193 4.845-.821 3.366-.81-.584.005-1.939.22-3.011.479m29.938-.042c.974.288 2.329.506 3.011.485l1.24-.037-1.417-.262-3.011-.486-1.595-.223 1.772.523m-35.607 1.113l-1.949.478 2.005-.172c1.102-.095 2.377-.322 2.834-.505l.83-.332-.886.026c-.487.015-1.762.242-2.834.505m41.63-.05c.974.288 2.259.526 2.855.53 1.182.007 1.981.502 2.582 1.601.298.545.39.578.398.143.026-1.348-1.345-1.935-6.012-2.577l-1.595-.22 1.772.523m-44.987 1.582c-.297.575-.53 1.412-.516 1.86.015.529.194.267.51-.746.267-.858.695-1.692.95-1.854.341-.216.349-.296.031-.3-.239-.003-.677.465-.975 1.04m50.922 2.675c.004.779.077 1.056.161.616s.082-1.079-.007-1.418-.158.022-.154.802m-52.119 3.122c-.264 1.717-.409 3.193-.323 3.279.256.256 1.067-4.554.929-5.516-.069-.487-.342.52-.606 2.237m18.236-1.052c-.607.652-3.614 4.601-6.682 8.776l-9.034 12.159-3.458 4.567-7.794 3.957c-26.972 13.692-25.864 13.025-25.864 15.546 0 2.003.438 2.466 3.927 4.155 8.758 4.239 14.756 11.609 18.136 22.286 1.331 4.203 2.207 8.045 2.207 9.682 0 .69.176 1.704.391 2.252.257.655.384 4.605.368 11.479-.027 11.425-.034 11.376 2.21 14.203.705.889 2.975 4.052 12.799 17.831l4.967 6.909 4.989 6.909 4.77 6.643c.881 1.217 2.92 1.383 3.507.286.562-1.049.548-89.082-.014-92.309-.777-4.462-3.165-8.107-8.092-12.35l-1.563-1.347 2.667-2.543c2.681-2.556 5.434-6.342 5.833-8.019.118-.496.338-1.061.49-1.256 1.143-1.475 1.616-27.451.537-29.537-1.007-1.947-3.614-2.084-5.297-.279m10.688-.565c-1.28 1.468-1.341 2.068-1.341 13.287 0 16.799 1.081 20.511 7.691 26.42 2.547 2.276 2.698 2.954.901 4.044-3.882 2.356-7.339 7.715-8.193 12.7-.696 4.071-.552 90.648.153 91.655 1.357 1.938 2.554 1.215 6.026-3.639l11.756-16.3c.156-.195 1.008-1.391 1.893-2.657l4.538-6.378 3.43-4.783 2.54-3.564c1.121-1.571 2.274-3.245 2.562-3.721.432-.711.526-2.744.534-11.492.006-7.188.159-11.432.471-13.109 3.38-18.169 9.145-27.179 21.11-32.995 4.868-2.366 4.973-5.478.266-7.854l-25.529-13.079c-5.383-2.786-5.384-2.787-6.749-4.718l-1.157-1.585c-.654-.808-2.996-3.985-3.819-5.181-.487-.708-1.243-1.745-1.68-2.305-1.115-1.426-4.733-6.236-5.583-7.42-1.952-2.718-5.637-7.445-5.984-7.674-.781-.517-3.28-.289-3.836.348m-6.193.734c1.065.936.735 27.03-.377 29.789-1.573 3.901-5.255 8.683-8.145 10.578-1.259.824.257 3.021 3.307 4.791 1.019.592 3.631 4.45 4.61 6.81l1.029 2.48.086 46.236-.228 46.726c-.651 1.019-1.967.071-4.11-2.961l-2.657-3.691c-.292-.375-.771-1.035-1.063-1.467s-.691-.971-.886-1.199-.514-.681-.708-1.006c-.461-.768-6.623-9.426-7.087-9.956-.195-.223-.753-1.002-1.24-1.732s-1.005-1.327-1.151-1.328-.266-.158-.266-.347c0-.297-5.115-7.548-6.571-9.314-.283-.344-.514-.704-.514-.802s-1.088-1.65-2.418-3.45c-3.63-4.916-3.8-5.532-3.331-12.101 1.689-23.697-6.521-42.772-21.355-49.616-6.088-2.809-5.515-4.603 2.834-8.884l25.184-12.894c2.099-1.072 2.432-1.379 4.046-3.738.664-.97 1.404-2.007 1.645-2.303s1.326-1.735 2.412-3.197l2.671-3.543c.383-.487 1.059-1.395 1.501-2.018 2.655-3.733 3.273-4.548 3.53-4.654.158-.065.287-.263.287-.441s.306-.682.681-1.122 1.536-1.913 2.581-3.275c2.602-3.392 3.918-3.939 5.703-2.371m10.302.054c.367.36 4.831 6.278 9.92 13.151l9.254 12.497 7.794 3.96 13.818 7.076 8.474 4.335c5.156 2.567 5.141 4.887-.048 7.372-8.906 4.266-15.328 12.23-18.696 23.186-1.051 3.419-1.206 4.031-1.568 6.201l-.75 4.251c-.232 1.254-.39 6.299-.385 12.306.011 12.125.429 10.674-5.375 18.681l-4.858 6.743c-.293.426-2.792 3.909-5.555 7.74l-8.503 11.856-3.923 5.377c-.244.269-.443.581-.443.694 0 1.452-2.917 2.785-3.542 1.618-.798-1.491-.301-91.982.517-94.067 1.238-3.156 3.676-6.484 6.436-8.787 3.131-2.614 3.169-2.909.648-5.097-3.416-2.965-5.532-6.116-7.092-10.563-.655-1.867-1.227-23.448-.712-26.88.374-2.5 2.825-3.381 4.589-1.65m19.513.895c.179 2.334 1.199 8.743 1.429 8.973.416.415.086-2.108-1.056-8.087-.398-2.079-.479-2.272-.373-.886m-54.106 9.743c-.538 3.411-.976 6.535-.975 6.943.004.892-.659 1.506-3.008 2.793-3.12 1.708-7.235 4.228-7.109 4.354.1.101 1.995-.963 5.514-3.094.293-.177 1.379-.762 2.413-1.299 2.509-1.302 2.201-.561 3.22-7.748.221-1.559.571-3.482.778-4.273s.324-1.988.26-2.658c-.068-.708-.525 1.375-1.093 4.982m55.778.709c-.017.682.198 2.197.478 3.366.505 2.104.508 2.108.295.354-.454-3.741-.737-5.106-.773-3.72m1.041 6.423c-.047 1.081.781 1.874 3.148 3.018.292.141 1.545.873 2.785 1.628s2.323 1.302 2.408 1.217-1.5-1.123-3.524-2.305c-3.865-2.26-4.319-2.633-4.601-3.781-.138-.562-.183-.516-.216.223m9.026 6.288c.44.486 3.036 2.001 4.485 2.619.536.228.974.539.974.691s.228.277.507.277.724.199.99.443 1.035.738 1.708 1.099c2.6 1.395 5.177 2.856 6.484 3.676.749.471 1.432.786 1.517.7.151-.151-4.578-3.084-4.972-3.084-.109 0-1.197-.611-2.419-1.358-4.131-2.526-9.76-5.599-9.274-5.063m-79.862 2.032c-1.231.698-2.163 1.345-2.071 1.437s.818-.241 1.612-.743 1.587-.911 1.762-.911.516-.239.759-.531c.613-.739.472-.688-2.062.748m-5.207 3.005l-3.891 2.247-6.023 3.439c-9.767 5.603-11.079 6.297-14.172 7.491-3.808 1.469-7.346 3.123-7.135 3.334.083.083 1.165-.321 2.403-.898 2.822-1.316 4.26-1.922 6.503-2.738 1.612-.586 3.084-1.34 4.974-2.546a16.65 16.65 0 0 1 1.404-.787c.389-.189 1.505-.824 2.48-1.412s2.01-1.18 2.303-1.317 1.932-1.095 3.644-2.13 3.206-1.882 3.321-1.882 1.39-.717 2.834-1.594 2.76-1.594 2.924-1.594.497-.24.74-.532c.639-.77.433-.688-2.309.919m102.411 4.949c.128.207.576.528.995.714s1.56.82 2.534 1.408 2.17 1.259 2.658 1.492.965.507 1.062.608c.284.296 3.577 2.093 5.315 2.901l2.209 1.05c.339.169.776.308.972.308.477 0 2.727.955 5.993 2.545 1.475.718 2.749 1.239 2.83 1.158.222-.222-6.412-3.278-9.546-4.398-1.508-.539-3.959-1.719-5.447-2.623s-2.773-1.642-2.857-1.642-1.598-.877-3.366-1.949c-3.316-2.011-3.748-2.213-3.352-1.572M121.488 92.702c-8.336 5.011-14.868 11.366-17.787 17.307-1.716 3.492-2.108 4.457-1.896 4.669.119.118.315-.087.437-.455.273-.823 2.479-5.366 3.079-6.34 1.507-2.445 5.924-7.425 7.913-8.92.565-.424 1.378-1.102 1.809-1.506s.875-.734.989-.734 1.038-.616 2.052-1.369 3.001-2.047 4.414-2.875c2.261-1.326 2.885-1.779 2.445-1.779-.069 0-1.623.901-3.455 2.002m9.07-1.331c-1.487.272-4.002 1.082-4.606 1.484-.195.129-1.47.829-2.834 1.555-14.06 7.48-22.157 20.536-22.747 36.679-.588 16.069 2.983 24.313 8.401 19.395.485-.44 2.396-2.075 4.245-3.632l3.754-3.185c.216-.195 1.727-1.391 3.359-2.657 4.939-3.834 7.417-6.836 7.417-8.987 0-6.792 6.33-14.523 14.703-17.956l1.948-.816c.682-.289 2.835-1.036 4.783-1.661 8.536-2.734 9.198-3.681 5.811-8.313-1.277-1.746-5.345-5.846-5.801-5.846-.129 0-.742-.387-1.364-.861-1.3-.992-6.277-3.37-9.211-4.401-2.319-.815-5.822-1.171-7.858-.798m141.364-.068c-6.829.915-17.355 7.546-20.45 12.884-2.222 3.831-1.474 4.856 5.038 6.912 14.997 4.736 20.813 9.468 22.506 18.314l.704 3.625c.368 1.792 2.425 4.14 6.424 7.336a387.33 387.33 0 0 1 8.453 7.002c7.899 6.769 9.529 6.206 11.328-3.914 1.373-7.716.441-20.484-1.924-26.367-1.257-3.128-1.791-4.228-3.196-6.584-6.043-10.132-19.739-19.933-27.111-19.402a35.69 35.69 0 0 0-1.772.194m-134.961 1.019c1.913.614 2.043.666 5.643 2.277 5.786 2.589 10.991 6.91 12.83 10.651 1.364 2.774.872 3.292-4.858 5.113-1.657.526-3.535 1.18-4.175 1.453s-1.328.496-1.528.496c-.876 0-7.776 3.599-9.742 5.081-4.149 3.127-7.939 9.371-7.939 13.08 0 1.268-1.071 4.159-1.913 5.164-1.365 1.629-1.653 1.881-5.527 4.833-1.267.965-2.462 1.932-2.657 2.148s-1.306 1.179-2.468 2.139c-3.077 2.539-3.655 3.033-5.093 4.346-3.818 3.487-6.126 2.716-7.259-2.425-2.06-9.354-1.734-19.899.877-28.343 3.073-9.935 12.145-19.799 22.8-24.792 3.799-1.78 7.859-2.23 11.009-1.221m140.706-.007c3.625 1.181 9.925 4.74 13.133 7.419 13.549 11.317 17.98 27.075 13.586 48.311-.861 4.164-4.103 4.092-8.379-.185-.531-.53-1.6-1.437-5.094-4.323l-1.949-1.65c-.214-.2-1.426-1.155-2.693-2.123-4.116-3.146-6.377-6.381-6.377-9.124 0-3.29-2.635-8.552-5.733-11.449-1.798-1.682-5.225-4.045-5.866-4.045-.246 0-.447-.122-.447-.272s-.997-.657-2.215-1.127-2.373-.958-2.568-1.082-2.029-.758-4.075-1.407c-8.349-2.651-8.925-3.121-7.42-6.07.767-1.505 6.231-7.402 6.858-7.402.181 0 .581-.225.889-.5.606-.543 5.569-3.165 6.635-3.506.361-.116 1.772-.604 3.136-1.086 2.936-1.036 6.129-1.177 8.579-.379m7.187-.198c0 .187.398.441.886.563s.885.328.885.458.598.546 1.329.925c1.994 1.037 5.288 3.583 7.984 6.171l2.669 2.498c.146.105.898.988 1.671 1.962s1.503 1.852 1.623 1.949.33.536.467.974.397.798.579.798.33.186.33.414.209.667.465.975.756 1.277 1.111 2.153l1.13 2.711c.265.614.483 1.419.483 1.789s.143.825.317 1.01c.345.366.864 2.419 1.643 6.497.471 2.466.874 3.613.874 2.49 0-.647-.812-4.462-1.578-7.411-.844-3.248-2.934-8.404-4.136-10.203-.559-.838-1.017-1.642-1.017-1.785 0-.398-5.388-6.473-6.763-7.626-4.52-3.788-10.952-8.083-10.952-7.312M101.01 116.422c-.25.691-.377 1.336-.281 1.432s.366-.405.6-1.114c.553-1.677.273-1.957-.319-.318m-1.069 3.537c-.259.877-.394 1.673-.299 1.767s.375-.555.624-1.443.383-1.683.299-1.767-.365.565-.624 1.443m-.863 3.513c-1.412 7.429-1.625 10.041-1.561 19.132l.065 9.212.223-9.921c.217-9.617.582-14.013 1.418-17.052.221-.805.34-1.761.263-2.126-.083-.398-.246-.098-.408.755m210.512 7.972c.305 5.593.306 9.928.002 15.766-.18 3.44-.155 4.068.096 2.48.622-3.94.723-15.28.169-19.132l-.51-3.543.243 4.429m-185.965 13.135c-9.004 9.743-15.157 26.383-15.2 41.104-.016 5.618-1.678 12.617-4.577 19.277-2.037 4.679-2.333 5.969-1.621 7.056 1.806 2.756 4.276 1.676 10.66-4.661 12.396-12.307 17.017-22.349 15.336-33.326-.727-4.746-.826-23.324-.151-28.236.447-3.253-1.957-3.909-4.447-1.214m155.868-1.043c-.698.698-.738 1-.531 3.986.852 12.273.644 21.428-.657 28.972-1.366 7.918 4.584 19.689 15.379 30.423 5.902 5.869 7.622 7.003 9.587 6.318 2.244-.782 2.269-1.997.154-7.389-3.627-9.25-4.625-13.181-4.927-19.404-.824-16.985-4.23-27.361-12.777-38.918-3.546-4.795-4.689-5.527-6.228-3.988m-152.353.574c.2.379.192 3.23-.02 7.351-.424 8.226-.111 20.436.598 23.384 1.847 7.673-1.962 16.96-11.68 28.482-1.385 1.642-7.11 7.111-8.557 8.175-3.804 2.796-6.352.713-4.193-3.427.284-.544.517-1.191.518-1.437s.157-.724.345-1.063c2.384-4.29 4.446-12.124 4.779-18.153.478-8.659 1.215-14.401 2.342-18.246.598-2.041 1.7-5.352 2.126-6.392 1.484-3.616 2.961-6.683 4.173-8.665.417-.682.869-1.479 1.006-1.772.336-.72 5.008-7.067 5.929-8.054.885-.949 2.183-1.039 2.634-.183m155.919 1.063c3.564 4.04 7.574 10.528 9.689 15.677l.947 2.303c1.917 4.656 3.42 11.779 3.715 17.603.49 9.685 1.334 14.663 3.382 19.953l.82 2.125 1.637 4.139c1.595 3.976 1.237 5.959-1.075 5.959-2.789 0-14.433-12.322-18.581-19.664-4.744-8.398-5.422-11.818-4.069-20.549.313-2.02.395-6.496.284-15.589l-.005-13.197c.332-.98 1.787-.426 3.256 1.24m-173.161 6.839c-4.66 1.869-15.741 13.408-19.545 20.353-.64 1.169-1.274 2.285-1.408 2.48-.972 1.41-3.893 9.552-4.64 12.932-1.251 5.665-1.815 17.68-.979 20.868 1.742 6.64 10.458-.716 13.601-11.479.924-3.163 3.573-7.802 5.159-9.035.125-.097.577-.895 1.004-1.771l1.053-2.132c.152-.295.543-2.049.87-3.897 1.233-6.991 2.345-11.126 4.474-16.646.414-1.072.881-2.361 1.038-2.864s.863-2.115 1.568-3.581c1.649-3.427 1.597-4.137-.378-5.189-.884-.471-.747-.468-1.817-.039m185.585-.092c-1.955.609-2.187 1.99-.83 4.937l1.391 3.108 1.007 2.356c.307.712.558 1.471.558 1.688s.154.671.343 1.009c.951 1.706 3.554 11.473 3.554 13.337 0 3.05 2.058 8.059 4.818 11.726 1.771 2.353 4.039 6.93 4.039 8.151 0 1.848 4.238 8.606 7.274 11.6 2.846 2.806 5.648 1.542 6.208-2.801 1.282-9.946-1.612-25.04-6.345-33.099a113.86 113.86 0 0 1-1.459-2.579c-4.215-7.721-17.586-20.36-20.558-19.433m-197.516 1.962c.189 1.684.118 2.191-.384 2.745-.339.374-.489.68-.334.68 1.053 0 1.706-3.758.861-4.96-.27-.384-.309.042-.143 1.535m210.848-1.092c-.516 1.926-.24 2.967 1.181 4.461 4.786 5.031 13.476 19.507 13.476 22.448 0 .273.127.647.282.832.256.307.507 1.078 1.872 5.742.242.829.52 1.428.618 1.33s-.028-.855-.278-1.684c-3.335-11.048-8.083-20.027-14.544-27.504l-2.557-2.959.23-1.731c.239-1.806.088-2.31-.28-.935m-196.858.266c.928.927.918 1.003-.531 4.098-.682 1.457-1.24 2.853-1.24 3.102s-.138.604-.306.789-.474.815-.679 1.4l-1.273 3.581c-1.585 4.436-2.526 8.277-3.419 13.956-.621 3.95-1.695 6.245-4.847 10.36-1.554 2.029-2.959 4.812-3.445 6.824-1.203 4.986-6.588 12.83-9.272 13.503-2.628.66-3.334-1.254-3.32-9.009.02-10.63 1.283-16.516 5.563-25.929 3.127-6.875 10.356-15.47 17.392-20.677 3.961-2.932 4.313-3.063 5.377-1.998m187.423 1.148c4.887 3.63 9.155 7.782 12.577 12.233a22.09 22.09 0 0 0 .73.892c6.276 7.211 10.587 21.106 10.593 34.146.004 8.278-.096 8.672-2.315 9.16-2.416.531-7.932-6.152-9.666-11.711-.842-2.699-1.627-4.802-2.045-5.478a6.74 6.74 0 0 1-.537-1.152c-.114-.341-.338-.62-.497-.62s-.381-.279-.494-.62-.691-1.171-1.285-1.844c-1.584-1.794-3.449-5.922-3.859-8.539-.344-2.204-1.034-5.717-1.701-8.66-.176-.78-1.004-3.41-1.839-5.846-1.414-4.121-2.213-6.107-3.939-9.782-1.884-4.013.307-5.129 4.277-2.179m-204.96 5.26c-1.169 1.149-2.031 2.09-1.916 2.092.315.004 4.34-3.892 4.18-4.047-.076-.073-1.095.806-2.264 1.955m-4.659 5.372c-2.349 3.198-4.402 6.566-3.76 6.169.223-.138.762-.964 1.198-1.837s.923-1.586 1.083-1.586.292-.158.292-.35c0-.386 3.118-4.631 3.706-5.048.254-.179.254-.262-.002-.265-.203-.003-1.336 1.31-2.517 2.917m-4.68 7.577c-.426.95-.416.977.143.43.329-.322.533-.779.455-1.015s-.348.027-.598.585m-1.038 2.054c-.593 1.302-.537 1.575.129.625.307-.438.5-.97.429-1.182s-.321.039-.558.557m-1.063 2.48c-.593 1.303-.537 1.575.129.625.307-.438.5-.97.429-1.182s-.321.039-.558.557m-1.11 2.953c-.273.827-.391 1.608-.262 1.737s.234-.079.234-.462.175-.871.388-1.084.331-.682.262-1.041c-.083-.429-.297-.137-.622.85m-.835 2.68c-.395 1.004-.331 1.516.132 1.054.213-.213.328-.684.255-1.045-.127-.635-.141-.635-.387-.009m-.886 3.953c-.25 1.321-.384 2.474-.297 2.56.227.227 1-3.691.864-4.382-.062-.32-.318.5-.567 1.822m246.297 2.661c.07.682.294 2.117.498 3.189.884 4.636 1.134 8.611 1.134 18.044v10.036l-2.251 2.169-4.517 4.257-5.853 5.492c-1.972 1.872-3.905 3.642-4.295 3.934s-3.216 2.923-6.279 5.846c-5.785 5.521-6.93 6.258-8.611 5.539-.897-.383-.917-.375-.279.124 1.429 1.116 2.555.696 5.448-2.031l6.615-6.112 7.816-7.263 8.243-7.739 4.317-4.018v-10.139c0-10.367-.513-17.034-1.6-20.797-.413-1.428-.488-1.531-.386-.531m-247.351 3.611c-.453 3.522-.642 26.631-.227 27.713.163.426 10.174 9.755 14.674 13.676.338.295 2.086 1.889 3.884 3.543l4.339 3.893c.588.487 2.426 2.123 4.084 3.636 4.391 4.007 5.557 4.097 7.491.576.663-1.207 1.038-2.091.834-1.965s-.719.908-1.143 1.737c-1.831 3.578-2.93 3.312-8.569-2.071-1.102-1.052-2.089-1.913-2.193-1.913s-.895-.678-1.756-1.506c-1.749-1.682-5.317-4.928-11.972-10.895-6.554-5.875-7.647-6.886-8.559-7.911l-.974-1.096v-10.447c0-5.745.173-12.218.384-14.383.499-5.105.276-7.044-.297-2.587m196.431 6.367c-.347.195-.782.7-.966 1.122-.537 1.239-3.14 4.955-5.004 7.146l-1.333 1.56c-.401.468-.73.993-.73 1.165 0 .539 4.529-5.279 7.993-10.267l.563-.81 1.834 2.251 3.074 3.798 3.1 3.831 1.86 2.282.038 3.587c.021 1.972.171 4.543.332 5.712.24 1.74.265 1.482.14-1.417-.084-1.949-.153-4.503-.154-5.676-.002-1.961-.123-2.292-1.508-4.113-1.53-2.013-4.181-5.301-4.534-5.623-.106-.097-.947-1.167-1.868-2.376-1.978-2.596-2.021-2.629-2.837-2.172m-144.702.472c-.696.79-.518 1.065.243.376.873-.79 1.082-.644 2.824 1.964.79 1.183 2.49 3.453 3.778 5.044s2.884 3.929 3.548 5.195 1.207 2.127 1.208 1.912c.003-.603-2.201-4.585-3.117-5.633-.96-1.098-5.317-7.008-6.204-8.413-.667-1.06-1.582-1.238-2.28-.445m66.671 1.056c-.571.243-2.619 2.178-4.552 4.3l-8.006 8.64-6.583 7.063-3.332 3.588-5.137 5.502-6.678 7.112c-4.717 4.948-4.451 3.335-3.436 20.845.846 14.576 1.356 15.543 8.52 16.151 8.546.726 13.135 2.58 20.011 8.086 2.398 1.921 4.117 3.359 4.927 4.124 3.875 3.655 6.602 4.227 7.963 1.671.708-1.329.62-84.917-.09-86.001-.764-1.165-2.316-1.63-3.607-1.081m9.492.19c-.637.387-1.314 1.114-1.504 1.613-.516 1.357-.467 83.931.05 84.943 1.592 3.113 3.127 2.778 8.826-1.929 6.6-5.451 7.928-6.42 10.973-8.008 4.126-2.152 9.569-3.637 13.331-3.638 6.234-.001 7.762-2.18 8.309-11.848 1.192-21.066 1.279-20.438-3.531-25.477l-9.427-10.008-3.944-4.251-4.429-4.792-5.092-5.478-7.237-7.752c-1.642-1.761-3.157-3.302-3.366-3.425-1.054-.618-1.884-.604-2.959.05m-77.472.558c-.309.309-.997 1.146-1.529 1.86s-1.048 1.378-1.146 1.475-.812.974-1.584 1.949-1.499 1.851-1.613 1.948c-1.81 1.542-2.12 2.638-2.07 7.297.056 5.116.557 3.332.624-2.223.022-1.795.204-3.075.48-3.366.99-1.042 7.732-9.502 7.572-9.502-.094 0-.425.253-.734.562m70.814.349c.5.5.557 4.906.557 43.204v42.647l-.788.552c-1.374.962-3.411.453-4.881-1.221-2.274-2.589-12.217-9.752-15.235-10.975l-2.657-1.095c-1.746-.753-5.281-1.393-7.694-1.393-3.679 0-6.081-.911-7.653-2.903-.577-.732-1.127-4.102-1.32-8.08l-.736-14.722c-.307-6.043-.14-6.515 3.742-10.58l19.33-20.709 3.366-3.615 10.206-11.009c.585-.832 2.969-.896 3.763-.101m13.179 3.593l6.709 7.174 4.783 5.121 3.344 3.587 9.212 9.901 6.303 6.686c3.543 3.601 3.896 5.057 3.1 12.805-.181 1.754-.421 5.74-.536 8.858-.439 11.985-1.666 13.89-8.994 13.967-6.045.064-13.983 3.355-18.865 7.822-.664.607-2.329 1.98-6.047 4.986-3.533 2.856-5.551 3.228-6.335 1.166-.595-1.565-.277-84.91.327-85.637 1.364-1.644 2.881-.872 6.999 3.564m52.593 7.276l-1.08 2.569c-1.284 2.947-1.688 8.194-.9 11.691.592 2.63.681 1.355.135-1.949-.598-3.623 1.087-11.437 2.962-13.728.237-.29.239-.443.008-.443-.195 0-.701.837-1.125 1.86m-123.52 2.569c1.004 2.755 1.291 7.262.801 12.577-.196 2.121-.185 2.177.147.709.999-4.425.51-12.303-.847-13.641-.242-.238-.275-.123-.101.355m-21.502 7.086c-.603 4.049-.622 4.728-.073 2.657.284-1.072.475-2.507.426-3.189-.081-1.12-.115-1.069-.353.532m165.707 1.771c.688 6.093 7.417 23.896 8.588 22.725.088-.088-.214-.773-.671-1.522-1.302-2.136-4.18-8.306-4.18-8.962 0-.21-.146-.658-.323-.997-.641-1.22-1.649-4.68-3.019-10.358-.339-1.406-.493-1.751-.395-.886m-137.892-.088c-.193.243-.544 1.638-.78 3.1l-1.979 11.514-.862 5.138c-.154 1.071-.448 2.586-.654 3.365-.893 3.377-1.255 9.635-.806 13.915 1.271 12.097 1.852 13.044 7.725 12.611 4.97-.366 6.734-1.741 6.304-4.914-.132-.974-.383-3.126-.558-4.783-.447-4.238-1.84-13.198-3.003-19.309l-.862-4.783c-.178-1.071-.481-2.586-.673-3.366s-.608-2.612-.925-4.074l-1.098-4.96-.697-3.1c-.193-.89-.604-1.019-1.132-.354m108.138 0c-.159.425-.483 1.884-1.22 5.491-.189.926-.496 2.241-.682 2.923s-.602 2.595-.925 4.252l-.946 4.605a70.17 70.17 0 0 0-.672 3.543l-.869 5.315c-3.65 22.089-3.501 23 3.856 23.533 4.842.351 5.832-.535 6.701-5.995 1.497-9.405 1.471-15.311-.092-21.435-.174-.682-.568-2.755-.876-4.606l-2.123-11.965c-.302-1.611-.548-3.336-.548-3.832 0-1.65-1.173-2.988-1.604-1.829m-106.49 5.58c.193.682.611 2.515.93 4.074l1.052 5.137c.819 3.983 2.236 12.002 2.973 16.829 2.515 16.46 2.496 16.564-3.032 17.245-6.482.798-6.797.333-7.955-11.753-.347-3.617-.114-10.487.415-12.223.177-.585.488-2.099.689-3.366l.845-4.96 1.455-8.503c1.072-6.43 1.607-7.825 2.023-5.277.14.856.412 2.115.605 2.797m107.962-.456l.971 5.593 1.979 11.337c.16.975.452 2.41.65 3.189.93 3.671.8 9.753-.391 18.246-.554 3.953-1.018 4.842-2.809 5.381-2.186.657-7.19-.095-8.351-1.256l-.914-.915.426-4.173c.569-5.56 1.013-9.075 1.447-11.437l.941-5.492c.911-5.537 2.408-13.124 4.057-20.549l.531-2.442c.345-1.631.943-.6 1.463 2.518m-138.478-1.139c-.631 2.902-.646 3.211-.089 1.772.302-.78.497-1.736.434-2.126-.086-.534-.171-.447-.345.354m144.805 2.658c.08.876.398 3.029.707 4.783l1.959 11.774c.375 2.601.993 4.734 1.037 3.576.012-.326-.132-1.363-.321-2.303a188.11 188.11 0 0 1-.872-4.899c-1.836-11.074-2.785-15.965-2.51-12.931m-122.136.354c-.142.487-.25 1.284-.241 1.771l.018.886.348-.872c.191-.48.3-1.277.241-1.771l-.107-.9-.259.886m-24.505 3.221c-.544 1.567-.919 2.919-.835 3.003s.591-1.136 1.125-2.713.909-2.929.835-3.004-.581 1.146-1.125 2.714m23.792 1.208c-.603 4.049-.621 4.728-.073 2.657.284-1.072.476-2.507.427-3.189-.082-1.12-.116-1.069-.354.532m-26.286 4.945c-1.684 3.644-1.564 3.906.182.4.768-1.542 1.324-2.876 1.236-2.964s-.726 1.066-1.418 2.564m25.229 1.255c-.405 2.714-.635 4.799-.489 4.428.427-1.082.981-4.381.863-5.139-.1-.648-.199-.459-.374.711m-1.421 8.551c-.341 2.073-.596 5.022-.567 6.555.049 2.592.071 2.502.312-1.289.143-2.241.452-4.715.687-5.498s.374-1.899.308-2.48c-.072-.631-.37.462-.74 2.712m129.201 8.278c0 3.897.052 5.54.115 3.65s.064-5.078.001-7.086-.116-.461-.116 3.436m-129.244 8.857c.22 10.164.241 10.289 1.963 11.375 1.912 1.207 9.562 5.1 10.018 5.098.206-.001-.663-.537-1.929-1.192l-5.669-2.973-3.366-1.781-.26-1.721c-.143-.946-.409-5.068-.593-9.16l-.333-7.44.169 7.794m128.66 4.029c-.3 6.752-.037 6.256-4.499 8.501l-4.121 2.115c-.378.212-1.605.789-2.725 1.28s-2.037.968-2.037 1.059c0 .522 12.387-5.671 12.99-6.494.481-.658.937-6.582.766-9.958-.071-1.411-.216-.056-.374 3.497m-15.31 13.697c-.875.662-.3.655.865-.011.514-.294.662-.507.354-.508-.292 0-.841.233-1.219.519m-96.389 1.036c6.335 2.975 20.469 7.942 19.878 6.985-.11-.177-.847-.425-1.64-.552s-1.712-.378-2.045-.559-1.568-.644-2.745-1.03-2.532-.861-3.011-1.057-2.067-.786-3.529-1.312-3.664-1.415-4.896-1.974-2.427-1.013-2.657-1.008.06.232.645.507m93.909.027c-.875.662-.3.655.865-.011.513-.294.662-.507.354-.508-.292 0-.841.233-1.219.519m-2.324.896c-.292.183-.992.497-1.555.697s-.942.446-.843.545 1.038-.211 2.087-.69 1.666-.873 1.374-.878-.771.142-1.063.326m-4.783 1.878c-1.257.552-2.714 1.067-5.846 2.066-1.266.405-2.622.862-3.011 1.017-1.508.6-7.293 2.155-10.983 2.953-5.733 1.239-7.044 1.573-6.294 1.601.435.016 1.472-.127 2.303-.319l5.585-1.285c7.459-1.714 21.991-6.47 19.84-6.493-.292-.003-1.009.204-1.594.46m-64.887 5.056c.946.29 1.798.45 1.893.355.203-.202-2.304-.94-3.082-.906-.292.012.243.26 1.189.551m3.948 1.041c.975.271 2.011.479 2.303.463.842-.048-2.204-.965-3.189-.96-.53.002-.174.202.886.497m4.783 1.053c2.587.646 4.284.625 1.949-.023-.974-.271-2.25-.485-2.835-.478-.778.011-.541.145.886.501m6.732 1.029c1.656.269 3.809.478 4.783.465l1.771-.023-2.125-.259c-1.17-.142-3.322-.352-4.783-.465l-2.658-.207 3.012.489m19.052-.315c-.108.109-1.53.326-3.159.483-2.203.213-2.508.294-1.19.319.974.019 3.127-.183 4.783-.448 2.489-.398 2.73-.487 1.388-.516-.893-.02-1.713.053-1.822.162" fill="#828797"/></svg>