<svg xmlns="http://www.w3.org/2000/svg" width="693" height="595"  overflow="visible" xml:space="preserve"><switch><g><g opacity="1"><path fill="#ED3C26" d="m210.525 461.887 6.561-11.809 5.905-11.81 5.905-11.81 5.904-11.81 5.905-11.81 5.905-11.153 5.905-11.154 5.905-11.81 5.905-11.153 5.905-11.154 5.905-11.154 6.561-10.498 5.905-11.153 5.904-10.497 5.906-11.154 5.904-10.498 5.905-10.498 5.905-10.497 5.905-10.498 5.905-10.497 5.905-10.498 5.905-10.497 6.561-9.842 5.905-10.498 5.904-9.841 5.906-9.842 5.905-9.841 5.904-10.498 5.905-9.841 5.905-9.842 5.905-9.185 5.905-9.842 5.904-9.841 6.562-9.842 5.904-9.185 5.906-9.842 5.905-9.185 5.904-9.185 3.28-5.249h199.456v478.953H175.095v-.656L181 522.905l5.905-12.466 5.905-12.466 5.905-11.809 5.905-12.466z"/><path fill="#F4EB27" d="m157.38 450.734-5.904 14.434-6.561 14.434-5.905 14.435-5.905 14.433-5.905 15.091-4.593 12.466H56.998l4.592-16.402 5.905-19.684 5.905-19.683 5.905-19.026 6.561-18.371 5.905-19.028 5.904-18.37 5.906-17.714 5.904-17.715 5.905-17.715 5.905-17.715 5.905-17.059 5.905-17.058 5.905-17.059 5.905-17.058 6.561-16.403 5.904-16.402 5.906-16.403 5.904-15.746 5.905-16.403L181 169.267l5.905-15.746 5.905-15.091 5.905-15.746 5.905-15.09 5.905-15.091 6.561-15.09 5.905-14.434 1.968-5.905h120.066l-3.28 5.905-5.905 11.153-5.905 11.154-5.905 11.154-5.905 11.81-5.905 11.153-5.905 11.81-5.904 11.81-5.906 11.81-5.904 11.81-5.905 11.809-6.561 11.81-5.905 11.81-5.905 12.466-5.905 12.466-5.905 11.809-5.905 12.466-5.905 13.122-5.905 12.466-5.904 12.466-5.905 13.123-5.905 12.465-6.561 13.122-5.905 13.123-5.905 13.777-5.905 13.122-5.905 13.122L181 394.965l-5.905 13.779-5.905 13.778-5.904 14.434z"/><path fill="#FFF" d="M49.78 57.074h175.179l-1.968 5.905-5.905 14.434-6.561 15.09-5.905 15.091-5.905 15.09-5.905 15.746-5.905 15.091L181 169.267l-5.905 15.746-5.905 16.403-5.904 15.746-5.906 16.403-5.904 16.402-6.561 16.403-5.905 17.058-5.905 17.059-5.905 17.058-5.905 17.059-5.905 17.715-5.905 17.715-5.904 17.715-5.906 17.714-5.904 18.37-5.905 19.028-6.561 18.371-5.905 19.026-5.905 19.683-5.905 19.684-4.592 16.402H49.78z"/><path fill="#FBAF21" d="m217.086 450.078-6.561 11.809-5.905 11.811-5.905 12.466-5.905 11.809-5.905 12.466L181 522.905l-5.905 12.466v.656h-52.488l4.593-12.466 5.905-15.091 5.905-14.433 5.905-14.435 6.561-14.434 5.904-14.434 5.906-13.778 5.904-14.434 5.905-13.778L181 394.965l5.905-13.778 5.905-13.122 5.905-13.122 5.905-13.777 5.905-13.123 6.561-13.122 5.905-12.465 5.905-13.123 5.904-12.466 5.905-12.466 5.905-13.122 5.905-12.466 5.905-11.809 5.905-12.466 5.905-12.466 5.905-11.81 6.561-11.81 5.905-11.809 5.904-11.81 5.906-11.81 5.904-11.81 5.905-11.81 5.905-11.153 5.905-11.81 5.905-11.154 5.905-11.154 5.905-11.153 3.28-5.905h95.79l-3.28 5.249-5.904 9.185-5.905 9.185-5.906 9.842-5.904 9.185-6.562 9.842-5.904 9.841-5.905 9.842-5.905 9.185-5.905 9.842-5.905 9.841-5.904 10.498-5.905 9.841-5.906 9.842-5.904 9.841-5.905 10.498-6.561 9.842-5.905 10.497-5.905 10.498-5.905 10.497-5.905 10.498-5.905 10.497-5.905 10.498-5.904 10.498-5.906 11.154-5.904 10.497-5.905 11.153-6.561 10.498-5.905 11.154-5.905 11.154-5.905 11.153-5.905 11.81-5.905 11.154-5.905 11.153-5.905 11.81-5.904 11.81-5.905 11.81z"/><g fill="none"><path stroke="#231F20" d="m56.998 536.027 4.592-16.402 5.905-19.684 5.905-19.683 5.905-19.026 6.561-18.371 5.905-19.028 5.904-18.37 5.906-17.714 5.904-17.715 5.905-17.715 5.905-17.715 5.905-17.059 5.905-17.058 5.905-17.059 5.905-17.058 6.561-16.403 5.904-16.402 5.906-16.403 5.904-15.746 5.905-16.403L181 169.267l5.905-15.746 5.905-15.091 5.905-15.746 5.905-15.09 5.905-15.091 6.561-15.09 5.905-14.434 1.968-5.905M122.607 536.027l4.593-12.466 5.905-15.091 5.905-14.433 5.905-14.435 6.561-14.434 5.904-14.434 5.906-13.778 5.904-14.434 5.905-13.778L181 394.965l5.905-13.778 5.905-13.122 5.905-13.122 5.905-13.777 5.905-13.123 6.561-13.122 5.905-12.465 5.905-13.123 5.904-12.466 5.905-12.466 5.905-13.122 5.905-12.466 5.905-11.809 5.905-12.466 5.905-12.466 5.905-11.81 6.561-11.81 5.905-11.809 5.904-11.81 5.906-11.81 5.904-11.81 5.905-11.81 5.905-11.153 5.905-11.81 5.905-11.154 5.905-11.154 5.905-11.153 3.28-5.905M175.095 536.027v-.656L181 522.905l5.905-12.466 5.905-12.466 5.905-11.809 5.905-12.466 5.905-11.811 6.561-11.809 5.905-11.81 5.905-11.81 5.904-11.81 5.905-11.81 5.905-11.153 5.905-11.154 5.905-11.81 5.905-11.153 5.905-11.154 5.905-11.154 6.561-10.498 5.905-11.153 5.904-10.497 5.906-11.154 5.904-10.498 5.905-10.498 5.905-10.497 5.905-10.498 5.905-10.497 5.905-10.498 5.905-10.497 6.561-9.842 5.905-10.498 5.904-9.841 5.906-9.842 5.905-9.841 5.904-10.498 5.905-9.841 5.905-9.842 5.905-9.185 5.905-9.842 5.904-9.841 6.562-9.842 5.904-9.185 5.906-9.842 5.905-9.185 5.904-9.185 3.28-5.249"/><path stroke="#010101" d="M224.959 57.074H49.78v478.953M345.025 57.074H224.959M440.815 57.074h-95.79M175.095 536.027h465.176V57.074H440.815M122.607 536.027h52.488M56.998 536.027h65.609M49.78 536.027h7.218"/></g></g><path fill="none" stroke="#818180" d="M49.78 517.656h590.49"/><path fill="none" stroke="#010101" d="M49.78 517.656h5.905m584.586 0h-5.907"/><text transform="translate(30.587 520.284)" fill="#3B82F6" font-family="'ArialMT'" x="-10" font-size="16">1.5</text><path fill="none" stroke="#818180" d="M49.78 425.802h590.49"/><path fill="none" stroke="#010101" d="M49.78 425.802h5.905m584.586 0h-5.907"/><text transform="translate(30.587 428.43)" fill="#3B82F6" font-family="'ArialMT'" x="-10" font-size="16">1.6</text><path fill="none" stroke="#818180" d="M49.78 333.294h590.49"/><path fill="none" stroke="#010101" d="M49.78 333.294h5.905m584.586 0h-5.907"/><text transform="translate(30.587 335.92)" fill="#3B82F6" font-family="'ArialMT'" x="-10" font-size="16">1.7</text><path fill="none" stroke="#818180" d="M49.78 241.44h590.49"/><path fill="none" stroke="#010101" d="M49.78 241.44h5.905m584.586 0h-5.907"/><text transform="translate(29.587 244.065)" fill="#3B82F6" font-family="'ArialMT'" x="-10" font-size="16">1.8</text><path fill="none" stroke="#231F20" d="M49.78 148.93h590.49"/><path fill="none" stroke="#010101" d="M49.78 148.93h5.905m584.586 0h-5.907"/><text transform="translate(29.587 152.553)" fill="#3B82F6" font-family="'ArialMT'" x="-10" font-size="16">1.9</text><path fill="none" stroke="#818180" d="M49.78 57.076h590.49"/><path fill="none" stroke="#010101" d="M49.78 57.076h5.905m584.586 0h-5.907"/><text transform="translate(40.154 59.699)" fill="#3B82F6" font-family="'ArialMT'" x="-10" font-size="16">2</text><path fill="none" stroke="#818180" d="M49.78 536.029V57.076M640.271 536.029V57.076"/><path fill="none" stroke="#010101" d="M640.271 536.029v-5.904m0-473.049v5.904"/><text transform="translate(633.704 550.465)" fill="#3B82F6" font-family="'ArialMT'" font-size="16">160</text><path fill="none" stroke="#818180" d="M148.195 536.029V57.076"/><path fill="none" stroke="#231F20" d="M246.61 536.029V57.076" opacity=".5"/><path fill="none" stroke="#818180" d="M345.025 536.029V57.076M443.439 536.029V57.076M541.855 536.029V57.076"/><path fill="none" stroke="#010101" d="M49.78 536.029v-5.904m0-473.049v5.904"/><text transform="translate(45.402 550.465)" fill="#3B82F6" font-family="'ArialMT'" font-size="16">40</text><path fill="none" stroke="#010101" d="M148.195 536.029v-5.904m0-473.049v5.904"/><text transform="translate(143.817 550.465)" fill="#3B82F6" font-family="'ArialMT'" font-size="16">60</text><path fill="none" stroke="#010101" d="M246.61 536.029v-5.904m0-473.049v5.904"/><text transform="translate(242.232 550.465)" fill="#3B82F6" font-family="'ArialMT'" font-size="16">80</text><path fill="none" stroke="#010101" d="M345.025 536.029v-5.904m0-473.049v5.904"/><text transform="translate(338.459 550.465)" fill="#3B82F6" font-family="'ArialMT'" font-size="16">100</text><path fill="none" stroke="#010101" d="M443.439 536.029v-5.904m0-473.049v5.904"/><text transform="translate(436.873 550.465)" fill="#3B82F6" font-family="'ArialMT'" font-size="16">120</text><path fill="none" stroke="#010101" d="M541.855 536.029v-5.904m0-473.049v5.904"/><text transform="translate(535.29 550.465)" fill="#3B82F6" font-family="'ArialMT'" font-size="16">140</text><path fill="none" stroke="#FFFFFF" d="M49.78 536.029h590.49V57.076H49.78v478.953"/><text transform="rotate(-90 178.496 163)" fill="#3B82F6" font-family="'ArialMT'" font-size="22" x="-50" y="-2">Height [ meters ]</text><text transform="translate(281.588 568.905)" fill="#3B82F6" font-family="'ArialMT'" font-size="22" y="20">Weight [ kilograms ]</text><path fill="none" stroke="#231F20" stroke-dasharray="12" d="m49.78 442.861 5.905-21.649 5.904-21.653 5.908-21.65 5.903-20.996 5.905-20.336 6.562-20.34 5.904-20.341 5.904-19.683 5.907-19.683 5.904-19.683 5.905-19.026 5.905-19.026 5.903-19.03 5.908-18.369 5.904-18.37 5.905-18.373 6.561-18.369 5.904-17.717 5.904-17.712 4.594-13.778M49.78 483.541l5.905-20.997 5.904-20.992 5.908-20.997 5.903-20.34 5.905-20.339 6.562-19.684 5.904-19.684 5.904-19.025 5.907-19.026 5.904-19.026 5.905-19.027 5.905-18.373 5.903-18.369 5.908-17.717 5.904-17.712 5.905-17.716 6.561-17.716 5.904-17.056 5.904-17.716 5.907-17.06 5.904-16.402L181 71.508l5.248-14.432M99.644 536.029l3.938-10.499 5.904-16.402 5.905-15.745 5.905-15.746 5.903-15.748 5.908-15.748 5.904-15.087 5.905-15.093 6.561-15.09 5.904-15.088 5.904-15.093 5.907-14.433 5.904-14.435L181 327.386l5.905-14.431 5.903-13.779 5.908-13.78 5.904-14.432 5.904-13.122 6.561-13.778 5.904-13.779 5.904-13.122 5.908-13.779 5.904-13.122 5.904-13.122 5.905-12.465 5.903-13.122 5.908-13.122 5.904-12.465 5.904-12.465 6.561-12.469 5.904-12.466 5.904-12.465 5.908-12.464 3.28-6.561M148.195 536.029l3.281-6.561 5.904-13.78 5.904-13.122 5.907-13.122 5.904-13.778L181 462.543l5.905-12.466 5.903-13.122 5.908-13.122 5.904-12.463 5.904-12.466 6.561-12.469 5.904-12.466 5.904-11.808 5.908-12.465 5.904-11.813 5.904-12.465 5.905-11.81 5.903-11.812 5.908-11.151 5.904-11.812 5.904-11.808 6.561-11.155 5.904-11.808 5.904-11.156 5.908-11.151 5.904-11.155 5.905-11.156 5.904-11.151 5.904-10.499 5.908-11.155 5.904-10.495 5.904-11.155 6.562-10.499 5.904-10.498 5.904-10.495 5.906-10.498 5.904-10.499 5.904-10.499 5.905-9.842 5.905-10.498 2.625-4.59" opacity=".5"/><path fill="none" stroke="#231F20" stroke-dasharray="6" d="m204.621 536.029 5.904-11.156 6.561-11.807 5.904-11.156 5.904-11.151 5.908-11.156 5.904-11.154 5.904-11.151 5.905-10.499 5.903-11.154 5.908-10.495 5.904-10.498 5.904-10.498 6.561-10.499 5.904-10.497 5.904-10.495 5.908-10.498 5.904-9.842 5.905-10.498 5.904-9.843 5.904-9.841 5.908-10.498 5.904-9.842 5.904-9.842 6.562-9.185 5.904-9.841 5.904-9.842 5.906-9.841 5.904-9.185 5.904-9.841 5.905-9.186 5.905-9.188 5.905-9.185 5.905-9.842 5.903-9.185 6.563-9.185 5.906-9.185 5.902-8.532 5.905-9.185 5.902-9.184 5.906-9.186 5.908-8.531 5.902-9.185 5.906-8.528 5.901-8.532 5.907-9.185 6.562-8.528 5.907-8.532 5.901-8.527 4.594-6.561" opacity=".5"/><path fill="none" stroke="#231F20" stroke-dasharray="12" d="m230.208 536.029 4.594-7.876 5.904-10.497 5.904-10.495 5.905-10.498 5.903-10.498 5.908-10.499 5.904-10.497 5.904-9.843 6.561-10.495 5.904-9.841 5.904-9.842 5.908-9.841 5.904-9.843 5.905-9.841 5.904-9.841 5.904-9.842 5.908-9.842 5.904-9.188 5.904-9.842 6.562-9.185 5.904-9.185 5.904-9.185 5.906-9.843 5.904-9.185 5.904-9.188 5.905-8.528 5.905-9.184 5.905-9.185 5.905-9.188 5.903-8.528 6.563-9.185 5.906-8.532 5.902-9.185 5.905-8.527 5.902-8.531 5.906-8.528 5.908-8.528 5.902-8.531 5.906-8.527 5.901-8.532 5.907-8.528 6.562-8.528 5.907-8.532 5.901-7.871 5.906-8.532 5.902-7.871 5.906-8.531 5.908-7.871 5.902-8.532 5.905-7.871 5.901-7.875 5.907-7.874 3.281-4.59" opacity=".5"/><path fill="none" stroke="#231F20" stroke-dasharray="6" d="m258.418 536.029 5.908-9.841 5.904-9.842 5.904-9.843 6.561-9.841 5.904-9.842 5.904-9.185 5.908-9.841 5.904-9.843 5.905-9.188 5.904-9.185 5.904-9.842 5.908-9.185 5.904-9.184 5.904-9.186 6.562-9.188 5.904-8.528 5.904-9.185 5.906-9.185 5.904-8.531 5.904-9.185 5.905-8.528 5.905-8.532 5.905-9.184 5.905-8.528 5.903-8.531 6.563-8.527 5.906-8.531 5.902-8.528 5.905-8.528 5.902-7.875 5.906-8.528 5.908-8.532 5.902-7.871 5.906-8.531 5.901-7.871 5.907-8.532 6.562-7.871 5.907-7.875 5.901-7.875 5.906-7.871 5.902-8.532 5.906-7.871 5.908-7.875 5.902-7.217 5.905-7.871 5.901-7.875 5.907-7.871 6.563-7.875 5.907-7.218 5.901-7.871 5.905-7.875 5.902-7.218 5.907-7.871 5.908-7.218 5.902-7.218 5.905-7.875 1.313-1.31" opacity=".5"/><path fill="none" stroke="#231F20" stroke-dasharray="12" d="m284.663 536.029 3.937-5.904 5.904-9.188 5.908-9.186 5.904-9.185 5.905-9.184 5.904-9.186 5.904-9.188 5.908-9.185 5.904-8.528 5.904-9.185 6.562-8.531 5.904-8.527 5.904-9.186 5.906-8.532 5.904-8.527 5.904-8.53 5.905-8.528 5.905-8.529 5.905-8.53 5.905-8.527 5.903-7.876 6.563-8.526 5.906-7.875 5.902-8.527 5.905-7.875 5.902-8.527 5.906-7.876 5.908-7.871 5.902-8.531 5.906-7.871 5.901-7.875 5.907-7.875 6.562-7.871 5.907-7.875 5.901-7.217 5.906-7.871 5.902-7.875 5.906-7.871 5.908-7.217 5.902-7.875 5.905-7.217 5.901-7.871 5.907-7.218 6.563-7.218 5.907-7.871 5.901-7.217 5.905-7.218 5.902-7.218 5.907-7.871 5.908-7.217 5.902-7.218 5.905-7.218 5.901-7.218 5.907-6.561 6.563-7.214 5.907-7.217 5.901-7.218 5.905-7.219 5.902-6.561 5.907-7.217" opacity=".5"/><text transform="matrix(0 -1.0238 1 0 685.653 410)" fill="#3B82F6" font-family="'Myriad-Roman'" y="7" font-size="22">Height [ feet and inches ]</text><text transform="matrix(.9768 0 0 1 650.599 62.866)" fill="#3B82F6" font-family="'ArialMT'" font-size="16">6’6</text><text transform="matrix(.9768 0 0 1 648.832 153.326)" fill="#3B82F6" font-family="'ArialMT'" font-size="16">6’3</text><text transform="matrix(.9768 0 0 1 647.653 243.786)" fill="#3B82F6" font-family="'ArialMT'" font-size="16">5’11</text><text transform="matrix(.9768 0 0 1 648.832 334.85)" fill="#3B82F6" font-family="'ArialMT'" font-size="16">5’7</text><text transform="matrix(.9768 0 0 1 648.832 426.514)" fill="#3B82F6" font-family="'ArialMT'" font-size="16">5’3</text><text transform="matrix(.9768 0 0 1 647.374 518.685)" fill="#3B82F6" font-family="'ArialMT'" font-size="16">4’11</text><path fill="none" stroke="#010101" d="M60.942 57.264v5.904"/><text transform="translate(56.494 49.14)" fill="#3B82F6" font-family="'ArialMT'" font-size="16">90</text><path fill="none" stroke="#010101" d="M105.51 57.13v5.903"/><text transform="translate(99.493 48.411)" fill="#3B82F6" font-family="'ArialMT'" font-size="16">110</text><text transform="translate(142.342 48.386)" fill="#3B82F6" font-family="'ArialMT'" font-size="16">130</text><path fill="none" stroke="#010101" d="M149.357 57.557v5.903M195.47 57.036v5.903"/><text transform="translate(188.781 48.994)" fill="#3B82F6" font-family="'ArialMT'" font-size="16">150</text><path fill="none" stroke="#010101" d="M240.141 56.979v5.904"/><text transform="translate(233.102 48.82)" fill="#3B82F6" font-family="'ArialMT'" font-size="16">170</text><path fill="none" stroke="#010101" d="M283.775 57.214v5.905"/><text transform="translate(276.18 48.653)" fill="#3B82F6" font-family="'ArialMT'" font-size="16">190</text><path fill="none" stroke="#010101" d="M327.785 56.874v5.903"/><text transform="translate(321.014 48.419)" fill="#3B82F6" font-family="'ArialMT'" font-size="12">210</text><path fill="none" stroke="#010101" d="M370.216 56.924v5.904"/><text transform="translate(363.592 49.372)" fill="#3B82F6" font-family="'ArialMT'" font-size="16">230</text><path fill="none" stroke="#010101" d="M414.332 57.21v5.905"/><text transform="translate(408.049 48.45)" fill="#3B82F6" font-family="'ArialMT'" font-size="16">250</text><path fill="none" stroke="#010101" d="M454.172 57.354v5.904"/><text transform="translate(447.34 48.868)" fill="#3B82F6" font-family="'ArialMT'" font-size="16">270</text><text transform="translate(288.747 15.011)" fill="#3B82F6" font-family="'ArialMT'" font-size="22">Weight [ pounds ]</text><text transform="translate(495.303 48.95)" fill="#3B82F6" font-family="'ArialMT'" font-size="16">290</text><text transform="translate(538.883 48.322)" fill="#3B82F6" font-family="'ArialMT'" font-size="16">310</text><text transform="translate(584.089 48.477)" fill="#3B82F6" font-family="'ArialMT'" font-size="16">330</text><text transform="translate(625.036 48.545)" fill="#3B82F6" font-family="'ArialMT'" font-size="16">350</text><path fill="none" stroke="#010101" d="M632.452 56.982v5.904M589.997 57.187v5.903M545.586 57.4v5.904M501.99 57.324v5.904"/><text transform="translate(75.534 125.957)"><tspan x="0" y="0" font-family="'Myriad-Roman'" font-size="16">Underweight</tspan><tspan x="0" y="14.4" font-family="'Myriad-Roman'" font-size="16"> BMI &lt;18.5</tspan></text><text transform="translate(205.786 127.637)"><tspan x="0" y="0" font-family="'Myriad-Roman'" font-size="16">Normal range</tspan><tspan x="0" y="14.4" font-family="'Myriad-Roman'" font-size="16">     BMI18.5-25</tspan></text><text transform="translate(315.87 128.477)"><tspan x="0" y="0" font-family="'Myriad-Roman'" font-size="16">Overweight</tspan><tspan x="0" y="14.4" font-family="'Myriad-Roman'" font-size="16">    BMI 25-30</tspan></text><text transform="translate(488.98 128.477)"><tspan x="0" y="0" font-family="'Myriad-Roman'" font-size="16">Obese</tspan><tspan x="0" y="14.4" font-family="'Myriad-Roman'" font-size="16">BMI &gt;30</tspan></text><path fill="none" stroke="#818180" d="M197.195 536.029V57.076"/><path fill="none" stroke="#231F20" d="M295.61 536.029V57.076" opacity=".5"/><path fill="none" stroke="#818180" d="M394.025 536.029V57.076M492.439 536.029V57.076M590.855 536.029V57.076"/><path fill="none" stroke="#010101" d="M98.78 536.029v-5.904m0-473.049v5.904"/><text transform="translate(94.402 550.465)" fill="#3B82F6" font-family="'ArialMT'" font-size="16">50</text><path fill="none" stroke="#010101" d="M197.195 536.029v-5.904m0-473.049v5.904"/><text transform="translate(192.817 550.465)" fill="#3B82F6" font-family="'ArialMT'" font-size="16">70</text><path fill="none" stroke="#010101" d="M295.61 536.029v-5.904m0-473.049v5.904"/><text transform="translate(291.232 550.465)" fill="#3B82F6" font-family="'ArialMT'" font-size="16">90</text><path fill="none" stroke="#FFFFFF" d="M394.025 536.029v-5.904m0-473.049v5.904"/><text transform="translate(387.459 550.465)" fill="#3B82F6" font-family="'ArialMT'" font-size="16">110</text><path fill="none" stroke="#010101" d="M492.439 536.029v-5.904m0-473.049v5.904"/><text transform="translate(485.873 550.465)" fill="#3B82F6" font-family="'ArialMT'" font-size="16">130</text><path fill="none" stroke="#010101" d="M590.855 536.029v-5.904m0-473.049v5.904"/><text transform="translate(584.29 550.465)" fill="#3B82F6" font-family="'ArialMT'" font-size="16">150</text><path opacity=".5" fill="none" stroke="#FFFFFF" d="M640.521 57.076H98.78v478.953M98.78 536.029h541.49"/></g></switch></svg>