<svg xmlns="http://www.w3.org/2000/svg" viewBox="0 0 64 65" width="64" height="65"> 
  <g data-name="BMI Calculator, Bmi,Exercise, Obesity, Weight">
    <path 
      d="M58.4 15.88h-5.48v-9A4.84 4.84 0 0 0 48.09 2H7a4.83 4.83 0 0 0-4.86 4.83v36.34A4.83 4.83 0 0 0 7 48h22.5v10.9a3.1 3.1 0 0 0 3.1 3.1h25.8a3.1 3.1 0 0 0 3.1-3.1V19a3.1 3.1 0 0 0-3.1-3.12ZM29.5 46H7a2.83 2.83 0 0 1-2.82-2.83V6.83A2.83 2.83 0 0 1 7 4h41.09a2.83 2.83 0 0 1 2.83 2.83v9.05H40.18a13 13 0 0 0-25.42.52 2.45 2.45 0 0 0 .51 2 2.41 2.41 0 0 0 1.87.88H29.5Zm.17-36.62L27 8.1a1.07 1.07 0 0 0-.32-.1h-.17a1 1 0 0 0-.25 0h-.1a1 1 0 0 0-.29.17.79.79 0 0 0-.19.22l-1.62 2.69a1 1 0 0 0 1.72 1l.37-.62.41 1.66a6.74 6.74 0 0 0-5.74 4.06h-3.68a.41.41 0 0 1-.33-.15.46.46 0 0 1-.09-.37 11 11 0 0 1 21.41-.9h-5.75a6.69 6.69 0 0 0-3.72-2.48L28 10.81l.8.38a1.11 1.11 0 0 0 .43.09 1 1 0 0 0 .43-1.9Zm-2.1 7.92h-4.5A4.68 4.68 0 0 1 27 15.2h.05Zm2.43 0h-.37l-.38-1.53a4.75 4.75 0 0 1 1.23 1 3.29 3.29 0 0 0-.48.53Zm29.5 41.6a1.1 1.1 0 0 1-1.1 1.1H32.6a1.1 1.1 0 0 1-1.1-1.1V24c0-1.27-.1-2.56 0-3.84v-.84a1.51 1.51 0 0 1 1.5-1.48H58.4A1.1 1.1 0 0 1 59.5 19Z"
      stroke="#3B82F6"
      fill="black"
    />
    <path 
      d="M54.86 20H36.14a2.67 2.67 0 0 0-.64.08 2.63 2.63 0 0 0-2 2.56v9.72A2.64 2.64 0 0 0 36.14 35h18.72a2.64 2.64 0 0 0 2.64-2.64v-9.72A2.64 2.64 0 0 0 54.86 20Zm.64 12.36a.64.64 0 0 1-.64.64H36.14a.64.64 0 0 1-.64-.64v-9.72a.64.64 0 0 1 .64-.64h18.72a.64.64 0 0 1 .64.64ZM40 36h-5a1 1 0 0 0-1 1v5a1 1 0 0 0 1 1h5a1 1 0 0 0 1-1v-5a1 1 0 0 0-1-1Zm-1 5h-3v-3h3ZM48 36h-5a1 1 0 0 0-1 1v5a1 1 0 0 0 1 1h5a1 1 0 0 0 1-1v-5a1 1 0 0 0-1-1Zm-1 5h-3v-3h3ZM56 36h-5a1 1 0 0 0-1 1v5a1 1 0 0 0 1 1h5a1 1 0 0 0 1-1v-5a1 1 0 0 0-1-1Zm-1 5h-3v-3h3ZM40 44h-5a1 1 0 0 0-1 1v5a1 1 0 0 0 1 1h5a1 1 0 0 0 1-1v-5a1 1 0 0 0-1-1Zm-1 5h-3v-3h3ZM48 44h-5a1 1 0 0 0-1 1v5a1 1 0 0 0 1 1h5a1 1 0 0 0 1-1v-5a1 1 0 0 0-1-1Zm-1 5h-3v-3h3ZM56 44h-5a1 1 0 0 0-1 1v5a1 1 0 0 0 1 1h5a1 1 0 0 0 1-1v-5a1 1 0 0 0-1-1Zm-1 5h-3v-3h3ZM40 52h-5a1 1 0 0 0-1 1v5a1 1 0 0 0 1 1h5a1 1 0 0 0 1-1v-5a1 1 0 0 0-1-1Zm-1 5h-3v-3h3ZM48 52h-5a1 1 0 0 0-1 1v5a1 1 0 0 0 1 1h5a1 1 0 0 0 1-1v-5a1 1 0 0 0-1-1Zm-1 5h-3v-3h3ZM56 52h-5a1 1 0 0 0-1 1v5a1 1 0 0 0 1 1h5a1 1 0 0 0 1-1v-5a1 1 0 0 0-1-1Zm-1 5h-3v-3h3Z"
      stroke="#3B82F6"
      fill="black"
    />
  </g>
</svg>
