<svg 
    width="64" height="65"
    xmlns="http://www.w3.org/2000/svg" 
    viewBox="0 0 511.999 511.999" 
    stroke="#3B82F6"
    fill="#2B3239"
    xml:space="preserve"><path d="M223.663 232.826a8.083 8.083 0 0 0-8.084 8.084v30.72h-44.194v-30.72a8.084 8.084 0 0 0-16.168 0v77.608a8.084 8.084 0 0 0 8.084 8.084 8.083 8.083 0 0 0 8.084-8.084v-30.72h44.194v30.72a8.084 8.084 0 0 0 8.084 8.084 8.083 8.083 0 0 0 8.084-8.084V240.91a8.083 8.083 0 0 0-8.084-8.084zM309.895 232.826c-25.854 0-46.888 21.034-46.888 46.888s21.034 46.888 46.888 46.888 46.888-21.034 46.888-46.888-21.035-46.888-46.888-46.888zm0 77.608c-16.939 0-30.72-13.781-30.72-30.72s13.781-30.72 30.72-30.72 30.72 13.781 30.72 30.72-13.782 30.72-30.72 30.72zM284.025 375.108h-21.852l22.912-20.367a8.083 8.083 0 0 0 2.713-6.042v-2.156c0-15.156-12.33-27.486-27.486-27.486s-27.486 12.331-27.486 27.486a8.084 8.084 0 0 0 8.084 8.084 8.083 8.083 0 0 0 8.084-8.084c0-6.241 5.077-11.318 11.318-11.318 5.768 0 10.541 4.336 11.232 9.92l-36.005 32.004a8.084 8.084 0 0 0 5.371 14.127h43.116a8.084 8.084 0 1 0-.001-16.168zM384.164 371.873c-4.25-1.371-8.807.954-10.182 5.202-7.348 22.703-18.064 39.99-32.763 52.849a7.997 7.997 0 0 0-.1.089c-20.012 18.106-45.096 29.223-74.554 33.041a8.085 8.085 0 0 0 2.079 16.033c32.764-4.245 60.78-16.708 83.275-37.041 16.932-14.834 29.182-34.46 37.447-59.993a8.084 8.084 0 0 0-5.202-10.18zM387.504 331.992a8.083 8.083 0 0 0-8.084 8.083c0 3.687-.157 7.4-.465 11.037a8.083 8.083 0 1 0 16.109 1.364c.346-4.087.522-8.259.523-12.399a8.084 8.084 0 0 0-8.083-8.085z"/><path d="M262.692 3.545a8.095 8.095 0 0 0-6.647-3.544c-2.698-.05-5.165 1.284-6.684 3.473-7.735 11.139-75.661 122.1-107.098 177.39a8.083 8.083 0 0 0 3.032 11.024c3.879 2.208 8.816.85 11.024-3.032 26.871-47.255 80.389-135.183 99.795-166.02 30.81 46.69 155.644 240.61 155.644 317.241 0 85.522-69.291 155.167-154.678 155.752-85.386-.585-154.678-70.23-154.678-155.752 0-21.433 10.057-54.396 29.89-97.974a8.084 8.084 0 0 0-4.009-10.707 8.084 8.084 0 0 0-10.707 4.01c-20.798 45.695-31.343 80.911-31.343 104.67 0 93.879 75.637 170.424 169.171 171.901.197.015.396.023.597.023h2.156c.202 0 .4-.008.597-.023 93.534-1.477 169.171-78.023 169.171-171.901 0-91.912-158.487-326.585-165.233-336.531zM142.809 69.057c-5.488-.73-19.319-3.786-29.195-16.375-7.016-8.951-8.701-18.66-9.08-23.651a8.085 8.085 0 0 0-16.124 0c-.38 4.992-2.065 14.701-9.079 23.65-9.876 12.592-23.707 15.648-29.196 16.377a8.084 8.084 0 0 0 0 16.028c5.489.73 19.32 3.786 29.195 16.375 7.016 8.951 8.701 18.66 9.08 23.651a8.087 8.087 0 0 0 16.124-.001c.38-4.992 2.065-14.701 9.079-23.65 9.877-12.592 23.708-15.648 29.196-16.376a8.084 8.084 0 0 0 0-16.028zm-41.922 22.428a58.827 58.827 0 0 0-4.416 6.475 59.141 59.141 0 0 0-4.418-6.476c-5.073-6.469-10.882-11.1-16.556-14.414 5.675-3.313 11.485-7.945 16.56-14.415a58.827 58.827 0 0 0 4.416-6.475 59.107 59.107 0 0 0 4.416 6.475l.001.001c5.074 6.47 10.883 11.1 16.557 14.414-5.675 3.314-11.485 7.946-16.56 14.415zM461.864 69.058c-5.489-.73-19.32-3.786-29.195-16.375-7.016-8.951-8.701-18.66-9.08-23.651a8.085 8.085 0 0 0-16.124 0c-.38 4.992-2.065 14.701-9.08 23.651-9.876 12.591-23.707 15.647-29.195 16.375a8.084 8.084 0 0 0 0 16.028c5.489.73 19.32 3.786 29.195 16.375 7.016 8.951 8.701 18.66 9.08 23.651a8.085 8.085 0 0 0 16.124 0c.38-4.992 2.065-14.701 9.079-23.65 9.877-12.592 23.708-15.648 29.196-16.376 4.018-.534 7.019-3.96 7.019-8.014s-3.001-7.481-7.019-8.014zm-41.92 22.427a58.827 58.827 0 0 0-4.416 6.475 59.141 59.141 0 0 0-4.418-6.476c-5.074-6.469-10.883-11.1-16.557-14.414 5.675-3.313 11.485-7.944 16.557-14.414l.001-.001a58.827 58.827 0 0 0 4.416-6.475 59.141 59.141 0 0 0 4.418 6.476c5.074 6.469 10.883 11.1 16.557 14.414-5.673 3.314-11.484 7.946-16.558 14.415z"
    />
</svg>