<svg xmlns="http://www.w3.org/2000/svg" width="400" height="320" fill-rule="evenodd" xmlns:v="https://vecta.io/nano"><path d="M171.946 73.067c-1.77.759-2.058 1.851-2.249 8.539l-.178 6.24-1.248.625c-1.601.801-9.921 4.739-12.478 5.906l-5.169 2.411-4.991 2.31a272.46 272.46 0 0 0-5.348 2.509c-8.71 4.19-11.894 5.636-13.725 6.235-15.975 5.219-29.35 17.069-33.601 29.769-2.418 7.224-2.941 11.092-2.941 21.747 0 9.011.175 11.003 1.489 16.91l.55 2.47-3.177 3.055c-9.354 8.996-14.416 20.184-16.142 35.677-.531 4.772-.43 4.995 8.369 18.537l6.202 9.804 12.84 20.395c.212.237.386.541.386.676s.572.944 1.271 1.798c2.423 2.956 5.707 2.16 7.75-1.879 4.498-8.891 6.869-17.699 7.266-26.996l.226-5.293 2.349-2.877 3.61-4.511c1.757-2.277 2.369-2.24 4.024.244.75 1.124 2.155 3 3.123 4.169 4.747 5.734 5.965 11.254 4.444 20.156l-.914 5.348-.843 4.991-1.284 7.308c-1.558 8.571-1.227 10.063 2.405 10.847l3.649.805c.883.199 2.407.484 3.387.633s4.59.841 8.022 1.538l7.308 1.476 8.913 1.807a156.99 156.99 0 0 0 4.634.937l4.813.899c13.342 2.542 31.138 2.52 44.563-.055l5.704-1.098 4.457-.842 4.634-.91 9.983-1.935 5.525-1.059 6.774-1.3c8.62-1.591 8.711-1.857 5.714-16.734-3.731-18.517-3.373-26.607 1.406-31.825 1.245-1.358 4.574-5.657 4.966-6.41.733-1.41 1.556-.9 4.492 2.786l3.513 4.363c1.106 1.31 1.299 2.269 1.299 6.464 0 6.68 1.14 11.927 4.727 21.77 3.977 10.91 9.061 14.387 12.4 8.48l2.058-3.667a78.71 78.71 0 0 1 1.728-2.934c.459-.731.834-1.41.834-1.509s.642-1.227 1.426-2.509 1.426-2.41 1.426-2.509.376-.777.835-1.508 1.368-2.293 2.02-3.469l1.819-3.209c.35-.588.855-1.47 1.123-1.961 1.589-2.902 2.976-5.335 3.707-6.499.459-.731.835-1.41.835-1.509s.642-1.227 1.426-2.509 1.426-2.41 1.426-2.509.376-.777.835-1.508c.955-1.523 2.215-3.756 4.249-7.534l1.421-2.638-.404-4.682c-.375-4.359-1.062-8.54-1.819-11.075-3.079-10.315-6.851-16.975-13.324-23.529l-3.873-3.92.443-2.497.748-3.922c2.147-10.062.602-28.563-3.112-37.255-5.026-11.764-16.592-21.28-33.514-27.575-1.741-.648-4.792-2.043-10.728-4.906l-4.517-2.1c-.089 0-2.503-1.123-5.364-2.496l-5.382-2.495c-.099 0-2.303-1.027-4.898-2.282l-8.194-3.921-3.476-1.638v-6.096c0-6.783-.276-7.82-2.263-8.513-1.828-.637-2.66-.428-9.095 2.284-13.072 5.509-19.668 5.759-29.726 1.128l-4.371-1.963c-.98-.424-2.075-.935-2.433-1.135-.939-.525-3.851-.734-4.765-.341m9.731 14.366c4.505 6.257 4.739 6.805 8.846 20.688 4.03 13.623 4.166 14.317 3.046 15.519-2.316 2.486-4.572.143-9.718-10.093-4.934-9.812-7.866-20.872-7.223-27.243.435-4.304 1.272-4.117 5.049 1.129m35.779-3.321c2.106 3.935-1.222 18.235-6.849 29.428-4.726 9.4-6.441 11.48-8.785 10.656-2.4-.844-2.253-1.774 3.016-19.027 3.648-11.948 3.027-10.583 8.272-18.181 2.65-3.839 3.522-4.416 4.346-2.876M171.872 96c1.365.916 2.14 2.307 3.023 5.426.81 2.859 3.083 8.573 4.222 10.613 2.291 4.103.021 7.482-4.491 6.686l-5.286-.909-4.991-.881c-.882-.169-3.208-.572-5.169-.896l-6.061-1.076c-1.372-.268-4.019-.744-5.882-1.057-7.251-1.22-7.843-1.489-7.843-3.567 0-1.302.571-1.89 2.852-2.936.882-.404 4.251-2.016 7.487-3.581l7.843-3.738 5.704-2.67c5.551-2.636 6.531-2.797 8.592-1.414m55.995-.144c.85.368 3.63 1.67 6.179 2.893l6.596 3.109c13.155 5.933 15.273 7.367 14.199 9.613-.554 1.158-1.301 1.394-8.175 2.578l-13.511 2.381c-16.148 2.897-16.489 2.907-18.08.54-1.097-1.631-1.06-1.902.804-5.891 1.853-3.966 2.6-5.927 3.879-10.191 1.606-5.352 3.975-6.822 8.109-5.032m-88.651 20.182c9.204 1.888 15.557 4.792 11.497 5.254-9.457 1.076-22.835 15.469-27.173 29.235-2.245 7.123-10.353 16.479-21.911 25.284-3.19 2.43-3.023 2.672-4.359-6.292-.747-5.007-.655-22.737.135-26.203 3.101-13.611 10.033-21.418 23.807-26.811 3.567-1.396 12.364-1.624 18.004-.467m130.419-.375c4.226.809 9.408 3.155 14.127 6.398 12.479 8.574 16.737 25.174 12.995 50.666-.744 5.067-1.014 5.443-2.838 3.96l-3.901-3.106c-9.576-7.566-16.711-16.214-19.087-23.135-5.053-14.716-18.705-29.234-27.492-29.234-4.233 0 3.124-3.326 10.957-4.954 5.812-1.208 10.982-1.409 15.239-.595m-99.786 6.63c7.668 2.401 19.003 7.785 21.918 10.41 2.525 2.273 2.529 2.303 2.525 17.283-.004 17.938-.531 19.095-9.622 21.143-1.078.242-2.602.645-3.387.894l-7.843 2.487-8.556 2.734c-11.432 3.748-11.988 3.855-15.356 2.978-3.161-.823-5.028-2.108-9.1-6.26-5.361-5.467-10.162-8.3-15.395-9.085-4.209-.631-4.295-2.155-.443-7.833 3.22-4.747 4.942-8.1 6.224-12.124 2.731-8.57 15.631-19.945 26.049-22.972l1.961-.597c1.135-.415 8.775.237 11.025.942m68.878-.096c11.541 4.446 22.48 14.668 25.271 23.614 1.101 3.529 3.536 8.013 6.972 12.834 2.7 3.789 2.274 5.604-1.454 6.197-4.966.791-10.421 3.797-14.149 7.796-7.514 8.06-11.089 9.381-18.686 6.902l-27.59-8.601c-8.418-2.008-9.168-3.822-9.019-21.801.136-16.379-.259-15.467 8.731-20.138 13.788-7.163 23.346-9.336 29.924-6.803m-119.731 47.752c4.358 2.061 4.332 16.628-.055 30.942-8.542 27.873-27.104 48.308-29.438 32.409-3.095-21.085-2.711-24.216 4.981-40.608.184-.393 1.15-2.719 2.147-5.17l2.342-5.744c.433-1.052 1.442-1.894 5.529-4.612 2.75-1.829 6.472-4.416 8.27-5.748 3.499-2.591 3.734-2.646 6.224-1.469m160.189-.301c1.519 1.187 10.423 7.33 12.437 8.581 2.188 1.359 3.922 2.837 3.922 3.343 0 .183 1.507 3.963 3.35 8.4 9.073 21.847 8.979 21.394 7.181 34.627l-.93 7.487c-2.231 20.23-25.762-9.367-32.105-40.382-.191-.935-.3-5.705-.241-10.599l.107-8.9 1.097-1.097c.897-.897 3.123-2.038 4.113-2.108.121-.009.602.283 1.069.648m-85.691 6.664c.791.898.802 1.052.802 10.826 0 12.187.253 11.616-5.704 12.871-9.898 2.084-14.374 3.461-20.983 6.457-2.207 1-3.243.655-5.482-1.826-7.588-8.408-9.184-19.613-2.793-19.613.331 0 2.517-.625 4.858-1.389l10.674-3.431 11.052-3.604c5.112-1.724 6.276-1.768 7.576-.291m15.642.486l10.65 3.426 10.676 3.424c2.342.758 4.644 1.379 5.114 1.379 5.758 0 5.047 8.793-1.418 17.549-3.938 5.333-3.914 5.33-12.589 1.727-2.84-1.179-3.955-1.548-6.952-2.295l-6.061-1.441c-9.253-2.066-8.553-.974-8.555-13.346-.002-13.389.009-13.4 9.135-10.423M91.49 191.969c.11.289-.755 2.495-1.923 4.902-4.32 8.902-4.743 11.023-5.036 25.232l-.217 10.517h-.882c-1.925 0-5.714-8.361-5.714-12.607.001-5.561 2.581-16.12 4.797-19.631.499-.791.907-1.538.907-1.661 0-.4 2.215-3.132 4.238-5.227 1.997-2.069 3.406-2.63 3.83-1.525m215.441 1.65c6.177 6.177 9.431 14.997 9.456 25.632l.012 5.17-2.066 3.992c-2.111 4.076-3.022 4.976-4.024 3.974-.384-.384-.491-2.547-.516-10.401-.043-13.697-.55-16.3-4.895-25.138-1.892-3.85-2.242-4.818-1.835-5.075 1.005-.636 1.734-.288 3.868 1.846m-183.94 11.639c-.005 4.302-.358 5.788-2.416 10.161-3.189 6.777-8.391 12.794-9.505 10.993-.111-.18.826-2.466 2.081-5.081 2.857-5.95 3.754-7.943 5.187-11.527l1.651-4.023c.28-.644.51-1.306.51-1.471 0-1.022 1.154-2.884 1.787-2.884.663 0 .708.245.705 3.832m151.313-.178l1.818 4.724 1.61 3.743c.626 1.471 2.17 4.821 3.431 7.445 2.343 4.873 2.609 6.016 1.355 5.808-2.494-.412-9.16-10.855-10.656-16.691-.556-2.173-.779-7.989-.323-8.445.852-.852 1.48-.076 2.765 3.416m-80.883-.283l.875.875v10.599c0 10.392-.015 10.615-.775 11.424l-.775.825h-10.554c-12.665 0-11.742.305-14.604-4.812-3.405-6.088-1.766-9.648 6.658-14.469 7.708-4.41 17.044-6.573 19.175-4.442m14.797-.207c14 3.107 22.605 10.624 19.685 17.195-2.971 6.686-3.086 6.735-15.557 6.735-13.687 0-12.346 1.351-12.346-12.432v-9.973l.923-1.097c1.132-1.345 2.737-1.439 7.295-.428m-59.858 15.603l2.984 3.12c4.701 4.909 6.997 8.401 8.147 12.392.844 2.932.858 16.875.016 17.198-.96.369-1.049.313-5.597-3.497-8.75-7.33-9.514-9.141-9.521-22.549-.005-10.532.102-10.711 3.971-6.664m101.539-1.847c.691.832.299 17.653-.464 19.923-1.414 4.21-3.365 6.649-9.15 11.442-5.97 4.945-6.063 4.879-6.055-4.322.009-11.154.829-13.117 9.411-22.538 4.49-4.93 5.376-5.568 6.258-4.505m-57.908 14.814c2.345.891 2.28.419 2.293 16.755l.012 14.798-.885.954c-1.17 1.263-2.525 1.432-10.345 1.292-11.102-.198-10.662.478-10.797-16.611-.142-18.02-.541-17.444 12.111-17.513 3.735-.02 7.078.122 7.611.325m25.834.025c4.323.992 4.635 2.123 4.635 16.781 0 17.205.112 17.051-12.4 17.055-10.782.003-10.06 1.218-10.06-16.926 0-15.341.064-15.825 2.215-16.759 1.422-.618 13.087-.731 15.61-.151m-70.222 15.911c.485.336 1.283.988 1.773 1.448s2.368 2.138 4.172 3.727c5.875 5.176 6.523 6.637 6.523 14.697 0 9.068-.678 9.212-8.037 1.709-7.091-7.229-7.429-7.917-7.59-15.457-.118-5.491-.107-5.592.703-6.159 1.037-.726 1.365-.722 2.456.035m101.725.128c.926.728.939.802.915 5.08-.043 7.798-.976 9.663-8.641 17.265-6.563 6.508-7.498 6.132-7.314-2.942.156-7.721.853-9.248 6.532-14.292l2.496-2.248c4.182-3.806 4.575-3.993 6.012-2.863" fill="#444d6a"/><path d="M171.622 72.611c-2.046 1.021-2.282 1.889-2.282 8.405 0 6.533.073 6.327-2.673 7.564l-6.149 2.911-4.901 2.27c-.155 0-4.362 1.973-12.123 5.686l-5.348 2.517-6.85 3.241c-2.002.961-3.79 1.747-3.973 1.747-.42 0-7.594 2.851-8.072 3.208-.196.147-1.479.868-2.852 1.602-23.199 12.416-31.588 33.377-25.681 64.171l.546 2.849-2.79 2.677c-6.192 5.94-10.484 12.726-13.195 20.858-3.794 11.382-4.272 21.459-1.125 23.708.137.098.634.846 1.105 1.662.824 1.431 3.211 5.245 15.801 25.254l8.038 12.798c5.385 8.619 9.641 6.961 14.087-5.489 3.023-8.466 4.034-13.24 4.401-20.781l.239-4.916 3.387-4.25c3.801-4.771 3.842-4.794 5.072-2.936.488.738 1.836 2.543 2.994 4.011 2.487 3.15 3.472 4.89 4.369 7.716 1.309 4.122 1.291 6.621-.101 14.738l-1.093 6.418-1.799 10.516c-.976 5.64-1.013 6.384-.383 7.603.734 1.419 1.998 2.254 3.895 2.573.817.137 3.169.59 5.228 1.007l11.052 2.177 14.438 2.876c.784.172 2.79.572 4.456.888s3.672.729 4.457.917c12.139 2.92 31.579 2.77 47.772-.37l4.812-.925 14.617-2.836 10.161-1.96 9.091-1.773c.882-.188 1.705-.349 1.829-.357 2.336-.161 2.852-3.721 1.579-10.889l-.907-5.169-1.67-9.804-.682-3.872c-1.393-7.714.456-15.109 4.893-19.56.337-.338 1.36-1.662 2.273-2.941 2.112-2.959 1.866-3.018 5.153 1.239.681.882 1.327 1.685 1.435 1.783 1.943 1.76 2.405 3.024 2.605 7.13.214 4.407.705 8.478 1.332 11.051 1.16 4.762 1.474 5.947 1.748 6.596.165.392.571 1.515.901 2.495.794 2.36.907 2.623 2.895 6.774 3.161 6.599 4.421 8.015 7.133 8.019 2.48.004 3.51-.987 6.294-6.058l3.645-6.417c.425-.687.882-1.489 1.017-1.783s.537-1.016.895-1.604a119.02 119.02 0 0 0 1.838-3.209l2.076-3.743a76.17 76.17 0 0 1 1.724-2.934c.459-.732.835-1.436.835-1.566s.613-1.216 1.363-2.413 1.473-2.419 1.608-2.713.537-1.016.895-1.604 1.184-2.032 1.836-3.209a91.87 91.87 0 0 1 2.019-3.468c.459-.732.835-1.436.835-1.565s.505-1.055 1.123-2.057 1.752-2.994 2.521-4.426l1.398-2.604-.22-3.278c-1.004-14.949-6.275-27.136-15.941-36.854l-3.255-3.273.442-2.431c1.332-7.327 1.539-9.533 1.583-16.871.055-9.194-.276-11.671-2.775-20.798-2.447-8.937-10.214-18.274-20.379-24.497-4.006-2.453-10.798-5.768-14.064-6.864-2.037-.684-5.119-2.075-15.139-6.83l-19.24-9.031-5.704-2.746-2.863-1.426-.179-6.453c-.192-6.95-.251-7.169-2.231-8.157-1.774-.885-2.741-.667-9.227 2.072-8.596 3.63-11.839 4.516-16.527 4.516-3.366 0-9.711-1.298-10.678-2.184a1.38 1.38 0 0 0-.805-.311c-.256 0-2.315-.883-4.576-1.961s-4.335-1.961-4.611-1.961-.599-.16-.721-.356c-.329-.532-2.697-.388-3.957.24m5.089.797c.358.2 1.453.711 2.433 1.135l4.371 1.963c10.058 4.631 16.654 4.381 29.726-1.128 6.435-2.712 7.267-2.921 9.095-2.284 1.987.693 2.263 1.73 2.263 8.513v6.096l3.476 1.638 8.194 3.921 4.898 2.282c.099 0 2.521 1.123 5.382 2.495l5.364 2.496c.09 0 2.122.945 4.517 2.1 5.936 2.863 8.987 4.258 10.728 4.906 16.922 6.295 28.488 15.811 33.514 27.575 3.714 8.692 5.259 27.193 3.112 37.255a147.05 147.05 0 0 0-.748 3.922l-.443 2.497 3.873 3.92c6.473 6.554 10.245 13.214 13.324 23.529.757 2.535 1.444 6.716 1.819 11.075l.404 4.682-1.421 2.638c-2.034 3.778-3.294 6.011-4.249 7.534-.459.731-.835 1.41-.835 1.508s-.642 1.228-1.426 2.509-1.426 2.411-1.426 2.509-.376.778-.835 1.509c-.731 1.164-2.118 3.597-3.707 6.499-.268.491-.773 1.373-1.123 1.961a160.63 160.63 0 0 0-1.819 3.209c-.652 1.176-1.56 2.737-2.02 3.469s-.835 1.41-.835 1.508-.641 1.228-1.426 2.509-1.426 2.411-1.426 2.509-.375.778-.834 1.509a78.71 78.71 0 0 0-1.728 2.934l-2.058 3.667c-3.339 5.907-8.423 2.43-12.4-8.48-3.587-9.843-4.727-15.09-4.727-21.77 0-4.195-.193-5.154-1.299-6.464-.364-.43-1.945-2.394-3.513-4.363-2.936-3.686-3.759-4.196-4.492-2.786-.392.753-3.721 5.052-4.966 6.41-4.779 5.218-5.137 13.308-1.406 31.825 2.997 14.877 2.906 15.143-5.714 16.734l-6.774 1.3-5.525 1.059-9.983 1.935-4.634.91-4.457.842-5.704 1.098c-13.425 2.575-31.221 2.597-44.563.055l-4.813-.899a156.99 156.99 0 0 1-4.634-.937c-2.174-.477-3.64-.774-8.913-1.807l-7.308-1.476-8.022-1.538c-.98-.149-2.504-.434-3.387-.633l-3.649-.805c-3.632-.784-3.963-2.276-2.405-10.847l1.284-7.308.843-4.991.914-5.348c1.521-8.902.303-14.422-4.444-20.156-.968-1.169-2.373-3.045-3.123-4.169-1.655-2.484-2.267-2.521-4.024-.244a263.09 263.09 0 0 1-3.61 4.511l-2.349 2.877-.226 5.293c-.397 9.297-2.768 18.105-7.266 26.996-2.043 4.039-5.327 4.835-7.75 1.879-.699-.854-1.271-1.663-1.271-1.798s-.174-.439-.386-.676c-.357-.399-2.002-3.012-12.84-20.395l-6.202-9.804c-8.799-13.542-8.9-13.765-8.369-18.537 1.726-15.493 6.788-26.681 16.142-35.677l3.177-3.055-.55-2.47c-1.314-5.907-1.489-7.899-1.489-16.91 0-10.655.523-14.523 2.941-21.747 4.251-12.7 17.626-24.55 33.601-29.769 1.831-.599 5.015-2.045 13.725-6.235l5.348-2.509 4.991-2.31 5.169-2.411 12.478-5.906 1.248-.625.178-6.24c.191-6.688.479-7.78 2.249-8.539.914-.393 3.826-.184 4.765.341m-52.112 42.259c-2.765.542-3.184.687-6.774 2.33-11.569 5.299-17.547 12.711-20.42 25.319-.79 3.466-.882 21.196-.135 26.203 1.336 8.964 1.169 8.722 4.359 6.292 11.558-8.805 19.666-18.161 21.911-25.284 4.338-13.766 17.716-28.159 27.173-29.235 1.998-.228 1.971-.979-.067-1.853-7.837-3.359-19.519-5.051-26.047-3.772m134.581-.272c-4.421.456-16.173 3.858-16.821 4.868-.382.596.02.949 1.08.949 8.787 0 22.439 14.518 27.492 29.234 2.376 6.921 9.511 15.569 19.087 23.135l3.901 3.106c1.824 1.483 2.094 1.107 2.838-3.96 3.742-25.492-.516-42.092-12.995-50.666-8.246-5.666-15.424-7.612-24.582-6.666m-100.356 5.956c-.197.072-1.079.341-1.961.597-10.418 3.027-23.318 14.402-26.049 22.972-1.282 4.024-3.004 7.377-6.224 12.124-3.852 5.678-3.766 7.202.443 7.833 5.233.785 10.034 3.618 15.395 9.085 4.072 4.152 5.939 5.437 9.1 6.26 3.368.877 3.924.77 15.356-2.978l8.556-2.734 7.843-2.487c.785-.249 2.309-.652 3.387-.894 9.091-2.048 9.618-3.205 9.622-21.143.004-14.98 0-15.01-2.525-17.283-2.915-2.625-14.25-8.009-21.918-10.41-2.25-.705-9.89-1.357-11.025-.942m67.965.388c-4.495 1.018-11.105 3.686-17.986 7.261-8.99 4.671-8.595 3.759-8.731 20.138-.149 17.979.601 19.793 9.019 21.801 3.319.791 10.834 3.134 27.59 8.601 7.597 2.479 11.172 1.158 18.686-6.902 3.728-3.999 9.183-7.005 14.149-7.796 3.728-.593 4.154-2.408 1.454-6.197-3.436-4.821-5.871-9.305-6.972-12.834-2.791-8.946-13.73-19.168-25.271-23.614-2.432-.936-8.751-1.179-11.938-.458m-114.017 49.679c-1.798 1.332-5.52 3.919-8.27 5.748-4.087 2.718-5.096 3.56-5.529 4.612l-2.342 5.744-2.147 5.17c-7.692 16.392-8.076 19.523-4.981 40.608 2.334 15.899 20.896-4.536 29.438-32.409 4.387-14.314 4.413-28.881.055-30.942-2.49-1.177-2.725-1.122-6.224 1.469m163.726-1.905c-.769.274-1.892.992-2.495 1.595l-1.097 1.097-.107 8.9c-.11 9.183-.023 10.093 1.479 15.508 3.667 13.222 8.578 24.09 14.525 32.141 8.854 11.987 15.244 13.289 16.342 3.332l.93-7.487c1.798-13.233 1.892-12.78-7.181-34.627l-3.35-8.4c0-.506-1.734-1.984-3.922-3.343-2.014-1.251-10.918-7.394-12.437-8.581-.995-.778-.895-.773-2.687-.135m-90.58 7.09l-11.052 3.604-10.674 3.431c-2.341.764-4.527 1.389-4.858 1.389-6.391 0-4.795 11.205 2.793 19.613 2.239 2.481 3.275 2.826 5.482 1.826 6.609-2.996 11.085-4.373 20.983-6.457 5.957-1.255 5.704-.684 5.704-12.871 0-13.271-.056-13.341-8.378-10.535m16.014-1.162c-1.803.904-1.932 1.691-1.931 11.78.002 12.372-.698 11.28 8.555 13.346l6.061 1.441c2.997.747 4.112 1.116 6.952 2.295 8.675 3.603 8.651 3.606 12.589-1.727 6.465-8.756 7.176-17.549 1.418-17.549-.47 0-2.772-.621-5.114-1.379l-10.676-3.424-10.65-3.426c-4.988-1.628-6.206-1.857-7.204-1.357M87.66 193.494c-2.023 2.095-4.238 4.827-4.238 5.227 0 .123-.408.87-.907 1.661-2.216 3.511-4.796 14.07-4.797 19.631 0 4.246 3.789 12.607 5.714 12.607h.882l.217-10.517c.293-14.209.716-16.33 5.036-25.232 2.901-5.978 2.053-7.479-1.907-3.377m215.403-1.721c-.407.257-.057 1.225 1.835 5.075 4.345 8.838 4.852 11.441 4.895 25.138.025 7.854.132 10.017.516 10.401 1.002 1.002 1.913.102 4.024-3.974l2.066-3.992-.012-5.17c-.025-10.635-3.279-19.455-9.456-25.632-2.134-2.134-2.863-2.482-3.868-1.846m-182.024 10.944c-.297.711-.54 1.427-.54 1.593s-.23.827-.51 1.471a196.85 196.85 0 0 0-1.651 4.023c-1.433 3.584-2.33 5.577-5.187 11.527-1.255 2.615-2.192 4.901-2.081 5.081 1.463 2.366 9.133-8.145 11.403-15.627 1.472-4.852.204-11.988-1.434-8.068m150.5-1.053c-.456.456-.233 6.272.323 8.445 1.496 5.836 8.162 16.279 10.656 16.691 1.254.208.988-.935-1.355-5.808-1.261-2.624-2.805-5.974-3.431-7.445l-1.61-3.743c-.261-.588-1.079-2.714-1.818-4.724-1.285-3.492-1.913-4.268-2.765-3.416m-85.799 2.944c-3.419.796-8.053 2.663-11.494 4.631-8.424 4.821-10.063 8.381-6.658 14.469 2.862 5.117 1.939 4.812 14.604 4.812h10.554l.775-.825c.76-.809.775-1.032.775-11.424v-10.599l-.875-.875c-1.079-1.079-3.588-1.141-7.681-.189m15.183.41l-.923 1.097v9.973c0 13.783-1.341 12.432 12.346 12.432 11.711 0 11.516.046 13.549-3.124 4.073-6.349 3.451-10.243-2.248-14.059-8.972-6.01-20.327-9.167-22.724-6.319m-56.092 13.043c-.678.274-.617 16.739.072 19.325.634 2.381 2.087 5.288 3.499 7.002 1.165 1.413 9.748 8.731 10.241 8.731 1.394 0 1.428-.189 1.428-7.915 0-11.176-1.094-13.92-8.727-21.891l-2.984-3.12c-2.187-2.288-2.57-2.519-3.529-2.132m98.81 4.79c-8.582 9.421-9.402 11.384-9.411 22.538-.008 9.201.085 9.267 6.055 4.322 8.893-7.367 9.657-9.068 9.889-22.007.217-12.161.162-12.203-6.533-4.853m-67.04 10.287c-4.258 1.016-4.454 1.791-4.332 17.21.135 17.089-.305 16.413 10.797 16.611 7.82.14 9.175-.029 10.345-1.292l.885-.954-.012-14.798c-.013-16.336.052-15.864-2.293-16.755-1.083-.412-13.68-.43-15.39-.022m25.614.198c-2.151.934-2.215 1.418-2.215 16.759 0 18.144-.722 16.929 10.06 16.926 12.512-.004 12.4.15 12.4-17.055 0-17.339.136-17.155-12.656-17.145-4.767.004-6.719.136-7.589.515m-57.068 15.725c-.81.567-.821.668-.703 6.159.161 7.54.499 8.228 7.59 15.457 7.359 7.503 8.037 7.359 8.037-1.709 0-8.06-.648-9.521-6.523-14.697l-4.172-3.727c-2.244-2.108-2.972-2.363-4.229-1.483m101.013.576c-.78.634-2.06 1.736-2.844 2.45l-2.496 2.248c-5.679 5.044-6.376 6.571-6.532 14.292-.184 9.074.751 9.45 7.314 2.942 7.665-7.602 8.598-9.467 8.641-17.265.024-4.278.011-4.352-.915-5.08-1.241-.976-1.5-.943-3.168.413" fill="#9baaca"/><path d="M0 178.253v178.253h200 200V178.253 0H200 0v178.253M175.579 72.371c.122.196.446.356.721.356s2.351.883 4.611 1.961l4.576 1.961a1.38 1.38 0 0 1 .805.311c.967.886 7.312 2.184 10.678 2.184 4.688 0 7.931-.886 16.527-4.516 6.486-2.739 7.453-2.957 9.227-2.072 1.98.988 2.039 1.207 2.231 8.157l.179 6.453 2.863 1.426 5.704 2.746 19.24 9.031c10.02 4.755 13.102 6.146 15.139 6.83 3.266 1.096 10.058 4.411 14.064 6.864 10.165 6.223 17.932 15.56 20.379 24.497 2.499 9.127 2.83 11.604 2.775 20.798-.044 7.338-.251 9.544-1.583 16.871l-.442 2.431 3.255 3.273c9.666 9.718 14.937 21.905 15.941 36.854l.22 3.278-1.398 2.604c-.769 1.432-1.903 3.424-2.521 4.426s-1.123 1.927-1.123 2.057-.376.833-.835 1.565a91.87 91.87 0 0 0-2.019 3.468l-1.836 3.209c-.358.588-.761 1.31-.895 1.604s-.858 1.515-1.608 2.713-1.363 2.283-1.363 2.413-.376.834-.835 1.566a76.17 76.17 0 0 0-1.724 2.934l-2.076 3.743-1.838 3.209c-.358.588-.761 1.31-.895 1.604s-.592 1.096-1.017 1.783c-.675 1.091-2.046 3.504-3.645 6.417-2.784 5.071-3.814 6.062-6.294 6.058-2.712-.004-3.972-1.42-7.133-8.019-1.988-4.151-2.101-4.414-2.895-6.774-.33-.98-.736-2.103-.901-2.495-.274-.649-.588-1.834-1.748-6.596-.627-2.573-1.118-6.644-1.332-11.051-.2-4.106-.662-5.37-2.605-7.13-.108-.098-.754-.901-1.435-1.783-3.287-4.257-3.041-4.198-5.153-1.239-.913 1.279-1.936 2.603-2.273 2.941-4.437 4.451-6.286 11.846-4.893 19.56l.682 3.872 1.67 9.804.907 5.169c1.273 7.168.757 10.728-1.579 10.889-.124.008-.947.169-1.829.357-1.659.353-5.975 1.195-9.091 1.773l-10.161 1.96-14.617 2.836-4.812.925c-16.193 3.14-35.633 3.29-47.772.37-.785-.188-2.79-.601-4.457-.917l-4.456-.888c-2.062-.452-6.139-1.264-14.438-2.876l-11.052-2.177-5.228-1.007c-1.897-.319-3.161-1.154-3.895-2.573-.63-1.219-.593-1.963.383-7.603l1.799-10.516 1.093-6.418c1.392-8.117 1.41-10.616.101-14.738-.897-2.826-1.882-4.566-4.369-7.716-1.158-1.468-2.506-3.273-2.994-4.011-1.23-1.858-1.271-1.835-5.072 2.936l-3.387 4.25-.239 4.916c-.31 6.388-1.228 11.409-3.112 17.037-5.435 16.236-9.482 18.666-15.376 9.233l-8.038-12.798-15.801-25.254c-.471-.816-.968-1.564-1.105-1.662-3.147-2.249-2.669-12.326 1.125-23.708 2.711-8.132 7.003-14.918 13.195-20.858l2.79-2.677-.546-2.849c-5.907-30.794 2.482-51.755 25.681-64.171 1.373-.734 2.656-1.455 2.852-1.602.478-.357 7.652-3.208 8.072-3.208.183 0 1.971-.786 3.973-1.747l6.85-3.241 5.348-2.517 12.123-5.686c.098 0 2.304-1.021 4.901-2.27l6.149-2.911c2.746-1.237 2.673-1.031 2.673-7.564 0-6.516.236-7.384 2.282-8.405 1.26-.628 3.628-.772 3.957-.24" fill="#14181D"/><path d="M177.042 83.719c-2.21 3.576 1.266 18.805 6.809 29.828 4.463 8.877 6.234 11.136 8.559 10.915.787-.075 1.886-1.586 1.886-2.594 0-1.759-7.466-26.359-8.639-28.463-3.465-6.218-7.768-11.056-8.615-9.686m38.211.327c-.582.668-2.706 3.711-5.413 7.754-1.817 2.713-2.479 4.653-7.87 23.04-2.46 8.39-2.097 10.406 1.703 9.452 2.239-.562 10.112-15.979 12.379-24.243 2.728-9.943 2.251-19.502-.799-16.003" fill="#e61652"/><path d="M167.558 95.44c-.294.108-2.219.996-4.278 1.974l-5.704 2.67-7.843 3.738-7.487 3.581c-2.281 1.046-2.852 1.634-2.852 2.936 0 2.078.592 2.347 7.843 3.567l5.882 1.057 6.061 1.076 5.169.896 4.991.881 5.286.909c4.512.796 6.782-2.583 4.491-6.686-1.139-2.04-3.412-7.754-4.222-10.613-1.451-5.123-4.007-7.209-7.337-5.986m55.375.301c-1.54.675-2.111 1.599-3.175 5.147-1.279 4.264-2.026 6.225-3.879 10.191-1.864 3.989-1.901 4.26-.804 5.891 1.591 2.367 1.932 2.357 18.08-.54l13.511-2.381c6.874-1.184 7.621-1.42 8.175-2.578 1.074-2.246-1.044-3.68-14.199-9.613-1.079-.486-4.047-1.885-6.596-3.109-8.161-3.917-8.703-4.064-11.113-3.008" fill="#ec846a"/></svg>