<svg xmlns="http://www.w3.org/2000/svg" width="400" height="320" fill-rule="evenodd" xmlns:v="https://vecta.io/nano"><path d="M170.16 60.77c-1.02 1.13-1.26 2.84-1.27 9.08l-.26 6.43c-.24.33-3.76 2.12-9.46 4.8l-10.78 5.02a23.24 23.24 0 0 0-1.73.83 11.02 11.02 0 0 1-1.05.52c-.28.11-1.61.72-2.95 1.35l-5.56 2.59c-1.72.79-3.36 1.59-3.65 1.77s-.76.42-1.04.54c-.72.29-4.53 2.04-7.47 3.44-1.34.63-3.22 1.4-4.17 1.71-2.13.68-2.46.82-5.77 2.41-1.45.69-2.82 1.26-3.04 1.26s-.4.16-.4.35-.2.34-.44.34c-.46 0-1.94.74-4.08 2.04-.67.41-1.45.84-1.74.97s-1.09.68-1.79 1.22-1.4.99-1.56 1-.87.51-1.56 1.12-1.63 1.36-2.07 1.65c-1.36.88-7.62 7.09-7.62 7.55 0 .24-.13.44-.3.44s-.75.66-1.3 1.48-1.08 1.55-1.17 1.65-.47.72-.83 1.39l-1.59 2.95c-.52.96-1.31 2.83-1.75 4.17s-.94 2.75-1.11 3.13c-.29.69-.6 2.03-1.33 5.74l-.8 3.82c-.27 1.24-.42 5.36-.42 11.81 0 9.53.13 11.25 1.27 17.03.2 1.05.49 2.7.63 3.65l.26 1.74-1.75 1.56c-3.09 2.75-5.83 5.67-6.9 7.34-.32.5-.79 1.12-1.05 1.39s-.85 1.11-1.32 1.87-1.04 1.6-1.29 1.85-.44.66-.44.91-.24.65-.53.89a1.57 1.57 0 0 0-.52 1.04c0 .34-.23.81-.52 1.05a1.59 1.59 0 0 0-.52 1.08c0 .36-.15.65-.34.65s-.44.43-.57.96-.38 1.15-.56 1.38-.46.94-.62 1.56c-.39 1.56-1.04 3.39-1.61 4.5-.26.51-.47 1.33-.47 1.83s-.23 1.48-.52 2.16a7.78 7.78 0 0 0-.52 2.54c0 .71-.23 2.05-.51 3-.31 1.02-.55 3.6-.61 6.4l-.1 4.69 1.04 1.57 1.39 2.15 1.36 2.25c.56.92 1.11 1.76 1.22 1.85.25.22.95 1.33 1.43 2.26a21.53 21.53 0 0 0 .95 1.62c.33.51 1.06 1.68 1.62 2.61s1.23 1.89 1.48 2.14.46.68.46.95.12.5.27.5.57.59.95 1.3c.64 1.24 1.87 3.19 2.25 3.57.1.09.37.48.6.86l1.49 2.44 1.49 2.43a59.11 59.11 0 0 0 1.11 1.73l1.05 1.62a202.47 202.47 0 0 0 3.3 5.33c.29.43 1.22 1.91 2.08 3.29l2.18 3.43c.34.51.71 1.21.82 1.54s.35.61.52.61.31.21.31.48.22.66.5.89.83 1.07 1.24 1.87c1.27 2.46 2.52 3.36 4.62 3.35 2.83-.03 3.87-1.26 6.85-8.16l1.02-2.32c.39-.9.71-1.78.71-1.96s.23-.78.52-1.32.52-1.34.52-1.76.15-.85.33-.96.43-.94.57-1.85.37-1.82.55-2.03.45-1.39.62-2.61.48-2.84.68-3.6.39-3.8.4-6.75c.02-6.18-.12-5.8 3.63-10.36l.7-.87 3.33-4.09c.12-.1.39-.53.62-.96.58-1.09 1.71-1 2.16.17.19.52.48 1.03.63 1.13s.86.95 1.58 1.9a131.69 131.69 0 0 0 2.74 3.48c4.64 5.63 6.82 13.82 5.27 19.76-.29 1.11-.52 2.47-.52 3.05s-.22 2.01-.49 3.19-.68 3.33-.91 4.77l-.88 5.21-.98 5.73-.92 5.39c-.85 4.96 1.05 7.3 5.96 7.3.55 0 1.9.22 3 .5 1.87.47 3.64.82 10.59 2.12a123.04 123.04 0 0 1 4.44.91 123.54 123.54 0 0 0 4.08.86l10.16 2.04 5.22 1.04 5.56 1.03c1.62.31 4.52.71 6.43.91s3.94.49 4.51.66c1.7.49 15.22.73 20.86.37 7.85-.5 13.84-1.3 22.15-2.95l5.21-1.02 13.9-2.85c1.1-.27 2.35-.49 2.78-.49s1.84-.23 3.13-.52l4.69-1.05c1.29-.29 2.74-.52 3.22-.52s1.63-.24 2.57-.52 2.27-.53 2.96-.54c6.1-.11 7.09-2.42 5.05-11.85-.28-1.27-.5-2.86-.5-3.54s-.16-1.65-.36-2.16-.49-2.04-.66-3.41a106.91 106.91 0 0 0-1.44-8.56c-.18-.86-.49-2.74-.69-4.17l-.57-4.12c-.75-5.5 2.24-12.77 7.98-19.38.4-.45 1.28-1.63 1.97-2.62 1.87-2.7 1.22-3.13 7.95 5.27l2.19 2.69c.56.68.66 1.4.68 5.22.01 2.43.16 5.21.34 6.16a112.41 112.41 0 0 1 .67 4.17c.19 1.34.49 2.75.67 3.13s.43 1.44.55 2.34.37 1.73.55 1.84.32.55.33.97.23 1.21.52 1.75.52 1.26.52 1.59.23.89.51 1.26.51.88.52 1.13c.01.66 3.31 7.89 3.83 8.41.1.09.54.92.98 1.82 2 4.09 6.99 4.65 8.62.97.34-.77.74-1.4.89-1.4s.28-.28.28-.63.18-.8.39-1.01c.45-.45 1.16-1.64 1.71-2.87.21-.48.49-.95.62-1.04s.6-.89 1.04-1.75c.9-1.77 2.39-4.45 3.49-6.25a22.01 22.01 0 0 0 1.11-2.08c.21-.48.48-.95.61-1.05s.56-.79.94-1.54.85-1.54 1.04-1.74.74-1.16 1.22-2.11 1.25-2.36 1.73-3.13c.93-1.5 1.37-2.29 2.67-4.69a82.33 82.33 0 0 1 1.57-2.78c.4-.67 1.19-2.08 1.75-3.13s1.57-2.79 2.22-3.86 1.18-2.14 1.18-2.35.14-.39.31-.39.48-.43.69-.95c.32-.83 1.16-2.35 3.3-6 1.18-1.99 1.67-3.38 1.66-4.69-.01-1.74-.67-7.42-1.13-9.73a128.93 128.93 0 0 1-.64-3.52c-.16-.98-.47-2.1-.68-2.5a3.87 3.87 0 0 1-.39-1.52c0-.44-.23-1.25-.52-1.8s-.52-1.2-.52-1.46-.25-1.06-.56-1.79l-.99-2.36c-1.13-2.7-2.87-6.03-3.35-6.42-.12-.1-.33-.53-.46-.96s-.39-.78-.57-.78-.32-.16-.32-.35c0-.43-2.43-3.95-2.84-4.11-.16-.07-.29-.31-.29-.55s-1.89-2.26-4.21-4.51c-3.8-3.7-4.18-4.18-3.97-5.02.54-2.13 1.27-6.71 1.59-9.96l.66-5.91c.47-3.55-.25-17.4-.99-19.15-.18-.4-.43-1.61-.56-2.7s-.39-2.05-.55-2.15-.31-.53-.31-.93c0-1.9-2.38-7.93-4.77-12.08-2.57-4.47-8.78-10.96-14-14.61-.67-.47-1.29-.95-1.39-1.05-.73-.83-10.58-6.19-13.72-7.47l-2.36-.99c-.73-.3-1.55-.56-1.83-.56s-.79-.14-1.12-.32-1.38-.67-2.34-1.09-1.97-.89-2.26-1.06a8.15 8.15 0 0 0-1.04-.51 6.73 6.73 0 0 1-1.04-.52c-.28-.18-.76-.42-1.05-.53-.96-.38-2.58-1.12-7.12-3.28l-5.74-2.68c-.66-.29-1.45-.67-1.73-.83s-.76-.4-1.05-.51-1.92-.88-3.64-1.71l-4.87-2.26c-.96-.41-3.46-1.59-5.56-2.6l-6.86-3.26-3.04-1.43v-6.87c0-7.18-.11-7.75-1.69-9.02-.72-.59-4.42-.56-5.56.05-.51.27-2.72 1.22-4.92 2.11l-7.12 2.98c-4.81 2.12-17.16 2.14-22.18.04-.54-.22-1.11-.41-1.27-.41s-.74-.22-1.29-.49c-1.25-.64-5.47-2.58-7.06-3.26a46.28 46.28 0 0 1-2.14-.99c-1.44-.73-5.26-.62-5.98.18m11.88 14.29l4 5c2.27 2.81 3.4 5.29 6.14 13.49l3.12 9.14c.17.39.65 1.79 1.08 3.13s.99 2.93 1.25 3.53.46 1.31.46 1.57c0 .62.98 2.02 1.41 2.02.18 0 .33-.27.33-.61s.86-3.12 1.92-6.17l3.29-9.92c0-.22.22-.89.48-1.49s.83-2.11 1.25-3.35l1.05-2.96a129.45 129.45 0 0 0 1.03-2.78c.88-2.44 3.96-6.77 8.82-12.42 1.79-2.08 2.65-2.42 3.88-1.52 1.94 1.42.15 14.85-2.98 22.28-.86 2.06-2.81 6.33-3.1 6.78-.18.29-.72 1.3-1.21 2.26s-1.09 2.05-1.32 2.43l-2.51 4.07c-.59.99-3.07 4.55-4.12 5.94-1.96 2.57-5.36 2.74-6.47.31l-.42-.93-.84.97c-1.95 2.27-4.61 2.28-6.35.03-2.63-3.41-7.85-11.7-9.5-15.09-1.1-2.27-2.71-5.94-2.72-6.18 0-.13-.21-.65-.48-1.15s-.82-2.07-1.24-3.48l-1.06-3.43c-1.02-2.94-1.67-11.46-1.01-13.47.96-2.94 2.19-2.52 5.82 2m-11.62 9.91c1.19.5 3.34 2.94 3.34 3.8 0 1.4 2.98 9.46 5.03 13.58 3.69 7.44-.31 10.55-10.07 7.79-.57-.16-2.13-.44-3.47-.63s-4.7-.75-7.47-1.24l-8-1.43-4.69-.85c-.95-.19-3.22-.58-5.04-.87-3.54-.57-4.83-1.22-5.37-2.72-.77-2.18.48-3.25 7.63-6.55l5.73-2.65 8.69-4.14c10.71-5.16 10.94-5.23 13.69-4.09m65.85 1.61l6.65 3.16c14.42 6.62 20.18 9.62 20.67 10.8.47 1.12 0 2.8-.98 3.43-.62.4-5.95 1.47-14.48 2.89l-11.81 2.09c-15.36 2.8-16.07 2.81-17.73.09-1.04-1.71-.86-3.15.83-6.66l2.05-4.38c.61-1.38 2.56-7.37 2.83-8.71 1.03-5.08 5.17-6.02 11.97-2.71m-104.5 20.81c2.27.21 4.55.67 5.91 1.17 1.21.46 2.9.94 3.76 1.08s2.5.68 3.65 1.21l3.12 1.38c1.25.51.85.84-1.76 1.41-7.2 1.57-17.7 10.52-23.24 19.81l-2.12 3.47c-.43.67-.89 1.61-1.03 2.09s-.62 1.5-1.06 2.27-.99 2.18-1.19 3.15a16.67 16.67 0 0 1-1.23 3.44c-.47.93-.86 1.94-.86 2.26s-.39 1.12-.88 1.77c-.88 1.19-1.84 2.55-3.4 4.83-2.29 3.35-13.92 14.18-19.3 17.95-2.76 1.95-3.25 1.04-3.87-7.17-.23-2.97-.63-6.72-.9-8.34-.68-4.2-.61-10 .19-14.83.37-2.26.78-5.29.91-6.72s.44-3 .68-3.48.77-1.87 1.17-3.1.95-2.48 1.21-2.78.67-1.17.92-1.94c.47-1.47.89-2.07 4.62-6.44 2.85-3.33 5.83-5.67 10.31-8.1 3.85-2.07 4.35-2.31 4.86-2.31.29 0 1.27-.39 2.17-.87 2.71-1.44 9.75-1.93 17.36-1.21m150.07.49l3.65 1.32c1.15.4 2.53 1.09 3.07 1.54s1.26.81 1.6.81 1.2.4 1.91.88a29.2 29.2 0 0 0 2.59 1.54c4.11 2.09 11.85 11.82 12.73 16 .14.67.61 1.85 1.05 2.61.47.83.88 2.29 1.02 3.65.12 1.24.56 3.51.97 5.04.99 3.68 1.09 17.03.17 21.54-.31 1.53-.67 3.96-.79 5.39-.3 3.61-.85 7.07-1.16 7.39-.5.5-3-1.02-6.7-4.09l-2.74-2.26c-2.95-2.42-11.7-11.36-13.04-13.32-2.2-3.21-3.25-4.87-3.58-5.62-1.11-2.51-1.94-4.79-2.38-6.6-.28-1.14-.66-2.26-.85-2.49-.31-.38-1.64-2.86-3.6-6.74-.44-.87-1.05-1.78-1.36-2.04s-.55-.6-.55-.76c0-.69-5.69-7.26-8.64-9.99-4.66-4.31-8.95-6.88-13.41-8.03-2.47-.64-2.78-1.19-.99-1.76.72-.23 2.04-.77 2.92-1.21a17.52 17.52 0 0 1 3.47-1.17 34.91 34.91 0 0 0 3.79-1.08c4.03-1.46 17.48-1.81 20.85-.55m-117.11 5.78c4.7.66 11.68 3.23 19.63 7.24 12.47 6.3 11.7 4.62 11.57 25.1-.11 17.76.05 16.69-2.9 19.64-1.88 1.87-3.03 2.45-6.53 3.28-3.7.88-15.04 4.34-18.13 5.53-.38.15-1.86.61-3.3 1.04s-2.92.89-3.3 1.04c-13.23 5.32-18.77 4.28-26.73-5-2.4-2.79-7.41-6.51-9.76-7.24-.38-.12-1.86-.62-3.29-1.11s-2.96-.89-3.4-.89c-3.27 0-4.68-2.76-2.8-5.51 4.62-6.76 4.23-6.12 6.41-10.52 2.21-4.47 2.91-6.08 2.91-6.76 0-4.05 12.94-17.76 20.33-21.53.57-.29 1.28-.67 1.56-.86.91-.57 4.28-2.1 5.91-2.68 3.82-1.36 6.39-1.53 11.82-.77m76.62-.2c2.6.47 4.94 1.16 6.35 1.87 5.38 2.71 6.88 3.63 11.02 6.78 7.48 5.68 13.83 13.72 14.95 18.94.6 2.77 3.27 7.74 7.21 13.37 3.3 4.74 2.86 7.87-1.12 7.87-4.77 0-11.35 3.91-17.9 10.64s-11.04 8.25-17.93 6.03l-17.34-5.55-6.43-2.09c-1.6-.61-5.4-1.69-8-2.26-4.69-1.03-7.43-2.94-9.1-6.34l-.98-1.99-.1-14.48c-.14-19.91-.57-18.91 10.57-24.64 9.62-4.95 17.05-7.66 22.72-8.29l2.96-.33c.19-.02 1.6.19 3.12.47m-129.79 53.58c4.03 2.01 4.34 2.98 4.34 13.67 0 9.2-.02 9.35-1.77 15.64l-1.06 3.82c-.29 1.05-.66 2.23-.82 2.61a13.54 13.54 0 0 0-.53 1.56c-.24.94-2.13 6.33-2.62 7.48l-1.21 2.95c-1.22 2.99-5.65 11.84-6.27 12.54-.27.3-.49.64-.49.76 0 .59-4.31 6.48-6.78 9.26-5.53 6.25-9.19 8.15-12.26 6.39-2.5-1.43-2.83-2.76-4.26-16.96-.19-1.91-.5-4.23-.69-5.14-.95-4.67.06-11.66 2.31-15.94.26-.51.48-1.08.48-1.28s.45-1.34 1-2.55a148.34 148.34 0 0 0 2.31-5.5l2.77-6.78 2.91-6.95c1.13-2.72 1.69-3.63 2.57-4.21l3.73-2.43c1.43-.93 2.69-1.78 2.78-1.89s.8-.57 1.57-1.03 1.54-.96 1.73-1.11c6.77-5.34 8.11-5.99 10.26-4.91m181.42 2.03c1.9 1.43 3.6 2.61 3.77 2.61a.51.51 0 0 1 .44.27c.12.27 8.54 5.98 8.82 5.98.64 0 2.25 2.08 2.91 3.74l1.24 3.04c1.18 2.71 1.55 3.59 2.09 5.04.56 1.48.86 2.22 2.09 5.03.98 2.23 1.49 3.46 2.61 6.26l2.1 5.21c2.1 5.18 2.73 11.86 1.7 18.18-.2 1.21-.5 3.63-.68 5.39-1.27 12.59-2.13 14.49-6.55 14.49-2.96 0-10.9-7.24-14.65-13.35-2.92-4.76-3.86-6.38-5.29-9.17-.91-1.77-2.06-4.2-2.55-5.38l-1.19-2.86c-2.3-5.21-4.99-13.79-6.77-21.54-.66-2.88-.78-19.64-.15-21.29.76-2.02 3.71-4.17 5.81-4.23.49-.02 2.16 1 4.25 2.58m-99.55 4.35c2.47.87 2.57 1.39 2.57 13.63v10.98l-.84 1c-.79.95-3.76 2.19-5.24 2.19-.35 0-1.43.22-2.4.49s-3.02.76-4.55 1.09c-2.64.56-6.48 1.64-7.99 2.24a86.25 86.25 0 0 1-2.43.87c-1.76.61-2.26.82-5.74 2.35-2.82 1.25-2.85 1.25-4.19.58-4.46-2.24-10.68-13.32-10.74-19.14-.03-2.8 2.17-5.51 4.47-5.51.62 0 2.48-.45 4.14-1l5.28-1.72 5.91-1.98c.67-.23 2.85-.93 4.86-1.55l4.87-1.57c.67-.24 3.09-1.02 5.38-1.73l4.52-1.41c.65-.2 1.11-.16 2.12.19m13.56-.04l15.95 5.08 8.16 2.58 4.87 1.57c2.85 1.04 4.74 1.58 5.49 1.58 6.38-.01 6.3 8.76-.16 18.49-3.87 5.84-6.36 7.38-9.55 5.89-5.93-2.76-11.39-4.64-16.81-5.78-1.53-.33-3.56-.8-4.51-1.05a39.72 39.72 0 0 0-3.27-.71c-5.18-.82-5.08-.53-5.08-14.19v-11.51l.8-.8c1.34-1.34 2.47-1.66 4.11-1.15M81.67 191.76l.77.63-.78 1.72c-.43.95-.87 1.8-.99 1.89-.77.62-4.33 9.08-4.9 11.65-.17.76-.49 2.01-.7 2.78-.23.83-.47 6.37-.59 13.9-.21 13.42-.26 13.8-1.97 13.47-.97-.19-2.32-2.2-4.61-6.87l-1.7-3.48.03-4.34c.06-12.1 4.53-23.62 11.69-30.15 2.2-2 2.6-2.13 3.75-1.19m238.27.76c.6.52 1.69 1.63 2.43 2.47l1.54 1.7c.52.46 3.41 5.6 4.1 7.3l1.09 2.6c1.74 4 2.93 11.87 2.7 17.9l-.14 4-1.67 3.13-2.33 4.34c-1.08 2.02-2.2 2.56-3.22 1.54-.47-.47-.55-1.95-.55-10.88 0-10.08-.54-17.22-1.42-18.87-.17-.32-.32-.85-.32-1.17s-.22-1.07-.49-1.67a234.52 234.52 0 0 1-1.8-4.23c-.72-1.72-1.64-3.67-2.04-4.34-2.69-4.49-1.37-6.87 2.12-3.82M116.8 203.01c1.45 2.71-.03 10.25-3.24 16.56-5.82 11.45-13.91 17.04-8.5 5.88 3.77-7.78 6.65-14.33 7.97-18.15 1.76-5.1 2.74-6.21 3.77-4.29m166.87.38a36.94 36.94 0 0 1 1.06 2.52c2.4 6.5 4.51 11.42 8.1 18.85 2.6 5.39 2.64 5.52 2.01 6.16-.83.82-1.13.68-3.25-1.47-4.28-4.33-8.11-10.89-9.92-16.94-.53-1.77-.75-9.56-.29-10.02.62-.62 1.77-.18 2.29.9m-88.45 2.87c.78.9.78.96.78 12.85v11.95l-.83.98-.84.97h-11.94-11.93l-1.16-.86c-3.7-2.76-6.18-9.84-4.65-13.28 1.32-2.99 6.59-7.19 12.07-9.62 8.65-3.84 16.64-5.13 18.5-2.99m17.29-.14c1.34.34 3.14.87 4 1.17l2.26.76c2.71.89 9.53 4.92 12.21 7.21 3.33 2.86 4.15 7.66 1.92 11.29-.61.98-1.1 1.85-1.1 1.94 0 .45-1.93 2.91-2.88 3.66l-1.1.86h-11.9-11.91l-.96-.96-.96-.96v-11.96-11.95l.82-.88c1.3-1.38 4.77-1.45 9.6-.18m-68.53 16.07c6.35 6.55 10.34 11.27 11.56 13.67 2.27 4.5 2.31 4.74 2.49 14.46.19 10.9-.17 11.73-3.78 8.72l-3.05-2.52c-2.89-2.38-4.54-3.83-5.46-4.81-1.12-1.2-3.6-4.51-3.6-4.81 0-.13-.23-.72-.51-1.32-1.34-2.92-1.58-5.15-1.58-14.72 0-6.81.12-9.46.42-9.77.82-.81 2.02-.44 3.51 1.1m113.9-.78c.67 1.25.23 20.24-.51 22.2-1.49 3.95-3.39 6.82-6.11 9.23l-2.25 2.02c-.39.36-1.8 1.53-3.14 2.61l-2.89 2.39c-.56.53-1.27.55-2.17.08-.63-.34-.67-.81-.67-8.49 0-13.64 1.06-15.83 14.08-29.24 1.68-1.73 3.01-2.02 3.66-.8m-64.96 16.14c.84.29 1.87.94 2.3 1.44l.78.91v16.49c0 21.19 1.19 19.12-10.94 19.25-14.41.15-14.43.13-14.42-19.14 0-14.87.3-16.36 3.64-18.19 2.39-1.3 15.57-1.84 18.64-.76m28.62-.03c2.37.61 3.77 1.57 4.89 3.34l.85 1.35v14.26 14.26l-.92 1.47c-2 3.18-2.98 3.44-12.83 3.43-8.87-.02-9.44-.12-10.72-2.02l-.9-1.31v-15.75c0-18.21-.01-18.14 3.48-19.13 1.99-.57 13.88-.49 16.15.1m-76.67 18.39c.77.65 1.62 1.39 1.89 1.65a236.44 236.44 0 0 0 3.98 3.57c6.74 5.95 7.38 7.41 7.38 16.6 0 10.38-.99 10.63-9.17 2.29-8.36-8.53-8.9-9.63-8.9-18.45v-5.39l.92-.73c1.29-1.01 2.28-.89 3.9.46m112.35-.51c1.11.9 1.26 11.63.2 14.22-1.92 4.69-12.88 16.29-15.05 15.93-2.1-.34-2.21-.72-2.22-7.71-.01-8.46.54-10.16 4.49-14.07 2.07-2.06 3.37-3.22 8.47-7.6 1.84-1.58 2.87-1.78 4.11-.77" fill="#4a4f6b"/><path d="M170.63 59.58c-2.23 1.22-2.43 1.98-2.43 9.13l-.29 6.98c-.25.39-7.07 3.89-7.59 3.89-.1 0-2.25 1.02-4.76 2.26l-4.83 2.26c-.14 0-2.67 1.17-5.63 2.61l-5.58 2.6c-.11 0-2.65 1.19-5.65 2.63l-6.5 3.11-3.18 1.5c-1.18.57-2.62 1.14-3.21 1.27s-1.17.38-1.27.56-.46.32-.77.32-1.28.33-2.15.74c-5.95 2.78-7.73 3.66-9.58 4.76-1.15.68-2.14 1.36-2.2 1.52a.49.49 0 0 1-.42.27c-.88 0-7.24 4.84-10.71 8.16-5.55 5.31-10.87 14-12.03 19.68a30.04 30.04 0 0 1-.55 2.23c-2.8 9.24-3.07 24.54-.66 37.28l.68 3.88c0 .16-.97 1.2-2.15 2.32-3.66 3.48-5.34 5.32-6.91 7.59l-1.47 2.09c-2.54 3.26-6.73 12.17-7.87 16.73-.15.6-.36 1.24-.48 1.42-.61.99-2 9.47-2.5 15.24-.26 2.95-.12 3.41 1.84 6.47l2.16 3.41 2.17 3.42c.33.51.76 1.28.95 1.71s.5.78.7.78.35.21.35.47.47 1.11 1.04 1.9 1.32 1.94 1.67 2.57c1.4 2.5 2 3.4 2.25 3.4.14 0 .26.23.26.5s.19.71.43.97c.47.51.51.57 2.73 4.27.81 1.33 1.56 2.51 1.67 2.6s.44.6.73 1.11c.95 1.69 4.27 7.01 6.32 10.12 1.11 1.69 2.02 3.2 2.02 3.36s.12.35.28.41 1.12 1.53 2.14 3.25c6.08 10.19 10.34 9.22 15.25-3.48l1.12-2.78c.31-.7 1.17-3.35 2.19-6.73.31-1.02.57-2.17.57-2.54s.14-.94.31-1.26c.54-1.01 1.16-6.29 1.38-11.72l.22-5.23 1.21-1.55c.66-.85 1.38-1.71 1.58-1.9s1.45-1.7 2.76-3.35c2.61-3.29 2.74-3.33 3.97-1.35.46.74 1.17 1.71 1.58 2.16 6.83 7.4 9.03 15.25 7.04 25.13a207.8 207.8 0 0 0-1.13 6.26l-1.02 6.08-1.89 11.16c-1.06 6.5-.07 7.9 6.4 9.14l5.39 1.08 5.21 1.03 10.25 2.07c1.34.3 2.74.54 3.11.54s1.62.22 2.78.49c1.97.45 4.61.99 10.45 2.14l5.03 1c16.87 3.34 35.65 3.23 52.48-.32l5.27-1.05 4.16-.83c1.95-.42 6.24-1.25 10.21-1.97l5.38-1.02 10.6-2.09 5.56-1.08 3.55-.69c2.34-.45 3.74-3.42 3.17-6.74l-1.83-10.95-.83-4.86-.91-5.22-1.08-6c-1.44-7.25.78-16.11 5.15-20.65.25-.25 1.22-1.47 2.16-2.71 3.37-4.44 2.8-4.39 5.83-.46.91 1.19 1.85 2.36 2.09 2.61 2.6 2.71 2.85 3.34 3.09 7.73.12 2.31.38 5.52.58 7.14.33 2.78.51 3.72 1.46 7.65l.74 3.13c.2.86.5 1.71.67 1.89s.32.65.32 1.04.23 1.17.52 1.71.52 1.15.52 1.34c0 1.3 5.64 12.12 7.15 13.72 2.8 2.95 6.43 2.03 8.91-2.26l1.56-2.67c.23-.38.54-.93.67-1.21s1.87-3.31 3.84-6.74l3.58-6.4c0-.08.94-1.71 2.09-3.61s2.09-3.54 2.09-3.64.78-1.49 1.73-3.08 1.74-2.97 1.74-3.08.64-1.25 1.42-2.52 1.56-2.65 1.74-3.05.8-1.51 1.38-2.47 1.29-2.2 1.57-2.78.82-1.51 1.2-2.08.78-1.28.91-1.57.58-1.06.99-1.73 1.34-2.31 2.07-3.63l1.32-2.41-.19-4.72c-.21-5.5-.9-9.4-2.77-15.83-1.06-3.61-4.69-11.99-5.19-11.99-.16 0-.28-.18-.28-.41 0-1.39-5.95-9.05-10.27-13.22l-2.68-2.58.59-2.91c3.88-19.13 1.49-40.44-5.76-51.36-.55-.82-.99-1.58-.99-1.68 0-.24-2.85-3.67-4.68-5.63-1.5-1.61-2.03-2.11-4.96-4.63-2.02-1.75-9.21-6.69-10.35-7.11-.38-.14-.77-.36-.86-.49-.17-.23-4.98-2.59-8.41-4.12-.9-.4-1.87-.73-2.15-.73s-.61-.15-.72-.32-.71-.43-1.33-.57-3.08-1.16-5.47-2.3l-5.38-2.53c-.58-.25-3-1.4-5.39-2.54l-13.73-6.5-9.38-4.35-5.73-2.73c-.67-.32-1.3-.63-1.39-.69s-.26-3.12-.35-6.78c-.31-11.72-2.06-12.62-14.08-7.22a73.09 73.09 0 0 1-2.95 1.23 57.21 57.21 0 0 0-2.61 1.09c-5.14 2.36-16.05 2.99-20.5 1.17-.38-.15-1.09-.38-1.57-.5s-1.33-.43-1.91-.69l-3.4-1.54c-1.3-.59-2.42-1.07-2.5-1.07s-1.47-.63-3.09-1.39c-3.2-1.51-5.51-1.79-7.17-.89m10.23 2.75c10.21 4.48 11.37 4.79 18.15 4.76 5.89-.02 8.35-.61 15.93-3.81 8.19-3.46 8.2-3.46 9.56-3.66 4.17-.6 5.21 1.27 5.21 9.39 0 7.36-.03 7.21 1.86 8.09l6.66 3.18 7.12 3.3c1.05.45 3.68 1.69 5.83 2.75s4.01 1.94 4.12 1.94 2.61 1.17 5.57 2.61l5.55 2.6c.09 0 2.15.96 4.58 2.13s5.43 2.49 6.67 2.92c8.36 2.93 18.9 8.97 24.13 13.82 15.39 14.27 20.24 33.55 15.34 60.89-.31 1.72-.64 3.38-.73 3.68-.11.36 1.07 1.77 3.52 4.17 5.35 5.25 9.57 11.27 11.97 17.04l1.39 3.26c1.99 4.22 3.99 13.66 4.39 20.76.22 3.78.19 3.88-2.51 8.44-.85 1.44-1.55 2.68-1.55 2.75s-.93 1.73-2.08 3.67l-2.09 3.63c0 .05-.8 1.49-1.78 3.19l-2.83 5c-.58 1.05-1.16 2.07-1.3 2.26-.25.34-1.49 2.55-2.93 5.21a60.63 60.63 0 0 1-1.69 2.86c-.52.81-.94 1.55-.94 1.64s-.75 1.46-1.67 3.05l-3.04 5.31-1.78 3.13c-.23.38-.58 1.02-.76 1.42s-.97 1.77-1.75 3.05-1.42 2.4-1.42 2.51c0 1.29-2.68 2.92-4.79 2.92-2.74 0-6.01-4.8-9.83-14.42-2.83-7.11-4.47-14.97-4.73-22.59l-.19-5.56-1.6-2.09c-.89-1.14-1.86-2.36-2.17-2.69s-1.4-1.7-2.44-3.04c-2.33-3-2.27-3.01-4.82.26l-3.5 4.43c-5.08 6.27-6.17 12.53-4.17 24.15l1.41 8.34 1.4 8.17c2.07 11.83 1.9 12.39-4.19 13.56l-5.39 1.02-10.77 2.08-5.39 1.06-5.56 1.08-5.21.99-9.73 1.86c-18.35 3.57-36.11 3.7-52.48.39-2-.4-4.58-.88-5.73-1.05s-2.3-.39-2.56-.49-2.14-.49-4.17-.88l-5.95-1.19a634.28 634.28 0 0 0-14.08-2.79c-16.81-3-16.86-3.03-15.62-10.45l1.04-6.23 1.01-6.08.87-5.22 1.03-6.08c1.23-7.13.87-12.18-1.2-16.85-1.02-2.31-2.01-3.76-5.73-8.34-1.16-1.44-2.26-2.96-2.43-3.39-.59-1.43-1.48-.86-4.34 2.75l-3.13 3.9c-2.21 2.42-2.25 2.53-2.25 6.07 0 10.11-2.62 20.63-7.83 31.5-2.04 4.25-2.74 4.87-5.55 4.87-2.73 0-3.29-.46-5.96-4.87l-5.71-9.04-4.06-6.43c-.24-.5-1.62-2.7-6.92-11.04l-4.1-6.5-6.52-10.35c-2.57-4.03-3.55-6.27-3.23-7.38.11-.38.28-1.87.38-3.3.99-15.01 7.59-29.59 17.95-39.66l3.45-3.34-.36-1.35c-3.6-13.42-2.86-32.87 1.72-45.45 4.71-12.91 18.92-25.36 36.12-31.63 2.93-1.07 6.56-2.68 13.85-6.16l5.12-2.38c.08 0 2.56-1.18 5.52-2.61l5.55-2.61c.1 0 1.94-.84 4.1-1.87l9.11-4.35c6.31-3.01 5.74-2.04 5.75-9.76 0-7.22.28-8.24 2.53-9.22 1.94-.84 2.99-.59 9.78 2.39m-3.84 10.51c-.45 1.81.12 10.63.87 13.35 1.09 3.95 1.61 5.63 2.11 6.77a61.11 61.11 0 0 1 .73 1.74c.15.38.74 1.71 1.32 2.95l1.43 3.13c.2.48.7 1.42 1.1 2.09l2.48 4.17c.97 1.62 2.21 3.52 2.75 4.22s.98 1.37.98 1.49c0 .26.23.56 1.94 2.54 2.08 2.42 5.36 1.78 5.36-1.05 0-.83-4.15-14.02-5.17-16.41-.16-.38-.89-2.57-1.63-4.87s-1.46-4.32-1.61-4.5-.28-.58-.28-.88c0-1.16-3.35-6.91-4.86-8.34-.45-.44-2.78-3.44-2.78-3.6 0-.09-.63-.84-1.39-1.66s-1.39-1.61-1.39-1.77c0-.78-1.74-.22-1.96.63m41.75.03c-.39.49-1.18 1.46-1.77 2.15a54.28 54.28 0 0 0-2.07 2.65c-.55.77-1.53 2.02-2.16 2.78-2.86 3.43-2.37 2.17-11.24 28.67-.22.67-.62 1.73-.88 2.36-2 4.8 3.05 7.72 5.58 3.22.2-.37 1.19-1.86 2.2-3.31s1.82-2.7 1.82-2.78.43-.82.96-1.64l1.37-2.19c.68-1.15 4.97-9.86 4.97-10.1 0-.12.21-.71.46-1.32 4.35-10.26 4.93-25.87.76-20.49M166.29 85.4c-.38.09-2.26.92-4.17 1.83l-13.92 6.6c-.38 0-11.9 5.74-12.4 6.18-2.51 2.2.16 3.99 7.38 4.96 1.43.19 2.84.44 3.13.55s1.93.42 3.65.69l6.08 1.02 5.73 1 10.78 1.92c5.89 1.1 8.74-1.64 6.28-6.05-1.42-2.54-3.86-8.6-4.91-12.18-1.8-6.16-3.43-7.56-7.63-6.52m61.86.06c-1.2.53-2.49 2.22-3.07 4.03-2.05 6.38-2.94 8.75-4.48 11.97-2.08 4.33-2.32 5.66-1.33 7.24 1.3 2.08 2.52 2.14 10.97.59l17.89-3.07c1.63-.26 3.19-.57 3.48-.69s1.61-.36 2.95-.54c6.99-.93 8.52-1.55 8.52-3.47 0-1.52.34-1.31-13.38-7.86l-5.22-2.44c-.76-.34-3.81-1.79-6.77-3.23-5.49-2.66-7.85-3.29-9.56-2.53m-75.07 29.72c-4.27 1.58-5.18 2.03-8.42 4.12-.8.52-1.62.94-1.8.94s-.47.2-.62.44-.86.83-1.58 1.3-1.3.99-1.3 1.13-.18.26-.4.26-.9.51-1.52 1.13-1.64 1.6-2.29 2.18c-2.05 1.84-5.45 5.69-6.73 7.64-.97 1.46-2.96 5.65-2.96 6.22 0 .95-2.51 6.4-4.16 9.07l-1.22 1.98c-.2.33-1.26 1.9-2.36 3.49-3.1 4.49-2.73 5.87 1.83 6.7 5.4.98 12.78 5.19 15.69 8.95 1.72 2.24 5.25 5.57 6.58 6.22 3.67 1.81 3.87 1.85 8 1.85 2.38 0 4.23-.15 4.52-.38.26-.21 2.36-.97 4.65-1.69l4.87-1.59c.38-.16 2.57-.86 4.86-1.57l11.47-3.67c1.15-.41 2.31-.72 5.84-1.52 4.6-1.05 6.81-2.61 8.47-5.99l.98-2.01v-14.94-14.94l-1-1.81c-1.28-2.32-3.44-3.79-10.81-7.37-15.1-7.32-23.06-8.92-30.59-6.14m78.89-.65c-7.63 2.26-9.81 3.12-17.55 6.92-12.36 6.07-11.81 4.95-11.81 24.14 0 15.05.06 15.55 2.24 18.72 1.19 1.73 4.77 3.86 6.52 3.88.52.01 1.61.24 2.43.51a24.66 24.66 0 0 0 2.8.73c.72.13 1.39.38 1.5.55s.51.31.9.31 1.2.21 1.8.47 2.27.82 3.7 1.25l3.3 1.04c.38.15 2.5.84 4.69 1.53l8.87 2.85c5.11 1.68 10.17 2.07 12.16.94.38-.22 1.47-.76 2.42-1.2 1.63-.75 2.68-1.7 8.17-7.38 4.02-4.15 9.86-7.37 14.51-8.01 4.76-.65 5.19-2.34 1.74-6.95-2.05-2.75-2.69-3.64-2.69-3.8 0-.1-.7-1.34-1.56-2.76s-1.57-2.73-1.57-2.93-.22-.81-.5-1.35c-.94-1.85-1.58-3.52-1.6-4.16-.01-.36-.4-1.35-.86-2.21s-1.01-1.99-1.23-2.52-.53-.96-.7-.96-.32-.22-.32-.5a1.02 1.02 0 0 0-.43-.78c-.24-.15-.87-.85-1.39-1.55-4.48-6.02-16.32-14.43-23.29-16.55-2.55-.77-9.94-.91-12.25-.23M106.5 168.98c-2.2 1.7-5.55 4.07-7.04 4.96-.33.19-2.39 1.56-4.59 3.03-4.31 2.9-3.95 2.43-6.23 8.09l-1.57 3.82c-.25.57-.96 2.29-1.57 3.82l-1.56 3.83c-.26.57-1.27 2.99-2.25 5.38l-2.09 5.04c-1.76 4.19-2.36 8.79-1.8 13.68 2.51 21.98 2.42 21.59 5.48 22.81 3.56 1.41 11.54-5.92 17.67-16.23 1.9-3.19 8.17-16.57 8.17-17.44.01-.21.23-.81.49-1.32s.6-1.45.74-2.07.37-1.38.52-1.68c.33-.67 1.83-5.69 2.91-9.74 1.45-5.47 1.6-6.76 1.59-13.9 0-10.56-.9-12.92-5.22-13.72-1.12-.21-1.47-.06-3.65 1.64m181.07-1.49c-1.59.37-2.73 1.25-3.58 2.75-.83 1.48-1.15 17.81-.41 21.07.59 2.64 1.34 5.57 1.86 7.3l.93 3.13c1.06 3.63 3.07 9.18 5.11 14.07.98 2.36 4.15 8.55 5.6 10.95l1.89 3.12c4.97 8.17 12.91 14.87 16.03 13.52 2.19-.95 2.53-1.38 3.1-4.07.5-2.28.72-3.99 1.65-12.74l.52-4.35c.97-6.56.35-10.76-2.51-17.09-.45-.99-.82-1.9-.82-2.03s-.56-1.58-1.25-3.23l-4.92-12.05c-.3-.77-.98-2.36-1.51-3.54s-1.08-2.54-1.2-3.02c-.29-1.16-1.61-2.46-3.69-3.62-.92-.52-1.68-1.06-1.68-1.2s-.16-.26-.35-.26-1.09-.52-2-1.16l-4.6-3.18c-1.62-1.11-3.58-2.53-4.34-3.14-1.65-1.32-2.42-1.57-3.83-1.23m-96.61 6.5a11.21 11.21 0 0 0-1.39.45c-.39.16-2.57.88-4.86 1.59l-5.39 1.73c-1.07.4-14.99 4.93-19.11 6.24-.86.27-2.11.59-2.78.71-3.89.72-4.71 1.68-4.65 5.48.02 1.73.25 3.23.65 4.17l1.11 2.69c.66 1.61 1.4 2.98 2.59 4.79.55.82.99 1.57.99 1.67s.47.68 1.04 1.29 1.05 1.22 1.05 1.37c.01 1.5 3.63 2.6 5.67 1.71l3.02-1.26 2.62-1.09c.9-.39 3.03-1.08 9.1-2.96a31.33 31.33 0 0 1 2.78-.66c12.95-2.46 12.25-1.59 12.25-15.12 0-11.99-.63-13.7-4.69-12.8m13.83.02c-2.1.4-2.18.91-2.18 12.8v10.88l.85 1.02c.64.75 1.39 1.13 2.87 1.45l4.27.93 3.82.81c3.34.65 8.98 2.33 9.54 2.84.18.16.57.3.87.3s.99.24 1.54.52 1.17.53 1.38.53 1.03.32 1.79.69 1.57.67 1.79.68a.64.64 0 0 1 .54.39c.07.21.82.46 1.68.56 2.96.33 7.15-4.72 10.86-13.1 2.48-5.59 1.28-9.55-3.16-10.43-1.09-.22-4.72-1.3-8.06-2.39l-9.56-3.1-8.26-2.67c-2.63-.86-4.97-1.57-5.21-1.57s-.84-.21-1.33-.47c-1.08-.56-2.97-.88-4.04-.67M77.6 194.18c-5.63 5.52-8.74 12.64-10.35 23.69-.99 6.79-.63 9.26 2.13 14.52 2.2 4.2 2.55 4.67 3.39 4.55.72-.1.73-.25.94-12.09.12-6.6.38-12.85.58-13.9.49-2.56 1.47-6.26 1.84-6.93.16-.3.54-1.17.85-1.93s1.44-3.13 2.51-5.25c2.83-5.62 2.13-6.61-1.89-2.66m239.34-1.67c0 .37.69 2.05 1.54 3.73 5.37 10.67 5.77 12.59 6.01 28.32.23 15.84.13 15.69 4.71 7.15 1.88-3.51 2.05-4.4 1.88-9.89-.18-5.88-1.15-11.45-2.53-14.57-.27-.61-.49-1.34-.49-1.63s-.14-.63-.31-.73-.4-.57-.52-1.04c-1.1-4.4-10.29-14.52-10.29-11.34m-34.97 11.36c-.37 1.48.12 7.81.76 9.69 2.59 7.69 10.06 18.3 11.72 16.64.12-.12-.32-1.25-.96-2.52-1.31-2.57-3.94-8.16-4.85-10.3l-1.06-2.44-2.06-4.74c-.3-.7-.55-1.44-.55-1.66s-.16-.65-.35-.99-.67-1.5-1.06-2.6c-.79-2.18-1.23-2.49-1.59-1.08m-167.45 1.43c-.6 1.83-.97 2.77-2.49 6.34l-.88 2.09-1.95 4.52-4.29 9.16c-1.57 3.17-1.52 3-.73 3 1.96 0 8.59-9.37 10.7-15.15 1.34-3.65 1.53-4.71 1.51-8.26-.03-4.51-.74-5.16-1.87-1.7m73.14 1.03c-1.43.27-2.84.62-3.14.77s-1.07.4-1.73.54-1.36.37-1.56.51-1.36.62-2.6 1.07-2.34.9-2.44 1.01-.87.57-1.73 1.03c-9.2 4.89-11.78 9.73-8.27 15.5 3.77 6.19 2.49 5.73 16.2 5.73h11.23l1.03-1.02 1.02-1.02-.02-11.36-.03-11.36-1-1c-1.16-1.16-2.55-1.24-6.96-.4m16.03.41l-1.08 1.01v11.3 11.3l.9 1.07.9 1.07h11.38 11.39l1.4-1.01c4.09-2.97 6.05-10.03 3.78-13.6-4.19-6.58-24.93-14.64-28.67-11.14m-62.71 14.86c-.78.79-.05 21.4.8 22.54.14.19.43.84.63 1.46 1.03 3.04 3.23 5.51 9.41 10.54 5.82 4.73 5.43 5.11 5.43-5.41v-8.68l-.99-2.78c-1.1-3.06-3.17-6.36-5.65-9.04l-7.72-8.55c-.13-.36-1.57-.41-1.91-.08m112.56 2.28l-4.17 4.44c-7.39 7.86-8.52 10.94-8.55 23.22-.02 9.07-.02 9.07 3.19 6.58 7.33-5.69 10.34-8.89 11.85-12.59 1.59-3.91 1.69-4.79 1.58-14.6-.12-11.28-.05-11.17-3.9-7.05m-77.52 14.47c-1.47.52-2.46 1.2-3.3 2.24l-.87 1.08-.1 14.36c-.11 16.06-.13 15.85 2.3 17.71l1.28.98 8.64.11c12.99.17 11.65 2.29 11.68-18.45l.02-15.87-1.02-1.14-1.02-1.14-8.46-.06c-4.65-.04-8.77.05-9.15.18m28.41.23c-1.81 1.29-1.82 1.39-1.82 18.02 0 20.14-1.09 18.29 10.74 18.29 13.96 0 13.32.92 13.17-19.14l-.11-13.75-.83-1.21c-1.7-2.49-1.99-2.55-11.68-2.66-7.53-.09-8.79-.03-9.47.45m-62.99 17.55c-1.48 1.48-.86 11.64.94 15.29 1.27 2.57 12.02 13.55 13.27 13.55 2.93 0 2.56-14.1-.48-18.39-1.35-1.9-1.9-2.48-4.35-4.53-1.24-1.04-2.65-2.29-3.12-2.78-3.22-3.28-5.15-4.25-6.26-3.14m113.08-.25c-.41.23-1.96 1.51-3.46 2.85-9.99 8.92-10.37 9.65-10.28 19.78.07 7.88.91 8.32 6 3.14l5.26-5.28c4.27-4.18 5.47-7.43 5.47-14.78 0-4.97-.01-5.04-.85-5.6-1.01-.66-1.17-.67-2.14-.11" fill="#9caaca"/><path d="M118.4 107.43c-1.33.17-3.07.68-3.99 1.17-.9.48-1.87.87-2.17.87-.51 0-1.01.24-4.85 2.31-4.49 2.43-7.47 4.77-10.32 8.1-3.73 4.37-4.15 4.97-4.62 6.44-.24.77-.66 1.64-.92 1.94s-.81 1.55-1.21 2.78-.93 2.63-1.17 3.1-.55 2.05-.68 3.48-.54 4.46-.91 6.72c-.8 4.83-.87 10.63-.18 14.83.26 1.62.66 5.37.89 8.34.62 8.21 1.11 9.12 3.87 7.17 5.38-3.77 17.02-14.6 19.3-17.95l3.4-4.83c.49-.65.89-1.45.89-1.77s.38-1.34.85-2.26 1.02-2.48 1.23-3.44.74-2.38 1.19-3.15.92-1.79 1.06-2.27.6-1.42 1.03-2.09 1.38-2.23 2.12-3.47c5.54-9.29 16.04-18.23 23.24-19.81 2.61-.57 3.01-.9 1.76-1.41a124.66 124.66 0 0 1-3.12-1.38c-1.15-.53-2.79-1.07-3.65-1.21s-2.55-.62-3.76-1.07c-3.64-1.37-13.16-1.93-19.28-1.14m147.28-.02c-1.53.18-3.64.64-4.69 1.02a34.28 34.28 0 0 1-3.79 1.08 17.52 17.52 0 0 0-3.47 1.18c-.88.43-2.2.97-2.92 1.2-1.79.57-1.47 1.12 1 1.76 4.45 1.15 8.74 3.72 13.4 8.03 2.95 2.73 8.64 9.3 8.64 9.99 0 .17.25.51.55.76s.92 1.18 1.36 2.05c1.96 3.87 3.29 6.35 3.6 6.73.19.23.57 1.35.85 2.5.44 1.8 1.27 4.08 2.38 6.59.33.75 1.38 2.41 3.58 5.62 1.34 1.96 10.09 10.9 13.04 13.32l2.74 2.27c3.7 3.06 6.2 4.58 6.7 4.08.31-.32.86-3.78 1.16-7.39a56.37 56.37 0 0 1 .79-5.38c.92-4.52.82-17.87-.17-21.55-.41-1.53-.85-3.8-.97-5.04-.14-1.35-.55-2.82-1.02-3.65-.44-.76-.91-1.94-1.05-2.61-.88-4.17-8.62-13.91-12.73-16a29.2 29.2 0 0 1-2.59-1.54c-.71-.48-1.57-.87-1.91-.87s-1.06-.37-1.6-.82-1.92-1.14-3.07-1.54l-3.65-1.32c-1.88-.7-11.75-.99-16.16-.47" fill="#f20d52"/><path d="M0 173.76v173.76h200 200V173.76 0H200 0v173.76M177.8 60.47l3.09 1.39c.08 0 1.2.48 2.5 1.07l3.4 1.54a14.15 14.15 0 0 0 1.92.69c.48.12 1.18.35 1.56.5 4.45 1.82 15.36 1.19 20.5-1.17a57.21 57.21 0 0 1 2.61-1.09 73.09 73.09 0 0 0 2.95-1.23c12.02-5.4 13.77-4.51 14.08 7.22.09 3.66.25 6.71.35 6.78s.72.37 1.39.69l5.73 2.73 9.38 4.35c1.98.87 3.48 1.59 13.73 6.49l5.39 2.55a522.94 522.94 0 0 1 5.38 2.53c2.39 1.13 4.85 2.17 5.47 2.3s1.22.39 1.33.57.43.32.72.32 1.25.32 2.15.73c3.43 1.53 8.24 3.89 8.41 4.12.09.13.48.35.86.49 2.73 1.01 11.79 7.96 15.31 11.74 1.83 1.96 4.68 5.39 4.68 5.63 0 .1.44.86.99 1.68 7.25 10.92 9.64 32.23 5.76 51.36l-.59 2.91 2.68 2.58c4.32 4.17 10.27 11.83 10.27 13.22 0 .23.12.41.28.41.5 0 4.13 8.38 5.19 11.99 1.88 6.43 2.56 10.33 2.77 15.83l.19 4.72-1.32 2.41-2.07 3.63c-.41.67-.85 1.45-.99 1.73s-.54.99-.91 1.57-.92 1.51-1.2 2.08-.99 1.83-1.57 2.78-1.2 2.07-1.38 2.47-.96 1.77-1.74 3.05-1.42 2.41-1.42 2.52-.78 1.5-1.74 3.08-1.73 2.97-1.73 3.08-.94 1.75-2.09 3.64-2.09 3.53-2.09 3.61-1.61 2.97-3.58 6.4l-3.84 6.74c-.13.28-.44.82-.67 1.21l-1.56 2.67c-2.48 4.29-6.11 5.21-8.91 2.26-1.51-1.6-7.15-12.42-7.15-13.72 0-.19-.24-.79-.52-1.34s-.52-1.31-.52-1.71-.14-.86-.32-1.04-.47-1.03-.67-1.89l-.74-3.13c-.95-3.93-1.13-4.87-1.46-7.65-.2-1.62-.46-4.83-.58-7.14-.24-4.39-.49-5.02-3.09-7.73-.24-.25-1.18-1.42-2.09-2.61-3.03-3.93-2.46-3.98-5.83.46-.94 1.24-1.91 2.46-2.16 2.71-4.37 4.54-6.59 13.4-5.15 20.65a252.64 252.64 0 0 1 1.08 6l.91 5.21a177.58 177.58 0 0 1 .83 4.87l1.83 10.95c.57 3.32-.83 6.29-3.17 6.74l-3.55.69-5.56 1.08-10.6 2.09a274.73 274.73 0 0 1-5.38 1.02l-10.2 1.97c-.84.19-2.71.56-4.17.83l-5.27 1.05c-16.83 3.55-35.6 3.66-52.48.32l-5.03-1-10.45-2.14c-1.16-.27-2.41-.49-2.78-.49s-1.77-.24-3.11-.54a321.13 321.13 0 0 0-10.25-2.07l-5.21-1.03-5.39-1.08c-6.47-1.24-7.46-2.64-6.4-9.14l1.89-11.16 1.02-6.08a207.8 207.8 0 0 1 1.13-6.26c1.99-9.88-.21-17.73-7.04-25.13-.41-.45-1.12-1.42-1.58-2.16-1.22-1.98-1.36-1.94-3.97 1.35-1.31 1.65-2.55 3.16-2.76 3.35s-.92 1.05-1.58 1.9l-1.21 1.55-.22 5.23c-.22 5.43-.84 10.71-1.38 11.72-.17.32-.31.89-.31 1.26s-.26 1.52-.57 2.54c-1.02 3.38-1.88 6.03-2.19 6.73-.17.38-.67 1.63-1.12 2.78-4.91 12.7-9.17 13.67-15.25 3.48-1.02-1.72-1.99-3.18-2.14-3.25a.49.49 0 0 1-.28-.41c0-.17-.91-1.67-2.02-3.36-2.05-3.11-5.37-8.43-6.32-10.12-.29-.52-.61-1.01-.73-1.11s-.86-1.27-1.66-2.6c-2.23-3.7-2.27-3.76-2.74-4.27-.24-.26-.43-.7-.43-.97s-.12-.5-.26-.5c-.25 0-.85-.9-2.25-3.4-.35-.63-1.1-1.79-1.67-2.57s-1.03-1.64-1.03-1.9-.17-.47-.36-.47-.51-.35-.7-.78-.62-1.2-.95-1.71l-2.17-3.42-2.16-3.41c-1.96-3.06-2.1-3.53-1.84-6.47.5-5.77 1.89-14.25 2.5-15.24.12-.18.33-.82.48-1.42 1.14-4.56 5.33-13.47 7.87-16.73a89.95 89.95 0 0 0 1.47-2.09c1.57-2.27 3.25-4.11 6.91-7.59 1.18-1.12 2.15-2.16 2.15-2.32s-.3-1.91-.68-3.88c-2.41-12.74-2.14-28.04.66-37.28a30.04 30.04 0 0 0 .55-2.23c1.16-5.68 6.48-14.37 12.03-19.68 3.47-3.32 9.83-8.16 10.71-8.16a.49.49 0 0 0 .42-.27c.06-.16 1.05-.84 2.2-1.52 1.85-1.1 3.63-1.98 9.58-4.76.87-.41 1.84-.74 2.15-.74s.66-.15.77-.32.68-.43 1.27-.56 2.03-.7 3.21-1.27l3.18-1.5c.57-.26 3.5-1.66 6.5-3.11l5.65-2.63c.11 0 2.63-1.17 5.58-2.6s5.49-2.61 5.63-2.61 2.31-1.02 4.83-2.26l4.76-2.26c.52 0 7.34-3.5 7.59-3.89.15-.25.28-3.39.29-6.98 0-9.86 2.19-11.73 9.6-8.24" fill="#14181d"/><path d="M171.5 59.77c-.49.21-.04.31 1.51.33 1.22.01 2.62.23 3.13.49 2.56 1.3 3.55 1.71 3.72 1.55.31-.32-5.65-2.71-6.68-2.69-.54.01-1.3.16-1.68.32m52.13-.01c-.57.15-2.61.93-4.52 1.73l-4.79 2c-.72.3-1.24.62-1.14.72.17.17 7.05-2.59 8.94-3.6 1.14-.6 4.84-.64 5.56-.05 1.58 1.27 1.69 1.84 1.69 9.02v6.87l3.04 1.41 3.68 1.77c.35.19.73.26.83.16s-.51-.49-1.38-.86c-6.33-2.72-5.83-1.86-5.83-9.89 0-8.48-1.35-10.55-6.08-9.28m-53.77.97c-1.19 1.37-1.31 2.16-1.32 8.49 0 7.65.57 6.69-5.74 9.7l-9.11 4.35c-2.16 1.03-4 1.87-4.1 1.87s-2.4 1.07-5.12 2.38l-7.81 3.71c-1.58.73-2.8 1.39-2.72 1.48s1.54-.51 3.22-1.31l5.67-2.67c1.44-.66 2.84-1.35 3.13-1.53a7.76 7.76 0 0 1 1.04-.52c1-.37 3.77-1.64 12.17-5.6l9.38-4.56c.09-.06.25-3.3.35-7.19.16-6.67.21-7.13.96-8.14.86-1.16.86-1.44 0-.46m10.5 1.59c0 .11 2.05 1.13 5.04 2.51a12.74 12.74 0 0 0 2.01.71c.52.12 1.04.36 1.15.53s.61.3 1.12.29c.65 0 .26-.25-1.32-.81a74.51 74.51 0 0 1-5-2.08c-2.76-1.27-3-1.36-3-1.15m30.93 2.49c-.5.29-.65.5-.34.5.28 0 .82-.23 1.19-.51.86-.65.3-.64-.85.01m-1.81.72c-.5.5-4.62 1.27-8.09 1.52l-3.82.28 3.82-.09c3.77-.08 6.98-.65 8.34-1.47.38-.23.53-.42.32-.42s-.47.07-.57.18m-17.47 1.35c.76.29 2.32.51 3.47.49l2.09-.05-2.26-.26c-1.24-.14-2.81-.36-3.48-.49-1.21-.22-1.21-.22.18.31m-14.98 4.62c-1.48 1.02-1.35 10.58.2 15.03.17.48.65 2.02 1.07 3.43s.97 2.97 1.24 3.48.47 1.02.48 1.15c0 .24 1.62 3.91 2.72 6.18 1.64 3.39 6.86 11.68 9.49 15.09 1.74 2.25 4.4 2.24 6.35-.03l.84-.97.42.94c1.11 2.42 4.51 2.25 6.47-.32 1.05-1.39 3.53-4.95 4.12-5.94l2.51-4.07c.23-.38.83-1.47 1.32-2.43s1.03-1.97 1.21-2.26c.29-.45 2.24-4.72 3.11-6.77 3.12-7.44 4.91-20.87 2.97-22.29-1.23-.9-2.09-.56-3.88 1.52-4.86 5.65-7.93 9.98-8.82 12.43l-1.03 2.78a91.63 91.63 0 0 0-1.05 2.95c-.42 1.24-.98 2.75-1.25 3.35s-.48 1.28-.48 1.49c0 .41-.1.7-3.29 9.92-1.06 3.06-1.92 5.83-1.92 6.17s-.15.62-.33.62c-.43 0-1.41-1.41-1.41-2.03 0-.26-.21-.97-.46-1.57s-.81-2.19-1.25-3.53-.91-2.74-1.08-3.13-1.57-4.49-3.12-9.14c-2.74-8.2-3.87-10.68-6.14-13.49l-4-4.99c-2.88-3.6-3.91-4.33-5.01-3.57m1.95.71c0 .16.62.95 1.39 1.77s1.39 1.57 1.39 1.66c0 .16 2.33 3.16 2.78 3.6 1.51 1.43 4.86 7.18 4.86 8.34 0 .3.13.7.28.88s.88 2.21 1.61 4.5l1.63 4.87c1.02 2.39 5.17 15.58 5.17 16.41 0 2.83-3.28 3.47-5.37 1.05-1.7-1.98-1.93-2.28-1.93-2.54 0-.12-.44-.8-.98-1.49s-1.78-2.6-2.75-4.22l-2.49-4.17c-.39-.67-.89-1.61-1.09-2.09a151.97 151.97 0 0 0-1.43-3.13l-1.33-2.95a61.11 61.11 0 0 0-.72-1.74c-1.71-3.91-2.82-9.18-3.02-14.3-.22-5.84-.07-6.72 1.13-6.72.48 0 .86.12.86.27m42.36 1.27c1 3.96-.58 13.43-3.32 19.88-.25.61-.46 1.2-.46 1.32 0 .24-4.29 8.95-4.97 10.1l-1.37 2.19c-.52.82-.96 1.56-.96 1.64s-.82 1.33-1.82 2.78-2 2.94-2.21 3.31c-2.52 4.5-7.57 1.58-5.57-3.22.26-.63.66-1.69.88-2.36 8.87-26.5 8.38-25.24 11.24-28.67.63-.76 1.61-2.01 2.16-2.78a54.28 54.28 0 0 1 2.07-2.65c.59-.69 1.38-1.66 1.77-2.15 1.12-1.45 2.1-1.22 2.56.61m16.38 6.82c.53.37 3.53 1.81 6.95 3.35 1.05.47 3.36 1.57 5.13 2.44s3.3 1.51 3.39 1.42c.15-.15-8.59-4.45-9.03-4.45-.11 0-1.61-.71-3.35-1.57-3.06-1.51-4.18-1.94-3.09-1.19m-71.59 4.39c-.84.29-3.28 1.43-9.39 4.38l-8.69 4.13-5.73 2.65c-7.15 3.3-8.4 4.37-7.63 6.55.54 1.5 1.83 2.15 5.37 2.72l5.04.87 4.69.86 8 1.42 7.47 1.24c1.34.19 2.9.47 3.47.64 9.76 2.75 13.76-.35 10.07-7.8-2.05-4.12-5.03-12.18-5.03-13.58 0-2.45-4.87-5.05-7.64-4.08m61.13.55c-1.34.9-2.69 2.75-2.95 4.05-.27 1.34-2.22 7.33-2.83 8.71-.29.67-1.22 2.64-2.05 4.38-1.69 3.51-1.87 4.95-.83 6.66 1.66 2.72 2.37 2.71 17.73-.08l11.81-2.1c8.53-1.42 13.86-2.48 14.48-2.89.98-.62 1.45-2.3.98-3.43-.49-1.18-6.25-4.18-20.67-10.8l-6.65-3.16c-5.07-2.47-6.94-2.74-9.02-1.34m-57.41.22c2.06.59 2.63 1.5 4.08 6.46 1.05 3.58 3.49 9.64 4.91 12.18 2.46 4.41-.39 7.15-6.28 6.05l-10.78-1.92-5.73-1-6.08-1.02c-1.72-.27-3.37-.59-3.65-.69s-1.7-.36-3.13-.55c-7.22-.97-9.89-2.76-7.38-4.96.5-.44 12.02-6.18 12.4-6.18.11 0 4.36-2.01 13.92-6.6 4.55-2.18 5.52-2.4 7.72-1.77m67.87 2.53l6.77 3.23a321.68 321.68 0 0 1 5.22 2.44c13.72 6.55 13.38 6.34 13.38 7.86 0 1.92-1.53 2.54-8.52 3.47-1.34.18-2.67.42-2.95.54s-1.85.43-3.48.69l-17.9 3.07c-8.44 1.55-9.66 1.49-10.96-.59-.99-1.58-.75-2.91 1.33-7.24 1.54-3.22 2.43-5.59 4.48-11.97 1.67-5.2 4.35-5.52 12.63-1.5m16.33.1c.24.29.66.53.94.53s.93.22 1.44.49c1.63.87 11.16 5.35 12.56 5.9.29.12.76.35 1.05.53s.75.42 1.04.52.75.33 1.04.5c1.58.9 6.71 2.96 8.52 3.41 1.51.38-.38-.58-2.61-1.32-1.24-.42-4.32-1.75-6.84-2.96s-4.67-2.21-4.78-2.21-1.95-.86-4.1-1.93c-5.56-2.74-8.79-4.09-8.26-3.46m-121.79 5.23c-.54.41-.56.51-.13.51.3 0 .74-.23.98-.52.55-.66.04-.66-.85.01m-1.93.87c-1.06.65-8.25 3.79-10.77 4.71-3.99 1.45-13.85 6.4-12.76 6.4.14 0 .87-.38 1.61-.85s1.76-.96 2.26-1.08.89-.37.89-.54.19-.31.41-.31 1.59-.57 3.04-1.26c3.31-1.59 3.64-1.73 5.76-2.41.96-.31 2.84-1.08 4.17-1.72l4.44-2.07c1.09-.49 1.99-.97 1.99-1.06 0-.25-.45-.17-1.04.19m151.72 6.41c.37.28.86.51 1.1.52.79.02 11.89 6.13 12.6 6.94.1.11.72.58 1.39 1.05 7.4 5.18 14.2 13.33 16.68 19.96.2.55.46.91.57.8s-.48-1.58-1.31-3.26c-2.36-4.77-5.99-9.36-11.27-14.26-3.22-2.99-10.8-7.88-16.58-10.69-3.31-1.61-4.38-1.97-3.18-1.06m-178.76 6.59c-1.41 1-1.66 1.24-1.25 1.23.17-.01.86-.47 1.53-1.03 1.46-1.23 1.32-1.33-.28-.2m-4.58 3.3c-4.02 3.11-12.08 11.88-10.89 11.83.16-.01.73-.71 1.27-1.57s1.13-1.55 1.3-1.55.32-.2.32-.44c0-.46 6.26-6.67 7.62-7.55.93-.61 3.41-2.77 3.16-2.76-.1.01-1.35.93-2.78 2.04m58.03 2.96c-3.05.57-7.46 2.23-9.73 3.66-.28.19-.99.57-1.56.87-7.39 3.76-20.33 17.47-20.33 21.52 0 .68-.7 2.29-2.91 6.76-2.18 4.4-1.79 3.76-6.41 10.52-1.88 2.75-.47 5.51 2.8 5.51.44 0 1.98.4 3.4.89l3.29 1.11c2.35.73 7.36 4.45 9.76 7.25 7.96 9.28 13.5 10.31 26.73 5 .38-.16 1.87-.63 3.3-1.05s2.92-.89 3.3-1.04c3.09-1.19 14.43-4.65 18.13-5.53 3.5-.83 4.65-1.41 6.53-3.28 2.95-2.95 2.79-1.88 2.9-19.63.13-20.49.9-18.81-11.57-25.1-7.95-4.02-14.93-6.59-19.63-7.25-4.27-.6-5.74-.64-8-.21m78.54-.13c-5.67.63-13.1 3.34-22.72 8.3-11.14 5.73-10.71 4.72-10.57 24.63l.1 14.48.98 1.99c1.67 3.4 4.41 5.31 9.1 6.34 2.6.57 6.4 1.65 8 2.26.38.15 3.27 1.09 6.43 2.09l17.34 5.55c6.89 2.22 11.37.71 17.93-6.03s13.13-10.64 17.9-10.64c3.98 0 4.42-3.13 1.12-7.86-3.94-5.64-6.61-10.61-7.21-13.38-1.12-5.22-7.47-13.26-14.95-18.94-4.14-3.15-5.64-4.07-11.02-6.78-1.86-.93-8.2-2.5-9.47-2.34l-2.96.33m-68.58 1.35c5.34 1.42 9.75 3.15 16.98 6.65 7.37 3.58 9.52 5.05 10.81 7.37l1 1.81v14.94 14.94l-.98 2.01c-1.66 3.38-3.87 4.94-8.47 5.99-3.53.8-4.69 1.11-5.84 1.52-1.49.53-6.61 2.17-11.47 3.67l-4.86 1.57c-.39.15-2.57.86-4.87 1.59s-4.39 1.48-4.66 1.69c-.28.23-2.13.38-4.51.38-4.13 0-4.33-.04-8-1.85-1.33-.65-4.86-3.98-6.58-6.22-2.91-3.76-10.29-7.97-15.69-8.95-4.56-.83-4.93-2.21-1.83-6.7l2.36-3.49 1.21-1.98c1.66-2.67 4.17-8.12 4.17-9.07 0-.57 1.99-4.76 2.96-6.22 1.28-1.95 4.68-5.8 6.73-7.64.65-.58 1.68-1.56 2.29-2.18s1.3-1.13 1.52-1.13.4-.12.4-.26.59-.65 1.3-1.13 1.43-1.06 1.58-1.3.43-.44.62-.44.99-.42 1.8-.94c3.23-2.09 4.15-2.54 8.42-4.12 3.9-1.44 9.35-1.65 13.61-.51m77.52.09c6.97 2.12 18.82 10.53 23.3 16.55.52.7 1.14 1.4 1.38 1.55s.44.5.44.78.14.5.31.5.5.43.71.96.77 1.66 1.23 2.52.85 1.85.86 2.21c.02.64.66 2.31 1.6 4.16.28.54.5 1.15.5 1.35s.71 1.52 1.57 2.93 1.56 2.66 1.56 2.76c0 .16.64 1.05 2.69 3.8 3.45 4.61 3.02 6.3-1.74 6.95-4.65.64-10.49 3.86-14.51 8.01-5.5 5.68-6.54 6.62-8.17 7.38-.95.44-2.04.98-2.42 1.2-1.99 1.13-7.05.74-12.17-.94l-8.86-2.85-4.69-1.53c-.38-.15-1.87-.62-3.3-1.04s-3.1-.99-3.7-1.25-1.42-.47-1.81-.47-.79-.14-.89-.31-.78-.42-1.5-.55a24.66 24.66 0 0 1-2.8-.73c-.82-.28-1.91-.5-2.43-.51-1.75-.02-5.33-2.15-6.52-3.88-2.18-3.17-2.24-3.67-2.24-18.72 0-19.19-.55-18.07 11.81-24.14 7.74-3.8 9.92-4.66 17.55-6.92 2.31-.68 9.7-.54 12.25.23M85.88 125.25c-1.49 2.59-3.89 8.77-3.84 9.86.03.47.07.49.2.08l.44-1.22c.14-.38.55-1.56.88-2.61.81-2.5 1.74-4.53 3.04-6.65.58-.95.99-1.79.9-1.87s-.81 1-1.62 2.41m228.65 5.34c-.01.24.29 1.33.67 2.42s.7 2.26.7 2.6.15.9.33 1.23c.32.59.81 2.9 1.38 6.51.27 1.71.28 1.72.32.37.05-1.29-.29-3.03-1.6-8.19-.64-2.5-1.78-5.63-1.81-4.94m-233.01 6.27c-.14.64-.17 1.24-.07 1.35.27.26.68-1.5.49-2.05-.09-.25-.27.07-.42.7m-.89 4.26c-.23 1.35-.33 2.53-.24 2.63.19.19.42-.85.77-3.44.33-2.55-.06-1.94-.53.81m-.59 4.67c0 .95.07 1.3.15.77a6.18 6.18 0 0 0-.01-1.73c-.08-.43-.14 0-.14.96m238.12 2.08c.43 8.74.45 10.65.16 12.86-.28 2.09-.6 5.12-1.2 11.12-.23 2.3.77-2.87 1.27-6.6.55-4.04.55-16.23 0-18.59-.33-1.43-.35-1.33-.23 1.21m-238.73 4.09c-.13 2.34-.09 5.89.09 7.9.31 3.45.33 3.21.37-4.26.06-8.79-.11-10.07-.46-3.64m.61 13.29c0 .95.07 1.3.15.78s.08-1.31-.01-1.74-.14 0-.14.96m25.1 3.83l-3.83 2.87c-.19.15-.97.65-1.73 1.11s-1.47.93-1.57 1.03-1.35.96-2.78 1.89l-3.73 2.43c-.88.58-1.44 1.5-2.57 4.21l-2.91 6.95-2.77 6.78a148.34 148.34 0 0 1-2.31 5.5c-.55 1.21-1 2.35-1 2.55s-.22.77-.48 1.28c-2.25 4.28-3.26 11.27-2.31 15.94.19.91.5 3.23.69 5.14 1.43 14.2 1.76 15.53 4.26 16.96 3.07 1.76 6.73-.14 12.26-6.39 2.47-2.78 6.78-8.67 6.78-9.26 0-.12.22-.46.49-.76.62-.7 5.05-9.55 6.27-12.54l1.21-2.95c.49-1.15 2.38-6.54 2.62-7.48.12-.47.36-1.18.53-1.56s.53-1.56.82-2.61l1.06-3.82c1.75-6.29 1.77-6.44 1.77-15.64 0-9.69-.15-10.48-2.34-12.37-2.94-2.54-4.19-2.43-8.43.74m181.4-1.94c-1.6.73-3.1 2.21-3.61 3.58-.63 1.65-.51 18.41.15 21.29 1.78 7.75 4.47 16.33 6.77 21.54a171.65 171.65 0 0 1 1.19 2.86c.49 1.18 1.64 3.61 2.55 5.38 1.43 2.79 2.37 4.41 5.29 9.17 3.75 6.11 11.69 13.35 14.65 13.35 4.42 0 5.28-1.9 6.55-14.49.18-1.76.48-4.18.68-5.39 1.03-6.32.4-13-1.7-18.18l-2.1-5.21-2.61-6.26c-1.23-2.81-1.53-3.55-2.09-5.03-.54-1.45-.91-2.33-2.09-5.04-.25-.57-.81-1.94-1.24-3.04-.66-1.66-2.27-3.74-2.91-3.74-.28 0-8.7-5.71-8.82-5.98a.51.51 0 0 0-.44-.27c-.17 0-1.87-1.18-3.77-2.61-3.7-2.8-4.2-2.95-6.45-1.93m-206.2.71c-.01.48.12 1.5.28 2.26l.28 1.39.01-1.39c0-.76-.12-1.78-.27-2.26l-.28-.86-.02.86m32.09.36c2.43 1.5 2.95 3.77 2.95 12.85.01 7.15-.14 8.43-1.59 13.9-1.08 4.05-2.58 9.07-2.91 9.74-.15.3-.38 1.05-.52 1.68s-.47 1.56-.74 2.07-.48 1.11-.49 1.32c0 .87-6.27 14.25-8.17 17.44-6.13 10.31-14.11 17.64-17.67 16.23-3.06-1.21-2.97-.83-5.48-22.81-.56-4.89.04-9.49 1.8-13.68l2.08-5.04 2.25-5.38a193.55 193.55 0 0 0 1.57-3.83l1.57-3.82 1.57-3.82c2.28-5.66 1.92-5.19 6.23-8.09l4.59-3.03c1.49-.89 4.84-3.26 7.04-4.96 2.66-2.06 3.63-2.19 5.92-.77m178.98.51c.76.61 2.72 2.03 4.34 3.14l4.6 3.18c.91.64 1.81 1.16 2 1.16s.35.11.35.26.76.68 1.68 1.2c2.08 1.16 3.4 2.46 3.69 3.62.12.48.66 1.84 1.2 3.02s1.21 2.77 1.51 3.54c.64 1.64 3.16 7.81 4.92 12.05.69 1.65 1.25 3.11 1.25 3.23s.37 1.04.82 2.03c2.86 6.33 3.48 10.53 2.51 17.09-.11.77-.34 2.72-.52 4.35-1.63 15.26-1.69 15.49-4.75 16.81-3.12 1.35-11.06-5.35-16.03-13.52l-1.89-3.12c-1.45-2.4-4.62-8.59-5.6-10.95-2.04-4.88-4.05-10.44-5.11-14.07l-.93-3.13c-.52-1.73-1.27-4.66-1.86-7.3-.74-3.26-.42-19.59.41-21.07 1.77-3.14 4.65-3.73 7.41-1.52m-210.37 3.83c.02 1.17.9 4.27.94 3.3.02-.48-.19-1.58-.46-2.44s-.49-1.25-.48-.86m110.28.68l-4.52 1.41-5.38 1.73c-.67.25-2.86.95-4.87 1.57l-4.86 1.55-5.91 1.98-5.28 1.72c-1.66.55-3.52 1-4.14 1-2.3 0-4.5 2.71-4.47 5.51.06 5.82 6.28 16.9 10.74 19.14 1.34.67 1.37.67 4.19-.58 3.48-1.53 3.98-1.74 5.74-2.35l2.43-.87c1.51-.6 5.35-1.68 7.99-2.24 1.53-.33 3.58-.82 4.55-1.09s2.05-.49 2.4-.49c1.48 0 4.45-1.24 5.24-2.19l.84-1v-10.98c0-10.82-.01-11-.78-12.13-.93-1.37-2.62-2.1-3.91-1.69m13.14.19c-.42.17-1.13.67-1.57 1.11l-.8.8v11.51c0 13.66-.1 13.38 5.08 14.19.84.13 2.31.45 3.27.71s2.98.73 4.51 1.05c5.42 1.14 10.88 3.02 16.81 5.78 3.19 1.49 5.68-.05 9.55-5.89 6.46-9.73 6.54-18.5.16-18.49-.75 0-2.64-.54-5.49-1.58-.67-.24-2.86-.95-4.87-1.57l-8.16-2.58-15.95-5.08c-1.2-.37-1.53-.37-2.54.04m112.03 1.12c-.1.63-.29 1.55-.42 2.06-.21.84.17 1.32 3.97 5.02 2.32 2.25 4.21 4.28 4.21 4.52s.13.48.29.54c.41.16 2.84 3.68 2.84 4.11 0 .19.14.35.32.35s.44.35.57.78.34.86.46.96c.32.25.98 1.38 1.81 3.04.71 1.43 1.01 1.78 1.01 1.19 0-1.82-7.05-11.54-11.62-16.03-2.48-2.44-3.63-3.8-3.5-4.15.31-.8.64-3.52.43-3.52-.1 0-.26.51-.37 1.13m-122.13.18c1.26 1.11 2.01 18.68.95 22.33-.72 2.47-1.95 2.97-11.9 4.86-.91.17-2.17.47-2.78.66l-9.1 2.96-2.62 1.09-3.03 1.26c-2.04.89-5.65-.21-5.66-1.71 0-.15-.47-.76-1.05-1.37s-1.04-1.19-1.04-1.29-.44-.85-.99-1.67c-1.19-1.81-1.93-3.18-2.59-4.79l-1.11-2.69c-.4-.94-.63-2.44-.66-4.17-.05-3.8.77-4.76 4.66-5.47.67-.13 1.92-.45 2.78-.72l19.11-6.23c.67-.25 3.09-1.03 5.39-1.74s4.48-1.42 4.86-1.59c1.78-.76 3.73-.64 4.78.28m14.48-.04c.49.26 1.09.47 1.33.47s2.58.71 5.21 1.57l8.26 2.67 9.56 3.1c3.34 1.1 6.97 2.17 8.06 2.39 4.44.88 5.64 4.84 3.16 10.43-3.71 8.38-7.9 13.43-10.86 13.1-.86-.1-1.61-.35-1.68-.56s-.31-.38-.54-.39-1.03-.31-1.79-.68-1.57-.68-1.79-.69-.84-.24-1.39-.53-1.23-.52-1.53-.52-.69-.13-.87-.3c-.56-.51-6.2-2.19-9.54-2.84l-3.82-.81-4.27-.93c-1.48-.32-2.23-.7-2.87-1.45l-.85-1.02v-10.88c0-10.38.03-10.91.7-11.76 1.05-1.33 3.38-1.49 5.52-.37m-128.47 4.31c-1 .96-1.82 1.83-1.82 1.94 0 .28 3.26-2.63 3.58-3.2.44-.79.18-.6-1.76 1.26m-4.92 4.89c-3.35 3.87-8.18 11.12-6.46 9.69.29-.24.52-.64.52-.89s.21-.66.45-.91.83-1.08 1.29-1.85 1.06-1.61 1.32-1.87.73-.89 1.05-1.39c.52-.81 1.13-1.53 3.8-4.49.43-.47.78-.92.78-.99 0-.38-.55.16-2.75 2.7m2.48 9.08c-7.16 6.53-11.63 18.05-11.69 30.15l-.03 4.34 1.7 3.48c2.29 4.67 3.64 6.69 4.61 6.87 1.71.33 1.76-.05 1.97-13.47.12-7.52.36-13.07.59-13.9.21-.77.53-2.02.7-2.78.57-2.56 4.13-11.03 4.9-11.65.12-.09.56-.94.99-1.89l.78-1.72-.77-.62c-1.15-.94-1.56-.81-3.75 1.19m238.93-1.44c-1 .58-.71 2.02.97 4.83.4.67 1.32 2.63 2.04 4.35l1.8 4.22c.27.6.49 1.35.49 1.67s.15.85.32 1.17c.88 1.65 1.42 8.79 1.42 18.87 0 8.93.08 10.41.55 10.88 1.02 1.02 2.14.48 3.22-1.54l2.32-4.34 1.68-3.13.14-4c.23-6.03-.96-13.9-2.7-17.9-.17-.38-.66-1.55-1.09-2.6-.7-1.7-3.58-6.84-4.1-7.3-.1-.1-.8-.86-1.54-1.7-2.78-3.16-4.36-4.15-5.51-3.48m-235.64.89c.13.35-.55 2.09-1.73 4.43-1.07 2.12-2.19 4.48-2.5 5.25s-.7 1.63-.86 1.93c-.37.68-1.34 4.37-1.84 6.93-.2 1.05-.46 7.3-.58 13.9-.21 11.84-.22 11.99-.94 12.09-.84.12-1.19-.35-3.39-4.55-2.76-5.26-3.12-7.73-2.13-14.52 1.61-11.05 4.72-18.17 10.35-23.69 2.45-2.4 3.23-2.78 3.62-1.77m239.59 1.95c2.47 2.43 5.94 7.56 6.42 9.49.12.47.35.93.52 1.04s.31.43.31.73.22 1.02.49 1.63c1.38 3.12 2.35 8.69 2.53 14.57.17 5.49 0 6.38-1.88 9.89-3.07 5.73-3 5.64-3.89 5.41-.6-.16-.65-.89-.82-12.56-.24-15.73-.64-17.65-6.01-28.32-2.61-5.19-1.74-5.9 2.33-1.88m-253.49 1.63c-1.08 2.08-1.15 2.36-.42 1.63.29-.29.52-.72.52-.96s.25-.7.56-1.04.49-.8.42-1.03-.56.4-1.08 1.4m264.24 2.1c0 .29.23.82.51 1.19.65.86.64.3-.01-.84-.29-.51-.5-.65-.5-.35m-265.8 1.19c-.59 1.28-.53 1.55.12.62.3-.43.49-.96.42-1.16s-.31.03-.54.54m266.93 1.42c.23.89.92 2.82 1.51 4.22.26.6.47 1.4.47 1.78s.23 1.25.52 1.93.52 1.69.52 2.22c.01 1.05 1 4.12 1.03 3.16.04-1.63-2.69-11.27-3.71-13.1-.35-.61-.46-.68-.34-.21M64.4 202.95l-1 2.96-.24.69.55-.69c.31-.38.57-.98.57-1.32s.26-1.1.55-1.68.5-1.31.43-1.63-.45.43-.86 1.67m49.98.79c-.35.81-.96 2.41-1.35 3.56-1.32 3.82-4.2 10.37-7.97 18.15-5.41 11.16 2.68 5.57 8.5-5.88 2.88-5.65 3.3-7.08 3.48-11.78.22-5.56-1.14-7.62-2.66-4.05m167-1.25c-.46.46-.23 8.25.29 10.02 2.64 8.84 11.02 20.56 13.17 18.41.63-.64.59-.77-2.01-6.16-3.59-7.43-5.7-12.34-8.1-18.85-1.26-3.39-2.31-4.46-3.35-3.42m2.18 2.46c.39 1.1.87 2.27 1.06 2.6s.35.78.35.99.25.96.55 1.66l2.07 4.74 1.05 2.44c.91 2.14 3.54 7.73 4.85 10.3 3.17 6.23-2.6 1.37-6.85-5.79-3.16-5.29-4.44-9-4.7-13.58-.31-5.53.34-6.89 1.62-3.36M116.39 207c.02 3.55-.17 4.61-1.51 8.26-2.11 5.78-8.73 15.15-10.7 15.15-.79 0-.84.17.73-3 1.23-2.51 2.43-5.06 4.3-9.16.65-1.45.94-2.11 1.94-4.52l.88-2.09c1.52-3.57 1.89-4.51 2.49-6.34 1.13-3.46 1.85-2.81 1.87 1.7m72.84-1.61c-10.66 1.75-22.2 8.08-24.58 13.48-1.53 3.44.95 10.52 4.65 13.28l1.16.87h11.93 11.94l.84-.98.83-.97v-11.96c0-14.76-.03-14.83-6.77-13.72m15.42-.11c-.5.08-1.29.54-1.74 1.02l-.82.88v11.95 11.96l.96.96.96.97h11.91 11.9l1.1-.87c.95-.75 2.88-3.21 2.88-3.66 0-.09.49-.96 1.1-1.94 2.23-3.63 1.41-8.43-1.92-11.29-2.68-2.29-9.5-6.32-12.21-7.21l-2.26-.76c-4.38-1.51-9.49-2.37-11.86-2.01m-10.03 1.45l1 1 .03 11.36.02 11.36-1.02 1.02-1.03 1.02h-11.23c-13.71 0-12.43.46-16.2-5.73-3.51-5.77-.93-10.61 8.27-15.5.86-.46 1.64-.92 1.73-1.03s1.2-.56 2.44-1.01 2.41-.93 2.6-1.07.89-.37 1.56-.51 1.44-.38 1.73-.54c.81-.42 5.53-1.26 7.43-1.32 1.42-.04 1.83.11 2.67.95m15.35-.48c9.28 1.9 19.6 7.25 22.38 11.63 2.28 3.57.32 10.63-3.77 13.6l-1.4 1.01h-11.39-11.38l-.9-1.07-.9-1.06v-11.31-11.3l1.08-1.01c1.27-1.18 2.43-1.27 6.28-.49m-147.33 2.27c-.23 1.02-.37 1.91-.29 1.99.25.25.95-2.32.84-3.08-.07-.47-.28-.05-.55 1.09m-.84 3.82l-.43 2.95-.2 1.39.53-1.56c.29-.86.48-2.19.43-2.96l-.1-1.39-.23 1.57m275.14 5.38c.08 1.72.3 3.6.48 4.17.4 1.28.18-2.39-.32-5.38-.28-1.68-.3-1.53-.16 1.21m-276.18.96c-.03 1-.04 2.06-.02 2.35s-.12 1.14-.31 1.91c-.47 1.9.11 3.39 3.23 8.29l3.51 5.62c.54.9 1.07 1.54 1.18 1.43s0-.46-.26-.78c-.49-.58-1.15-1.67-1.59-2.57-.13-.29-.35-.6-.47-.7s-.69-.93-1.25-1.85l-1.36-2.25a96.28 96.28 0 0 0-1.39-2.15l-1.04-1.57.1-4.78c.06-2.62.02-4.77-.09-4.77s-.21.82-.24 1.82m79.71 2.42c-.31.3-.42 2.95-.42 9.76 0 9.57.24 11.8 1.58 14.72.28.6.51 1.19.51 1.32 0 .3 2.48 3.61 3.6 4.81.92.98 2.57 2.43 5.46 4.81l3.05 2.52c3.61 3.01 3.97 2.18 3.77-8.72-.22-12.58-.64-13.61-9.58-23.35-6.07-6.61-6.74-7.11-7.97-5.87m113.75 1.11c-13.02 13.41-14.08 15.6-14.08 29.24 0 7.68.04 8.15.67 8.49.9.47 1.61.45 2.17-.08.25-.24 1.55-1.31 2.89-2.39l3.14-2.61 2.25-2.02c2.72-2.41 4.62-5.28 6.11-9.23.74-1.96 1.18-20.95.51-22.2-.65-1.22-1.98-.93-3.66.8m-111.33-.53c.1.27 2.82 3.28 7.72 8.56 2.48 2.67 4.55 5.97 5.65 9.03l.99 2.78v8.68c0 10.52.39 10.14-5.43 5.41-6.18-5.03-8.39-7.5-9.41-10.54-.21-.62-.49-1.27-.63-1.46-.85-1.13-1.58-21.75-.8-22.54.34-.33 1.77-.28 1.91.08m114.55 9.25c.16 15.19-1 17.54-13.44 27.19-3.2 2.49-3.2 2.49-3.18-6.58.03-12.28 1.16-15.36 8.55-23.22l4.17-4.44c3.85-4.11 3.78-4.23 3.9 7.05m79.67-4.72c-.27.8-.62 1.54-.79 1.64s-.46.53-.64.94-.87 1.69-1.55 2.84-1.39 2.51-1.59 3.04-.52.95-.69.95-.31.18-.31.39-.53 1.27-1.18 2.35a121.51 121.51 0 0 0-2.22 3.86c-.57 1.05-1.36 2.46-1.77 3.13s-.93 1.61-1.16 2.09-.79 1.47-1.24 2.2-.75 1.42-.65 1.51.44-.34.76-.97c.68-1.3 1.1-2.05 3.59-6.35l1.78-3.19c0-.05.94-1.69 2.09-3.63s2.08-3.59 2.08-3.67.7-1.31 1.55-2.75c2-3.38 2.72-4.92 2.55-5.43-.07-.22-.35.25-.61 1.05m-219.33 3.22c-.23.44-.52.88-.63.98-.17.14-1.45 1.72-3.33 4.09l-.7.87c-3.76 4.58-3.63 4.2-3.58 10.19.05 5.96.53 4.05.59-2.35.04-3.91.06-3.97 2.29-6.41.19-.21 1.6-1.97 3.13-3.92 2.3-2.93 2.92-3.51 3.58-3.4.48.09.74-.01.66-.25-.25-.76-1.57-.63-2.01.2m160.88-.15c-.27.33-.92 1.23-1.43 2s-1.35 1.86-1.85 2.43c-4.25 4.86-7.17 10.33-7.04 13.19.04.93.06.96.19.19.52-3.09 2.76-7.89 4.96-10.6l3.5-4.43c2.55-3.27 2.49-3.26 4.82-.26 1.04 1.34 2.14 2.7 2.44 3.04a86.72 86.72 0 0 1 2.19 2.7l1.63 2.09.11 4.51.11 4.51.08-4.6c.07-4.07 0-4.69-.58-5.38l-2.19-2.7c-6.43-8.03-6.09-7.7-6.94-6.69m-158.76.95c0 .13 1.05 1.55 2.34 3.18 4.13 5.19 4.79 6.16 5.88 8.64 1.49 3.39 1.99 6.61 1.77 11.35-.13 2.77-.08 3.68.16 3.07 1.96-4.98-.51-14.68-5.17-20.34l-2.75-3.48c-1.47-1.92-2.23-2.75-2.23-2.42m56.99 7.28c-5.86 1.29-6.25 2.47-6.25 18.99-.01 19.27.01 19.29 14.42 19.14 12.13-.13 10.94 1.95 10.94-19.25V239.9l-.78-.91c-1.66-1.93-12.4-2.8-18.33-1.48m28.5-.09c-3.49.99-3.48.92-3.48 19.13v15.75l.89 1.31c1.29 1.9 1.86 2 10.73 2.02 9.85.01 10.83-.25 12.83-3.43l.92-1.47v-14.26-14.26l-.85-1.35c-2.01-3.18-4.38-3.86-13.33-3.82-3.57.02-7.04.19-7.71.38m-10.74 1.95l1.02 1.14-.02 15.87c-.03 20.74 1.31 18.62-11.68 18.45l-8.64-.11-1.28-.98c-2.43-1.86-2.41-1.65-2.3-17.71l.1-14.36.87-1.08c.84-1.04 1.83-1.72 3.3-2.24.38-.13 4.5-.22 9.15-.18l8.46.06 1.02 1.14m29.02-.47c.59.37 1.45 1.22 1.91 1.89l.83 1.21.11 13.75c.15 20.06.79 19.14-13.17 19.14-11.83 0-10.74 1.85-10.74-18.29 0-16.63.01-16.73 1.82-18.02 1.27-.91 17.71-.63 19.24.32m-153.79 2.16c2.38 3.92 3.56 5.69 3.69 5.55.19-.18-1.07-2.3-1.37-2.3-.15 0-.26-.22-.26-.5s-.21-.7-.46-.95-.89-1.21-1.42-2.11-1.12-1.75-1.3-1.86.32.87 1.12 2.17m5.08 8.02c3.29 5.41 5.75 9.16 5.91 9 .09-.09-.2-.69-.65-1.32s-1-1.47-1.24-1.85l-3.65-5.89c-1.24-1.73-1.43-1.7-.37.06m192.85.14c-.29 1.43-.22 4.08.13 5.17.18.56.29-.38.31-2.7.04-3.7-.07-4.32-.44-2.47m20.69.65c-.01.67.2 2.15.47 3.3l.5 2.09-.16-1.74c-.27-2.9-.77-5.18-.81-3.65m-179.51 2.78c-.14.67-.33 1.92-.41 2.78-.11 1.28-.05 1.16.38-.7.28-1.24.47-2.49.41-2.78s-.23.03-.38.7m213.08.26a55.48 55.48 0 0 0-1.65 3.04c-.48.95-1.03 1.9-1.22 2.11s-.66.99-1.04 1.74-.8 1.45-.94 1.54-.4.57-.61 1.05a22.01 22.01 0 0 1-1.11 2.08c-1.1 1.8-2.59 4.48-3.49 6.25-.44.86-.91 1.65-1.04 1.75s-.41.56-.62 1.04c-.56 1.23-1.26 2.42-1.71 2.87a1.52 1.52 0 0 0-.38.93c.01.51 1.75-2.03 2.46-3.58a16.56 16.56 0 0 1 .77-1.45c.23-.38 1.03-1.79 1.78-3.12l3.03-5.31c.93-1.59 1.68-2.96 1.68-3.05s.42-.83.94-1.64a60.63 60.63 0 0 0 1.69-2.86l1.68-3.04c1.1-1.95.92-2.24-.22-.35m-181.1 2.54l-.92.73v5.39c0 8.82.53 9.92 8.9 18.45 8.18 8.34 9.17 8.09 9.17-2.29 0-9.19-.64-10.65-7.38-16.6l-3.98-3.57c-2.89-2.84-4.23-3.33-5.79-2.11m112.13.72c-12.85 11.04-12.96 11.23-12.95 21.67.01 6.99.12 7.37 2.21 7.71 2.18.36 13.14-11.24 15.06-15.93 1.06-2.59.91-13.32-.2-14.22-1.24-1.01-2.27-.81-4.12.77m-108.14.74c1.03.81 2.26 1.87 2.74 2.36s1.88 1.74 3.12 2.78c3.42 2.87 4.85 4.71 5.92 7.66.59 1.6.69 2.75.68 7.96-.02 9.53-.34 9.59-8.35 1.48-7.77-7.87-8.32-9.06-8.32-17.86 0-6.27.78-7.09 4.21-4.38m111.7-.92c.84.55.85.63.85 5.59 0 7.36-1.2 10.61-5.47 14.79l-5.26 5.28c-5.09 5.18-5.93 4.74-6-3.14-.09-10.13.29-10.86 10.28-19.78 3.89-3.47 4.23-3.64 5.6-2.74m11.82 1.61c.17 2.26.81 4.84.8 3.22 0-.39-.22-1.79-.49-3.13l-.49-2.43.18 2.34m21.06-1.65c-.02.38.18 1.4.45 2.26.45 1.42.5 1.47.52.5.01-.58-.12-1.2-.3-1.39s-.39-.72-.47-1.2c-.12-.64-.17-.68-.2-.17m-181.43 1.8c-.02.42-.19.86-.38.98s-.34.64-.33 1.15c.02.78.1.69.54-.56.29-.83.45-1.69.36-1.92s-.18-.06-.19.35m21.22.46c-.05.8-.29 2.2-1.64 9.48-.27 1.48-.48 3.12-.47 3.65.04 1.26.14.87.83-3.23l1.11-6.08c.3-1.43.47-3.07.38-3.65-.14-.9-.16-.92-.21-.17m-48.36.56c0 .14.21.5.46.8s1.93 2.9 3.72 5.76c3.47 5.56 4.51 7.07 4.51 6.55 0-.18-.17-.5-.39-.71s-.56-.71-.78-1.1a220.22 220.22 0 0 0-4.04-6.48c-.29-.43-1.04-1.66-1.67-2.73-1.09-1.83-1.81-2.66-1.81-2.09m209.6 1.46c-.12 1.35 3.43 10.48 5.97 15.36 1.99 3.82 3.18 5.47 1.63 2.25-.27-.57-.58-1.12-.68-1.21-.52-.5-3.83-7.74-3.84-8.41-.01-.25-.24-.76-.52-1.13s-.51-.94-.51-1.26-.24-1.04-.52-1.59-.52-1.31-.52-1.7-.15-.86-.32-1.05-.39-.64-.48-1.02-.19-.49-.21-.24m-183.49 1.35c-.02.42-.2.86-.39.97s-.34.56-.33.98c.01.6.12.51.53-.44.29-.66.45-1.44.37-1.73-.09-.34-.16-.25-.18.22m162.28 1.04c-.03 1.24.65 4.76.88 4.53.08-.08-.08-1.38-.35-2.89s-.51-2.25-.53-1.64m-163.67 2.93c-.26.57-.39 1.11-.3 1.21s.36-.32.61-.9c.57-1.39.29-1.68-.31-.31m-1.06 2.84l-1.13 2.68c-.36.86-.82 1.85-1.02 2.2s-.27.73-.17.84.49-.5.85-1.34l1.44-3.36c.44-1.01.73-1.9.65-1.98s-.36.35-.62.96m165.91 1.29c.08 1.24.31 2.65.52 3.13.39.91.3-.12-.37-3.83-.25-1.36-.26-1.27-.15.7m-143.85 4.1c-.14.83-.18 1.59-.07 1.69.25.25.68-2.17.49-2.73-.09-.25-.28.22-.42 1.04m-35.61 1.04c1.01 1.8 3.02 4.24 3.5 4.24.18 0-.13-.43-.69-.95s-1.37-1.61-1.79-2.41-1-1.66-1.3-1.91c-.36-.3-.27.06.28 1.03m180.37.14c-.04 1.44.69 5.18.9 4.6.07-.2-.1-1.61-.37-3.13-.35-1.92-.51-2.36-.53-1.47m-169.92.33c-.25.39-.37.79-.28.88s.35-.17.58-.58c.52-.99.28-1.23-.3-.3m24.7 1.69c0 .67.07.94.16.6a2.87 2.87 0 0 0 0-1.21c-.09-.34-.16-.06-.16.61m-26.49.93c-.67.63-1.05 1.15-.85 1.15.41 0 2.45-2.01 2.21-2.19-.08-.06-.69.41-1.36 1.04m207.42 1.32c-.31.66-.43 1.13-.27 1.03.41-.25 1.35-2.24 1.06-2.24-.13 0-.49.54-.79 1.21m-181.53.87c-.13.79-.16 1.52-.07 1.61s.28-.47.42-1.26.16-1.51.07-1.61-.29.47-.42 1.26m-29.62-.79c.53.08 1.31.08 1.74 0s-.01-.15-.96-.15-1.31.07-.78.15M300 280.93c1.48 1.44 3.45 1.7 5.42.71 1.5-.75 1.39-.97-.16-.32-2.03.84-3.6.67-5.18-.56l-1.38-1.08 1.3 1.25m-27.5.18c-.02.64.14 2.15.36 3.34.58 3.16-.18 4.62-2.83 5.44-1.05.33-1.58.61-1.18.62 2.86.08 4.8-2.23 4.5-5.37-.31-3.26-.79-5.55-.85-4.03m-147.31 2.12c0 .67.07.94.16.61a2.79 2.79 0 0 0 0-1.22c-.09-.34-.16-.06-.16.61m-.25 3.09c.2 2.54 2.04 4.26 4.47 4.19.41-.02-.08-.29-1.08-.62-2.37-.78-2.78-1.23-3.2-3.53l-.35-1.91.16 1.87m9.2 5.12l6.78 1.35c1.53.27 4.27.81 6.08 1.2s3.54.69 3.83.68c.81-.04-1.81-.96-2.78-.98-.48-.01-1.97-.25-3.31-.53l-5.38-1.07c-1.63-.31-3.85-.79-4.95-1.06s-2.5-.49-3.13-.47.67.41 2.86.88m129.63-.37c-.86.27-1.95.49-2.43.49s-1.93.24-3.22.53l-4.69 1.05c-1.29.29-2.76.52-3.28.52a6.13 6.13 0 0 0-1.83.34c-.49.19-1.87.51-3.06.71-3.32.57-6.42 1.32-5.61 1.35.4.02 2.28-.28 4.17-.66l5.36-1.07 4.17-.84 5.56-1.08c6.94-1.28 9.28-1.83 7.82-1.83-.77 0-2.1.22-2.96.49m-112.08 3.79c.2.06 1.53.35 2.96.65 6.23 1.28 8.7 1.72 8.86 1.57.09-.09-1.28-.44-3.05-.78a173.01 173.01 0 0 1-5.31-1.11c-1.76-.41-4.57-.68-3.46-.33m84.8 1.58c-.63.27-.62.3.17.3a4.87 4.87 0 0 0 1.57-.3c.63-.27.62-.3-.18-.3a4.75 4.75 0 0 0-1.56.3m-71.94 1.04c1.03.44 2.25.44 1.57 0-.29-.19-.92-.33-1.39-.32-.8.02-.81.05-.18.32m66.55 0c-.68.44.54.44 1.57 0 .63-.27.62-.3-.18-.32-.47-.01-1.1.13-1.39.32m-63.68.59a3.81 3.81 0 0 0 1.39 0c.33-.08-.02-.16-.78-.15s-1.04.07-.61.15m59.77.09c-1.31.26-2.19.73-1.27.69.27-.01 1.43-.24 2.58-.49 2.17-.49 1.06-.66-1.31-.2m-57.08.36c1.03.44 2.25.44 1.57 0-.29-.18-.91-.33-1.39-.32-.8.02-.81.05-.18.32m4.52.89c2.59.54 9.61 1.54 10.77 1.53 1.99-.02-.71-.62-3.77-.83-1.89-.14-3.76-.37-4.17-.53s-1.76-.37-3-.48l-2.26-.21 2.43.52m46.92-.13c-7.42 1.35-18.08 2.07-27.98 1.88-7.25-.14-7.32-.13-2.43.18 6.34.4 17.21.11 23.11-.61 4.95-.61 11.74-1.81 10.08-1.78-.58.01-1.83.16-2.78.33" fill="#74849c"/></svg>