<svg xmlns="http://www.w3.org/2000/svg" width="400" height="320" fill-rule="evenodd" xmlns:v="https://vecta.io/nano"><path d="M170.619 59.699c-2.079.511-2.577 2.379-2.583 9.682-.006 7.192.354 6.47-4.303 8.639l-7.204 3.417-5.842 2.757-5.154 2.403-4.64 2.157a368.91 368.91 0 0 0-5.841 2.742l-11.512 5.402c-.756.346-3.076 1.276-5.155 2.067-4.115 1.564-9.789 4.318-12.131 5.887-.812.544-1.561.99-1.664.99s-.54.271-.974.601a35.15 35.15 0 0 1-1.562 1.117c-3.991 2.655-9.316 7.366-11.29 9.987-.307.407-.951 1.226-1.432 1.82-9.221 11.387-11.91 30.241-7.841 54.986.444 2.7.443 2.703-.403 3.38-1.738 1.389-5.36 4.991-6.678 6.642-.749.939-1.446 1.785-1.549 1.879-.66.609-5.851 9.057-5.851 9.522 0 .113-.385 1.021-.857 2.018-2.547 5.384-4.77 14.527-5.484 22.559-.113 1.271-.494 2.986-.848 3.81-6.485 15.13-1.583 32.24 12.172 42.481 4.332 3.226 12.76 7.902 14.305 7.937.26.006.772.238 1.139.516s.929.504 1.249.504 1.025.231 1.567.514 1.236.514 1.544.515 1.136.243 1.84.538c4.876 2.037 7.364-.466 10.094-10.158l1.079-3.78c.407-1.417.894-3.273 1.083-4.123 1.372-6.177 2.001-9.533 2.674-14.262.866-6.092.923-6.264 2.84-8.696.998-1.265 1.979-2.455 2.181-2.644s1.006-1.194 1.786-2.234c2.731-3.635 3.454-4.103 4.113-2.663.195.426 1.783 2.552 3.53 4.725 5.877 7.312 7.779 13.409 6.54 20.963l-1.896 11.34-.877 5.498c-.174 1.229-.469 3.007-.656 3.952-2.458 12.381-2.329 12.773 4.628 14.089l4.983.974 10.825 2.131 5.154 1.019 5.155 1.031 5.069 1.001 5.155 1.033c6.438 1.288 10.288 1.961 12.972 2.269 1.606.184 3.235.407 3.62.495 2.663.612 20.642.912 24.993.418 6.837-.777 8.676-1.019 11.249-1.48l4.639-.881c2.587-.537 6.621-1.289 8.935-1.665 1.134-.184 2.294-.423 2.577-.531s1.753-.413 3.265-.678 3.832-.716 5.155-1.001a229.98 229.98 0 0 1 5.326-1.064l5.327-1.005 5.154-.974c10.105-1.895 10.196-1.923 11.2-3.548 1.01-1.635 1.095-.967-3.196-25.207-2.196-12.408-1.65-17.964 2.366-24.055 2.05-3.109 7.006-9.43 7.488-9.549.396-.098 2.196 1.874 4.823 5.281.756.981 1.935 2.459 2.621 3.284l1.246 1.5.179 5.841c.283 9.281 1.67 18.059 3.546 22.435.266.62.483 1.274.483 1.453 0 1.705 4.684 9.217 7.033 11.279 2.403 2.11 3.409 2.107 9.634-.029 3.502-1.202 10.302-4.377 10.825-5.054.094-.123.79-.596 1.546-1.051s1.552-.989 1.769-1.185.987-.82 1.71-1.387c11.172-8.759 16.762-25.924 13.764-42.268-.811-4.423-1.195-6.935-1.786-11.684-1.064-8.543-2.676-13.888-6.459-21.414-3.381-6.726-7.317-11.968-12.068-16.069-2.313-1.997-2.352-2.114-1.727-5.129 3.78-18.211 1.778-38.57-4.913-49.976-6.202-10.571-19.2-20.342-34.041-25.589-2.29-.81-4.398-1.766-13.053-5.919l-4.719-2.193c-.081 0-2.556-1.159-5.498-2.577l-5.516-2.577c-.09 0-2.363-1.057-5.051-2.348l-8.151-3.855c-1.795-.83-3.835-1.857-4.533-2.284l-1.269-.775-.106-7.015-.105-7.014-.949-.949c-1.353-1.351-3.803-1.554-6.209-.513l-2.899 1.239-7.126 3.07c-9.954 4.345-18.693 3.564-32.646-2.918l-2.943-1.353c-1.475-.672-3.392-.852-4.96-.466m8.364 12.519l1.968 2.32c3.373 3.956 7.045 9.133 7.455 10.514.113.378 1.003 2.929 1.977 5.67l2.226 6.529c.25.85 1.551 4.715 2.891 8.587s2.438 7.402 2.438 7.844c0 2.328-3.799 3.708-5.614 2.04-2.471-2.273-9.307-13.84-12.641-21.392-4.876-11.045-5.403-27.689-.7-22.112m41.479-.504c.509.509.56 1.218.417 5.756-.169 5.338-.342 6.335-2.058 11.877-1.044 3.372-1.381 4.232-3.029 7.732L214.46 100c-1.774 4.212-9.388 15.572-10.963 16.357-1.066.532-3.148.046-3.927-.914-.972-1.201-.731-2.517 1.82-9.945l3.412-10.137c3.487-10.875 4.061-12.057 8.766-18.041 4.997-6.355 5.63-6.87 6.894-5.606m-51.364 12.87c1.969.59 3.213 2.14 4.097 5.107 1.762 5.906 2.366 7.484 4.713 12.309 3.44 7.07.865 9.299-8.67 7.502l-5.664-1.028-12.028-2.121-6.872-1.206c-7.961-1.371-9.19-1.696-9.774-2.588-1.155-1.761-.414-3.275 2.213-4.526l8-3.852 6.581-3.116c.185 0 10.895-5.085 11.708-5.56 1.959-1.142 3.907-1.457 5.696-.921m62.173.1c.851.267 2.397.904 3.437 1.417l13.27 6.339c.073 0 2.545 1.16 5.492 2.577l5.505 2.578c1.591 0 3.764 2.876 3.231 4.277-.637 1.676-.649 1.679-26.811 6.232l-5.67.997c-8.272 1.468-9.617 1.479-11.012.084-1.916-1.916-1.853-2.851.54-7.957 1.767-3.772 3.332-7.98 4.334-11.651 1.196-4.385 3.87-6.088 7.684-4.893m-100.837 22.011c6.494.88 16.83 3.921 17.93 5.274.549.675.542.68-1.655 1.084-11.001 2.024-24.491 16.478-29.512 31.621-2.926 8.826-9.385 16.535-23.128 27.605-3.892 3.136-4.614 3.463-4.861 2.206-2.108-10.741-2.858-26.791-1.586-33.935 2.756-15.478 8.412-23.675 20.596-29.853 8.408-4.263 13.511-5.182 22.216-4.002m146.901-.03c6.569 1.066 14.488 4.992 20.093 9.96 11.407 10.112 14.809 27.513 10.676 54.602-.738 4.838-.629 4.776-3.902 2.237-13.562-10.523-21.69-19.929-24.432-28.275-5.222-15.895-19.045-30.588-30.362-32.272-2.787-.415-1.595-1.27 4.522-3.243 10.029-3.235 16.718-4.095 23.405-3.009m-110.84 7.03c.567.202 1.881.622 2.921.932 9.548 2.848 22.738 9.884 24.661 13.155l.94 1.599v15.293c0 16.89.064 16.342-2.261 19.278-1.548 1.954-3.634 3.025-7.984 4.097-3.6.888-6.758 1.834-12.951 3.882l-18.343 5.898c-6.687 2.137-10.925.543-18.255-6.865-6.022-6.087-12.416-9.796-16.889-9.796-1.369 0-3.131-1.246-3.383-2.393-.261-1.188.031-1.757 3.275-6.37 2.596-3.691 6.027-10.237 6.394-12.199 1.627-8.696 16.241-22.049 28.816-26.328 2.622-.892 10.751-1.006 13.059-.183m77.615.356c11.884 4.22 25.667 17.072 28.05 26.155.704 2.687 3.083 7.226 6.409 12.229 4.384 6.596 4.32 7.9-.429 8.764-6.56 1.193-12.654 4.823-16.973 10.109-6.011 7.355-11.246 8.736-20.996 5.538l-12.851-4.156-8.658-2.781c-2.825-.925-7.639-2.211-8.279-2.211-2.633 0-7.238-3.912-8.126-6.903-.703-2.367-.806-29.399-.121-31.717.55-1.862 3.252-4.512 6.124-6.008 10.917-5.685 16.765-8.054 24.214-9.808 1.862-.438 9.671.092 11.636.789m-132.857 52.457c3.616 1.511 3.867 2.38 3.867 13.399 0 10.026-.008 10.081-2.805 19.749-.903 3.123-4.142 12.228-5.073 14.262l-1.568 3.436c-1.578 3.458-2.852 5.924-3.666 7.098-.349.501-.633 1.02-.633 1.152 0 1.217-6.034 9.015-9.779 12.638-4.737 4.583-6.41 5.309-9.376 4.068-2.148-.899-2.571-2.282-3.691-12.069l-.889-7.389c-.78-6.069-.162-13.52 1.395-16.838.178-.378 1.236-2.93 2.352-5.67l7.98-19.417 1.029-2.405 5.705-3.78c3.138-2.079 7.193-4.897 9.012-6.262 3.489-2.62 4.111-2.82 6.14-1.972m180.444 1.963c1.84 1.37 5.916 4.192 9.057 6.271l5.711 3.78 1.119 2.749 4.801 11.684c.174.378 1.155 2.775 2.181 5.327l2.615 6.357c2.424 5.547 2.954 12.495 1.638 21.478l-1.145 8.647c-1.397 11.579-7.877 10.739-17.657-2.29-7.067-9.414-12.924-22.493-17.005-37.972l-1.223-4.639-.001-9.725c-.001-10.387.051-10.752 1.77-12.313 2.771-2.514 4.029-2.414 8.139.646m-98.412 4.57c1.845.875 1.904 1.276 1.904 13.011 0 13.572.572 12.437-7.121 14.124-6.351 1.392-9.734 2.226-11.779 2.902-3.244 1.072-9.057 3.324-10.561 4.092-2.197 1.12-4.166.56-5.813-1.656-.218-.292-.8-.995-1.295-1.562-3.003-3.439-6.284-10.703-6.597-14.605-.261-3.25 1.693-5.837 4.413-5.841.516 0 1.521-.216 2.234-.479s3.847-1.288 6.966-2.278l20.103-6.484c5.843-1.925 6.012-1.953 7.546-1.224m14.544.116l9.181 2.96 12.887 4.175c9.416 3.096 9.808 3.213 10.78 3.213 6.62 0 5.649 10.733-1.811 20.005-4.191 5.211-4.381 5.229-13.265 1.267-1.367-.609-7.958-2.634-10.309-3.167-11.637-2.637-11.766-2.673-12.588-3.548l-.814-.867v-11.276c0-10.793.03-11.309.687-12.04 1.344-1.494 2.451-1.646 5.252-.722M81.122 190.734c.942.504.857.914-.886 4.273-5.393 10.395-6.009 13.325-6.009 28.551 0 12.114-.089 12.868-1.517 12.868-.925 0-1.197-.279-2.344-2.405l-1.876-3.442c-5.424-9.878.191-31.141 10.337-39.147 1.524-1.202 1.415-1.169 2.295-.698m237.334 1.104c7.247 6.606 12.112 18.821 12.126 30.449.005 4.49-4.461 14.139-6.545 14.139-1.203 0-1.286-.759-1.44-13.23-.188-15.306-.733-17.875-5.918-27.868-1.581-3.046-1.907-4.409-1.129-4.722.912-.369 1.356-.18 2.906 1.232m-202.091 10.44c1.137 4.53-.811 12.163-4.828 18.915-4.878 8.2-11.112 12.36-7.337 4.894 3.808-7.528 9.889-21.808 9.889-23.22 0-1.4 1.946-1.903 2.276-.589m165.665-.474c.18.236.837 1.821 1.46 3.522 1.714 4.683 5.523 13.533 8.059 18.729 2.643 5.414 2.785 6.699.608 5.53-5.049-2.714-11.374-14.987-11.656-22.619-.199-5.388.236-6.858 1.529-5.162m-87.718 3.736l.903 1.073-.099 11.672-.099 11.672-.964.829-.964.829h-11.413-11.413l-1.253-.851c-1.972-1.34-5.407-7.558-5.428-9.826-.043-4.624 4.586-8.728 15.456-13.705.283-.13 1.598-.57 2.921-.977 7.139-2.197 10.923-2.416 12.353-.716m16.358-.408c4.72 1.079 9.611 2.93 12.407 4.695.719.454 1.384.826 1.476.826.533 0 5.531 3.724 6.378 4.752 2.848 3.455 2.74 6.675-.399 11.897-2.694 4.482-2.07 4.309-15.605 4.311-14.885.003-13.279 1.758-13.138-14.365l.101-11.446.859-.66c1.144-.878 4.113-.882 7.921-.01m-65.449 18.145l4.234 4.536c1.994 2.021 4.886 5.951 5.705 7.754 1.93 4.245 1.997 4.667 2.152 13.446.202 11.47.231 11.438-5.766 6.451-10.632-8.843-11.406-10.468-11.606-24.364-.188-13.06.1-13.486 5.281-7.823m111.308 7.307v10.481l-.977 2.498c-1.405 3.59-3.851 6.519-9.16 10.969-7.184 6.021-6.703 6.399-6.695-5.258.007-11.549 1.01-14.614 6.687-20.439.477-.489 2.259-2.412 3.96-4.274 4.449-4.869 4.235-4.683 5.261-4.565l.924.107v10.481m-63.749 6.149c.47.131 1.205.757 1.632 1.391l.777 1.153-.001 15.843c-.002 20.654 1.127 18.763-11.201 18.763-8.615 0-9.647-.164-11.42-1.82-1.785-1.667-1.777-1.583-1.777-16.937 0-19.525-.644-18.629 13.402-18.63 4.253-.001 8.117.106 8.588.237m28.698.07c1.483.403 3.372 1.982 4.153 3.472.396.756.486 3.518.486 14.876 0 15.835.015 15.74-2.816 17.615l-1.427.945-8.579.108c-12.831.162-11.577 2.195-11.577-18.773 0-17.769-.047-17.377 2.195-18.283 1.078-.436 15.937-.402 17.565.04m-74.861 20.105c6.611 5.853 8.293 7.637 9.486 10.059l1.113 2.26.118 6.593c.13 7.338-.068 8.029-2.296 8.029-1.366 0-11.733-10.56-13.353-13.602-2.298-4.314-2.621-14.964-.488-16.122 1.392-.757 1.463-.721 5.42 2.783m109.211-2.562l.937.737-.142 6.221c-.194 8.532-.242 8.624-9.12 17.648-7.368 7.488-8.096 7.191-7.924-3.235l.112-6.817 1.134-2.297c.974-1.971 1.795-2.893 5.777-6.487 8.017-7.238 7.651-7.009 9.226-5.77" fill="#464f6c"/><path d="M169.842 59.448c-2.289 1.396-2.485 2.151-2.487 9.542l-.001 6.618-2.663 1.229-7.167 3.433-4.765 2.204c-.143 0-2.138.912-4.431 2.027l-5.888 2.788-6.971 3.3-5.374 2.538c-.066 0-2.063.928-4.438 2.062l-4.634 2.062c-1.048 0-11.06 4.554-13.635 6.203-.567.363-1.34.819-1.718 1.013-1.101.567-5.178 3.284-5.67 3.779-.095.095-.713.553-1.375 1.017-3.807 2.669-9.657 8.989-12.27 13.255-.978 1.596-3.686 7.4-4.005 8.582-.102.378-.503 1.769-.891 3.092-3.327 11.346-3.548 27.649-.549 40.533l.396 1.702-3.5 3.453c-4.604 4.543-9.214 10.874-11.397 15.653-1.78 3.897-3.434 8.402-3.889 10.59-.17.816-.381 1.6-.469 1.743-.368.596-1.27 5.675-1.776 10.001-.298 2.55-.774 5.178-1.057 5.841-5.78 13.506-2.782 28.973 7.632 39.368 3.011 3.006 10.875 8.745 11.982 8.745.121 0 .796.355 1.501.787a25.08 25.08 0 0 0 2.829 1.436l2.92 1.239c1.334.573 6.052 2.184 9.021 3.08 2.252.68 4.615-.281 5.949-2.418 1.208-1.935 4.33-11.45 5.637-17.182l1.073-4.661c.267-1.146.485-2.489.485-2.985s.145-1.279.321-1.743.489-2.213.696-3.888c.623-5.039.985-7.09 1.289-7.307.158-.114 1.133-1.289 2.165-2.612s2.046-2.56 2.252-2.749.892-1.04 1.525-1.89c1.897-2.55 2.018-2.587 3.128-.932.534.796 2.067 2.762 3.407 4.368 5.121 6.137 6.939 12.4 5.816 20.037-.394 2.683-1.174 7.202-1.76 10.204-.204 1.039-.495 2.818-.649 3.952s-.607 3.917-1.008 6.185c-2.376 13.456-2.319 13.623 5.155 15.114l5.155 1.044 6.185 1.192 5.499 1.045 4.123.839 7.045 1.434 6.873 1.345a168.65 168.65 0 0 1 4.983.995c1.417.309 4.046.774 5.842 1.032s3.496.554 3.78.657c1.415.513 16.337 1.321 20.79 1.126 6.448-.283 13.285-.822 15.808-1.246l12.371-2.267 7.044-1.373 8.592-1.683 10.824-2.075 4.468-.868c.756-.167 3.153-.642 5.326-1.055 7.212-1.372 8.341-3.154 6.837-10.788-.186-.945-.483-2.724-.66-3.952s-.473-2.93-.657-3.78c-.353-1.627-.962-5.098-1.9-10.825l-1.061-6.022c-.95-4.941-.166-10.384 2.175-15.103.653-1.314.61-1.251 2.323-3.446l3.503-4.542c2.674-3.488 2.299-3.542 5.622.81 1.102 1.444 2.206 2.836 2.452 3.093s.928 1.086 1.515 1.842l1.067 1.375.185 7.904c.102 4.347.344 8.367.539 8.934s.506 1.959.693 3.093c.544 3.303 1.118 5.815 1.413 6.186.15.189.388.879.529 1.535s.369 1.428.509 1.718l1.4 2.932c5.482 11.497 9.13 12.403 23.001 5.717 1.417-.683 2.628-1.36 2.691-1.504s.315-.261.559-.261c.71 0 7.068-4.904 8.97-6.92 3.308-3.505 5.297-6.327 7.23-10.262 2.003-4.076 2.235-4.721 3.567-9.878 1.287-4.983 1.197-15.033-.198-22.076-.467-2.36-.929-5.452-1.025-6.873-.291-4.279-2.208-13.838-2.927-14.592-.171-.18-.312-.644-.313-1.031s-.233-1.148-.515-1.689-.514-1.13-.514-1.307c0-.433-1.175-3.077-2.494-5.612l-1.609-3.093c-.295-.567-.621-1.108-.726-1.203s-.562-.79-1.018-1.546-1.041-1.593-1.301-1.859-.842-1.071-1.294-1.787-2.55-3.019-4.662-5.117l-3.84-3.816.561-2.474c2.211-9.754 2.721-27.522.936-32.642a7.26 7.26 0 0 1-.36-1.974c0-.517-.241-1.769-.535-2.783l-1.088-3.734c-1.236-4.225-4.378-10.884-5.322-11.283-.15-.063-.272-.269-.272-.458 0-1.039-7.277-8.667-10.996-11.527-5.62-4.321-15.574-9.82-21.296-11.766-1.222-.416-3.512-1.363-5.089-2.105s-2.928-1.349-3.004-1.349-2.692-1.237-5.814-2.749l-5.882-2.749c-.113 0-2.089-.912-4.389-2.027l-5.557-2.615c-1.51-.646-8.615-4.041-14.261-6.815l-3.609-1.773-.184-6.701c-.21-7.61-.238-7.734-2.039-9.021-2.277-1.627-3.908-1.35-10.922 1.853-1.182.54-2.234.982-2.338.982-.219 0-3.158 1.257-3.944 1.687-.289.158-1.063.403-1.718.543s-1.346.354-1.535.473c-1.476.933-9.711 1.35-14.023.71-3.221-.478-4.867-1.028-9.616-3.212-1.471-.678-2.783-1.232-2.915-1.232-.216 0-3.848-1.665-5.314-2.435-1.064-.56-3.798-.356-4.991.371m5.737.717l2.943 1.353c13.953 6.482 22.692 7.263 32.646 2.918l7.126-3.07 2.899-1.239c2.406-1.041 4.856-.838 6.209.513l.949.949.105 7.014.106 7.015 1.269.775c.698.427 2.738 1.454 4.533 2.284l8.151 3.855 5.051 2.348c.091 0 2.573 1.16 5.516 2.577l5.498 2.577c.082 0 2.205.987 4.719 2.193 8.655 4.153 10.763 5.109 13.053 5.919 8.128 2.873 17.62 8.226 23.166 13.062 8.429 7.351 11.817 12.465 15.003 22.641 3.242 10.352 3.56 26.495.785 39.862-.625 3.015-.586 3.132 1.727 5.129 3.173 2.74 7.727 8.21 9.943 11.945.573.967 3.872 7.587 4.42 8.872 1.847 4.326 3.403 10.556 4.164 16.666.591 4.749.975 7.261 1.786 11.684 2.998 16.344-2.592 33.509-13.764 42.268-.723.567-1.492 1.191-1.71 1.387s-1.013.729-1.769 1.185-1.452.928-1.546 1.051c-.523.677-7.323 3.852-10.825 5.054-6.225 2.136-7.231 2.139-9.634.029-2.349-2.062-7.033-9.574-7.033-11.279 0-.179-.217-.833-.483-1.453-1.876-4.376-3.263-13.154-3.546-22.435l-.179-5.841-1.246-1.5c-.686-.825-1.865-2.303-2.621-3.284-2.627-3.407-4.427-5.379-4.823-5.281-.482.119-5.438 6.44-7.488 9.549-4.016 6.091-4.562 11.647-2.366 24.055 4.291 24.24 4.206 23.572 3.196 25.207-1.004 1.625-1.095 1.653-11.2 3.548l-5.154.974-5.327 1.005-5.326 1.064c-1.323.285-3.643.736-5.155 1.001s-2.981.57-3.265.678-1.443.347-2.577.531c-2.314.376-6.348 1.128-8.935 1.665-.945.197-3.032.593-4.639.881-2.573.461-4.412.703-11.249 1.48-4.351.494-22.33.194-24.993-.418-.385-.088-2.014-.311-3.62-.495-2.684-.308-6.534-.981-12.972-2.269l-5.155-1.033-5.069-1.001-5.155-1.031-5.154-1.019-10.825-2.131-4.983-.974c-6.957-1.316-7.086-1.708-4.628-14.089.187-.945.482-2.723.656-3.952a227.48 227.48 0 0 1 .877-5.498l1.896-11.34c1.239-7.554-.663-13.651-6.54-20.963-1.747-2.173-3.335-4.299-3.53-4.725-.659-1.44-1.382-.972-4.113 2.663-.78 1.04-1.584 2.045-1.786 2.234s-1.183 1.379-2.181 2.644c-1.917 2.432-1.974 2.604-2.84 8.696-.673 4.729-1.302 8.085-2.674 14.262-.189.85-.676 2.706-1.083 4.123l-1.079 3.78c-2.73 9.692-5.218 12.195-10.094 10.158-.704-.295-1.533-.537-1.84-.538s-1.003-.233-1.544-.515-1.247-.514-1.567-.514-.882-.227-1.249-.504-.879-.51-1.139-.516-2.115-.814-4.123-1.797c-11.848-5.794-19.368-13.074-22.828-22.097-3.064-7.993-2.872-18.717.474-26.524.354-.824.735-2.539.848-3.81.714-8.032 2.937-17.175 5.484-22.559.472-.997.857-1.905.857-2.018 0-.465 5.191-8.913 5.851-9.522.103-.094.8-.94 1.549-1.879 1.318-1.651 4.94-5.253 6.678-6.642.846-.677.847-.68.403-3.38-3.674-22.345-1.953-39.221 5.218-51.157.911-1.516 1.792-2.803 2.623-3.829l1.432-1.82c1.974-2.621 7.299-7.332 11.29-9.987a35.15 35.15 0 0 0 1.562-1.117c.434-.33.872-.601.974-.601s.852-.446 1.664-.99c2.342-1.569 8.016-4.323 12.131-5.887 2.079-.791 4.399-1.721 5.155-2.067l11.512-5.402 5.841-2.742 4.64-2.157 5.154-2.403 5.842-2.757 7.204-3.417c4.657-2.169 4.297-1.447 4.303-8.639.008-9.528 1.869-11.801 7.543-9.216m1.003 11.321c-2.179 1.272-.295 15.151 3.101 22.844 3.334 7.552 10.17 19.119 12.641 21.392 1.815 1.668 5.614.288 5.614-2.04 0-.442-1.097-3.972-2.438-7.844l-2.891-8.587c-.249-.851-1.251-3.789-2.226-6.529l-1.977-5.67c-.41-1.381-4.082-6.558-7.455-10.514l-1.968-2.32c-.955-1.132-1.455-1.285-2.401-.732m41.495.421c-5.632 5.056-9.655 12.163-13.275 23.454l-3.412 10.137c-2.551 7.428-2.792 8.744-1.82 9.945.779.96 2.861 1.446 3.927.914 1.575-.785 9.189-12.145 10.963-16.357a109.09 109.09 0 0 1 1.332-2.921c1.648-3.5 1.985-4.36 3.029-7.732 1.716-5.542 1.889-6.539 2.058-11.877.2-6.327-.47-7.656-2.802-5.563m-52.613 12.764c-.756.239-1.684.614-2.062.834-.813.475-11.523 5.56-11.708 5.56-.07 0-3.032 1.403-6.581 3.116l-8 3.852c-2.627 1.251-3.368 2.765-2.213 4.526.584.892 1.813 1.217 9.774 2.588l6.872 1.206 12.028 2.121 5.664 1.028c9.535 1.797 12.11-.432 8.67-7.502-2.347-4.825-2.951-6.403-4.713-12.309-1.347-4.519-3.953-6.21-7.731-5.02m61.856.036c-1.88.661-2.975 2.091-3.733 4.87-1.002 3.671-2.567 7.879-4.334 11.651-2.393 5.106-2.456 6.041-.54 7.957 1.395 1.395 2.74 1.384 11.012-.084l5.67-.997c26.162-4.553 26.174-4.556 26.811-6.232.533-1.401-1.64-4.277-3.231-4.277-.08 0-2.557-1.16-5.505-2.578l-5.492-2.577c-.128 0-9.381-4.42-13.27-6.339-3.785-1.867-5.256-2.145-7.388-1.394m-108.573 22.047c-8.343 1.51-18.467 7.712-23.711 14.527-7.682 9.984-9.94 26.967-6.514 48.994.762 4.898.785 4.983 1.344 4.983.922 0 8.765-6.513 14.181-11.776 7.857-7.636 10.878-11.956 13.15-18.808 5.021-15.143 18.511-29.597 29.512-31.621 2.992-.551 2.551-1.124-2.207-2.869-9.287-3.405-18.851-4.679-25.755-3.43m147.377-.06c-4.399.6-6.124 1.022-12.194 2.98-6.117 1.973-7.309 2.828-4.522 3.243 11.317 1.684 25.14 16.377 30.362 32.272 2.742 8.346 10.87 17.752 24.432 28.275 3.273 2.539 3.164 2.601 3.902-2.237 4.587-30.069-.015-47.948-14.911-57.933-8.776-5.882-17.229-7.943-27.069-6.6m-112.688 7.184c-12.575 4.279-27.189 17.632-28.816 26.328-.367 1.962-3.798 8.508-6.394 12.199-3.244 4.613-3.536 5.182-3.275 6.37.252 1.147 2.014 2.393 3.383 2.393 4.473 0 10.867 3.709 16.889 9.796 7.33 7.408 11.568 9.002 18.255 6.865l18.343-5.898c6.193-2.048 9.351-2.994 12.951-3.882 4.35-1.072 6.436-2.143 7.984-4.097 2.325-2.936 2.261-2.388 2.261-19.278v-15.293l-.94-1.599c-1.923-3.271-15.113-10.307-24.661-13.155-1.04-.31-2.354-.73-2.921-.932-2.308-.823-10.437-.709-13.059.183m79.038-.616c-7.449 1.754-13.297 4.123-24.214 9.808-2.872 1.496-5.574 4.146-6.124 6.008-.685 2.318-.582 29.35.121 31.717.888 2.991 5.493 6.903 8.126 6.903.64 0 5.454 1.286 8.279 2.211l8.658 2.781 12.851 4.156c9.75 3.198 14.985 1.817 20.996-5.538 4.319-5.286 10.413-8.916 16.973-10.109 4.749-.864 4.813-2.168.429-8.764-3.326-5.003-5.705-9.542-6.409-12.229-2.383-9.083-16.166-21.935-28.05-26.155-1.965-.697-9.774-1.227-11.636-.789m-46.735 61.003l-20.103 6.484-6.966 2.278c-.713.263-1.718.479-2.234.479-2.72.004-4.674 2.591-4.413 5.841.313 3.902 3.594 11.166 6.597 14.605.495.567 1.077 1.27 1.295 1.562 1.647 2.216 3.616 2.776 5.813 1.656 1.504-.768 7.317-3.02 10.561-4.092 2.045-.676 5.428-1.51 11.779-2.902 7.693-1.687 7.121-.552 7.121-14.124 0-15.04.088-14.93-9.45-11.787m18.213-1.432c-2.072.849-2.062.783-2.062 13.086v11.276l.814.867c.822.875.951.911 12.588 3.548 2.351.533 8.942 2.558 10.309 3.167 8.884 3.962 9.074 3.944 13.265-1.267 7.46-9.272 8.431-20.005 1.811-20.005-.972 0-1.364-.117-10.78-3.213l-12.887-4.175-9.181-2.96c-2.124-.701-2.814-.758-3.877-.324m-17.698 32.202c-2.237.569-6.485 1.863-7.216 2.198-10.87 4.977-15.499 9.081-15.456 13.705.021 2.268 3.456 8.486 5.428 9.826l1.253.851h11.413 11.413l.964-.829.964-.829.099-11.672.099-11.672-.903-1.073c-1.045-1.243-4.344-1.449-8.058-.505m16.495.107l-.859.66-.101 11.446c-.141 16.123-1.747 14.368 13.138 14.365 13.535-.002 12.911.171 15.605-4.311 3.139-5.222 3.247-8.442.399-11.897-.847-1.028-5.845-4.752-6.378-4.752-.092 0-.757-.372-1.476-.826-6.089-3.844-17.883-6.562-20.328-4.685m-62.579 15.734c-.236.613-.317 4.207-.23 10.224.2 13.896.974 15.521 11.606 24.364 5.997 4.987 5.968 5.019 5.766-6.451-.155-8.779-.222-9.201-2.152-13.446-.819-1.803-3.711-5.733-5.705-7.754-.645-.655-2.551-2.696-4.234-4.536-3.361-3.674-4.377-4.156-5.051-2.401m113.889-.343c-.343.354-2.014 2.167-3.715 4.028l-3.96 4.274c-5.677 5.825-6.68 8.89-6.687 20.439-.008 11.657-.489 11.279 6.695 5.258 5.309-4.45 7.755-7.379 9.16-10.969l.977-2.498v-10.481-10.481l-.924-.107c-.565-.065-1.166.144-1.546.537m-78.676 16.22c-1.467.351-3.025 1.514-3.881 2.899-.921 1.49-1.126 29.001-.229 30.726 1.62 3.113 3.044 3.505 12.714 3.505 12.328 0 11.199 1.891 11.201-18.763l.001-15.843-.777-1.153c-.427-.634-1.162-1.26-1.632-1.391-1.153-.321-16.04-.303-17.397.02m28.53.01c-2.242.906-2.195.514-2.195 18.283 0 20.968-1.254 18.935 11.577 18.773l8.579-.108 1.427-.945c2.831-1.875 2.816-1.78 2.816-17.615 0-11.358-.09-14.12-.486-14.876-.781-1.49-2.67-3.069-4.153-3.472-1.628-.442-16.487-.476-17.565-.04m-62.716 17.362c-2.133 1.158-1.81 11.808.488 16.122 1.62 3.042 11.987 13.602 13.353 13.602 2.228 0 2.426-.691 2.296-8.029l-.118-6.593-1.113-2.26c-1.193-2.422-2.875-4.206-9.486-10.059-3.957-3.504-4.028-3.54-5.42-2.783m111.433.642c-6.694 5.592-10.71 9.619-11.805 11.836l-1.134 2.297-.112 6.817c-.172 10.426.556 10.723 7.924 3.235 8.878-9.024 8.926-9.116 9.12-17.648l.142-6.221-.937-.737c-1.248-.982-1.57-.939-3.198.421" fill="#9cabcb"/><path d="M0 171.821v171.822h200 200V171.821 0H200 0v171.821M174.833 59.077c1.466.77 5.098 2.435 5.314 2.435.132 0 1.444.554 2.915 1.232 4.749 2.184 6.395 2.734 9.616 3.212 4.312.64 12.547.223 14.023-.71.189-.119.88-.332 1.535-.473s1.429-.385 1.718-.543c.786-.43 3.725-1.687 3.944-1.687.104 0 1.156-.442 2.338-.982 7.014-3.203 8.645-3.48 10.922-1.853 1.801 1.287 1.829 1.411 2.039 9.021l.184 6.701 3.609 1.773 14.261 6.815c.756.323 3.257 1.5 5.557 2.615s4.276 2.027 4.389 2.027 2.761 1.237 5.882 2.749l5.814 2.749c.076 0 1.428.607 3.004 1.349s3.867 1.689 5.089 2.105c5.722 1.946 15.676 7.445 21.296 11.766 3.719 2.86 10.996 10.488 10.996 11.527 0 .189.122.395.272.458.944.399 4.086 7.058 5.322 11.283l1.088 3.734c.294 1.014.535 2.266.535 2.783a7.26 7.26 0 0 0 .36 1.974c1.785 5.12 1.275 22.888-.936 32.642l-.561 2.474 3.84 3.816c2.112 2.098 4.21 4.401 4.662 5.117s1.034 1.52 1.294 1.787.846 1.103 1.301 1.859.914 1.452 1.018 1.546.431.636.726 1.203l1.609 3.093c1.319 2.535 2.494 5.179 2.494 5.612 0 .177.231.766.514 1.307s.514 1.301.515 1.689.142.851.313 1.031c.719.754 2.636 10.313 2.927 14.592.096 1.421.558 4.513 1.025 6.873 1.395 7.043 1.485 17.093.198 22.076-1.332 5.157-1.564 5.802-3.567 9.878-1.933 3.935-3.922 6.757-7.23 10.262-1.902 2.016-8.26 6.92-8.97 6.92-.244 0-.495.118-.559.261s-1.274.821-2.691 1.504c-9.322 4.494-13.939 5.425-16.385 3.304-2.785-2.415-4.73-5.067-6.616-9.021l-1.4-2.932c-.14-.29-.369-1.063-.509-1.718s-.379-1.346-.529-1.535c-.295-.371-.869-2.883-1.413-6.186-.187-1.134-.499-2.526-.693-3.093s-.437-4.587-.539-8.934l-.185-7.904-1.067-1.375c-.587-.756-1.268-1.585-1.515-1.842s-1.35-1.649-2.452-3.093c-3.323-4.352-2.948-4.298-5.622-.81l-3.503 4.542c-1.713 2.195-1.67 2.132-2.323 3.446-2.341 4.719-3.125 10.162-2.175 15.103.274 1.422.751 4.132 1.061 6.022l1.9 10.825c.184.85.479 2.551.657 3.78s.474 3.007.66 3.952c1.504 7.634.375 9.416-6.837 10.788l-5.326 1.055c-.756.167-2.767.558-4.468.868l-10.824 2.075-8.592 1.683-7.044 1.373c-3.86.783-7.4 1.431-12.371 2.267-2.523.424-9.36.963-15.808 1.246-4.453.195-19.375-.613-20.79-1.126-.284-.103-1.985-.398-3.78-.657s-4.425-.723-5.842-1.032a168.65 168.65 0 0 0-4.983-.995c-1.323-.238-4.416-.843-6.873-1.345l-7.045-1.434-4.123-.839-5.499-1.045-6.185-1.192-5.155-1.044c-4.741-.946-5.677-1.509-6.477-3.897-.405-1.212-.327-1.878 1.322-11.217l1.008-6.185c.154-1.134.445-2.913.649-3.952.586-3.002 1.366-7.521 1.76-10.204 1.123-7.637-.695-13.9-5.816-20.037-1.34-1.606-2.873-3.572-3.407-4.368-1.11-1.655-1.231-1.618-3.128.932-.633.85-1.319 1.701-1.525 1.89s-1.219 1.426-2.252 2.749-2.007 2.498-2.165 2.612c-.304.217-.666 2.268-1.289 7.307-.207 1.675-.52 3.425-.696 3.888s-.321 1.248-.321 1.743-.218 1.839-.485 2.985l-1.073 4.661c-1.307 5.732-4.429 15.247-5.637 17.182-1.334 2.137-3.697 3.098-5.949 2.418-2.969-.896-7.687-2.507-9.021-3.08l-2.92-1.239a25.08 25.08 0 0 1-2.829-1.436c-.705-.432-1.38-.787-1.501-.787-1.107 0-8.971-5.739-11.982-8.745-10.414-10.395-13.412-25.862-7.632-39.368.283-.663.759-3.291 1.057-5.841.506-4.326 1.408-9.405 1.776-10.001.088-.143.299-.927.469-1.743.455-2.188 2.109-6.693 3.889-10.59 2.183-4.779 6.793-11.11 11.397-15.653l3.5-3.453-.396-1.702c-2.999-12.884-2.778-29.187.549-40.533l.891-3.092c.319-1.182 3.027-6.986 4.005-8.582 2.613-4.266 8.463-10.586 12.27-13.255.662-.464 1.28-.922 1.375-1.017.492-.495 4.569-3.212 5.67-3.779.378-.194 1.151-.65 1.718-1.013 2.575-1.649 12.587-6.203 13.635-6.203.174 0 2.26-.928 4.634-2.062l4.438-2.062c.067 0 2.485-1.142 5.374-2.538l6.971-3.3c.945-.419 3.595-1.674 5.888-2.788s4.288-2.027 4.431-2.027 2.288-.992 4.765-2.204l7.167-3.433 2.663-1.229.001-6.618c.002-7.391.198-8.146 2.487-9.542 1.193-.727 3.927-.931 4.991-.371" fill="#14181D"/><path d="M105.113 168.48c-1.819 1.365-5.874 4.183-9.012 6.262l-5.705 3.78-1.029 2.405-7.98 19.417-2.352 5.67c-1.557 3.318-2.175 10.769-1.395 16.838l.889 7.389c1.12 9.787 1.543 11.17 3.691 12.069 2.966 1.241 4.639.515 9.376-4.068 3.745-3.623 9.779-11.421 9.779-12.638 0-.132.284-.651.633-1.152.814-1.174 2.088-3.64 3.666-7.098l1.568-3.436c.931-2.034 4.17-11.139 5.073-14.262 2.797-9.668 2.805-9.723 2.805-19.749 0-11.019-.251-11.888-3.867-13.399-2.029-.848-2.651-.648-6.14 1.972m180.282-1.93c-3.512 1.852-3.608 2.215-3.607 13.588l.001 9.725 1.223 4.639c5.718 21.691 16.062 40.513 25.876 47.088 4.845 3.246 7.853.91 8.786-6.826l1.145-8.647c1.316-8.983.786-15.931-1.638-21.478-.412-.945-1.589-3.806-2.615-6.357l-2.181-5.327c-.286-.622-1.628-3.888-4.801-11.684l-1.119-2.749-5.711-3.78c-3.141-2.079-7.217-4.901-9.057-6.271-3.578-2.664-4.411-2.918-6.302-1.921" fill="#f30c4e"/><path d="M78.827 191.432c-10.146 8.006-15.761 29.269-10.337 39.147l1.876 3.442c1.147 2.126 1.419 2.405 2.344 2.405 1.428 0 1.517-.754 1.517-12.868 0-15.226.616-18.156 6.009-28.551 1.743-3.359 1.828-3.769.886-4.273-.88-.471-.771-.504-2.295.698m236.723-.826c-.778.313-.452 1.676 1.129 4.722 5.185 9.993 5.73 12.562 5.918 27.868.154 12.471.237 13.23 1.44 13.23 2.084 0 6.55-9.649 6.545-14.139-.012-9.44-4.333-22.297-9.298-27.664-3.245-3.507-4.617-4.468-5.734-4.017m-200.921 11.309c-.297.297-.54.725-.54.952 0 1.412-6.081 15.692-9.889 23.22-1.329 2.629-1.419 2.958-.936 3.441 1.67 1.67 7.897-6.323 11.443-14.69 2.603-6.141 2.546-15.548-.078-12.923m165.905-.018c-.503 1.31.135 9.615.896 11.677 2.692 7.291 9.764 16.911 11.844 16.113.815-.313.72-.623-1.725-5.632-2.536-5.196-6.345-14.046-8.059-18.729-1.453-3.967-2.35-5.008-2.956-3.429" fill="#e3846d"/></svg>