<svg xmlns="http://www.w3.org/2000/svg" width="400" height="320" fill-rule="evenodd" xmlns:v="https://vecta.io/nano"><path d="M120.343 34.163l-3.09 1.176-2.403 1.078c-4.272 1.855-8.528 4.163-11.758 6.375-1.205.825-2.279 1.5-2.385 1.5s-.772.502-1.478 1.116a53.6 53.6 0 0 1-2.429 1.974c-3.027 2.27-7.941 7.845-10.194 11.564-7.577 12.513-9.594 32.967-5.208 52.814l.303 1.373-3.356 3.262c-11.189 10.876-17.089 24.404-18.126 41.561-.206 3.422-.016 4.05 2.279 7.538.186.283.444.746.572 1.03s.9 1.648 1.715 3.032 1.481 2.581 1.481 2.657.927 1.701 2.06 3.609 2.06 3.549 2.06 3.647c0 .149 2.73 4.908 3.801 6.625.177.284.473.824.659 1.202s.878 1.614 1.538 2.747 1.597 2.803 2.081 3.711a93.85 93.85 0 0 0 2.237 3.868c.747 1.22 1.358 2.312 1.358 2.426 0 .184 2.556 4.608 3.444 5.961.186.283.526.901.755 1.373s1.014 1.848 1.743 3.057 1.474 2.522 1.655 2.918c1.959 4.28 5.712 5.608 8.276 2.93 1.61-1.683 6.182-11.166 7.852-16.287 1.414-4.335 1.502-4.676 2.367-9.099l.72-3.605c.193-.944.443-4.145.556-7.113l.205-5.397 2.093-2.554 3.809-4.732c1.681-2.136 2.532-3.004 2.966-3.026.119-.006 1.173 1.305 2.341 2.913s2.584 3.423 3.145 4.034c5.036 5.482 6.878 14.011 4.983 23.085-.276 1.322-.761 4.026-1.077 6.009l-1.031 6.18-1.02 6.009-1.007 6.008c-.362 2.103-.362 5.727-.002 19.743l.465 23.232.024 6.065 2.115 2.862c4.201 5.687 10.542 12.34 16.962 17.798 3.033 2.578 10.417 7.851 12.177 8.694.278.133 1.278.704 2.222 1.269 6.833 4.088 16.708 7.734 26.095 9.634 6.172 1.25 19.133 1.239 25.475-.021 4.536-.901 12.644-3.173 14.696-4.118.378-.174 2.232-.961 4.121-1.748 3.701-1.544 10.307-5.022 12.08-6.361.601-.454 1.172-.825 1.27-.825 1.264 0 13.128-9.492 18.238-14.593 7.521-7.506 10.415-11.013 10.988-13.315.908-3.646 1.245-45.933.401-50.276l-1.066-5.937-.921-5.321-.847-4.979-1.045-6.009c-.874-4.712-.98-9.755-.268-12.674 1.108-4.539 2.245-6.597 6.961-12.602 1.392-1.772 2.691-3.569 2.888-3.994.577-1.246 1.44-.904 3.023 1.202.816 1.086 1.682 2.176 1.924 2.423s1.166 1.405 2.052 2.575 1.893 2.403 2.237 2.74c.519.511.626 1.179.628 3.949.004 5.076.946 12.056 2.234 16.553.243.85.553 2.086.687 2.747s.353 1.356.483 1.545.594 1.466 1.031 2.837.929 2.578 1.096 2.681.307.449.311.768c.006.498 1.174 2.927 4.209 8.754 2.585 4.964 7.343 4.746 9.778-.448.222-.472.864-1.631 1.428-2.575a95.09 95.09 0 0 0 1.851-3.262c.454-.849 1.152-2.086 1.553-2.746s1.101-1.897 1.558-2.747 1.542-2.747 2.412-4.216 1.581-2.741 1.581-2.827.631-1.186 1.402-2.446 1.543-2.614 1.716-3.01.46-.952.639-1.235c.89-1.41 3.453-5.844 3.453-5.975 0-.082.927-1.72 2.06-3.639s2.06-3.552 2.06-3.629.89-1.648 1.978-3.491l2.417-4.21c.242-.472.626-1.171.855-1.552 1.758-2.935 2.249-3.903 2.448-4.826.25-1.16-.297-8.915-.792-11.224-1.219-5.693-1.581-7.203-2.198-9.179-.383-1.228-.826-2.379-.985-2.558s-.289-.536-.289-.792c0-.616-2.756-6.681-3.861-8.496-3.384-5.56-5.413-8.16-9.504-12.189l-3.662-3.605.247-1.373c1.841-10.246 2.106-13.436 1.899-22.833-.193-8.739-.26-9.328-1.925-16.995-3.439-15.839-16.59-28.992-37.036-37.044-4.107-1.617-5.299-1.749-9.677-1.07l-6.696 1.032-6.523 1.019-5.837.874c-1.322.179-3.099.475-3.949.656a43.63 43.63 0 0 1-3.262.536c-.944.113-2.489.347-3.433.52s-3.88.636-6.524 1.029l-5.665.874c-15.304 2.822-40.691 2.671-59.571-.354l-13.219-2.024c-1.794-.269-3.648-.588-4.12-.708s-1.94-.354-3.262-.521-3.948-.556-5.836-.866l-6.524-1.035-6.524-1.003c-4.527-.698-5.072-.676-7.897.316m12.383 8.891c2.476.459 5.729 1.268 9.012 2.239 2.344.694 6.932 2.533 6.932 2.779 0 .485-.862.938-2.232 1.174-1.923.331-4.727 1.402-6.343 2.422-.753.475-1.458.864-1.568.864-.615 0-5.917 4.488-8.57 7.254-5.743 5.989-10.602 13.986-13.097 21.559-2.841 8.623-11.051 18.207-24.119 28.154-3.75 2.855-3.676 2.883-4.382-1.658-4.953-31.897.456-50.384 17.564-60.025 9.314-5.249 16.906-6.598 26.803-4.762m147.942.189c22.966 6.042 32.976 25.77 29.192 57.53-.88 7.387-1.549 10.815-2.11 10.815-.443 0-4.395-2.848-6.634-4.781l-2.575-2.169c-1.875-1.559-9.804-9.422-11.168-11.076-3.638-4.411-5.457-7.61-7.027-12.36-4.905-14.842-18.463-29.789-28.851-31.807-1.999-.388-2.911-.803-2.911-1.323 0-.246 4.587-2.085 6.931-2.779 3.315-.981 6.265-1.689 9.034-2.168l3.949-.688c2.115-.38 9.53.111 12.17.806M163.605 49.25c2.029.288 5.583 1.283 8.927 2.498 6.357 2.309 18.474 8.428 20.298 10.25 2.544 2.541 2.576 2.802 2.463 19.763l-.1 14.891-.857 1.679c-1.722 3.372-4.332 4.99-10.302 6.389-1.794.42-4.343 1.117-5.665 1.55l-8.069 2.561-6.867 2.245c-14.85 5.798-20.485 5.108-28.006-3.429-4.993-5.665-10.26-8.79-17.108-10.148-3.67-.727-4.584-2.716-2.536-5.516 4.675-6.389 7.226-11.03 8.897-16.187 4.62-14.25 25.458-28.462 38.925-26.546m77.768.088c11.768 2.465 29.068 16.96 31.076 26.038.807 3.648 3.334 8.362 8.644 16.13 2.514 3.679 1.951 5.153-2.299 6.017-3.735.759-7.374 2.276-10.874 4.534-1.429.922-4.277 3.632-8.142 7.748-2.879 3.066-6.654 4.88-10.676 5.131-3.212.2-1.849.566-19.574-5.246-10.691-3.506-12.715-4.114-19.371-5.814-3.319-.848-5.664-2.646-7.185-5.507l-.912-1.717V81.03 65.408l1.049-1.717c1.332-2.178 2.884-3.201 10.625-7.005 14.165-6.959 20.921-8.756 27.639-7.348m-130.168 53.646c2.13 1.086 3.383 2.783 3.653 4.945.452 3.617-.019 18.751-.648 20.826-.315 1.039-.822 2.816-1.128 3.949-1.335 4.953-3.844 12.519-5.122 15.451l-1.369 3.259c-4.719 11.446-12.344 22.192-19.18 27.033-2.235 1.584-4.984 1.399-6.709-.451-1.429-1.532-1.369-1.3-2.253-8.726l-1.046-8.132c-.271-1.924-.493-5.595-.493-8.159 0-5.366.417-7.314 2.727-12.721.162-.378.859-2.078 1.549-3.777l1.563-3.777c.169-.378.861-2.077 1.538-3.777l1.543-3.777a108.54 108.54 0 0 0 2.067-4.978c.636-1.692 1.69-4.2 2.013-4.79.325-.595.551-.757 6.914-4.975 5.823-3.859 9.071-6.16 10.283-7.284 1.058-.981 2.361-1.025 4.098-.139m181.3 1.922c1.917 1.423 5.682 4.047 8.366 5.831l5.626 3.792c.41.302 1.17 1.579 1.689 2.838l4.955 11.903c.174.378.634 1.537 1.022 2.575s.848 2.198 1.022 2.576c5.523 11.972 6.085 15.184 4.651 26.558l-1.409 11.257c-.631 5.088-1.561 6.711-4.122 7.191-7.011 1.316-20.624-17.215-27.135-36.938-1.374-4.162-2.618-8.189-2.864-9.27-.151-.661-.679-2.725-1.174-4.587-1.999-7.516-1.27-22.219 1.212-24.47 2.765-2.507 3.923-2.402 8.161.744m-99.326 4.838c1.847.877 1.86.971 1.862 13.053l.002 11.221-.885.922c-.58.606-1.558 1.074-2.843 1.361l-4.877 1.092-4.635 1.027c-2.799.609-8.686 2.549-12.363 4.074-6.317 2.62-6.21 2.589-7.192 2.064-3.072-1.644-7.795-8.631-9.609-14.216-1.935-5.953-.808-9.258 3.413-10.008 1.208-.215 7.958-2.317 16.995-5.292l8.584-2.758 7.554-2.424c2.381-.79 2.562-.795 3.994-.116m14.404.087l6.151 1.932 7.039 2.245c9.145 3.003 19.221 6.137 20.308 6.317 6.617 1.098 5.532 10.793-2.283 20.403-3.997 4.916-3.823 4.883-10.643 2.044-2.455-1.022-6.009-2.337-7.897-2.922-3.046-.943-4.722-1.366-9.958-2.513-6.736-1.476-6.716-1.469-7.582-2.498l-.856-1.017.099-11.454.099-11.454.847-.607c1.795-1.288 2.046-1.313 4.676-.476M81.164 127.81c.278.444.262.782-.062 1.301-1.496 2.396-4.186 8.266-5.343 11.662-1.852 5.435-2.012 6.884-2.191 19.798-.182 13.091-.204 13.216-2.099 12.156-.604-.338-3.593-5.622-4.575-8.086-2.136-5.365-.158-18.73 3.997-27.003 3.384-6.736 8.902-12.015 10.273-9.828m238.872 1.203c6.695 6.274 11.309 18.465 11.29 29.826-.01 5.795-4.965 15.582-7.024 13.873-.448-.371-.525-1.809-.525-9.75-.001-9.661-.367-15.447-1.173-18.514a60.18 60.18 0 0 0-5.777-14.077c-1.369-2.378-1.239-3.226.507-3.305.327-.015 1.543.861 2.702 1.947m-203.997 9.677c1.114 2.08-.526 12.987-2.097 13.959-.162.1-.294.402-.294.672 0 .673-3.809 7.034-5.397 9.014-4.618 5.756-6.731 5.689-3.903-.123 2.716-5.581 4.497-9.52 6.356-14.057l1.556-3.777c.16-.378.64-1.691 1.066-2.919 1.116-3.212 1.996-4.11 2.713-2.769m166.458-.376c.369.234.953 1.649 2.643 6.407.134.378.377.996.539 1.373l1.729 4.121c1.669 3.995 3.534 8.031 5.691 12.317 2.279 4.528 1.292 5.473-2.107 2.017-5.559-5.65-9.694-14.315-10.031-21.02-.236-4.703.17-6.082 1.536-5.215m-88.842 2.977c1.681.869 1.71 1.097 1.71 13.552v11.712l-.82.82c-1.192 1.192-2.074 1.266-13.607 1.146-12.505-.13-11.939.046-14.706-4.584-2.527-4.228-2.875-5.831-1.948-8.954 1.582-5.327 14.727-12.641 24.901-13.854 3.34-.398 3.389-.397 4.47.162m14.079-.157c10.225 1.269 22.793 7.935 25.103 13.315 1.2 2.793.312 7.185-1.961 9.698-.269.298-.495.685-.502.859-.019.496-1.43 2.003-2.563 2.738-.956.62-1.813.675-11.928.772-11.916.113-12.972-.033-13.68-1.896-.442-1.164-.408-23.314.037-24.147.824-1.539 1.858-1.791 5.494-1.339m-65.209 15.88c.711.683 2.241 2.332 8.147 8.776 5.517 6.022 6.925 10.382 6.925 21.451 0 9.335-.286 9.796-4.15 6.706-12.731-10.183-13.705-12.159-13.705-27.794 0-8.767.009-8.866.764-9.395.983-.689 1.043-.682 2.019.256m114.358-.223c.577.523.628 1.282.628 9.461 0 14.745-.975 17.088-10.361 24.897-7.649 6.364-7.15 6.677-7.15-4.48 0-13.181.53-14.44 10.644-25.3l2.219-2.42c1.471-1.613 2.737-2.671 3.247-2.714.08-.006.427.244.773.556m-63.812 16.811c2.349 1.12 2.294.673 2.294 18.615v16.146l-1.176 1.247-1.177 1.247-9.064-.106-9.064-.107-1.348-.893c-2.859-1.894-2.892-2.1-2.892-17.785 0-16.431.07-16.714 4.618-18.463 1.758-.677 16.352-.596 17.809.099m29.927.304c.752.377 1.833 1.356 2.403 2.175l1.037 1.488.097 14.088c.11 16.071.096 16.165-2.774 18.065l-1.391.922-9.053.106-9.052.107-1.188-1.188-1.189-1.188v-16.205c0-17.913-.045-17.525 2.198-18.663 1.756-.891 17.026-.655 18.912.293m-78.652 17.883c.887.677 2.117 1.72 2.732 2.318s1.882 1.726 2.815 2.508c6.624 5.553 7.822 8.269 7.641 17.308-.123 6.098-.399 6.85-2.514 6.85-1.768 0-12.007-10.646-13.797-14.345l-1.283-2.651-.138-5.728-.138-5.727.882-.882c1.178-1.178 1.885-1.113 3.8.349m112.26-.519c1.87 1.471 1.186 12.023-1.051 16.207-1.613 3.016-11.939 13.296-13.355 13.296-2.18 0-2.261-.311-2.138-8.204.144-9.251.485-10.026 6.815-15.487l4.093-3.634c3.418-3.13 4.094-3.391 5.636-2.178m-110.74 27.357c13.487 14.04 18.441 25.109 19.172 42.839l.217 5.242-.895.895c-1.863 1.863-3.236 1.313-6.813-2.728l-4.242-4.798-4.292-4.802c-14.191-15.65-14.389-16.285-12.2-39.099.468-4.869 2.567-4.301 9.053 2.451m113.857-4.743c.393.435.699 1.592.884 3.347 2.137 20.302 1.412 22.716-10.956 36.495l-3.674 4.12c-8.694 9.907-9.456 10.652-10.9 10.652-2.904 0-3.376-1.949-2.647-10.922 1.053-12.939 6.328-25.359 14.598-34.362 8.952-9.747 10.973-11.233 12.695-9.33m-65.2 1.617l.842.908v38.195c0 42.536.188 39.263-2.294 39.962-1.571.443-3.041-.453-4.199-2.56l-2.262-4.109c-1.77-3.214-4.992-9.589-5.812-11.504-1.463-3.411-1.855-4.389-2.689-6.693-4.595-12.698-6.44-24.172-6.428-39.981.009-10.988.149-11.76 2.455-13.519 1.938-1.478 2.542-1.563 11.202-1.586l8.343-.022.842.909m27.108-.26c3.109 1.435 4.013 3.448 4.221 9.403.284 8.154-.901 23.078-2.337 29.433-3.213 14.213-7.047 23.84-15.091 37.895-1.744 3.046-3.822 3.617-5.835 1.604-.697-.697-.701-.909-.701-38.937v-38.236l.906-.906.905-.905 8.279.008c7.315.006 8.44.081 9.653.641" fill="#434d6b"/><path d="M121.792 32.829c-.116.116-1.262.576-2.546 1.022l-3.023 1.134c-2.724 1.276-8.706 4.24-9.262 4.589l-3.091 1.945c-10.635 6.698-18.042 15.182-21.306 24.404l-1.211 3.262c-.165.377-.448 1.459-.63 2.403a72.29 72.29 0 0 1-.672 3.09c-1.043 4.193-1.253 6.895-1.253 16.137 0 9.199.201 11.962 1.284 17.683.877 4.638.923 4.445-1.643 6.895-3.93 3.751-4.177 4.023-6.602 7.277-3.492 4.684-4.474 6.413-7.458 13.124-1.017 2.288-3.606 10.881-3.607 11.971 0 .403-.229 1.829-.508 3.168s-.55 4.353-.6 6.695c-.099 4.567-.137 4.425 2.151 8.037.359.567.882 1.494 1.162 2.06s.958 1.803 1.507 2.747l1.954 3.416 1.937 3.362c.54.916.981 1.722.981 1.793 0 .128 3.821 6.755 4.461 7.738.185.283.563.979.84 1.545s.973 1.803 1.546 2.747 1.143 1.948 1.268 2.232.977 1.772 1.893 3.309 1.666 2.884 1.666 2.992.85 1.6 1.888 3.312 1.889 3.182 1.889 3.264.712 1.352 1.583 2.821 1.722 2.98 1.893 3.358.615 1.15.987 1.716.823 1.36 1.001 1.762c.952 2.147 4.603 3.155 6.709 1.853 3.193-1.973 9.048-14.234 11.154-23.357l1.094-4.57c.432-1.664.974-8.157.981-11.766l.006-2.774 1.974-2.545c1.086-1.4 2.206-2.783 2.489-3.074s1.056-1.252 1.717-2.135c1.484-1.983 2.001-2.215 2.702-1.213.3.43 1.717 2.248 3.149 4.042 2.343 2.938 4.793 6.555 4.793 7.078 0 .11.217.687.483 1.283 1.663 3.724 1.93 9.191.756 15.502l-1.059 6.18-.994 6.009-.896 5.322a171.21 171.21 0 0 1-.921 5.107c-.79 3.988-.441 47.549.407 50.858.48 1.871 5.017 7.441 11.327 13.906 3.716 3.807 5.783 5.702 8.798 8.064 1.201.941 2.262 1.798 2.356 1.904s.713.565 1.374 1.019 1.278.91 1.373 1.014c.283.31 5.547 3.749 7.725 5.046 1.171.698 9.539 4.802 10.987 5.389 3.46 1.402 3.217 1.318 8.069 2.792 8.879 2.697 21.001 3.679 29.871 2.419 5.19-.737 8.168-1.413 15.108-3.431 1.703-.495 8.354-3.154 10.489-4.193 2.739-1.333 6.853-3.661 6.964-3.941.063-.158.29-.288.504-.288.477 0 6.298-3.87 10.025-6.667 7.436-5.577 14.366-12.241 21.012-20.203 2.054-2.461 1.952-1.37 2.211-23.602l.43-23.118c.106-1.478.051-3.332-.123-4.12s-.553-2.899-.844-4.693l-2.755-16.309c-1.434-8.3-1.616-10.004-1.416-13.31.33-5.474 2.704-10.934 6.378-14.67.283-.288 1.279-1.565 2.212-2.838 1.853-2.527 2.249-2.723 3.047-1.505.292.445 1.172 1.565 1.955 2.489l2.256 2.659c.457.538.837 1.079.844 1.201s.472.757 1.031 1.411c.974 1.141 1.017 1.329 1.04 4.635.032 4.523.814 11.213 1.667 14.262l.899 3.262c1.455 5.327 4.467 12.532 7.523 17.996 1.898 3.393 3.746 4.525 6.532 4.002 1.268-.237 3.394-2.06 3.972-3.403.175-.408.86-1.668 1.523-2.801s1.314-2.292 1.447-2.575 1.137-2.034 2.232-3.891 1.992-3.457 1.992-3.557.749-1.439 1.666-2.976 1.767-3.027 1.892-3.31.694-1.287 1.265-2.232 1.222-2.103 1.447-2.575.522-.94.658-1.039.371-.486.522-.859 1.25-2.376 2.442-4.454l4.332-7.48c.863-1.47 1.57-2.762 1.57-2.87s.749-1.456 1.666-2.993 1.767-3.026 1.891-3.309.554-1.056.955-1.717c1.947-3.206 2.698-4.906 2.697-6.102-.001-2.201-1.01-10.969-1.371-11.92-.19-.499-.345-1.265-.345-1.703s-.249-1.626-.554-2.639c-3.669-12.195-7.681-19.254-15.324-26.964-4.021-4.057-4.131-4.207-3.759-5.151 1.829-4.639 2.862-19.816 1.946-28.587-1.823-17.467-7.202-28.126-18.717-37.097-.842-.656-1.609-1.284-1.703-1.396-1.615-1.911-14.703-8.941-20.086-10.788-.944-.324-1.985-.73-2.313-.902-.773-.406-4.023-.402-5.861.007-.792.176-3.603.648-6.247 1.049l-7.725 1.219-6.524 1.026-6.867 1.043-20.257 3.038c-16.692 2.186-35.932 1.826-54.249-1.014l-6.695-1.032-12.876-2.008-6.867-1.064-13.846-2.237c-1.836-.377-5.492-.458-5.821-.129m6.448 1.018l6.524 1.003 6.524 1.035c1.888.31 4.515.699 5.836.866s2.79.401 3.262.521 2.326.439 4.12.708l13.219 2.024c18.88 3.025 44.267 3.176 59.571.354.472-.087 3.022-.48 5.665-.874l6.524-1.029c.944-.173 2.489-.407 3.433-.52a43.63 43.63 0 0 0 3.262-.536c.85-.181 2.627-.477 3.949-.656l5.837-.874 6.523-1.019 6.696-1.032c4.378-.679 5.57-.547 9.677 1.07 20.446 8.052 33.597 21.205 37.036 37.044 1.665 7.667 1.732 8.256 1.925 16.995.207 9.397-.058 12.587-1.899 22.833l-.247 1.373 3.662 3.605c4.091 4.029 6.12 6.629 9.504 12.189 1.105 1.815 3.861 7.88 3.861 8.496 0 .256.13.612.289.792s.602 1.33.985 2.558c.617 1.976.979 3.486 2.198 9.179.495 2.309 1.042 10.064.792 11.224-.199.923-.69 1.891-2.448 4.826-.229.381-.613 1.08-.855 1.552s-1.33 2.366-2.417 4.21-1.978 3.414-1.978 3.491-.927 1.71-2.06 3.629-2.06 3.557-2.06 3.639c0 .131-2.563 4.565-3.453 5.975-.179.283-.467.839-.639 1.235s-.945 1.75-1.716 3.01-1.402 2.361-1.402 2.446-.712 1.358-1.581 2.827-1.955 3.366-2.412 4.216-1.158 2.086-1.558 2.747-1.099 1.897-1.553 2.746a95.09 95.09 0 0 1-1.851 3.262c-.564.944-1.206 2.103-1.428 2.575-2.435 5.194-7.193 5.412-9.778.448-3.035-5.827-4.203-8.256-4.209-8.754-.004-.319-.144-.665-.311-.768s-.66-1.309-1.096-2.681-.9-2.648-1.031-2.837-.348-.884-.483-1.545-.444-1.897-.687-2.747c-1.288-4.497-2.23-11.477-2.234-16.553-.002-2.77-.109-3.438-.628-3.949-.344-.337-1.351-1.571-2.237-2.74s-1.81-2.329-2.052-2.575-1.108-1.337-1.924-2.423c-1.583-2.106-2.446-2.448-3.023-1.202-.197.425-1.496 2.222-2.888 3.994-4.716 6.005-5.853 8.063-6.961 12.602-.712 2.919-.606 7.962.268 12.674l1.045 6.009.847 4.979.921 5.321 1.066 5.937c.844 4.343.507 46.63-.401 50.276-.938 3.768-12.036 15.294-21.987 22.835-3.863 2.927-6.925 5.073-7.239 5.073-.098 0-.669.371-1.27.825-1.773 1.339-8.379 4.817-12.08 6.361l-4.121 1.748c-.769.354-3.844 1.347-6.695 2.161-18.604 5.311-36.557 3.634-54.706-5.111-1.731-.835-3.921-1.98-4.865-2.545s-1.944-1.136-2.222-1.269c-7.338-3.517-22.04-16.882-29.139-26.492l-2.115-2.862-.024-6.065c-.012-3.336-.222-13.79-.465-23.232-.36-14.016-.36-17.64.002-19.743l1.007-6.008 1.02-6.009 1.031-6.18c.316-1.983.801-4.687 1.077-6.009 1.895-9.074.053-17.603-4.983-23.085-.561-.611-1.977-2.426-3.145-4.034s-2.222-2.919-2.341-2.913c-.434.022-1.285.89-2.966 3.026l-3.809 4.732-2.093 2.554-.205 5.397c-.113 2.968-.363 6.169-.556 7.113l-.72 3.605c-.865 4.423-.953 4.764-2.367 9.099-1.358 4.165-2.893 7.567-6.09 13.499-3.071 5.697-7.393 5.636-10.038-.142-.181-.396-.926-1.709-1.655-2.918s-1.513-2.585-1.743-3.057-.569-1.09-.755-1.373c-.888-1.353-3.444-5.777-3.444-5.961 0-.114-.611-1.206-1.358-2.426a93.85 93.85 0 0 1-2.237-3.868c-.484-.908-1.421-2.578-2.081-3.711s-1.352-2.369-1.538-2.747-.482-.918-.659-1.202c-1.071-1.717-3.801-6.476-3.801-6.625 0-.098-.927-1.739-2.06-3.647s-2.06-3.532-2.06-3.609-.667-1.272-1.481-2.657-1.587-2.749-1.715-3.032-.386-.747-.572-1.03c-2.295-3.488-2.485-4.116-2.279-7.538 1.037-17.157 6.937-30.685 18.126-41.561l3.356-3.262-.303-1.373c-6.091-27.562-.057-52.786 15.402-64.378a53.6 53.6 0 0 0 2.429-1.974c.706-.614 1.371-1.116 1.478-1.116s1.18-.675 2.385-1.5c3.23-2.212 7.486-4.52 11.758-6.375l2.403-1.078c4.059-1.962 6.121-2.242 10.987-1.492m-10.128 9.041c-3.976.891-7.692 2.394-12.189 4.928-17.108 9.641-22.517 28.128-17.564 60.025.706 4.541.632 4.513 4.382 1.658 13.068-9.947 21.278-19.531 24.119-28.154 2.495-7.573 7.354-15.57 13.097-21.559 2.653-2.766 7.955-7.254 8.57-7.254.11 0 .815-.389 1.568-.864 1.616-1.02 4.42-2.091 6.343-2.422 1.37-.236 2.232-.689 2.232-1.174 0-.246-4.588-2.085-6.932-2.779-9.751-2.885-17.819-3.707-23.626-2.405m150.386-.451l-3.949.688c-2.769.479-5.719 1.187-9.034 2.168-2.344.694-6.931 2.533-6.931 2.779 0 .52.912.935 2.911 1.323 10.388 2.018 23.946 16.965 28.851 31.807 1.57 4.75 3.389 7.949 7.027 12.36 1.364 1.654 9.293 9.517 11.168 11.076l2.575 2.169c2.239 1.933 6.191 4.781 6.634 4.781 1.215 0 2.641-12.88 2.643-23.863.005-22.901-6.43-34.307-23.888-42.335-5.297-2.436-13.445-3.772-18.007-2.953m-112.962 6.99c-12.099 2.716-27.437 15.824-30.856 26.369-1.671 5.157-4.222 9.798-8.897 16.187-2.048 2.8-1.134 4.789 2.536 5.516 6.848 1.358 12.115 4.483 17.108 10.148 7.521 8.537 13.156 9.227 28.006 3.429.661-.258 3.752-1.268 6.867-2.245l8.069-2.561c1.322-.433 3.871-1.13 5.665-1.55 5.97-1.399 8.58-3.017 10.302-6.389l.857-1.679.1-14.891c.113-16.961.081-17.222-2.463-19.763-1.824-1.822-13.941-7.941-20.298-10.25-7.496-2.724-12.287-3.378-16.996-2.321m78.112-.252c-6.011 1.192-10.498 2.885-19.914 7.511-7.741 3.804-9.293 4.827-10.625 7.005l-1.049 1.717V81.03v15.622l.912 1.717c1.521 2.861 3.866 4.659 7.185 5.507 6.656 1.7 8.68 2.308 19.371 5.814 17.725 5.812 16.362 5.446 19.574 5.246 4.022-.251 7.797-2.065 10.676-5.131 3.865-4.116 6.713-6.826 8.142-7.748 3.5-2.258 7.139-3.775 10.874-4.534 4.25-.864 4.813-2.338 2.299-6.017-5.31-7.768-7.837-12.482-8.644-16.13-.903-4.084-5.972-10.614-12.363-15.926-9.705-8.066-19.122-11.726-26.438-10.275m-126.541 53.948c-1.212 1.124-4.46 3.425-10.283 7.284-6.363 4.218-6.589 4.38-6.914 4.975-.323.59-1.377 3.098-2.013 4.79a108.54 108.54 0 0 1-2.067 4.978c-.172.378-.866 2.077-1.543 3.777l-1.538 3.777c-.169.378-.872 2.077-1.563 3.777l-1.549 3.777c-2.31 5.407-2.727 7.355-2.727 12.721 0 2.564.222 6.235.493 8.159l1.046 8.132c.884 7.426.824 7.194 2.253 8.726 1.725 1.85 4.474 2.035 6.709.451 6.836-4.841 14.461-15.587 19.18-27.033l1.369-3.259c1.278-2.932 3.787-10.498 5.122-15.451l1.128-3.949c.629-2.075 1.1-17.209.648-20.826-.501-4.012-5.359-7.024-7.751-4.806m179.073-.235c-3.691 1.946-3.948 2.824-3.948 13.456 0 8.517.039 9.049.9 12.288l1.174 4.587c.426 1.869 2.927 9.644 4.031 12.532 3.57 9.335 8.034 17.701 12.699 23.795 9.458 12.356 16.066 13.377 17.391 2.69l1.409-11.257c1.434-11.374.872-14.586-4.651-26.558-.174-.378-.634-1.537-1.022-2.576s-.848-2.197-1.022-2.575c-.285-.619-2.447-5.812-4.955-11.903-.519-1.259-1.279-2.536-1.689-2.838s-2.942-2.008-5.626-3.792-6.449-4.408-8.366-5.831c-3.704-2.749-4.472-2.994-6.325-2.018M76.774 129.502c-6.854 6.86-11.62 20.692-10.747 31.19.399 4.804 4.707 12.649 6.665 12.137.694-.182.711-.42.876-12.258.179-12.914.339-14.363 2.191-19.798 1.157-3.396 3.847-9.266 5.343-11.662.547-.875.031-1.849-1.064-2.012-.552-.082-1.417.555-3.264 2.403m239.535-2.236c-.681.275-.505 1.328.518 3.105a60.18 60.18 0 0 1 5.777 14.077c.806 3.067 1.172 8.853 1.173 18.514 0 7.941.077 9.379.525 9.75 2.059 1.709 7.014-8.078 7.024-13.873.019-11.361-4.595-23.552-11.29-29.826-1.971-1.847-2.668-2.174-3.727-1.747m-201.694 11.361c-.283.33-.863 1.605-1.289 2.832s-.906 2.541-1.066 2.919l-1.556 3.777c-1.859 4.537-3.64 8.476-6.356 14.057-2.828 5.812-.715 5.879 3.903.123 1.588-1.98 5.397-8.341 5.397-9.014 0-.27.132-.572.294-.672s.611-1.075.999-2.166c2.174-6.111 1.942-14.512-.326-11.856m166.55.154c-1.857 3.47 1.046 13.577 6.045 21.045 4.875 7.284 9.191 9.267 5.889 2.706-2.157-4.286-4.022-8.322-5.691-12.317l-1.729-4.121c-.162-.377-.405-.995-.539-1.373-2.498-7.034-2.994-7.774-3.975-5.94" fill="#9babcb"/><path d="M189.185 109.86l-7.554 2.424-8.584 2.758c-9.037 2.975-15.787 5.077-16.995 5.292-4.221.75-5.348 4.055-3.413 10.008 1.814 5.585 6.537 12.572 9.609 14.216.982.525.875.556 7.192-2.064 3.677-1.525 9.564-3.465 12.363-4.074l4.635-1.027 4.877-1.092c1.285-.287 2.263-.755 2.843-1.361l.885-.922-.002-11.221c-.002-12.082-.015-12.176-1.862-13.053-1.432-.679-1.613-.674-3.994.116m15.095-.394c-.289.129-.907.507-1.373.841l-.847.607-.099 11.454-.099 11.454.856 1.017c.866 1.029.846 1.022 7.582 2.498 5.236 1.147 6.912 1.57 9.958 2.513 1.888.585 5.442 1.9 7.897 2.922 6.82 2.839 6.646 2.872 10.643-2.044 7.815-9.61 8.9-19.305 2.283-20.403-1.087-.18-11.163-3.314-20.308-6.317l-7.039-2.245-6.151-1.932c-2.175-.692-2.486-.727-3.303-.365m-15.095 31.663c-10.174 1.213-23.319 8.527-24.901 13.854-.927 3.123-.579 4.726 1.948 8.954 2.767 4.63 2.201 4.454 14.706 4.584 11.533.12 12.415.046 13.607-1.146l.82-.82v-11.712c0-12.455-.029-12.683-1.71-13.552-1.081-.559-1.13-.56-4.47-.162m14.343.179c-1.6.868-1.64 1.189-1.64 13.154 0 12.346.051 12.711 1.864 13.572 1.968.934 22.555.686 24.059-.29 1.133-.735 2.544-2.242 2.563-2.738.007-.174.233-.561.502-.859 2.273-2.513 3.161-6.905 1.961-9.698-2.31-5.38-14.878-12.046-25.103-13.315-3.47-.431-3.06-.448-4.206.174m-28.266 32.195c-4.548 1.749-4.618 2.032-4.618 18.463 0 15.685.033 15.891 2.892 17.785l1.348.893 9.064.107 9.064.106 1.177-1.247 1.176-1.247v-16.146c0-17.942.055-17.495-2.294-18.615-1.457-.695-16.051-.776-17.809-.099m28.824.11c-2.243 1.138-2.198.75-2.198 18.663v16.205l1.189 1.188 1.188 1.188 9.052-.107 9.053-.106 1.391-.922c2.87-1.9 2.884-1.994 2.774-18.065l-.097-14.088-1.037-1.488c-1.865-2.679-2.571-2.851-12.01-2.935-6.916-.061-8.412.014-9.305.467m-27.938 41.361c-4.09 1.633-4.457 2.844-4.467 14.745-.012 15.809 1.833 27.283 6.428 39.981.834 2.304 1.226 3.282 2.689 6.693.82 1.915 4.042 8.29 5.812 11.504l2.262 4.109c1.158 2.107 2.628 3.003 4.199 2.56 2.482-.699 2.294 2.574 2.294-39.962v-38.195l-.842-.908-.842-.909-8.343.022c-4.622.012-8.721.173-9.19.36m26.646.523l-.906.906v38.236c0 38.028.004 38.24.701 38.937 2.013 2.013 4.091 1.442 5.835-1.604 8.044-14.055 11.878-23.682 15.091-37.895 2.151-9.517 3.15-31.582 1.593-35.188-1.681-3.892-2.868-4.28-13.13-4.289l-8.279-.008-.905.905" fill="#f88465"/><path d="M0 171.674v171.674h200 200V171.674 0H200 0v171.674M127.613 32.958c1.592.327 6.184 1.068 13.846 2.237l6.867 1.064 12.876 2.008 6.695 1.032c18.317 2.84 37.557 3.2 54.249 1.014 4.153-.544 6.395-.88 20.257-3.038l6.867-1.043 6.524-1.026 7.725-1.219c2.644-.401 5.455-.873 6.247-1.049 1.838-.409 5.088-.413 5.861-.007.328.172 1.369.578 2.313.902 5.383 1.847 18.471 8.877 20.086 10.788.094.112.861.74 1.703 1.396 11.515 8.971 16.894 19.63 18.717 37.097.916 8.771-.117 23.948-1.946 28.587-.372.944-.262 1.094 3.759 5.151 7.643 7.71 11.655 14.769 15.324 26.964.305 1.013.554 2.201.554 2.639s.155 1.204.345 1.703c.361.951 1.37 9.719 1.371 11.92.001 1.196-.75 2.896-2.697 6.102-.401.661-.831 1.434-.955 1.717s-.975 1.773-1.891 3.309-1.666 2.884-1.666 2.993-.707 1.4-1.57 2.87l-4.332 7.48c-1.192 2.078-2.29 4.082-2.442 4.454s-.385.759-.522.859-.432.567-.658 1.039-.877 1.631-1.447 2.575-1.14 1.949-1.265 2.232-.976 1.773-1.892 3.31-1.666 2.876-1.666 2.976-.896 1.701-1.992 3.557l-2.232 3.891c-.133.283-.784 1.442-1.447 2.575s-1.348 2.393-1.523 2.801c-.578 1.343-2.704 3.166-3.972 3.403-2.786.523-4.634-.609-6.532-4.002-3.056-5.464-6.068-12.669-7.523-17.996l-.899-3.262c-.853-3.049-1.635-9.739-1.667-14.262-.023-3.306-.066-3.494-1.04-4.635-.559-.654-1.023-1.288-1.031-1.411s-.387-.663-.844-1.201l-2.256-2.659c-.783-.924-1.663-2.044-1.955-2.489-.798-1.218-1.194-1.022-3.047 1.505-.933 1.273-1.929 2.55-2.212 2.838-3.674 3.736-6.048 9.196-6.378 14.67-.2 3.306-.018 5.01 1.416 13.31l2.755 16.309c.291 1.794.671 3.906.844 4.693s.229 2.642.123 4.12-.299 11.882-.43 23.118c-.259 22.232-.157 21.141-2.211 23.602-6.646 7.962-13.576 14.626-21.012 20.203-3.727 2.797-9.548 6.667-10.025 6.667-.214 0-.441.13-.504.288-.111.28-4.225 2.608-6.964 3.941-2.135 1.039-8.786 3.698-10.489 4.193-6.94 2.018-9.918 2.694-15.108 3.431-8.87 1.26-20.992.278-29.871-2.419-4.852-1.474-4.609-1.39-8.069-2.792-1.448-.587-9.816-4.691-10.987-5.389-2.178-1.297-7.442-4.736-7.725-5.046-.095-.104-.713-.56-1.373-1.014s-1.279-.912-1.374-1.019-1.155-.963-2.356-1.904c-3.527-2.763-8.936-7.935-12.796-12.232-7.728-8.607-7.516-8.07-7.853-19.866-.527-18.365-.471-37.764.117-40.73a171.21 171.21 0 0 0 .921-5.107l.896-5.322.994-6.009 1.059-6.18c1.174-6.311.907-11.778-.756-15.502-.266-.596-.483-1.173-.483-1.283 0-.523-2.45-4.14-4.793-7.078l-3.149-4.042c-.701-1.002-1.218-.77-2.702 1.213-.661.883-1.434 1.844-1.717 2.135s-1.403 1.674-2.489 3.074l-1.974 2.545-.006 2.774c-.007 3.609-.549 10.102-.981 11.766-.187.719-.679 2.776-1.094 4.57-2.106 9.123-7.961 21.384-11.154 23.357-2.106 1.302-5.757.294-6.709-1.853-.178-.402-.629-1.195-1.001-1.762s-.816-1.339-.987-1.716-1.023-1.889-1.893-3.358-1.583-2.738-1.583-2.821-.85-1.551-1.889-3.264-1.888-3.203-1.888-3.312-.75-1.455-1.666-2.992-1.768-3.026-1.893-3.309-.695-1.288-1.268-2.232-1.268-2.18-1.546-2.747-.655-1.262-.84-1.545c-.64-.983-4.461-7.61-4.461-7.738 0-.071-.441-.877-.981-1.793l-1.937-3.362-1.954-3.416c-.549-.944-1.227-2.18-1.507-2.747s-.803-1.493-1.162-2.06c-2.288-3.612-2.25-3.47-2.151-8.037.05-2.342.32-5.355.6-6.695s.508-2.765.508-3.168c.001-1.09 2.59-9.683 3.607-11.971 2.984-6.711 3.966-8.44 7.458-13.124 2.425-3.254 2.672-3.526 6.602-7.277 2.566-2.45 2.52-2.257 1.643-6.895-1.083-5.721-1.284-8.484-1.284-17.683 0-9.242.21-11.944 1.253-16.137a72.29 72.29 0 0 0 .672-3.09c.182-.944.465-2.026.63-2.403s.709-1.846 1.211-3.262c3.264-9.222 10.671-17.706 21.306-24.404l3.091-1.945c.556-.349 6.538-3.313 9.262-4.589.378-.177 1.738-.687 3.023-1.134s2.43-.906 2.546-1.022c.329-.329 3.985-.248 5.821.129" fill="#14181D"/><path d="M140.506 156.758c-.755.529-.764.628-.764 9.395 0 15.635.974 17.611 13.705 27.794 3.864 3.09 4.15 2.629 4.15-6.706 0-11.069-1.408-15.429-6.925-21.451-9.906-10.81-8.902-9.918-10.166-9.032m114.76-.093c-.385.229-1.466 1.257-2.403 2.284l-2.219 2.42C240.53 172.229 240 173.488 240 186.669c0 11.157-.499 10.844 7.15 4.48 9.386-7.809 10.361-10.152 10.361-24.897 0-8.179-.051-8.938-.628-9.461-.737-.666-.715-.664-1.617-.126m-114.72 34.775l-.882.882.138 5.727.138 5.728 1.283 2.651c1.79 3.699 12.029 14.345 13.797 14.345 2.115 0 2.391-.752 2.514-6.85.181-9.039-1.017-11.755-7.641-17.308-.933-.782-2.199-1.911-2.815-2.508-3.574-3.47-5.105-4.094-6.532-2.667m113.178-.309c-.466.315-1.706 1.358-2.754 2.317s-2.89 2.595-4.093 3.634c-6.33 5.461-6.671 6.236-6.815 15.487-.123 7.893-.042 8.204 2.138 8.204 1.416 0 11.742-10.28 13.355-13.296 3.784-7.078 2.425-19.217-1.831-16.346m-116.171 22.727c-.318.352-.651 1.395-.74 2.318-1.646 17.159-1.485 19.753 1.609 25.884 1.522 3.018 2.878 4.709 10.591 13.215l4.292 4.802 4.242 4.798c3.577 4.041 4.95 4.591 6.813 2.728l.895-.895-.217-5.242c-.731-17.73-5.685-28.799-19.172-42.839-5.628-5.859-6.746-6.5-8.313-4.769m114.981 3.605c-8.461 8.71-10.677 11.618-14.168 18.589-5.142 10.266-8.298 29.346-5.262 31.805 2.282 1.848 2.863 1.395 12.873-10.011l3.674-4.12c12.368-13.779 13.093-16.193 10.956-36.495-.599-5.683-2.377-5.632-8.073.232" fill="#ec1150"/></svg>