<svg id="svg" version="1.1" xmlns="http://www.w3.org/2000/svg" xmlns:xlink="http://www.w3.org/1999/xlink" width="400" height="320" viewBox="0, 0, 400,181.62839248434238"><g id="svgg"><path id="path3" d="M196.877 31.286 C 197.131 31.325,197.506 31.324,197.711 31.284 C 197.916 31.244,197.708 31.213,197.250 31.214 C 196.792 31.216,196.624 31.248,196.877 31.286 M203.711 31.286 C 203.964 31.325,204.339 31.324,204.544 31.284 C 204.749 31.244,204.542 31.213,204.083 31.214 C 203.625 31.216,203.457 31.248,203.711 31.286 M45.417 77.847 C 38.113 79.832,26.130 81.584,15.844 82.169 C 14.154 82.265,12.676 82.423,12.559 82.521 C 11.572 83.339,10.751 89.368,11.316 91.643 C 11.778 93.501,11.666 93.447,15.301 93.572 C 25.080 93.911,32.836 94.515,42.250 95.673 C 44.450 95.944,46.442 96.188,46.676 96.216 C 47.146 96.271,47.227 94.834,46.779 94.388 C 46.553 94.163,40.172 93.748,28.167 93.180 C 25.837 93.070,25.671 93.046,27.083 93.026 C 28.774 93.002,41.055 93.398,44.789 93.598 C 47.145 93.723,46.961 93.864,47.034 91.875 L 47.085 90.500 46.168 90.502 C 45.663 90.503,42.362 90.612,38.833 90.744 C 35.304 90.876,30.579 91.020,28.333 91.065 L 24.250 91.146 28.833 90.919 C 41.560 90.288,46.615 89.952,46.845 89.721 C 47.000 89.566,47.096 86.540,46.950 86.395 C 46.898 86.343,44.357 86.533,41.303 86.818 C 33.817 87.515,30.287 87.803,28.000 87.905 C 26.685 87.963,27.366 87.863,30.167 87.586 C 35.717 87.037,44.686 86.029,45.948 85.813 L 46.979 85.636 47.031 83.860 C 47.060 82.883,47.030 82.015,46.966 81.932 C 46.897 81.844,44.806 82.071,41.966 82.474 C 33.783 83.635,27.053 84.435,26.642 84.296 C 26.518 84.254,26.979 84.165,27.667 84.099 C 31.058 83.770,45.019 81.629,46.575 81.200 L 47.067 81.064 47.019 79.409 C 46.992 78.499,46.935 77.697,46.892 77.627 C 46.794 77.469,46.825 77.464,45.417 77.847 M354.490 77.648 C 354.413 78.428,354.561 81.268,354.682 81.343 C 354.772 81.398,356.661 81.718,358.881 82.054 C 364.840 82.954,369.173 83.492,379.750 84.644 C 380.483 84.724,380.858 84.799,380.583 84.811 C 379.273 84.866,366.529 83.532,359.203 82.573 C 356.793 82.258,354.754 82.000,354.671 82.000 C 354.588 82.000,354.497 82.863,354.468 83.917 C 354.440 84.971,354.417 85.834,354.417 85.834 C 354.417 85.834,356.142 86.018,358.250 86.244 C 365.565 87.027,378.114 88.118,380.667 88.193 C 381.333 88.213,381.425 88.239,381.005 88.290 C 380.058 88.405,362.140 87.179,357.287 86.668 C 356.442 86.579,355.469 86.504,355.125 86.503 L 354.500 86.500 354.503 88.042 C 354.504 88.890,354.560 89.669,354.628 89.775 C 354.779 90.011,361.941 90.431,372.667 90.832 C 379.058 91.071,379.467 91.102,376.750 91.136 C 374.412 91.166,359.934 90.769,356.333 90.577 L 354.417 90.475 354.471 92.013 L 354.525 93.551 358.721 93.435 C 361.029 93.371,365.054 93.251,367.667 93.169 C 372.567 93.014,383.424 92.827,381.500 92.931 C 380.904 92.963,378.242 93.070,375.583 93.168 C 369.322 93.400,360.774 93.794,357.503 94.002 C 356.084 94.093,354.827 94.167,354.711 94.167 C 354.564 94.167,354.500 94.475,354.500 95.190 L 354.500 96.214 355.458 96.110 C 355.985 96.052,357.542 95.856,358.917 95.674 C 366.792 94.630,376.233 93.881,385.417 93.572 C 387.589 93.499,388.693 93.396,388.933 93.245 C 390.790 92.078,390.285 82.338,388.369 82.333 C 387.571 82.330,379.862 81.814,378.417 81.666 C 370.525 80.859,362.935 79.590,356.125 77.940 C 355.231 77.723,354.495 77.592,354.490 77.648 M26.042 84.451 C 25.835 84.491,25.498 84.491,25.292 84.451 C 25.085 84.411,25.254 84.379,25.667 84.379 C 26.079 84.379,26.248 84.411,26.042 84.451 M24.375 84.618 C 24.169 84.657,23.831 84.657,23.625 84.618 C 23.419 84.578,23.587 84.545,24.000 84.545 C 24.412 84.545,24.581 84.578,24.375 84.618 M22.794 84.781 C 22.634 84.823,22.334 84.824,22.127 84.785 C 21.920 84.745,22.050 84.711,22.417 84.709 C 22.783 84.707,22.953 84.739,22.794 84.781 M382.544 84.951 C 382.339 84.990,381.964 84.991,381.711 84.953 C 381.457 84.915,381.625 84.882,382.083 84.881 C 382.542 84.880,382.749 84.911,382.544 84.951 M18.792 85.115 C 18.631 85.157,18.369 85.157,18.208 85.115 C 18.048 85.073,18.179 85.039,18.500 85.039 C 18.821 85.039,18.952 85.073,18.792 85.115 M384.460 85.115 C 384.301 85.156,384.001 85.158,383.794 85.118 C 383.586 85.078,383.717 85.044,384.083 85.042 C 384.450 85.040,384.620 85.073,384.460 85.115 M386.460 85.281 C 386.301 85.323,386.001 85.324,385.794 85.285 C 385.586 85.245,385.717 85.211,386.083 85.209 C 386.450 85.207,386.620 85.239,386.460 85.281 M25.542 88.121 C 25.244 88.158,24.756 88.158,24.458 88.121 C 24.160 88.084,24.404 88.053,25.000 88.053 C 25.596 88.053,25.840 88.084,25.542 88.121 M22.877 88.284 C 22.672 88.324,22.297 88.325,22.044 88.286 C 21.791 88.248,21.958 88.216,22.417 88.214 C 22.875 88.213,23.082 88.244,22.877 88.284 M20.042 88.451 C 19.835 88.491,19.498 88.491,19.292 88.451 C 19.085 88.411,19.254 88.379,19.667 88.379 C 20.079 88.379,20.248 88.411,20.042 88.451 M383.542 88.454 C 383.244 88.491,382.756 88.491,382.458 88.454 C 382.160 88.417,382.404 88.387,383.000 88.387 C 383.596 88.387,383.840 88.417,383.542 88.454 M386.125 88.619 C 385.873 88.658,385.460 88.658,385.208 88.619 C 384.956 88.581,385.162 88.550,385.667 88.550 C 386.171 88.550,386.377 88.581,386.125 88.619 M21.625 91.289 C 21.190 91.324,20.477 91.324,20.042 91.289 C 19.606 91.255,19.962 91.227,20.833 91.227 C 21.704 91.227,22.060 91.255,21.625 91.289 M383.049 91.290 C 382.389 91.322,381.264 91.322,380.549 91.291 C 379.835 91.259,380.375 91.234,381.750 91.233 C 383.125 91.233,383.710 91.259,383.049 91.290 M388.455 91.455 C 388.109 91.491,387.584 91.490,387.288 91.454 C 386.992 91.417,387.275 91.387,387.917 91.388 C 388.558 91.389,388.800 91.419,388.455 91.455 M386.880 92.788 C 386.493 92.823,385.818 92.824,385.380 92.789 C 384.942 92.755,385.258 92.726,386.083 92.726 C 386.908 92.725,387.267 92.754,386.880 92.788 M23.881 92.956 C 23.403 92.990,22.578 92.990,22.048 92.957 C 21.517 92.924,21.908 92.896,22.917 92.896 C 23.925 92.895,24.359 92.922,23.881 92.956 M11.050 94.667 C 11.050 95.171,11.081 95.377,11.119 95.125 C 11.158 94.873,11.158 94.460,11.119 94.208 C 11.081 93.956,11.050 94.162,11.050 94.667 M18.875 101.615 C 19.035 101.657,19.298 101.657,19.458 101.615 C 19.619 101.573,19.487 101.539,19.167 101.539 C 18.846 101.539,18.715 101.573,18.875 101.615 M194.127 152.285 C 194.334 152.324,194.634 152.323,194.794 152.281 C 194.953 152.239,194.783 152.207,194.417 152.209 C 194.050 152.211,193.920 152.245,194.127 152.285 M206.460 152.285 C 206.668 152.324,206.968 152.323,207.127 152.281 C 207.286 152.239,207.117 152.207,206.750 152.209 C 206.383 152.211,206.253 152.245,206.460 152.285 " stroke="none" fill="#e4bcb3" fill-rule="evenodd"></path><path id="path4" d="M55.606 75.116 C 55.543 75.180,55.361 75.251,55.204 75.274 C 55.046 75.297,53.811 75.638,52.459 76.033 L 50.001 76.750 49.998 78.500 C 49.994 80.652,50.060 80.557,48.298 80.937 C 46.329 81.361,46.411 81.790,48.408 81.512 C 50.055 81.283,49.976 81.186,49.944 83.375 L 49.917 85.247 48.458 85.479 C 46.324 85.817,46.353 86.258,48.500 86.119 L 50.000 86.022 50.000 87.822 L 50.000 89.621 49.227 89.727 C 48.801 89.786,48.216 89.833,47.925 89.833 C 47.635 89.833,47.251 89.943,47.074 90.078 C 46.782 90.299,46.910 90.323,48.375 90.328 L 50.000 90.333 50.000 92.000 L 50.000 93.667 48.510 93.667 C 46.297 93.667,46.226 94.077,48.396 94.321 C 50.014 94.502,50.023 94.510,49.980 95.696 L 49.944 96.695 48.764 96.562 C 46.394 96.297,46.258 96.323,46.197 97.065 L 46.144 97.712 44.947 97.602 C 34.753 96.661,34.165 96.611,26.008 96.001 C 24.775 95.909,23.350 95.844,22.842 95.856 C 22.164 95.873,22.362 95.916,23.583 96.019 C 31.551 96.686,41.409 97.689,44.875 98.186 L 46.167 98.372 46.167 100.269 C 46.167 102.460,46.377 102.293,44.083 101.924 C 37.665 100.889,21.144 98.980,20.492 99.197 C 20.374 99.236,21.322 99.364,22.597 99.481 C 27.528 99.932,38.760 101.498,44.333 102.510 C 45.296 102.685,46.121 102.829,46.167 102.830 C 46.212 102.832,46.226 103.497,46.197 104.310 L 46.144 105.787 47.864 106.250 C 48.810 106.504,49.658 106.721,49.750 106.731 C 49.846 106.742,49.952 106.075,50.000 105.167 L 50.083 103.583 48.597 103.250 C 46.701 102.825,46.390 102.398,48.104 102.574 C 48.734 102.639,49.419 102.732,49.625 102.781 C 49.998 102.869,50.000 102.859,50.000 100.862 L 50.000 98.854 49.208 98.740 C 47.421 98.482,47.106 98.402,47.033 98.182 C 46.970 97.994,47.240 97.967,48.522 98.034 L 50.087 98.116 50.025 97.464 L 49.963 96.811 50.523 96.907 C 51.347 97.047,55.462 97.667,55.572 97.667 C 55.624 97.667,55.667 97.039,55.667 96.273 L 55.667 94.879 54.792 94.777 C 54.310 94.720,53.260 94.624,52.458 94.563 C 51.450 94.485,51.000 94.386,51.000 94.239 C 51.000 94.123,50.906 93.990,50.792 93.943 C 50.677 93.897,51.718 93.902,53.106 93.955 L 55.628 94.050 55.655 92.109 L 55.682 90.167 53.359 90.167 C 51.545 90.167,51.016 90.117,50.948 89.938 C 50.857 89.700,51.189 89.646,54.292 89.396 L 55.667 89.285 55.667 87.403 C 55.667 86.367,55.610 85.485,55.542 85.443 C 55.429 85.374,53.346 85.530,51.559 85.741 C 50.130 85.909,50.827 85.233,52.306 85.014 C 53.009 84.911,54.052 84.745,54.625 84.646 L 55.667 84.466 55.667 82.493 C 55.667 80.134,55.869 80.297,53.417 80.678 C 52.317 80.849,51.323 80.991,51.208 80.994 C 50.842 81.004,50.985 80.510,51.375 80.418 C 52.513 80.151,55.495 79.500,55.582 79.500 C 55.638 79.500,55.671 78.569,55.657 77.430 C 55.642 76.292,55.680 75.280,55.742 75.180 C 55.867 74.978,55.784 74.939,55.606 75.116 M346.120 75.354 C 346.250 75.515,346.340 76.380,346.370 77.761 L 346.417 79.917 348.450 80.333 C 350.296 80.711,351.050 81.006,350.804 81.251 C 350.755 81.301,349.972 81.228,349.065 81.089 C 348.159 80.951,347.173 80.804,346.875 80.762 L 346.333 80.688 346.333 82.735 L 346.333 84.782 348.431 85.095 C 350.133 85.350,350.561 85.469,350.700 85.729 C 350.858 86.025,350.823 86.041,350.227 85.950 C 349.873 85.896,348.850 85.799,347.953 85.736 L 346.322 85.620 346.369 87.518 L 346.417 89.417 348.500 89.607 C 350.933 89.830,350.667 89.769,350.667 90.100 C 350.667 90.338,350.422 90.354,348.458 90.249 L 346.250 90.131 346.250 91.982 L 346.250 93.833 348.458 93.833 C 350.229 93.833,350.667 93.879,350.667 94.064 C 350.667 94.305,350.150 94.394,347.583 94.597 L 346.250 94.702 346.304 96.101 C 346.343 97.103,346.419 97.500,346.572 97.500 C 346.690 97.500,347.754 97.351,348.935 97.168 C 351.814 96.724,351.704 96.715,351.578 97.385 L 351.475 97.937 352.990 97.865 C 354.337 97.800,354.494 97.822,354.401 98.063 C 354.344 98.212,354.143 98.333,353.954 98.333 C 353.765 98.333,353.142 98.415,352.570 98.515 L 351.529 98.696 351.556 100.556 L 351.583 102.417 353.042 102.363 C 355.177 102.285,355.078 102.597,352.833 103.017 C 351.487 103.270,351.483 103.276,351.528 105.005 C 351.548 105.787,351.513 106.511,351.449 106.615 C 351.384 106.720,352.144 106.589,353.169 106.318 C 354.180 106.051,355.042 105.833,355.086 105.833 C 355.131 105.833,355.167 105.163,355.167 104.343 C 355.167 103.524,355.237 102.809,355.324 102.756 C 355.782 102.473,370.153 100.430,371.073 100.517 C 371.262 100.535,371.529 100.504,371.667 100.448 C 371.804 100.392,373.042 100.228,374.417 100.084 C 375.792 99.940,377.217 99.787,377.583 99.745 C 379.629 99.508,387.410 98.833,388.090 98.833 C 388.529 98.833,388.854 98.798,388.811 98.755 C 388.659 98.603,387.726 98.619,385.583 98.808 C 384.392 98.914,382.029 99.113,380.333 99.251 C 374.543 99.722,366.448 100.578,360.333 101.364 C 358.087 101.653,356.025 101.895,355.750 101.903 L 355.250 101.917 355.223 100.065 L 355.195 98.213 357.056 98.023 C 358.079 97.919,359.967 97.724,361.250 97.590 C 365.645 97.130,371.780 96.598,377.667 96.165 C 379.087 96.061,381.637 95.874,383.333 95.749 L 386.417 95.522 383.750 95.605 C 382.283 95.651,378.758 95.837,375.917 96.018 C 373.075 96.199,370.113 96.383,369.333 96.427 C 368.554 96.471,366.192 96.651,364.083 96.826 C 361.975 97.002,359.200 97.230,357.917 97.332 C 356.633 97.435,355.490 97.550,355.375 97.588 C 355.231 97.635,355.167 97.445,355.167 96.973 L 355.167 96.290 353.792 96.406 C 353.035 96.470,352.254 96.562,352.056 96.609 C 351.716 96.691,351.692 96.629,351.639 95.528 L 351.583 94.361 353.042 94.246 C 355.103 94.084,355.128 93.667,353.077 93.667 L 351.654 93.667 351.702 92.125 L 351.750 90.583 353.203 90.500 C 355.101 90.391,355.002 90.041,353.030 89.889 L 351.667 89.784 351.667 87.967 L 351.667 86.149 353.058 86.262 C 355.213 86.437,355.258 85.954,353.112 85.671 L 351.583 85.469 351.635 83.546 L 351.688 81.623 353.111 81.738 C 354.826 81.877,355.007 81.550,353.403 81.208 C 351.427 80.787,351.648 81.082,351.678 78.903 C 351.693 77.846,351.673 76.951,351.635 76.913 C 351.569 76.847,346.931 75.488,346.583 75.434 C 346.492 75.419,346.304 75.339,346.167 75.255 C 345.960 75.129,345.952 75.147,346.120 75.354 M390.039 91.167 C 390.039 91.487,390.073 91.619,390.115 91.458 C 390.157 91.298,390.157 91.035,390.115 90.875 C 390.073 90.715,390.039 90.846,390.039 91.167 M390.061 93.417 C 390.061 94.333,390.089 94.687,390.123 94.203 C 390.157 93.718,390.156 92.968,390.122 92.536 C 390.088 92.104,390.060 92.500,390.061 93.417 M387.208 95.456 C 387.644 95.490,388.356 95.490,388.792 95.456 C 389.227 95.422,388.871 95.393,388.000 95.393 C 387.129 95.393,386.773 95.422,387.208 95.456 M17.125 95.621 C 17.423 95.658,17.910 95.658,18.208 95.621 C 18.506 95.584,18.262 95.553,17.667 95.553 C 17.071 95.553,16.827 95.584,17.125 95.621 M19.963 95.789 C 20.355 95.824,20.955 95.824,21.296 95.788 C 21.637 95.752,21.317 95.723,20.583 95.724 C 19.850 95.724,19.571 95.754,19.963 95.789 M16.625 98.951 C 16.831 98.991,17.169 98.991,17.375 98.951 C 17.581 98.911,17.412 98.879,17.000 98.879 C 16.587 98.879,16.419 98.911,16.625 98.951 M18.542 99.119 C 18.794 99.158,19.206 99.158,19.458 99.119 C 19.710 99.081,19.504 99.050,19.000 99.050 C 18.496 99.050,18.290 99.081,18.542 99.119 M195.877 152.286 C 196.131 152.325,196.506 152.324,196.711 152.284 C 196.916 152.244,196.708 152.213,196.250 152.214 C 195.792 152.216,195.624 152.248,195.877 152.286 M204.792 152.284 C 204.998 152.324,205.335 152.324,205.542 152.284 C 205.748 152.245,205.579 152.212,205.167 152.212 C 204.754 152.212,204.585 152.245,204.792 152.284 " stroke="none" fill="#dc7d72" fill-rule="evenodd"></path><path id="path0" d="M191.583 31.446 C 176.805 32.178,165.192 33.721,152.167 36.685 C 136.765 40.189,126.458 44.117,101.513 55.991 C 92.326 60.364,89.705 61.596,86.167 63.207 C 76.587 67.569,68.577 70.786,60.513 73.510 C 58.077 74.333,55.971 75.054,55.833 75.113 C 55.696 75.172,55.508 75.202,55.417 75.181 C 55.325 75.160,55.344 75.238,55.458 75.355 C 55.667 75.567,55.776 79.500,55.573 79.500 C 55.493 79.500,52.460 80.163,51.375 80.418 C 50.985 80.510,50.842 81.004,51.208 80.994 C 51.323 80.991,52.317 80.849,53.417 80.678 C 55.869 80.297,55.667 80.134,55.667 82.493 L 55.667 84.466 54.625 84.646 C 54.052 84.745,53.009 84.911,52.306 85.014 C 50.827 85.233,50.130 85.909,51.559 85.741 C 53.346 85.530,55.429 85.374,55.542 85.443 C 55.610 85.485,55.667 86.367,55.667 87.403 L 55.667 89.285 54.292 89.396 C 51.189 89.646,50.857 89.700,50.948 89.938 C 51.016 90.117,51.545 90.167,53.359 90.167 L 55.682 90.167 55.655 92.109 L 55.628 94.050 53.106 93.955 C 51.718 93.902,50.677 93.897,50.792 93.943 C 50.906 93.990,51.000 94.123,51.000 94.239 C 51.000 94.386,51.450 94.485,52.458 94.563 C 53.260 94.624,54.310 94.720,54.792 94.777 L 55.667 94.879 55.667 96.273 C 55.667 97.039,55.624 97.667,55.572 97.667 C 55.462 97.667,51.347 97.047,50.523 96.907 L 49.963 96.811 50.025 97.464 L 50.087 98.116 48.522 98.034 C 47.240 97.967,46.970 97.994,47.033 98.182 C 47.106 98.402,47.421 98.482,49.208 98.740 L 50.000 98.854 50.000 100.862 C 50.000 102.859,49.998 102.869,49.625 102.781 C 49.419 102.732,48.734 102.639,48.104 102.574 C 46.390 102.398,46.701 102.825,48.597 103.250 L 50.083 103.583 50.000 105.185 L 49.917 106.786 52.167 107.412 C 64.583 110.866,77.504 116.129,100.667 127.165 C 127.181 139.798,137.210 143.582,153.943 147.262 C 183.128 153.681,213.874 153.959,243.438 148.072 C 261.701 144.435,272.671 140.442,299.500 127.669 C 324.469 115.781,334.651 111.618,348.833 107.498 C 351.762 106.648,351.576 106.818,351.529 105.041 C 351.482 103.272,351.484 103.270,352.833 103.017 C 355.078 102.597,355.177 102.285,353.042 102.363 L 351.583 102.417 351.556 100.556 L 351.529 98.696 352.570 98.515 C 353.142 98.415,353.765 98.333,353.954 98.333 C 354.143 98.333,354.344 98.212,354.401 98.063 C 354.494 97.822,354.337 97.800,352.990 97.865 L 351.475 97.937 351.578 97.385 C 351.704 96.715,351.814 96.724,348.935 97.168 C 347.754 97.351,346.690 97.500,346.572 97.500 C 346.419 97.500,346.343 97.103,346.304 96.101 L 346.250 94.702 347.583 94.597 C 350.150 94.394,350.667 94.305,350.667 94.064 C 350.667 93.879,350.229 93.833,348.458 93.833 L 346.250 93.833 346.250 91.982 L 346.250 90.131 348.458 90.249 C 350.422 90.354,350.667 90.338,350.667 90.100 C 350.667 89.769,350.933 89.830,348.500 89.607 L 346.417 89.417 346.369 87.518 L 346.322 85.620 347.953 85.736 C 348.850 85.799,349.873 85.896,350.227 85.950 C 350.823 86.041,350.858 86.025,350.700 85.729 C 350.561 85.469,350.133 85.350,348.431 85.095 L 346.333 84.782 346.333 82.735 L 346.333 80.688 346.875 80.762 C 347.173 80.804,348.159 80.951,349.065 81.089 C 349.972 81.228,350.755 81.301,350.804 81.251 C 351.050 81.006,350.296 80.711,348.450 80.333 L 346.417 79.917 346.417 77.639 C 346.417 76.386,346.386 75.391,346.349 75.429 C 346.311 75.466,346.199 75.433,346.099 75.354 C 345.999 75.275,344.904 74.892,343.667 74.503 C 332.434 70.974,321.139 66.226,300.292 56.269 C 295.513 53.986,294.216 53.374,291.000 51.879 C 268.388 41.373,255.016 37.125,234.250 33.853 C 221.374 31.825,203.874 30.837,191.583 31.446 " stroke="none" fill="#dd1e23" fill-rule="evenodd"></path><path id="path1" d="M0.000 90.750 L 0.000 181.500 200.000 181.500 L 400.000 181.500 400.000 90.750 L 400.000 0.000 200.000 0.000 L 0.000 0.000 0.000 90.750 M207.833 31.336 C 221.903 31.810,233.981 33.313,247.500 36.271 C 264.057 39.893,274.043 43.691,302.000 57.000 C 336.899 73.614,354.150 79.182,378.417 81.666 C 379.862 81.814,387.571 82.330,388.369 82.333 C 389.578 82.336,390.170 85.528,390.162 92.000 C 390.153 99.688,389.649 101.332,387.299 101.335 C 375.632 101.349,356.709 104.811,342.333 109.562 C 330.376 113.514,320.599 117.654,300.167 127.419 C 273.294 140.262,262.068 144.376,243.833 148.067 C 211.186 154.676,175.144 153.531,144.000 144.897 C 132.447 141.694,122.478 137.623,100.167 127.001 C 77.819 116.360,67.368 112.057,54.442 108.172 C 41.361 104.241,27.572 101.861,15.167 101.392 C 12.150 101.279,11.956 101.202,11.594 99.983 C 10.740 97.110,10.890 87.328,11.836 84.145 C 12.382 82.307,12.267 82.364,15.833 82.166 C 39.910 80.827,60.491 75.091,89.250 61.704 C 94.259 59.372,94.657 59.184,102.750 55.333 C 125.670 44.427,136.276 40.363,150.750 36.942 C 169.183 32.585,188.532 30.685,207.833 31.336 " stroke="none" fill="#14181D" fill-rule="evenodd"></path><path id="path2" d="M199.292 31.291 C 200.048 31.322,201.285 31.322,202.042 31.291 C 202.798 31.260,202.179 31.235,200.667 31.235 C 199.154 31.235,198.535 31.260,199.292 31.291 M48.370 77.173 C 47.519 77.408,46.857 77.635,46.899 77.677 C 46.941 77.719,46.995 78.521,47.018 79.460 C 47.041 80.399,47.101 81.167,47.151 81.167 C 47.201 81.167,47.827 81.041,48.542 80.887 C 50.070 80.559,50.036 80.620,49.965 78.331 L 49.917 76.746 48.370 77.173 M351.678 78.817 C 351.650 81.095,351.428 80.787,353.403 81.208 C 355.007 81.550,354.826 81.877,353.111 81.738 L 351.688 81.623 351.635 83.542 L 351.583 85.461 352.893 85.645 C 354.568 85.882,354.500 85.959,354.500 83.823 C 354.500 82.761,354.567 82.000,354.661 82.000 C 354.750 82.000,356.793 82.258,359.203 82.573 C 366.529 83.532,379.273 84.866,380.583 84.811 C 380.858 84.799,380.483 84.724,379.750 84.644 C 369.173 83.492,364.840 82.954,358.881 82.054 C 354.026 81.320,354.523 81.620,354.490 79.402 L 354.462 77.564 353.273 77.259 C 352.619 77.092,351.998 76.922,351.893 76.883 C 351.757 76.832,351.695 77.389,351.678 78.817 M46.313 81.242 C 46.088 81.467,31.056 83.770,27.667 84.099 C 26.979 84.165,26.518 84.254,26.642 84.296 C 27.051 84.434,35.026 83.481,42.477 82.403 C 47.578 81.666,47.071 81.511,47.018 83.792 C 46.968 85.938,46.804 85.781,48.750 85.444 L 49.917 85.242 49.944 83.372 C 49.976 81.186,50.056 81.283,48.404 81.512 C 47.277 81.669,47.092 81.658,46.964 81.429 C 46.824 81.180,46.476 81.080,46.313 81.242 M25.292 84.451 C 25.498 84.491,25.835 84.491,26.042 84.451 C 26.248 84.411,26.079 84.379,25.667 84.379 C 25.254 84.379,25.085 84.411,25.292 84.451 M23.625 84.618 C 23.831 84.657,24.169 84.657,24.375 84.618 C 24.581 84.578,24.412 84.545,24.000 84.545 C 23.587 84.545,23.419 84.578,23.625 84.618 M22.127 84.785 C 22.334 84.824,22.634 84.823,22.794 84.781 C 22.953 84.739,22.783 84.707,22.417 84.709 C 22.050 84.711,21.920 84.745,22.127 84.785 M381.711 84.953 C 381.964 84.991,382.339 84.990,382.544 84.951 C 382.749 84.911,382.542 84.880,382.083 84.881 C 381.625 84.882,381.457 84.915,381.711 84.953 M18.208 85.115 C 18.369 85.157,18.631 85.157,18.792 85.115 C 18.952 85.073,18.821 85.039,18.500 85.039 C 18.179 85.039,18.048 85.073,18.208 85.115 M383.794 85.118 C 384.001 85.158,384.301 85.156,384.460 85.115 C 384.620 85.073,384.450 85.040,384.083 85.042 C 383.717 85.044,383.586 85.078,383.794 85.118 M385.794 85.285 C 386.001 85.324,386.301 85.323,386.460 85.281 C 386.620 85.239,386.450 85.207,386.083 85.209 C 385.717 85.211,385.586 85.245,385.794 85.285 M45.750 85.835 C 44.911 86.001,35.564 87.051,30.167 87.586 C 27.364 87.863,26.685 87.963,28.000 87.905 C 30.287 87.803,33.817 87.515,41.303 86.818 C 44.357 86.533,46.898 86.343,46.950 86.395 C 47.096 86.540,47.000 89.566,46.845 89.721 C 46.615 89.952,41.560 90.288,28.833 90.919 L 24.250 91.146 28.333 91.065 C 30.579 91.020,35.304 90.876,38.833 90.744 C 42.362 90.612,45.663 90.503,46.168 90.502 L 47.085 90.500 47.034 91.875 C 46.961 93.864,47.145 93.723,44.789 93.598 C 41.055 93.398,28.774 93.002,27.083 93.026 C 25.671 93.046,25.837 93.070,28.167 93.180 C 46.510 94.048,46.949 94.095,47.004 95.167 C 47.066 96.383,47.453 96.342,42.157 95.674 C 33.185 94.542,25.145 93.913,15.301 93.572 C 11.683 93.447,11.787 93.496,11.307 91.704 L 11.007 90.583 11.096 93.750 C 11.187 96.995,11.388 99.182,11.680 100.105 C 12.013 101.152,12.076 101.169,16.693 101.425 C 26.120 101.948,40.456 104.079,45.863 105.761 C 46.108 105.837,46.149 105.661,46.196 104.340 C 46.226 103.511,46.212 102.832,46.167 102.830 C 46.121 102.829,45.296 102.685,44.333 102.510 C 38.760 101.498,27.528 99.932,22.597 99.481 C 21.322 99.364,20.374 99.236,20.492 99.197 C 21.144 98.980,37.665 100.889,44.083 101.924 C 46.377 102.293,46.167 102.460,46.167 100.269 L 46.167 98.372 44.875 98.186 C 41.409 97.689,31.551 96.686,23.583 96.019 C 22.362 95.916,22.164 95.873,22.842 95.856 C 23.350 95.844,24.775 95.909,26.008 96.001 C 34.165 96.611,34.753 96.661,44.947 97.602 L 46.144 97.712 46.197 97.071 C 46.253 96.395,46.766 96.065,47.333 96.340 C 47.471 96.407,48.115 96.514,48.764 96.578 L 49.944 96.695 49.980 95.696 C 50.023 94.510,50.014 94.502,48.396 94.321 C 46.226 94.077,46.297 93.667,48.510 93.667 L 50.000 93.667 50.000 92.000 L 50.000 90.333 48.375 90.328 C 46.910 90.323,46.782 90.299,47.074 90.078 C 47.251 89.943,47.635 89.833,47.925 89.833 C 48.216 89.833,48.801 89.786,49.227 89.727 L 50.000 89.621 50.000 87.822 L 50.000 86.022 48.500 86.119 C 47.179 86.204,47.000 86.183,47.000 85.941 C 47.000 85.645,46.799 85.628,45.750 85.835 M354.555 86.096 C 354.462 86.339,354.269 86.360,353.058 86.262 L 351.667 86.149 351.667 87.967 L 351.667 89.784 353.021 89.888 C 353.920 89.958,354.438 90.076,354.562 90.239 C 354.696 90.415,355.230 90.514,356.417 90.583 C 359.469 90.760,374.451 91.167,376.784 91.137 C 379.464 91.102,379.050 91.071,372.667 90.832 C 361.941 90.431,354.779 90.011,354.628 89.775 C 354.560 89.669,354.504 88.890,354.503 88.042 L 354.500 86.500 355.125 86.503 C 355.469 86.504,356.442 86.579,357.287 86.668 C 362.140 87.179,380.058 88.405,381.005 88.290 C 381.425 88.239,381.333 88.213,380.667 88.193 C 379.509 88.159,370.144 87.421,366.500 87.077 C 362.243 86.674,355.810 86.009,355.206 85.908 C 354.795 85.840,354.636 85.886,354.555 86.096 M24.458 88.121 C 24.756 88.158,25.244 88.158,25.542 88.121 C 25.840 88.084,25.596 88.053,25.000 88.053 C 24.404 88.053,24.160 88.084,24.458 88.121 M22.044 88.286 C 22.297 88.325,22.672 88.324,22.877 88.284 C 23.082 88.244,22.875 88.213,22.417 88.214 C 21.958 88.216,21.791 88.248,22.044 88.286 M19.292 88.451 C 19.498 88.491,19.835 88.491,20.042 88.451 C 20.248 88.411,20.079 88.379,19.667 88.379 C 19.254 88.379,19.085 88.411,19.292 88.451 M382.458 88.454 C 382.756 88.491,383.244 88.491,383.542 88.454 C 383.840 88.417,383.596 88.387,383.000 88.387 C 382.404 88.387,382.160 88.417,382.458 88.454 M385.208 88.619 C 385.460 88.658,385.873 88.658,386.125 88.619 C 386.377 88.581,386.171 88.550,385.667 88.550 C 385.162 88.550,384.956 88.581,385.208 88.619 M351.784 90.605 C 351.720 90.669,351.667 91.385,351.667 92.194 L 351.667 93.667 353.083 93.667 C 354.231 93.667,354.500 93.714,354.500 93.917 C 354.500 94.213,354.287 94.207,357.503 94.002 C 360.774 93.794,369.322 93.400,375.583 93.168 C 378.242 93.070,380.904 92.963,381.500 92.931 C 383.424 92.827,372.567 93.014,367.667 93.169 C 365.054 93.251,361.026 93.371,358.715 93.435 L 354.514 93.552 354.465 92.068 L 354.417 90.583 353.159 90.535 C 352.468 90.509,351.849 90.540,351.784 90.605 M20.042 91.289 C 20.477 91.324,21.190 91.324,21.625 91.289 C 22.060 91.255,21.704 91.227,20.833 91.227 C 19.962 91.227,19.606 91.255,20.042 91.289 M380.549 91.291 C 381.264 91.322,382.389 91.322,383.049 91.290 C 383.710 91.259,383.125 91.233,381.750 91.233 C 380.375 91.234,379.835 91.259,380.549 91.291 M389.774 91.786 C 389.500 93.457,389.529 93.449,382.167 93.735 C 380.929 93.783,379.317 93.856,378.583 93.896 C 377.438 93.960,376.802 94.001,374.583 94.154 C 374.400 94.167,373.012 94.260,371.500 94.362 C 369.988 94.464,368.663 94.614,368.558 94.697 C 368.452 94.780,368.189 94.807,367.974 94.756 C 367.759 94.706,366.683 94.774,365.583 94.906 C 364.483 95.039,362.988 95.193,362.260 95.250 C 361.532 95.306,360.871 95.393,360.791 95.443 C 360.710 95.493,360.185 95.566,359.624 95.605 C 359.064 95.644,357.869 95.786,356.970 95.921 C 354.385 96.309,354.500 96.345,354.500 95.167 C 354.500 94.029,354.619 94.087,352.667 94.271 L 351.583 94.373 351.639 95.534 C 351.692 96.629,351.716 96.691,352.056 96.609 C 352.254 96.562,353.035 96.470,353.792 96.406 L 355.167 96.290 355.167 96.973 C 355.167 97.445,355.231 97.635,355.375 97.588 C 355.490 97.550,356.633 97.435,357.917 97.332 C 359.200 97.230,361.975 97.002,364.083 96.826 C 366.192 96.651,368.554 96.471,369.333 96.427 C 370.113 96.383,373.075 96.199,375.917 96.018 C 378.758 95.837,382.283 95.651,383.750 95.605 L 386.417 95.522 383.333 95.749 C 381.637 95.874,379.087 96.061,377.667 96.165 C 371.780 96.598,365.645 97.130,361.250 97.590 C 359.967 97.724,358.079 97.919,357.056 98.023 L 355.195 98.213 355.223 100.065 L 355.250 101.917 355.750 101.903 C 356.025 101.895,358.087 101.653,360.333 101.364 C 366.448 100.578,374.543 99.722,380.333 99.251 C 382.029 99.113,384.392 98.914,385.583 98.808 C 387.726 98.619,388.659 98.603,388.811 98.755 C 388.854 98.798,388.529 98.833,388.090 98.833 C 387.410 98.833,379.629 99.508,377.583 99.745 C 377.217 99.787,375.792 99.940,374.417 100.084 C 373.042 100.228,371.804 100.392,371.667 100.448 C 371.529 100.504,371.262 100.535,371.073 100.517 C 370.153 100.430,355.782 102.473,355.324 102.756 C 355.119 102.883,355.119 105.833,355.323 105.833 C 355.410 105.833,355.530 105.753,355.590 105.655 C 355.651 105.557,355.798 105.515,355.917 105.560 C 356.036 105.606,356.180 105.597,356.237 105.541 C 356.294 105.484,356.507 105.413,356.712 105.382 C 357.422 105.277,357.590 105.233,357.806 105.100 C 357.925 105.027,358.060 105.005,358.107 105.051 C 358.154 105.098,358.430 105.061,358.721 104.969 C 359.012 104.876,359.400 104.777,359.583 104.748 C 359.767 104.718,359.917 104.679,359.917 104.659 C 359.917 104.625,360.172 104.577,361.007 104.457 C 361.240 104.423,361.503 104.357,361.590 104.309 C 361.678 104.262,362.044 104.207,362.402 104.188 C 362.761 104.168,363.119 104.112,363.199 104.064 C 363.278 104.015,363.584 103.944,363.880 103.907 C 364.175 103.870,364.642 103.788,364.917 103.725 C 365.684 103.549,365.859 103.518,366.667 103.415 C 367.079 103.362,367.642 103.254,367.917 103.175 C 368.192 103.095,368.529 103.028,368.667 103.025 C 368.929 103.019,369.687 102.917,370.667 102.755 C 370.988 102.702,371.625 102.623,372.083 102.581 C 372.542 102.538,373.179 102.455,373.500 102.396 C 373.821 102.337,374.271 102.266,374.500 102.238 C 375.107 102.165,375.390 102.090,375.625 101.944 C 375.746 101.868,375.833 101.893,375.833 102.003 C 375.833 102.123,376.003 102.157,376.292 102.095 C 376.823 101.982,378.075 101.839,379.207 101.763 C 379.641 101.734,380.124 101.607,380.280 101.480 C 380.523 101.284,380.543 101.284,380.422 101.485 C 380.303 101.684,380.485 101.700,381.599 101.588 C 383.250 101.422,384.620 101.344,386.762 101.291 C 388.154 101.257,388.495 101.196,388.757 100.933 C 389.175 100.516,389.568 99.774,389.285 99.940 C 389.174 100.004,389.215 99.907,389.375 99.723 C 389.536 99.540,389.624 99.346,389.570 99.292 C 389.517 99.239,389.551 99.049,389.647 98.871 C 389.880 98.434,390.033 96.232,390.018 93.517 C 390.005 91.168,389.945 90.744,389.774 91.786 M387.288 91.454 C 387.584 91.490,388.109 91.491,388.455 91.455 C 388.800 91.419,388.558 91.389,387.917 91.388 C 387.275 91.387,386.992 91.417,387.288 91.454 M385.380 92.789 C 385.818 92.824,386.493 92.823,386.880 92.788 C 387.267 92.754,386.908 92.725,386.083 92.726 C 385.258 92.726,384.942 92.755,385.380 92.789 M22.048 92.957 C 22.578 92.990,23.403 92.990,23.881 92.956 C 24.359 92.922,23.925 92.895,22.917 92.896 C 21.908 92.896,21.517 92.924,22.048 92.957 M388.792 95.456 C 388.356 95.490,387.644 95.490,387.208 95.456 C 386.773 95.422,387.129 95.393,388.000 95.393 C 388.871 95.393,389.227 95.422,388.792 95.456 M18.208 95.621 C 17.910 95.658,17.423 95.658,17.125 95.621 C 16.827 95.584,17.071 95.553,17.667 95.553 C 18.262 95.553,18.506 95.584,18.208 95.621 M21.296 95.788 C 20.955 95.824,20.355 95.824,19.963 95.789 C 19.571 95.754,19.850 95.724,20.583 95.724 C 21.317 95.723,21.637 95.752,21.296 95.788 M17.375 98.951 C 17.169 98.991,16.831 98.991,16.625 98.951 C 16.419 98.911,16.587 98.879,17.000 98.879 C 17.412 98.879,17.581 98.911,17.375 98.951 M19.458 99.119 C 19.206 99.158,18.794 99.158,18.542 99.119 C 18.290 99.081,18.496 99.050,19.000 99.050 C 19.504 99.050,19.710 99.081,19.458 99.119 " stroke="none" fill="#dea197" fill-rule="evenodd"></path><path id="path3" d="M196.877 31.286 C 197.131 31.325,197.506 31.324,197.711 31.284 C 197.916 31.244,197.708 31.213,197.250 31.214 C 196.792 31.216,196.624 31.248,196.877 31.286 M203.711 31.286 C 203.964 31.325,204.339 31.324,204.544 31.284 C 204.749 31.244,204.542 31.213,204.083 31.214 C 203.625 31.216,203.457 31.248,203.711 31.286 M45.417 77.847 C 38.113 79.832,26.130 81.584,15.844 82.169 C 14.154 82.265,12.676 82.423,12.559 82.521 C 11.572 83.339,10.751 89.368,11.316 91.643 C 11.778 93.501,11.666 93.447,15.301 93.572 C 25.080 93.911,32.836 94.515,42.250 95.673 C 44.450 95.944,46.442 96.188,46.676 96.216 C 47.146 96.271,47.227 94.834,46.779 94.388 C 46.553 94.163,40.172 93.748,28.167 93.180 C 25.837 93.070,25.671 93.046,27.083 93.026 C 28.774 93.002,41.055 93.398,44.789 93.598 C 47.145 93.723,46.961 93.864,47.034 91.875 L 47.085 90.500 46.168 90.502 C 45.663 90.503,42.362 90.612,38.833 90.744 C 35.304 90.876,30.579 91.020,28.333 91.065 L 24.250 91.146 28.833 90.919 C 41.560 90.288,46.615 89.952,46.845 89.721 C 47.000 89.566,47.096 86.540,46.950 86.395 C 46.898 86.343,44.357 86.533,41.303 86.818 C 33.817 87.515,30.287 87.803,28.000 87.905 C 26.685 87.963,27.366 87.863,30.167 87.586 C 35.717 87.037,44.686 86.029,45.948 85.813 L 46.979 85.636 47.031 83.860 C 47.060 82.883,47.030 82.015,46.966 81.932 C 46.897 81.844,44.806 82.071,41.966 82.474 C 33.783 83.635,27.053 84.435,26.642 84.296 C 26.518 84.254,26.979 84.165,27.667 84.099 C 31.058 83.770,45.019 81.629,46.575 81.200 L 47.067 81.064 47.019 79.409 C 46.992 78.499,46.935 77.697,46.892 77.627 C 46.794 77.469,46.825 77.464,45.417 77.847 M354.490 77.648 C 354.413 78.428,354.561 81.268,354.682 81.343 C 354.772 81.398,356.661 81.718,358.881 82.054 C 364.840 82.954,369.173 83.492,379.750 84.644 C 380.483 84.724,380.858 84.799,380.583 84.811 C 379.273 84.866,366.529 83.532,359.203 82.573 C 356.793 82.258,354.754 82.000,354.671 82.000 C 354.588 82.000,354.497 82.863,354.468 83.917 C 354.440 84.971,354.417 85.834,354.417 85.834 C 354.417 85.834,356.142 86.018,358.250 86.244 C 365.565 87.027,378.114 88.118,380.667 88.193 C 381.333 88.213,381.425 88.239,381.005 88.290 C 380.058 88.405,362.140 87.179,357.287 86.668 C 356.442 86.579,355.469 86.504,355.125 86.503 L 354.500 86.500 354.503 88.042 C 354.504 88.890,354.560 89.669,354.628 89.775 C 354.779 90.011,361.941 90.431,372.667 90.832 C 379.058 91.071,379.467 91.102,376.750 91.136 C 374.412 91.166,359.934 90.769,356.333 90.577 L 354.417 90.475 354.471 92.013 L 354.525 93.551 358.721 93.435 C 361.029 93.371,365.054 93.251,367.667 93.169 C 372.567 93.014,383.424 92.827,381.500 92.931 C 380.904 92.963,378.242 93.070,375.583 93.168 C 369.322 93.400,360.774 93.794,357.503 94.002 C 356.084 94.093,354.827 94.167,354.711 94.167 C 354.564 94.167,354.500 94.475,354.500 95.190 L 354.500 96.214 355.458 96.110 C 355.985 96.052,357.542 95.856,358.917 95.674 C 366.792 94.630,376.233 93.881,385.417 93.572 C 387.589 93.499,388.693 93.396,388.933 93.245 C 390.790 92.078,390.285 82.338,388.369 82.333 C 387.571 82.330,379.862 81.814,378.417 81.666 C 370.525 80.859,362.935 79.590,356.125 77.940 C 355.231 77.723,354.495 77.592,354.490 77.648 M26.042 84.451 C 25.835 84.491,25.498 84.491,25.292 84.451 C 25.085 84.411,25.254 84.379,25.667 84.379 C 26.079 84.379,26.248 84.411,26.042 84.451 M24.375 84.618 C 24.169 84.657,23.831 84.657,23.625 84.618 C 23.419 84.578,23.587 84.545,24.000 84.545 C 24.412 84.545,24.581 84.578,24.375 84.618 M22.794 84.781 C 22.634 84.823,22.334 84.824,22.127 84.785 C 21.920 84.745,22.050 84.711,22.417 84.709 C 22.783 84.707,22.953 84.739,22.794 84.781 M382.544 84.951 C 382.339 84.990,381.964 84.991,381.711 84.953 C 381.457 84.915,381.625 84.882,382.083 84.881 C 382.542 84.880,382.749 84.911,382.544 84.951 M18.792 85.115 C 18.631 85.157,18.369 85.157,18.208 85.115 C 18.048 85.073,18.179 85.039,18.500 85.039 C 18.821 85.039,18.952 85.073,18.792 85.115 M384.460 85.115 C 384.301 85.156,384.001 85.158,383.794 85.118 C 383.586 85.078,383.717 85.044,384.083 85.042 C 384.450 85.040,384.620 85.073,384.460 85.115 M386.460 85.281 C 386.301 85.323,386.001 85.324,385.794 85.285 C 385.586 85.245,385.717 85.211,386.083 85.209 C 386.450 85.207,386.620 85.239,386.460 85.281 M25.542 88.121 C 25.244 88.158,24.756 88.158,24.458 88.121 C 24.160 88.084,24.404 88.053,25.000 88.053 C 25.596 88.053,25.840 88.084,25.542 88.121 M22.877 88.284 C 22.672 88.324,22.297 88.325,22.044 88.286 C 21.791 88.248,21.958 88.216,22.417 88.214 C 22.875 88.213,23.082 88.244,22.877 88.284 M20.042 88.451 C 19.835 88.491,19.498 88.491,19.292 88.451 C 19.085 88.411,19.254 88.379,19.667 88.379 C 20.079 88.379,20.248 88.411,20.042 88.451 M383.542 88.454 C 383.244 88.491,382.756 88.491,382.458 88.454 C 382.160 88.417,382.404 88.387,383.000 88.387 C 383.596 88.387,383.840 88.417,383.542 88.454 M386.125 88.619 C 385.873 88.658,385.460 88.658,385.208 88.619 C 384.956 88.581,385.162 88.550,385.667 88.550 C 386.171 88.550,386.377 88.581,386.125 88.619 M21.625 91.289 C 21.190 91.324,20.477 91.324,20.042 91.289 C 19.606 91.255,19.962 91.227,20.833 91.227 C 21.704 91.227,22.060 91.255,21.625 91.289 M383.049 91.290 C 382.389 91.322,381.264 91.322,380.549 91.291 C 379.835 91.259,380.375 91.234,381.750 91.233 C 383.125 91.233,383.710 91.259,383.049 91.290 M388.455 91.455 C 388.109 91.491,387.584 91.490,387.288 91.454 C 386.992 91.417,387.275 91.387,387.917 91.388 C 388.558 91.389,388.800 91.419,388.455 91.455 M386.880 92.788 C 386.493 92.823,385.818 92.824,385.380 92.789 C 384.942 92.755,385.258 92.726,386.083 92.726 C 386.908 92.725,387.267 92.754,386.880 92.788 M23.881 92.956 C 23.403 92.990,22.578 92.990,22.048 92.957 C 21.517 92.924,21.908 92.896,22.917 92.896 C 23.925 92.895,24.359 92.922,23.881 92.956 M11.050 94.667 C 11.050 95.171,11.081 95.377,11.119 95.125 C 11.158 94.873,11.158 94.460,11.119 94.208 C 11.081 93.956,11.050 94.162,11.050 94.667 M18.875 101.615 C 19.035 101.657,19.298 101.657,19.458 101.615 C 19.619 101.573,19.487 101.539,19.167 101.539 C 18.846 101.539,18.715 101.573,18.875 101.615 M194.127 152.285 C 194.334 152.324,194.634 152.323,194.794 152.281 C 194.953 152.239,194.783 152.207,194.417 152.209 C 194.050 152.211,193.920 152.245,194.127 152.285 M206.460 152.285 C 206.668 152.324,206.968 152.323,207.127 152.281 C 207.286 152.239,207.117 152.207,206.750 152.209 C 206.383 152.211,206.253 152.245,206.460 152.285 " stroke="none" fill="#e4bcb3" fill-rule="evenodd"></path><path id="path4" d="M55.606 75.116 C 55.543 75.180,55.361 75.251,55.204 75.274 C 55.046 75.297,53.811 75.638,52.459 76.033 L 50.001 76.750 49.998 78.500 C 49.994 80.652,50.060 80.557,48.298 80.937 C 46.329 81.361,46.411 81.790,48.408 81.512 C 50.055 81.283,49.976 81.186,49.944 83.375 L 49.917 85.247 48.458 85.479 C 46.324 85.817,46.353 86.258,48.500 86.119 L 50.000 86.022 50.000 87.822 L 50.000 89.621 49.227 89.727 C 48.801 89.786,48.216 89.833,47.925 89.833 C 47.635 89.833,47.251 89.943,47.074 90.078 C 46.782 90.299,46.910 90.323,48.375 90.328 L 50.000 90.333 50.000 92.000 L 50.000 93.667 48.510 93.667 C 46.297 93.667,46.226 94.077,48.396 94.321 C 50.014 94.502,50.023 94.510,49.980 95.696 L 49.944 96.695 48.764 96.562 C 46.394 96.297,46.258 96.323,46.197 97.065 L 46.144 97.712 44.947 97.602 C 34.753 96.661,34.165 96.611,26.008 96.001 C 24.775 95.909,23.350 95.844,22.842 95.856 C 22.164 95.873,22.362 95.916,23.583 96.019 C 31.551 96.686,41.409 97.689,44.875 98.186 L 46.167 98.372 46.167 100.269 C 46.167 102.460,46.377 102.293,44.083 101.924 C 37.665 100.889,21.144 98.980,20.492 99.197 C 20.374 99.236,21.322 99.364,22.597 99.481 C 27.528 99.932,38.760 101.498,44.333 102.510 C 45.296 102.685,46.121 102.829,46.167 102.830 C 46.212 102.832,46.226 103.497,46.197 104.310 L 46.144 105.787 47.864 106.250 C 48.810 106.504,49.658 106.721,49.750 106.731 C 49.846 106.742,49.952 106.075,50.000 105.167 L 50.083 103.583 48.597 103.250 C 46.701 102.825,46.390 102.398,48.104 102.574 C 48.734 102.639,49.419 102.732,49.625 102.781 C 49.998 102.869,50.000 102.859,50.000 100.862 L 50.000 98.854 49.208 98.740 C 47.421 98.482,47.106 98.402,47.033 98.182 C 46.970 97.994,47.240 97.967,48.522 98.034 L 50.087 98.116 50.025 97.464 L 49.963 96.811 50.523 96.907 C 51.347 97.047,55.462 97.667,55.572 97.667 C 55.624 97.667,55.667 97.039,55.667 96.273 L 55.667 94.879 54.792 94.777 C 54.310 94.720,53.260 94.624,52.458 94.563 C 51.450 94.485,51.000 94.386,51.000 94.239 C 51.000 94.123,50.906 93.990,50.792 93.943 C 50.677 93.897,51.718 93.902,53.106 93.955 L 55.628 94.050 55.655 92.109 L 55.682 90.167 53.359 90.167 C 51.545 90.167,51.016 90.117,50.948 89.938 C 50.857 89.700,51.189 89.646,54.292 89.396 L 55.667 89.285 55.667 87.403 C 55.667 86.367,55.610 85.485,55.542 85.443 C 55.429 85.374,53.346 85.530,51.559 85.741 C 50.130 85.909,50.827 85.233,52.306 85.014 C 53.009 84.911,54.052 84.745,54.625 84.646 L 55.667 84.466 55.667 82.493 C 55.667 80.134,55.869 80.297,53.417 80.678 C 52.317 80.849,51.323 80.991,51.208 80.994 C 50.842 81.004,50.985 80.510,51.375 80.418 C 52.513 80.151,55.495 79.500,55.582 79.500 C 55.638 79.500,55.671 78.569,55.657 77.430 C 55.642 76.292,55.680 75.280,55.742 75.180 C 55.867 74.978,55.784 74.939,55.606 75.116 M346.120 75.354 C 346.250 75.515,346.340 76.380,346.370 77.761 L 346.417 79.917 348.450 80.333 C 350.296 80.711,351.050 81.006,350.804 81.251 C 350.755 81.301,349.972 81.228,349.065 81.089 C 348.159 80.951,347.173 80.804,346.875 80.762 L 346.333 80.688 346.333 82.735 L 346.333 84.782 348.431 85.095 C 350.133 85.350,350.561 85.469,350.700 85.729 C 350.858 86.025,350.823 86.041,350.227 85.950 C 349.873 85.896,348.850 85.799,347.953 85.736 L 346.322 85.620 346.369 87.518 L 346.417 89.417 348.500 89.607 C 350.933 89.830,350.667 89.769,350.667 90.100 C 350.667 90.338,350.422 90.354,348.458 90.249 L 346.250 90.131 346.250 91.982 L 346.250 93.833 348.458 93.833 C 350.229 93.833,350.667 93.879,350.667 94.064 C 350.667 94.305,350.150 94.394,347.583 94.597 L 346.250 94.702 346.304 96.101 C 346.343 97.103,346.419 97.500,346.572 97.500 C 346.690 97.500,347.754 97.351,348.935 97.168 C 351.814 96.724,351.704 96.715,351.578 97.385 L 351.475 97.937 352.990 97.865 C 354.337 97.800,354.494 97.822,354.401 98.063 C 354.344 98.212,354.143 98.333,353.954 98.333 C 353.765 98.333,353.142 98.415,352.570 98.515 L 351.529 98.696 351.556 100.556 L 351.583 102.417 353.042 102.363 C 355.177 102.285,355.078 102.597,352.833 103.017 C 351.487 103.270,351.483 103.276,351.528 105.005 C 351.548 105.787,351.513 106.511,351.449 106.615 C 351.384 106.720,352.144 106.589,353.169 106.318 C 354.180 106.051,355.042 105.833,355.086 105.833 C 355.131 105.833,355.167 105.163,355.167 104.343 C 355.167 103.524,355.237 102.809,355.324 102.756 C 355.782 102.473,370.153 100.430,371.073 100.517 C 371.262 100.535,371.529 100.504,371.667 100.448 C 371.804 100.392,373.042 100.228,374.417 100.084 C 375.792 99.940,377.217 99.787,377.583 99.745 C 379.629 99.508,387.410 98.833,388.090 98.833 C 388.529 98.833,388.854 98.798,388.811 98.755 C 388.659 98.603,387.726 98.619,385.583 98.808 C 384.392 98.914,382.029 99.113,380.333 99.251 C 374.543 99.722,366.448 100.578,360.333 101.364 C 358.087 101.653,356.025 101.895,355.750 101.903 L 355.250 101.917 355.223 100.065 L 355.195 98.213 357.056 98.023 C 358.079 97.919,359.967 97.724,361.250 97.590 C 365.645 97.130,371.780 96.598,377.667 96.165 C 379.087 96.061,381.637 95.874,383.333 95.749 L 386.417 95.522 383.750 95.605 C 382.283 95.651,378.758 95.837,375.917 96.018 C 373.075 96.199,370.113 96.383,369.333 96.427 C 368.554 96.471,366.192 96.651,364.083 96.826 C 361.975 97.002,359.200 97.230,357.917 97.332 C 356.633 97.435,355.490 97.550,355.375 97.588 C 355.231 97.635,355.167 97.445,355.167 96.973 L 355.167 96.290 353.792 96.406 C 353.035 96.470,352.254 96.562,352.056 96.609 C 351.716 96.691,351.692 96.629,351.639 95.528 L 351.583 94.361 353.042 94.246 C 355.103 94.084,355.128 93.667,353.077 93.667 L 351.654 93.667 351.702 92.125 L 351.750 90.583 353.203 90.500 C 355.101 90.391,355.002 90.041,353.030 89.889 L 351.667 89.784 351.667 87.967 L 351.667 86.149 353.058 86.262 C 355.213 86.437,355.258 85.954,353.112 85.671 L 351.583 85.469 351.635 83.546 L 351.688 81.623 353.111 81.738 C 354.826 81.877,355.007 81.550,353.403 81.208 C 351.427 80.787,351.648 81.082,351.678 78.903 C 351.693 77.846,351.673 76.951,351.635 76.913 C 351.569 76.847,346.931 75.488,346.583 75.434 C 346.492 75.419,346.304 75.339,346.167 75.255 C 345.960 75.129,345.952 75.147,346.120 75.354 M390.039 91.167 C 390.039 91.487,390.073 91.619,390.115 91.458 C 390.157 91.298,390.157 91.035,390.115 90.875 C 390.073 90.715,390.039 90.846,390.039 91.167 M390.061 93.417 C 390.061 94.333,390.089 94.687,390.123 94.203 C 390.157 93.718,390.156 92.968,390.122 92.536 C 390.088 92.104,390.060 92.500,390.061 93.417 M387.208 95.456 C 387.644 95.490,388.356 95.490,388.792 95.456 C 389.227 95.422,388.871 95.393,388.000 95.393 C 387.129 95.393,386.773 95.422,387.208 95.456 M17.125 95.621 C 17.423 95.658,17.910 95.658,18.208 95.621 C 18.506 95.584,18.262 95.553,17.667 95.553 C 17.071 95.553,16.827 95.584,17.125 95.621 M19.963 95.789 C 20.355 95.824,20.955 95.824,21.296 95.788 C 21.637 95.752,21.317 95.723,20.583 95.724 C 19.850 95.724,19.571 95.754,19.963 95.789 M16.625 98.951 C 16.831 98.991,17.169 98.991,17.375 98.951 C 17.581 98.911,17.412 98.879,17.000 98.879 C 16.587 98.879,16.419 98.911,16.625 98.951 M18.542 99.119 C 18.794 99.158,19.206 99.158,19.458 99.119 C 19.710 99.081,19.504 99.050,19.000 99.050 C 18.496 99.050,18.290 99.081,18.542 99.119 M195.877 152.286 C 196.131 152.325,196.506 152.324,196.711 152.284 C 196.916 152.244,196.708 152.213,196.250 152.214 C 195.792 152.216,195.624 152.248,195.877 152.286 M204.792 152.284 C 204.998 152.324,205.335 152.324,205.542 152.284 C 205.748 152.245,205.579 152.212,205.167 152.212 C 204.754 152.212,204.585 152.245,204.792 152.284 " stroke="none" fill="#dc7d72" fill-rule="evenodd"></path></g></svg>