<svg xmlns="http://www.w3.org/2000/svg" width="400" height="320" fill-rule="evenodd" xmlns:v="https://vecta.io/nano"><path d="M176.156 62.677c-1.675.679-1.811 1.25-2.004 8.404l-.183 6.811-3.483 1.703-6.563 2.898c-.222 0-.403.165-.403.367s-.162.366-.361.366-1.971.757-3.941 1.682l-5.781 2.712-5.499 2.576-6.05 2.835-6.783 3.223-5.963 2.564c-1.062.346-2.02.774-2.13.951s-.46.323-.779.323c-.54 0-6.211 2.499-7.443 3.28-.302.191-1.21.703-2.016 1.138s-2.597 1.557-3.978 2.494l-3.09 2.07c-1.295.819-6.391 5.365-7.574 6.757l-1.892 2.2c-2.884 3.328-6.415 10.258-7.018 13.775-.104.605-.325 1.272-.492 1.484-.725.916-2.507 14.357-2.501 18.864.006 3.94 1.806 19.657 2.354 20.543.118.192-.183.722-.669 1.177-4.944 4.628-9.628 10.071-10.653 12.377-.134.303-.742 1.375-1.35 2.383s-1.269 2.246-1.469 2.75a41.24 41.24 0 0 1-1.676 3.723c-.278.535-.506 1.218-.506 1.516s-.246 1.016-.547 1.594-.549 1.411-.55 1.853-.168.905-.369 1.03-.365.588-.364 1.03-.24 1.875-.537 3.186c-2.383 10.518-2.094 12.841 2.405 19.309.584.839 1.062 1.634 1.062 1.766s.372.764.826 1.406 1.021 1.497 1.26 1.901a411.66 411.66 0 0 0 2.864 4.582l2.864 4.582a51.93 51.93 0 0 0 1.169 1.825c.403.602.898 1.372 1.1 1.712.461.778 6.013 9.576 6.87 10.887.351.537.751 1.224.89 1.526s.363.633.499.733.643.867 1.127 1.703 1.787 2.944 2.896 4.685l2.424 3.902c1.399 2.531 5.303 3.617 6.835 1.901.721-.807 3.167-5.497 4.255-8.158 1.799-4.4 2.244-5.664 2.593-7.361.149-.721.388-1.502.532-1.736.275-.444.811-3.114 1.375-6.851.183-1.21.453-4.534.6-7.386.277-5.36.235-5.217 2.101-7.3.787-.878 2.952-3.601 4.298-5.405 1.301-1.744 2.368-2.708 2.657-2.399.065.069 1.15 1.527 2.413 3.241s2.397 3.199 2.522 3.3c4.057 3.27 6.644 13.622 5.132 20.532-.199.907-.5 2.745-.67 4.083s-.427 2.625-.571 2.857-.404 1.612-.579 3.066-.573 4.045-.884 5.759c-.557 3.063-1.002 5.833-1.604 9.976-.51 3.505.629 4.544 5.984 5.454 1.756.298 3.819.695 10.266 1.975l9.075 1.81 5.5 1.088 5.59 1.144 4.766.945 4.767.888c13.916 2.713 43.774 2.372 49.032-.56.35-.195 1.094-.355 1.653-.355s1.592-.175 2.296-.388 2.188-.543 3.297-.733l4.95-.906 5.133-.92c1.21-.196 2.447-.463 2.75-.593s1.375-.361 2.383-.514 3.153-.551 4.766-.886 3.996-.774 5.295-.976 2.649-.52 3.001-.708 1.175-.342 1.83-.342c5.383 0 7.737-2.948 6.23-7.8-.202-.651-.546-2.338-.764-3.749l-.584-3.667-.737-4.399-1.772-10.131c-1.54-8.36-.196-15.491 3.906-20.723l3.356-4.399 2.436-3.186c.329-.373 1.818.362 1.818.898 0 .209.206.586.458.838.493.494 2.146 2.487 4.767 5.747l1.641 2.042.205 4.008c.271 5.296.982 11.253 1.396 11.688.183.192.332.755.332 1.251 0 .839.824 4.046 1.473 5.734.156.403.56 1.558.9 2.566.91 2.703 2.797 7.148 3.658 8.616.413.706 1.049 1.861 1.412 2.567 2.222 4.316 6.273 5.318 8.107 2.004.219-.396.481-.804.582-.904s.564-.926 1.029-1.834 1.159-2.144 1.545-2.749 1.042-1.76 1.459-2.567a40.52 40.52 0 0 1 1.459-2.566c.385-.605.926-1.513 1.202-2.017l1.739-3.116 1.739-3.117c.277-.504.993-1.741 1.592-2.749s1.26-2.243 1.468-2.743.493-.995.631-1.1.567-.768.95-1.474l1.791-3.293c.601-1.105 1.483-2.628 1.96-3.384s.868-1.457.868-1.558c0-.158 2.26-4.056 3.303-5.697.193-.302.688-1.21 1.102-2.016a53.3 53.3 0 0 1 1.412-2.567c3.091-5.142 3.076-5.094 2.858-9.307-.245-4.731-1.573-12.349-2.432-13.955a3.65 3.65 0 0 1-.377-1.449c0-.41-.27-1.369-.601-2.132l-.887-2.121c-2.551-6.527-8.049-14.857-12.072-18.288-3.806-3.246-4.104-4.047-2.882-7.743.2-.605.511-2.42.69-4.033l.747-6.233c.465-3.654.266-12.062-.383-16.132-.849-5.324-2.28-11.471-2.965-12.735-.19-.351-.346-.822-.346-1.048 0-.678-3.369-7.298-3.714-7.298-.175 0-.319-.188-.319-.418 0-.398-2.868-4.026-5.032-6.365-1.787-1.933-8.926-7.516-9.609-7.516-.215 0-.391-.136-.391-.302s-.701-.669-1.558-1.119-2.136-1.163-2.841-1.586c-1.89-1.131-5.405-2.859-5.816-2.859-.197 0-.825-.238-1.396-.528-1.109-.564-2.811-1.271-4.887-2.033-.706-.258-3.098-1.335-5.317-2.393l-12.832-6.036-9.349-4.325-12.569-5.985c-.762-.384-1.561-.699-1.776-.699s-.854-.33-1.42-.733l-1.03-.733-.127-6.773c-.176-9.436-1.671-10.609-8.864-6.954-.571.291-1.2.528-1.397.528s-1.299.421-2.446.936c-5.357 2.404-5.731 2.547-8.731 3.336-3.141.827-11.203.933-13.702.181-2.84-.854-4.909-1.563-6.05-2.073l-2.383-1.038-6.838-3.019c-1.263-.572-3.187-.648-4.357-.174m7.981 11.109c.472.453 1.425 1.567 2.118 2.474s1.355 1.733 1.47 1.833c.447.391 3.594 4.66 4.501 6.106.989 1.576 1.441 2.816 6.73 18.454 3.263 9.648 3.642 11.587 2.51 12.838-.907 1.002-2.788 1.288-4.081.619-1.798-.93-7-9.007-10.789-16.752-4.171-8.525-5.52-13.536-5.551-20.62-.026-5.815.808-7.151 3.092-4.952m39.139-.462c1.279.685 1.274 9.168-.009 13.385-1.707 5.613-2.357 7.565-2.989 8.983-4.044 9.062-10.824 19.832-12.921 20.524-4.458 1.471-5.56-1.915-2.86-8.792.198-.504.642-1.824.987-2.933s.772-2.346.949-2.749 1.327-3.786 2.558-7.517c2.638-7.999 3.407-9.697 5.751-12.701l3.897-5.041c2.672-3.481 3.271-3.89 4.637-3.159m-47.368 12.801c1.694.869 2.302 1.916 3.533 6.084.536 1.815 1.129 3.63 1.316 4.033s.663 1.558 1.056 2.566 1.311 3.048 2.041 4.532c2.353 4.786-.173 8.092-5.39 7.055-1.841-.366-6.208-1.135-10.545-1.856l-11.365-2.015-5.5-.945c-6.622-1.07-8.162-1.558-8.899-2.82-1.396-2.39.018-3.418 12.95-9.418l8.228-3.887 6.786-3.222c2.076-.968 4.042-1.004 5.789-.107m60.685.903l5.57 2.615 6.975 3.305 7.923 3.801c1.732.83 3.28 1.509 3.44 1.509 1.101 0 2.744 1.953 2.744 3.262 0 2.307-.108 2.353-9.349 4.059l-11.366 2.022-5.316.929-4.217.744c-9.08 1.601-9.895 1.603-11.573.039-1.483-1.381-1.37-3.515.379-7.18 1.708-3.578 3.496-8.333 4.071-10.824 1.348-5.838 4.659-7.16 10.719-4.281m-97.597 19.649c2.498.396 5.449.984 6.559 1.308l2.749.785c6.954 1.864 9.495 3.797 5.659 4.306-1.03.136-2.147.386-2.483.554s-1.434.68-2.442 1.137c-5.223 2.366-11.284 7.689-15.227 13.372-.7 1.009-1.363 1.916-1.474 2.017-1.161 1.055-4.955 8.649-6.24 12.489-2.831 8.459-9.2 16.114-21.942 26.374-5.284 4.255-4.784 4.953-6.706-9.349-2.656-19.762 2.284-36.666 13.237-45.293 2.159-1.7 7.373-4.636 10.487-5.905l1.833-.744c4.137-1.675 9.728-2.042 15.99-1.051m138.232-.149c4.665.868 14.144 4.941 15.714 6.752.101.116 1.32 1.106 2.709 2.199 11.113 8.748 15.032 27.86 10.828 52.807-.734 4.355-.883 4.451-3.576 2.298-14.699-11.75-21.004-19.079-23.859-27.733-1.115-3.381-4.317-10.083-5.377-11.258-.288-.318-.523-.707-.523-.863 0-.699-4.978-6.557-8.14-9.579-4.776-4.566-10.693-7.889-14.775-8.3-1.987-.2-1.469-1.113 1.283-2.26 8.581-3.578 19.256-5.265 25.716-4.063m-107.292 6.565c11.501 2.096 27.929 10.638 29.13 15.146.896 3.366.346 29.335-.66 31.153-1.597 2.887-3.895 4.302-9.038 5.566-3.197.786-14.749 4.411-26.032 8.169-8.661 2.885-13.492 1.948-18.632-3.616-4.018-4.35-4.437-4.76-6.272-6.148-2.631-1.989-6.237-3.69-9.376-4.42-6.6-1.536-6.865-2.447-2.491-8.561 2.504-3.5 5.481-9.239 6.5-12.527 4.112-13.278 24.554-27.007 36.871-24.762m75.634.774c11.476 3.843 23.543 14.961 26.684 24.586 1.238 3.79 2.978 7.105 6.388 12.165 1.614 2.396 2.935 4.607 2.935 4.913 0 1.072-1.468 2.457-2.858 2.697-7.091 1.224-11.222 3.769-18.393 11.335-4.439 4.683-9.889 6.328-15.277 4.612l-24.078-7.772c-1.169-.387-3.778-1.104-5.798-1.593-8.937-2.164-9.486-3.426-9.486-21.822 0-17.159.069-17.371 6.779-20.912l4.216-2.224c12.092-6.374 21.752-8.375 28.888-5.985m-125.619 49.238c2.3.991 3.496 2.361 3.99 4.57.656 2.932.267 17.401-.543 20.226l-1.182 4.216c-.304 1.109-.691 2.429-.863 2.933s-.749 2.319-1.284 4.033-1.188 3.612-1.45 4.217l-1.85 4.399c-6.395 15.364-16.292 28.048-21.885 28.048-4.028 0-4.745-1.39-5.769-11.182-.19-1.815-.55-4.538-.801-6.05-1.257-7.584-.616-13.98 1.987-19.841.482-1.085 1.084-2.551 1.338-3.257a50.18 50.18 0 0 1 .77-2.016l2.166-5.133.921-2.2.935-2.2a194.82 194.82 0 0 0 1.485-3.666l1.706-4.232c.442-1.056 1.614-2.014 6.28-5.133l6.288-4.278c1.692-1.362 5.642-4.139 5.887-4.139.157 0 1.001.308 1.874.685m169.142.622c1.5 1.324 5.778 4.326 10.999 7.718 4.538 2.95 4.786 3.208 6.034 6.281l1.452 3.576.694 1.649 1.169 2.75 1.088 2.567c.173.403.833 2.053 1.466 3.666l1.473 3.666.898 2.109 1.124 2.621c.303.686.55 1.431.55 1.655s.165.695.366 1.045c.439.765 1.505 7.428 1.254 7.835-.098.158-.263 1.16-.368 2.227-2.088 21.22-2.514 22.603-6.97 22.642-5.393.047-16.19-13.437-21.737-27.147l-.973-2.354c-1.475-3.488-3.85-10.791-5.544-17.049-1.014-3.747-1.041-4.092-1.041-13.015 0-10.838.091-11.133 4.033-13.028 1.991-.957 2.34-.906 4.033.586m-91.808 5.493c2.41 1.247 2.529 1.842 2.53 12.669.002 12.708.335 12.147-8.248 13.9-5.859 1.197-10.794 2.563-13.932 3.858l-4.844 1.996-3.745 1.543-1.044-.744c-8.941-6.366-13.077-23.157-5.705-23.157.654 0 1.567-.152 2.03-.339s4.06-1.366 7.992-2.621l15.215-4.955c9.306-3.084 8.351-2.873 9.751-2.15m12.588-.197l16.525 5.32 10.901 3.528c2.366.778 4.704 1.414 5.195 1.414 6.745 0 4.844 12.692-3.128 20.876-2.811 2.886-3.543 3.145-5.896 2.09-1.067-.478-2.682-1.161-3.589-1.518l-2.75-1.119c-2.488-1.061-7.661-2.481-13.932-3.825-8.496-1.821-7.883-.746-7.883-13.828 0-11.206.034-11.426 1.948-12.593 1.372-.837 1.189-.812 2.609-.345M91.812 186.107c.976.374.664 1.649-1.382 5.653-1.857 3.633-3.674 8.557-4.664 12.64-.282 1.161-.491 5.932-.571 13.015l-.13 11.445c-.009.462-1.4 1.026-1.98.803-.935-.359-4.237-6.455-5.18-9.561-1.986-6.548 1.713-21.377 7.169-28.737 3.143-4.24 5.203-5.847 6.738-5.258m223.882.701c8.484 6.205 14.528 26.113 10.74 35.373-4.75 11.61-6.598 10.356-6.619-4.491-.016-11.709-.221-13.612-2.01-18.607l-.942-2.743c-.121-.399-1.098-2.447-2.171-4.55-2.825-5.534-2.431-7.493 1.002-4.982m-190.662 10.283c.696 1.831.283 8.299-.678 10.608-1.39 3.341-4.19 8.541-5.725 10.631-4.987 6.791-7.939 6.888-4.703.156 4.179-8.697 6.263-13.562 8.23-19.219 1.156-3.328 2.152-4.081 2.876-2.176m156.438-.648c.244.155 1.258 2.421 2.253 5.036 2.376 6.239 2.951 7.563 6.898 15.875 2.57 5.41 2.534 5.294 1.795 5.908-1.525 1.265-6.134-4.158-9.562-11.25l-2.422-4.962c-.593-1.14-.868-9.691-.333-10.336.525-.634.735-.675 1.371-.271m-83.088 3.11c1.338 1.028 1.435 1.869 1.435 12.54 0 14.486 1.03 13.393-12.612 13.379-12.571-.012-12.698-.05-15.382-4.563-3.879-6.523-2.942-10.191 3.741-14.65 1.079-.72 2.031-1.309 2.115-1.309s.77-.38 1.522-.844c5.679-3.504 17.036-6.2 19.181-4.553m16.025.112c1.352.319 2.788.709 3.192.865l3.849 1.495c11.323 4.401 16.213 10.705 12.959 16.71l-1.492 2.802c-1.921 3.722-3.13 4.023-15.582 3.879-13.255-.154-11.802 1.368-11.942-12.502-.059-5.893-.016-11.081.096-11.529.585-2.332 3.75-2.942 8.92-1.72m-64.086 14.866c.389.494 6.098 6.722 6.984 7.62 5.215 5.283 6.958 10.667 6.936 21.435-.016 8.432-.581 8.875-5.784 4.536l-3.37-2.854c-.101-.108-.638-.546-1.194-.972-2.912-2.234-5.918-7.336-6.533-11.087-.397-2.428-.447-18.36-.058-18.959.58-.897 2.21-.745 3.019.281m107.411-.073c.229.427.38 3.905.38 8.738 0 13.787-.977 16.058-10.232 23.785-6.709 5.601-7 5.434-7-4.041 0-10.676 1.205-14.284 6.929-20.738 7.415-8.362 8.951-9.56 9.923-7.744m-59.682 15.606c1.74 1.298 1.767 1.56 1.767 17.268 0 19.612.894 18.113-10.802 18.113-8.542 0-9.929-.335-11.857-2.862l-.989-1.297-.105-13.492c-.147-19.021-.405-18.668 13.487-18.535 6.88.066 7.599.134 8.499.805m27.554-.033c.773.383 1.804 1.327 2.291 2.099l.886 1.403-.002 13.847c-.003 15.142.046 14.774-2.206 16.512-1.736 1.341-3.196 1.553-10.697 1.553-11.474 0-10.615 1.529-10.48-18.665.115-17.083.019-16.456 2.64-17.254 2.224-.677 15.979-.281 17.568.505m-72.313 18.272l4.041 3.575 2.248 2.118c3.568 3.33 4.371 5.595 4.584 12.915.291 10.006-1.078 10.324-9.132 2.12-7.406-7.544-7.742-8.218-7.949-15.942-.227-8.446.932-9.339 6.208-4.786m103.939-1.886c.584.644.719 1.468.824 5.022.242 8.259-.539 9.984-7.969 17.607-7.784 7.987-9.205 7.811-9.205-1.139 0-9.105.671-10.432 9.061-17.918 5.14-4.586 5.992-5.004 7.289-3.572" fill="#454e6b"/><path d="M163.066 112.936c-11.148 1.877-26.923 14.979-30.001 24.919-1.019 3.288-3.996 9.027-6.5 12.527-4.374 6.114-4.109 7.025 2.491 8.561 3.139.73 6.745 2.431 9.376 4.42 1.835 1.388 2.254 1.798 6.272 6.148 5.14 5.564 9.971 6.501 18.632 3.616 11.283-3.758 22.835-7.383 26.032-8.169 9.599-2.36 9.866-2.924 10.007-21.137.146-18.984.531-18.083-10.013-23.407-12.488-6.304-20.216-8.502-26.296-7.478m73.048-.001c-4.79.624-13.119 3.589-19.432 6.917-11.643 6.137-10.995 4.774-10.995 23.136 0 18.396.549 19.658 9.486 21.822 2.02.489 4.629 1.206 5.798 1.593l24.078 7.772c5.388 1.716 10.838.071 15.277-4.612 7.171-7.566 11.302-10.111 18.393-11.335 1.39-.24 2.858-1.625 2.858-2.697 0-.306-1.321-2.517-2.935-4.913-3.41-5.06-5.15-8.375-6.388-12.165-4.435-13.587-23.639-27.147-36.14-25.518" fill="#f8064d"/><path d="M176.653 61.742c-2.927 1.045-3.233 1.904-3.24 9.086-.006 7.075.349 6.358-4.21 8.512l-6.258 2.977-9.874 4.575-5.867 2.758-18.482 8.486c-12.659 4.228-26.004 14.001-31.707 23.221-2.571 4.155-3.846 7.332-5.74 14.298-2.281 8.394-2.161 23.535.284 35.732l.291 1.452-3.356 3.315c-9.819 9.699-15.404 22.27-16.623 37.412-.408 5.068-.407 5.071 3.1 10.415 1.112 1.696 2.023 3.136 2.023 3.201s.617 1.07 1.371 2.233l1.741 2.748c.204.348 1.919 3.07 3.812 6.05l12.805 20.372c6.033 10.152 8.284 12.193 11.55 10.47 2.095-1.105 5.04-6.574 7.472-13.876 2.323-6.975 3.098-11.099 3.306-17.599l.182-5.683 2.028-2.712c3.134-4.192 5.816-7.302 6.039-7.002l2.303 3.115c1.192 1.613 2.553 3.345 3.023 3.85 1.373 1.471 3.603 6.56 4.123 9.412.449 2.461.41 4.913-.17 10.569l-.187 1.833.525-2.199c1.808-7.581-.082-15.215-5.317-21.47-1.255-1.501-2.698-3.354-3.205-4.119-1.265-1.905-1.413-1.813-5.765 3.59l-3.84 4.767-.001 4.216c-.005 12.26-6.802 32.25-11.256 33.101-3.165.605-3.984-.105-8.567-7.434l-4.007-6.395-3.967-6.31-17.038-27.077c-1.839-2.919-1.848-2.948-1.778-5.776.287-11.702 5.1-25.646 11.784-34.143 1.593-2.026 4.025-4.687 6.072-6.644l2.3-2.2-.643-3.3c-6.871-35.217 5.09-58.822 35.7-70.452 4.088-1.553 5.921-2.355 10.833-4.74l5.316-2.529c.807-.363 3.034-1.406 4.95-2.317l6.782-3.183 6.783-3.14c1.916-.887 5.298-2.524 7.516-3.638l4.033-2.026.184-6.684.183-6.684 1.016-1.016c1.493-1.491 4.3-1.41 7.783.224 7.434 3.486 11.254 4.979 12.031 4.699.239-.086-.308-.353-1.215-.593s-2.521-.84-3.585-1.333-2.001-.896-2.081-.896-1.436-.596-3.013-1.324c-6.099-2.817-6.335-2.88-8.252-2.195m48.278.066a45.76 45.76 0 0 0-2.975 1.24c-3.188 1.487-8.851 3.77-10.957 4.416-4.765 1.461-7.901 1.667-14.115.928-1.486-.177-1.541-.158-.55.187 5.415 1.885 12.612.61 23.464-4.157 6.218-2.731 8.589-3.02 10.349-1.262l1.017 1.016.097 6.134c.118 7.462.139 7.568 1.64 8.172.658.265 3.556 1.605 6.44 2.979l5.373 2.499c.071 0 2.53 1.155 5.464 2.566l5.495 2.567c.088 0 2.364 1.052 5.057 2.339 11.414 5.452 13.097 6.223 15.714 7.201 17.633 6.592 30.364 17.546 34.929 30.056 4.009 10.984 4.81 28.538 1.897 41.582l-.566 2.536 3.295 3.331c6.542 6.613 9.504 11.21 13.248 20.562.356.89 1.241 3.81 1.829 6.034.238.899.73 3.374 1.095 5.5.416 2.429.676 3.334.699 2.435.126-5.034-4.038-17.84-7.762-23.866-2.151-3.481-5.414-7.554-8.438-10.532-1.991-1.96-3.529-3.71-3.419-3.889 2.451-3.965 2.934-24.574.835-35.627-3.103-16.341-15.973-30.274-34.526-37.381-.403-.154-1.358-.551-2.121-.881s-1.547-.601-1.742-.601-2.045-.804-4.112-1.786l-5.59-2.609c-1.009-.452-3.814-1.773-6.233-2.935l-6.416-3.042-5.5-2.563-5.316-2.46c-4.433-1.993-10.289-4.936-10.535-5.295-.149-.215-.272-3.081-.275-6.368-.008-8.384-1.849-10.832-6.789-9.026m-43.224 12.466c-.122.319-.222 2.285-.222 4.37 0 8.891 4.867 21.369 12.863 32.981 2.962 4.302 4.609 5.198 6.512 3.547 1.19-1.032.072-6.512-2.516-12.331-.179-.403-1.418-4.033-2.752-8.066-2.581-7.8-3.98-11.024-5.593-12.884-.549-.634-2.235-2.731-3.748-4.66-2.754-3.514-4.015-4.335-4.544-2.957m37.175 2.939l-3.765 4.668c-1.388 1.59-3.299 5.579-4.509 9.411-1.213 3.844-1.704 5.32-2.014 6.05-.959 2.263-5.196 15.539-5.199 16.293-.005 1.177 1.334 2.222 2.846 2.222 1.189 0 1.376-.153 3.599-2.933 2.379-2.976 8.502-14.058 10.128-18.332.422-1.109.914-2.346 1.093-2.75s.428-1.145.552-1.65l.941-3.666c.84-3.229 1.301-8.704.938-11.126-.41-2.737-1.324-2.377-4.61 1.813m-48.213 9.465c-.605.298-2.533 1.205-4.284 2.014l-8.493 4.052c-2.92 1.42-5.402 2.581-5.516 2.581-1.149 0-9.489 4.619-9.796 5.424-.886 2.331-.059 2.672 11.224 4.629l5.316.961c.907.179 3.217.586 5.133.906l11.366 2.013c7.407 1.87 10.183-.483 7.36-6.238-1.791-3.652-3.307-7.688-4.643-12.366-1.112-3.89-4.394-5.592-7.667-3.976m58.615.064c-1.292.637-2.007 1.9-2.887 5.1-.333 1.21-.74 2.53-.905 2.933s-.591 1.559-.947 2.567-1.28 3.153-2.052 4.766c-1.818 3.795-1.891 5.581-.283 6.934 1.48 1.245.961 1.264 10.237-.373l5.133-.884 5.133-.9 11.732-2.026a87.18 87.18 0 0 0 4.033-.718l2.779-.574c1.614-.334 1.746-4.209.143-4.209-.198 0-2.874-1.213-5.948-2.696l-19.948-9.446c-2.522-1.18-4.486-1.329-6.22-.474m-102.245 20.53c-3.047.733-4.15 1.054-4.949 1.44-9.846 4.764-12.581 6.676-16.52 11.545-7.392 9.137-9.516 23.298-6.736 44.913.869 6.759.843 6.702 2.446 5.352.456-.383 2.313-1.875 4.128-3.314 10.126-8.033 17.547-16.941 19.625-23.556.97-3.089 2.627-6.758 4.888-10.821 2.872-5.161 9.692-12.837 14.167-15.944 3.231-2.244 7.731-4.33 9.34-4.33 3.16 0-.379-1.776-7.507-3.767l-3.483-.995c-1.464-.431-14.01-.857-15.399-.523m138.772.02c-11.413 2.171-17.805 4.728-13.527 5.412.803.129 1.742.373 2.086.543l2.796 1.368c7.291 3.557 15.686 12.928 20.327 22.69 1.664 3.5 1.754 3.726 2.491 6.233 1.392 4.739 4.556 9.323 10.758 15.584 3.823 3.859 5.467 5.307 11.819 10.408 2.985 2.397 2.694 2.662 3.566-3.261 3.915-26.592-.607-44.095-13.551-52.456-.908-.586-1.733-1.152-1.834-1.257-.416-.434-7.348-3.712-9.368-4.43-2.148-.763-12.904-1.34-15.563-.834m-148.102 56.156c-.292.1-2.025 1.282-3.85 2.627s-5.518 3.908-8.206 5.696c-5.337 3.549-4.989 3.116-7.376 9.164l-1.48 3.666c-.5 1.139-1.2 2.813-3.982 9.533-4.903 11.845-5.199 13.995-3.601 26.214l.974 8.066c1.003 9.151 5.892 9.188 13.637.102 1.509-1.77 3.056-3.713 3.438-4.318s.8-1.182.928-1.283 1.136-1.751 2.239-3.667c2.613-4.54 4.057-7.626 7.636-16.315.166-.403.787-2.218 1.38-4.033.952-2.915 1.48-4.659 2.665-8.799 2.51-8.766 2.076-23.458-.754-25.541-1.101-.811-2.914-1.363-3.648-1.112m166.945.43c-.425.172-1.296.945-1.935 1.719l-1.162 1.406.111 9.349c.119 10.011-.012 9.07 2.477 17.782 1.308 4.581 5.307 15.389 6.593 17.82l1.969 3.733c4.375 8.295 8.238 13.322 13.518 17.592 4.39 3.551 7.933 2.13 8.477-3.398a133.21 133.21 0 0 1 .604-4.95c1.949-13.515 1.899-18.582-.235-23.831l-2.681-6.508-2.05-5.041-2.025-4.95a49.26 49.26 0 0 1-.685-1.65l-1.788-4.399-1.428-3.483-3.444-2.29-3.995-2.651c-.302-.198-2.516-1.766-4.919-3.484-4.466-3.193-5.442-3.558-7.402-2.766m-92.353 6.622l-9.716 3.163-7.572 2.559c-.635.273-1.332.497-1.548.497s-2.382.66-4.812 1.466-4.834 1.467-5.341 1.467c-5.23 0-5.952 6.138-1.625 13.806 4.686 8.303 6.54 9.561 11.065 7.506a83.66 83.66 0 0 1 12.583-4.422c1.396-.36 2.347-.579 9.165-2.101 4.696-1.049 4.4-.202 4.4-12.6 0-13.391-.072-13.516-6.599-11.341m15.582-.854c-1.851.681-1.834.567-1.822 12.171.014 13.06-.88 11.589 8.238 13.55 3.921.844 8.307 1.923 9.084 2.236.448.181 2.052.774 3.565 1.318 2.848 1.026 4.348 1.637 6.684 2.726 2.971 1.384 6.636-1.897 10.209-9.142 3.603-7.307 3.381-11.172-.708-12.323-4.872-1.371-5.957-1.697-10.136-3.042l-10.999-3.532-9.813-3.169c-3.373-1.106-3.426-1.115-4.302-.793M88.324 188.543c-6.097 5.819-9.908 16.05-10.005 26.856l-.042 4.766 1.783 3.483 2.2 4.301c.507.997 1.318 1.36 1.851.828.264-.265.357-2.907.282-7.987-.153-10.317.658-18.584 2.085-21.251.228-.426.417-1.074.421-1.44s1.125-2.909 2.493-5.651 2.424-5.176 2.347-5.408c-.292-.875-1.464-.36-3.415 1.503m224.783-1.546c0 .208.818 1.982 1.817 3.941 4.948 9.701 6.336 17.529 5.665 31.941-.377 8.089.699 8.401 4.252 1.231 2.676-5.4 2.638-12.598-.113-21.727-1.662-5.514-4.337-10.207-7.814-13.712-1.903-1.918-3.807-2.756-3.807-1.674m-189.491 10.364c-.232.28-.527 1.033-.655 1.673s-.376 1.253-.552 1.362-.319.451-.319.762-.228 1.084-.507 1.72-1.123 2.64-1.876 4.455c-1.359 3.276-3.176 7.222-5.547 12.047-1.987 4.044-1.554 4.631 1.288 1.745 2.683-2.726 5.55-7.25 7.463-11.776l1.015-2.383c1.129-2.627.858-11.012-.31-9.605m156.827-.008c-.176 2.36.201 7.986.616 9.194.507 1.473.692 1.916 1.944 4.635 2.291 4.978 7.959 12.348 8.841 11.496.334-.322-.033-1.392-1.572-4.583-2.428-5.034-3.571-7.546-4.646-10.212-.447-1.109-.982-2.334-1.19-2.721-.445-.831-2.034-5.032-2.528-6.684-.346-1.156-1.402-1.967-1.465-1.125m-88.876 2.814c-3.798.832-7.07 1.968-10.265 3.564-11.155 5.57-13.333 9.628-8.984 16.734 2.722 4.449 2.145 4.283 14.868 4.283h10.378l.76-.966c.729-.927.759-1.396.759-11.683 0-13.891.174-13.616-7.516-11.932m15.449.043l-.967.76v11.297 11.297l.904.592c1.514.991 21.177.874 22.834-.136 4.167-2.54 6.222-10.493 3.562-13.78-4.74-5.857-22.863-12.76-26.333-10.03m125.925 15.189c-.05 3.398-.076 3.478-2.516 7.699l-6.976 12.282c-.499.908-1.028 1.815-1.176 2.017s-.813 1.356-1.478 2.566l-1.858 3.3c-.356.605-1.178 2.09-1.826 3.3s-1.814 3.248-2.591 4.529-1.413 2.4-1.413 2.486-1.665 3.054-3.701 6.593l-4.492 7.916c-2.281 4.274-6.172 4.64-8.719.82-5.733-8.594-10.219-24.035-10.219-35.175v-2.586l-3.688-4.574c-2.029-2.516-3.908-4.574-4.175-4.574-1.209 0-8.241 10.011-9.346 13.306-.814 2.427-1.436 6.393-.788 5.026.191-.403.359-1.083.373-1.51.096-2.896 2.315-7.375 5.758-11.624 1.278-1.578 2.609-3.351 2.958-3.942.823-1.394.876-1.38 2.508.669.764.958 1.567 1.907 1.786 2.108s1.238 1.469 2.266 2.816l1.868 2.45.25 5.295c.521 11.032 4.114 22.799 9.871 32.333 2.668 4.418 7.433 3.878 9.967-1.129.399-.789 1.348-2.469 2.108-3.733s1.382-2.374 1.382-2.468.66-1.249 1.467-2.567 1.466-2.479 1.466-2.58.388-.799.861-1.552 1.441-2.44 2.151-3.75c2.02-3.734 3.266-5.935 4.196-7.417.472-.753.858-1.451.858-1.552s.66-1.262 1.467-2.58 1.466-2.473 1.466-2.567.66-1.248 1.467-2.566 1.467-2.473 1.467-2.567.659-1.248 1.466-2.566 1.467-2.473 1.467-2.567.622-1.204 1.383-2.468c3.26-5.416 3.766-7.205 3.037-10.73-.253-1.225-.311-.924-.352 1.833m-184.942-1.039c-.541.541-.257 18.57.32 20.287 1.478 4.402 3.897 7.612 8.601 11.417l3.477 2.841c3.127 2.581 3.294 2.155 3.005-7.641-.328-11.1-1.103-12.933-9.073-21.466l-3.664-3.941c-1.553-1.681-2.148-2.015-2.666-1.497m104.721 3.316c-10.32 11.13-10.726 12-11.006 23.61-.237 9.817-.071 10.227 3.063 7.568 1.011-.857 2.568-2.135 3.461-2.841 4.367-3.452 6.678-6.458 8.455-10.999.791-2.022.727-20.661-.072-20.815-.339-.066-1.935 1.357-3.901 3.477m-71.052 12.375c-.201.073-.792.225-1.312.339-3.59.784-4.066 2.925-3.931 17.66.157 17.175-.363 16.478 12.29 16.478 8.37 0 8.528-.014 9.349-.835l.836-.835.103-15.355.103-15.355-.895-1.042-.896-1.042-7.64-.073c-4.202-.04-7.805-.013-8.007.06m26.403.084c-2.044.56-2.023.374-2.009 17.125.015 19.334-1.045 17.226 8.736 17.385 9.394.152 9.979.056 12.004-1.969l1.612-1.612v-13.41c0-14.889.032-14.672-2.445-16.563l-1.346-1.027-7.912-.064c-4.351-.036-8.239.025-8.64.135m59.307 12.578c0 .908.071 1.279.158.825a5.19 5.19 0 0 0 0-1.65c-.087-.454-.158-.082-.158.825m.299 2.383c-.019.694.336 2.93 1.641 10.357l1.071 6.325 1.26 7.333c1.66 9.28 1.634 9.311-9.504 11.363l-7.516 1.463c-.807.193-4.189.859-7.516 1.481l-14.116 2.735c-1.21.274-3.767.781-5.683 1.126-5.387.97-6.262 1.182-5.054 1.227.547.02 3.93-.561 7.516-1.291l7.438-1.489c.504-.088 2.071-.386 3.483-.662l5.866-1.091c1.815-.324 3.959-.742 4.766-.928s4.189-.845 7.516-1.464l7.375-1.482c.73-.196 1.673-.356 2.096-.356 3.519 0 5.14-2.942 4.289-7.783l-1.845-10.732c-.244-1.637-.973-5.787-1.821-10.365-.309-1.667-.573-3.482-.587-4.033s-.168-1.33-.341-1.734l-.315-.733-.019.733m-119.281 1.679c-.925.539-.946 10.304-.028 12.791 1.031 2.79 11.65 14.678 13.112 14.678 1.662 0 1.857-.764 1.845-7.226-.016-8.644-.426-9.436-8.6-16.621l-3.827-3.376c-.805-.722-1.558-.796-2.502-.246m103.031 2.604c-9.303 8.213-9.524 8.604-9.743 17.273-.199 7.866.586 9.252 3.596 6.347 3.327-3.211 9.899-10.064 9.899-10.323 0-.16.219-.551.487-.869 1.768-2.102 2.575-14.207 1.003-15.048-1.273-.682-1.802-.418-5.242 2.62m-115.558 2.775c-.116.555-.375 2.081-.577 3.391l-2.168 12.833c-1.409 7.81-.767 10.525 2.642 11.171.645.123 1.833.374 2.639.56s4.189.85 7.516 1.477l8.433 1.646c1.311.279 4.693.936 7.516 1.461l6.599 1.302c3.432.816 12.697 2.545 13.464 2.513.459-.019-1.475-.505-4.298-1.079l-6.966-1.442c-1.008-.219-6.453-1.295-12.099-2.391l-12.832-2.532a261.86 261.86 0 0 0-5.866-1.138c-7.05-1.281-7.973-2.434-6.814-8.506a1005.27 1005.27 0 0 0 3.223-18.899c.235-1.582-.096-1.877-.412-.367m48.285 36.758c1.567.404 8.466 1.003 15.296 1.33 4.54.218 17.735-.624 20.532-1.31 1.975-.484.284-.428-4.95.164-5.325.602-18.655.713-23.831.198-6.756-.672-8.553-.769-7.047-.382" fill="#9baacb"/><path d="M0 183.318v183.318h200 200V183.318 0H200 0v183.318M180.282 61.921l4.623 2.016 3.013 1.324c.08 0 1.017.402 2.081.894 9.427 4.354 17.646 3.556 31.957-3.105 7.67-3.57 9.755-1.908 9.764 7.784.003 3.287.126 6.153.275 6.368.246.359 6.102 3.302 10.535 5.295l5.316 2.46 5.5 2.563 6.416 3.042 6.233 2.935c1.008.453 3.523 1.627 5.59 2.609s3.917 1.786 4.112 1.786.979.27 1.742.601l2.121.881c18.553 7.107 31.423 21.04 34.526 37.381 2.099 11.053 1.616 31.662-.835 35.627-.11.179 1.428 1.929 3.419 3.889 9.645 9.499 14.409 20 16.588 36.561.648 4.925.427 5.767-3.002 11.464-.761 1.264-1.383 2.375-1.383 2.468s-.66 1.249-1.467 2.567-1.466 2.473-1.466 2.566-.66 1.249-1.467 2.567-1.467 2.473-1.467 2.566-.66 1.249-1.466 2.567-1.467 2.479-1.467 2.58-.386.799-.858 1.552c-.93 1.482-2.176 3.683-4.196 7.417-.71 1.31-1.677 2.998-2.151 3.75s-.861 1.451-.861 1.552-.66 1.263-1.466 2.58-1.467 2.473-1.467 2.567-.622 1.204-1.382 2.468-1.709 2.944-2.108 3.733c-2.534 5.007-7.299 5.547-9.967 1.129-5.757-9.534-9.35-21.301-9.871-32.333l-.25-5.295-1.868-2.45c-1.028-1.347-2.047-2.614-2.266-2.816s-1.022-1.15-1.786-2.108c-1.632-2.049-1.685-2.063-2.508-.669-.349.591-1.683 2.364-2.966 3.942-4.872 5.991-7.26 13.108-6.099 18.17.197.86.624 3.213.949 5.23l.956 5.499a94.04 94.04 0 0 1 .684 4.033c.175 1.21.565 3.603.866 5.317 1.931 10.969 1.826 9.744.982 11.488-.781 1.612-2.538 2.81-4.124 2.81-.423 0-1.366.16-2.096.356s-4.048.862-7.375 1.482l-7.516 1.462c-.807.185-2.869.591-4.583.902l-11.732 2.244c-13.658 2.977-27.595 4.548-36.022 4.06-6.959-.402-13.155-.947-15.477-1.362l-15.229-2.929c-.706-.175-3.593-.747-6.416-1.269l-7.516-1.457c-1.311-.278-5.106-1.019-8.433-1.646l-7.516-1.477c-.806-.186-1.994-.437-2.639-.56-3.409-.646-4.051-3.361-2.642-11.171l1.25-7.15 1.088-6.416c1.417-8.243 1.635-9.842 1.647-12.099.025-4.567-2.107-11.018-4.483-13.565-.47-.505-1.831-2.237-3.023-3.85l-2.303-3.115c-.223-.3-2.905 2.81-6.039 7.002l-2.028 2.712-.182 5.683c-.294 9.157-2.372 16.954-7.121 26.712-4.177 8.582-7.445 7.355-15.207-5.707-.722-1.215-8.885-14.203-12.805-20.372l-3.812-6.05c-.204-.348-.987-1.584-1.741-2.748s-1.371-2.168-1.371-2.233-.911-1.505-2.023-3.201c-3.507-5.344-3.508-5.347-3.1-10.415 1.219-15.142 6.804-27.713 16.623-37.412l3.356-3.315-.291-1.452c-2.445-12.197-2.565-27.338-.284-35.732 1.894-6.966 3.169-10.143 5.74-14.298 5.703-9.22 19.048-18.993 31.707-23.221 1.868-.624 4.019-1.612 18.482-8.486l5.867-2.758 9.874-4.575 6.258-2.977c4.559-2.154 4.204-1.437 4.21-8.512.007-7.182.313-8.041 3.24-9.086 1.737-.62 1.582-.628 3.629.179" fill="#ffffff"/><path d="M176.352 62.201c-.751.301-2.2 1.648-2.2 2.045 0 .177.377-.115.837-.65 1.07-1.244 3.616-1.613 5.436-.787l3.443 1.54 3.405 1.542c.662.311 1.279.491 1.371.399s-.697-.548-1.754-1.014l-4.305-1.945c-2.319-1.069-5.12-1.577-6.233-1.13m47.113.684l-3.59 1.524c-.765.317-1.322.645-1.239.729.176.175.777-.057 5.889-2.275 1.837-.797 4.407-.547 5.489.534.733.734.792 1.217.91 7.557l.127 6.773 1.03.733c.566.403 1.193.733 1.394.733s1.361.495 2.58 1.1l2.503 1.1c.584 0-1.249-1.008-4.013-2.205-3.381-1.466-3.157-.861-3.284-8.878-.132-8.359-1.841-9.987-7.796-7.425m-49.684 8.242l-.179 6.417-3.666 1.91c-4.556 2.375-4.226 2.544.457.235 4.156-2.048 3.8-1.2 3.672-8.758l-.106-6.22-.178 6.416m42.901-5.316c-.532.304-.686.525-.367.525.303.001.871-.24 1.262-.536.906-.685.31-.678-.895.011m-26.926 1.088c.391.296.959.538 1.261.537.319 0 .165-.221-.366-.525-1.205-.689-1.801-.696-.895-.012m23.443.285c-1.008.411-3.153 1.041-4.766 1.401s-2.438.661-1.834.671c.926.014 3.048-.5 6.967-1.687.844-.256 2.356-1.226 1.823-1.17-.196.02-1.182.374-2.19.785m-21.05.603c.812.526 3.506 1.195 5.468 1.358 1.202.101.853-.051-1.283-.557l-3.85-.937c-.708-.186-.784-.155-.335.136m8.676 1.776c.857.077 2.259.077 3.116 0s.156-.141-1.558-.141-2.415.063-1.558.141m-19.342 3.95c-1.341 1.616-.342 11.651 1.806 18.146 2.56 7.742 11.384 23.049 14.096 24.451 1.293.669 3.174.383 4.081-.619 1.132-1.251.753-3.19-2.51-12.838-5.289-15.638-5.741-16.878-6.73-18.454-.907-1.446-4.054-5.715-4.501-6.106-.115-.1-.777-.925-1.47-1.833-2.481-3.247-3.751-3.978-4.772-2.747m39.906-.175c-.335.196-1.572 1.611-2.75 3.145l-3.897 5.041c-2.344 3.004-3.113 4.702-5.751 12.701l-2.558 7.517c-.177.403-.604 1.64-.949 2.749s-.789 2.429-.987 2.933c-2.7 6.877-1.598 10.263 2.86 8.792 2.097-.692 8.877-11.462 12.921-20.524.632-1.418 1.282-3.37 2.989-8.983 2.117-6.959.982-15.04-1.878-13.371m-35.138 3.893l3.748 4.66c1.613 1.86 3.012 5.084 5.593 12.884l2.752 8.066c3.731 8.389 3.93 13.016.559 13.016-2.148 0-6.943-6.832-11.709-16.682-2.31-4.773-2.435-5.062-3.24-7.516-1.818-5.542-2.469-8.975-2.469-13.015 0-6.368.716-6.581 4.766-1.413m37.241-1.831c.363 2.422-.098 7.897-.938 11.126l-.941 3.666c-.124.505-.373 1.247-.552 1.65s-.671 1.641-1.093 2.75c-1.626 4.274-7.749 15.356-10.128 18.332-2.223 2.78-2.41 2.933-3.599 2.933-1.512 0-2.851-1.045-2.846-2.222.003-.754 4.24-14.03 5.199-16.293.31-.73.801-2.206 2.014-6.05 1.21-3.832 3.121-7.821 4.509-9.411.558-.639 2.252-2.739 3.765-4.668 3.286-4.19 4.2-4.55 4.61-1.813m-58.872 6.571l-.917.553.917-.24c.504-.132 1.073-.386 1.265-.565.56-.524-.244-.363-1.265.252m74.427-.408c0 .093 1.278.77 2.841 1.505l5.788 2.763c2.921 1.416 4.303 1.868 2.91.953-.398-.261-2.126-1.114-3.84-1.896l-5.289-2.458c-2.294-1.094-2.41-1.136-2.41-.867M160.77 83.76l-5.683 2.685c-5.509 2.55-7.36 3.475-7.225 3.61.072.073.862-.213 1.754-.636l3.821-1.798 5.781-2.713c1.97-.925 3.743-1.682 3.941-1.682s.361-.165.361-.366c0-.467.229-.542-2.75.9m9.349 2.472l-6.786 3.222-8.228 3.887c-12.932 6-14.346 7.028-12.95 9.418.737 1.262 2.277 1.75 8.899 2.82l5.5.945 11.365 2.015 10.545 1.856c5.217 1.037 7.743-2.269 5.39-7.055-.73-1.484-1.648-3.523-2.041-4.532s-.868-2.163-1.056-2.566-.78-2.218-1.316-4.033c-1.894-6.413-4.627-8.165-9.322-5.977m58.798.109c-1.605.962-2.428 2.306-3.043 4.968-.575 2.491-2.363 7.246-4.071 10.824-1.749 3.665-1.862 5.799-.379 7.18 1.678 1.564 2.493 1.562 11.573-.039l4.217-.744 5.316-.929 11.366-2.022c9.241-1.706 9.349-1.752 9.349-4.059 0-1.309-1.643-3.262-2.744-3.262-.16 0-1.708-.679-3.44-1.509l-7.923-3.801-6.975-3.305-5.57-2.615c-3.946-1.875-5.467-2.011-7.676-.687m-52.259 1.044c.637.61 1.27 1.844 1.678 3.269 1.336 4.678 2.852 8.714 4.643 12.366 2.823 5.755.047 8.108-7.36 6.238-1.203-.303-2.515-.536-11.366-2.013l-5.133-.906c-.907-.179-3.3-.611-5.316-.961-11.283-1.957-12.11-2.298-11.224-4.629.307-.805 8.647-5.424 9.796-5.424.114 0 2.596-1.161 5.516-2.581l8.493-4.052 4.284-2.014c1.731-.855 4.728-.501 5.989.707m58.846-.169l19.948 9.446c3.074 1.483 5.75 2.696 5.948 2.696 1.603 0 1.471 3.875-.143 4.209l-2.779.574a87.18 87.18 0 0 1-4.033.718c-2.057.306-6.156 1.014-11.732 2.026l-5.133.9-5.133.884c-9.276 1.637-8.757 1.618-10.237.373-1.608-1.353-1.535-3.139.283-6.934.772-1.613 1.696-3.758 2.052-4.766l.947-2.567c.165-.403.572-1.723.905-2.933 1.565-5.69 4.09-6.972 9.107-4.626m16.008.232c0 .103.949.607 2.109 1.12s2.979 1.357 4.044 1.878 2.016.866 2.113.769-1.022-.721-2.486-1.386l-4.107-1.89c-1.574-.741-1.673-.77-1.673-.491m-105.224 3.114c-.303.18-2.077 1.022-3.943 1.872s-3.32 1.617-3.232 1.705 1.569-.517 3.293-1.344 3.261-1.508 3.416-1.514.603-.254.994-.55c.767-.58.375-.705-.528-.169m114.024.913c0 .174 2.923 1.651 3.266 1.651.323 0-1.175-.918-2.258-1.384-.555-.239-1.008-.359-1.008-.267m4.238 2.189c.391.296.959.538 1.261.537.319-.001.165-.222-.366-.525-1.205-.689-1.801-.697-.895-.012m1.994.736c0 .263 3.037 1.678 3.216 1.498.085-.085-.552-.496-1.416-.914-1.686-.814-1.8-.851-1.8-.584m-131.451 1.474l-3.116 1.394c-1.103.497-2.388 1.021-2.857 1.164s-.763.35-.653.459.74-.019 1.402-.285c2.467-.994 6.52-2.919 6.52-3.097 0-.218.088-.243-1.296.365m135.118.308c0 .176 3.608 1.901 5.133 2.454 2.019.733 3.761 1.455 4.887 2.028.571.29 1.199.528 1.396.528.411 0 3.926 1.728 5.816 2.859.705.423 1.984 1.137 2.841 1.586s1.558.953 1.558 1.119.176.302.391.302c1.257 0 8.474 6.12 11.673 9.899 2.766 3.267 3.355 3.87 2.327 2.383-5.546-8.022-16.892-15.898-29.869-20.733-1.555-.58-3.487-1.39-4.293-1.801-1.43-.73-1.86-.874-1.86-.624m-145.555 4.03c-3.005 1.324-5.821 2.771-5.444 2.797.132.008 1.635-.644 3.34-1.451s3.33-1.472 3.611-1.478.83-.254 1.221-.55c1.121-.847.249-.629-2.728.682m-8.438 4.203c-9.299 5.436-15.974 11.777-20.027 19.026-.724 1.294-1.237 2.433-1.139 2.531s.471-.441.829-1.196c.931-1.961 3.035-5.217 4.359-6.745l1.892-2.2c1.183-1.392 6.279-5.938 7.574-6.757.319-.201 1.709-1.133 3.09-2.07s3.213-2.068 4.071-2.513c1.305-.677 2.3-1.466 1.847-1.466-.065 0-1.189.625-2.496 1.39m11.005 2.244c-1.714.343-3.612.824-4.217 1.069l-1.833.744c-3.114 1.269-8.328 4.205-10.487 5.905-10.953 8.627-15.893 25.531-13.237 45.293 1.922 14.302 1.422 13.604 6.706 9.349 12.742-10.26 19.111-17.915 21.942-26.374 1.285-3.84 5.079-11.434 6.24-12.489.111-.101.774-1.008 1.474-2.017 3.943-5.683 10.004-11.006 15.227-13.372l2.442-1.137c.336-.168 1.453-.418 2.483-.554 3.836-.509 1.295-2.442-5.659-4.306-.403-.108-1.64-.461-2.749-.785-6.229-1.818-13.307-2.33-18.332-1.326m138.772.017c-6.023.945-13.086 3-16.316 4.747-.935.506-.625 1.31.55 1.428 4.082.411 9.999 3.734 14.775 8.3 3.162 3.022 8.14 8.88 8.14 9.579 0 .156.235.545.523.863 1.06 1.175 4.262 7.877 5.377 11.258 2.855 8.654 9.16 15.983 23.859 27.733 2.693 2.153 2.842 2.057 3.576-2.298 4.204-24.947.285-44.059-10.828-52.807-1.389-1.093-2.608-2.083-2.709-2.199-.347-.401-2.758-1.767-5.739-3.251-7.815-3.891-12.777-4.676-21.208-3.353m-123.557 1.119l3.483.995c7.128 1.991 10.667 3.767 7.507 3.767-1.609 0-6.109 2.086-9.34 4.33-4.475 3.107-11.295 10.783-14.167 15.944-2.261 4.063-3.918 7.732-4.888 10.821-2.078 6.615-9.499 15.523-19.625 23.556l-4.128 3.314c-1.603 1.35-1.577 1.407-2.446-5.352-3.426-26.642.477-41.857 13.046-50.856 2.313-1.656 4.238-2.712 10.21-5.602.799-.386 1.902-.707 4.949-1.44 1.389-.334 13.935.092 15.399.523m138.936.331c2.02.718 8.952 3.996 9.368 4.43.101.105.926.671 1.834 1.257 12.944 8.361 17.466 25.864 13.551 52.456-.872 5.923-.581 5.658-3.566 3.261-6.352-5.101-7.996-6.549-11.819-10.408-6.202-6.261-9.366-10.845-10.758-15.584-.737-2.507-.827-2.733-2.491-6.233-4.641-9.762-13.036-19.133-20.327-22.69l-2.796-1.368c-.344-.17-1.283-.414-2.086-.543-4.278-.684 2.114-3.241 13.527-5.412 2.659-.506 13.415.071 15.563.834m25.5 12.785c0 .245.144.446.319.446.345 0 3.714 6.62 3.714 7.298 0 .226.162.697.359 1.048s.537 1.354.757 2.231.491 1.504.603 1.392c.347-.347-1.73-6.117-3.248-9.025-1.48-2.834-2.504-4.22-2.504-3.39m-212.963 7.452c-.753 1.813-1.007 2.869-.587 2.45.299-.299 1.639-4.074 1.497-4.217-.068-.068-.478.727-.91 1.767m-1.482 4.461c-.277.964-.399 1.858-.271 1.986s.234-.09.234-.487.179-.9.398-1.118.341-.788.271-1.265c-.098-.67-.242-.468-.632.884m220.35 1.731c-.015.505.207 1.659.493 2.567.673 2.138.711.746.044-1.65-.33-1.185-.519-1.509-.537-.917m-221.417 2.842c-1.005 5.328-1.167 6.603-1.127 8.86.036 2.068.139 1.652.718-2.902l.914-6.691c.132-.757.161-1.375.066-1.375s-.353.948-.571 2.108m222.722 3.758l.485 4.583.26 2.2.028-1.834c.015-1.008-.203-3.07-.486-4.582l-.513-2.75.226 2.383m-224.13 10.999c0 1.714.063 2.415.14 1.558s.077-2.259 0-3.116-.14-.156-.14 1.558m.452 7.149c.102 2.017.32 4.574.485 5.683.535 3.616.408-.402-.162-5.133l-.509-4.216.186 3.666m224.062.184c-.604 5.15-.639 7.417-.056 3.666.298-1.916.495-4.06.439-4.766-.076-.941-.178-.647-.383 1.1m-199.202 4.781l-3.076 2.291c-.304.244-3.133 2.169-6.288 4.278-4.666 3.119-5.838 4.077-6.28 5.133l-1.706 4.232-1.485 3.666-.935 2.2-.921 2.2-2.166 5.133a50.18 50.18 0 0 0-.77 2.016c-.254.706-.856 2.172-1.338 3.257-2.603 5.861-3.244 12.257-1.987 19.841.251 1.512.611 4.235.801 6.05.889 8.5 1.222 9.569 3.314 10.651 2.75 1.422 5.032.527 9.238-3.621 6.164-6.081 10.624-13.138 15.102-23.896l1.85-4.399c.262-.605.914-2.503 1.45-4.217l1.284-4.033c.172-.504.559-1.824.863-2.933l1.182-4.216c.81-2.825 1.199-17.294.543-20.226-.494-2.209-1.69-3.579-3.99-4.57-2.067-.892-1.782-.962-4.685 1.163m169.794-1.127c-3.942 1.895-4.033 2.19-4.033 13.028 0 8.923.027 9.268 1.041 13.015 1.694 6.258 4.069 13.561 5.544 17.049l.973 2.354c5.547 13.71 16.344 27.194 21.737 27.147 4.456-.039 4.882-1.422 6.97-22.642.105-1.067.27-2.069.368-2.227.251-.407-.815-7.07-1.254-7.835-.201-.35-.366-.82-.366-1.045s-.247-.969-.55-1.655l-1.124-2.621-.898-2.109c-.177-.403-.84-2.053-1.473-3.666l-1.466-3.666-1.088-2.567-1.169-2.75-.694-1.649-1.452-3.576c-1.248-3.073-1.496-3.331-6.034-6.281-5.221-3.392-9.499-6.394-10.999-7.718-1.693-1.492-2.042-1.543-4.033-.586m-163.703 1.419c1.968 1.449 2.163 2.463 2.182 11.35.017 7.961-.167 9.785-1.428 14.191l-2.665 8.799-1.38 4.033c-3.579 8.689-5.023 11.775-7.636 16.315-1.103 1.916-2.11 3.566-2.239 3.667s-.546.678-.928 1.283-1.929 2.548-3.438 4.318c-7.745 9.086-12.634 9.049-13.637-.102l-.974-8.066c-1.598-12.219-1.302-14.369 3.601-26.214l3.982-9.533c.178-.403.844-2.053 1.48-3.666 2.387-6.048 2.039-5.615 7.376-9.164 2.688-1.788 6.381-4.351 8.206-5.696 4.317-3.181 5.038-3.327 7.498-1.515m170.699 2.084l4.919 3.484 3.995 2.651 3.444 2.29 1.428 3.483 1.788 4.399a49.26 49.26 0 0 0 .685 1.65c.179.404 1.091 2.631 2.025 4.95l2.05 5.041 2.681 6.508c2.134 5.249 2.184 10.316.235 23.831a133.21 133.21 0 0 0-.604 4.95c-.544 5.528-4.087 6.949-8.477 3.398-5.28-4.27-9.143-9.297-13.518-17.592l-1.969-3.733c-1.286-2.431-5.285-13.239-6.593-17.82-2.489-8.712-2.358-7.771-2.477-17.782l-.111-9.349 1.162-1.406c2.496-3.021 3.863-2.867 9.337 1.047m21.143 1.77c-.252.943-.445 2.167-.428 2.719.019.62.233.167.561-1.19.636-2.633.52-3.974-.133-1.529m-221.858-.678c.021.403.164 1.228.318 1.833l.28 1.1.038-1.283c.02-.706-.122-1.531-.318-1.833-.292-.453-.349-.42-.318.183m96.193 3.634l-15.215 4.955-7.992 2.621c-.463.187-1.376.339-2.03.339-7.372 0-3.236 16.791 5.705 23.157l1.044.744 3.745-1.543 4.844-1.996c3.138-1.295 8.073-2.661 13.932-3.858 8.583-1.753 8.25-1.192 8.248-13.9-.002-14.798.174-14.647-12.281-10.519m19.73-2.002c-1.914 1.167-1.948 1.387-1.948 12.593 0 13.082-.613 12.007 7.883 13.828 6.271 1.344 11.444 2.764 13.932 3.825a124.61 124.61 0 0 0 2.75 1.119c.907.357 2.522 1.04 3.589 1.518 2.353 1.055 3.085.796 5.896-2.09 7.972-8.184 9.873-20.876 3.128-20.876-.491 0-2.829-.636-5.195-1.414l-10.901-3.528-16.525-5.32c-1.42-.467-1.237-.492-2.609.345m-9.097 1.151c.7.688.733 1.205.733 11.322 0 12.398.296 11.551-4.4 12.6l-9.165 2.101a83.66 83.66 0 0 0-12.583 4.422c-4.525 2.055-6.379.797-11.065-7.506-4.327-7.668-3.605-13.806 1.625-13.806.507 0 2.91-.66 5.341-1.467s4.595-1.466 4.812-1.466.913-.224 1.548-.497 4.043-1.424 7.572-2.559l9.716-3.163c3.514-1.171 4.658-1.167 5.866.019m14.018-.08l9.813 3.169 10.999 3.532c4.179 1.345 5.264 1.671 10.136 3.042 4.089 1.151 4.311 5.016.708 12.323-3.573 7.245-7.238 10.526-10.209 9.142-2.336-1.089-3.836-1.7-6.684-2.726l-3.565-1.318c-.777-.313-5.163-1.392-9.084-2.236-9.118-1.961-8.224-.49-8.238-13.55-.012-11.604-.029-11.49 1.822-12.171.876-.322.929-.313 4.302.793m-120.068 1.704c.146.762-.204 1.271-2.006 2.912-2.655 2.42-5.908 6.117-7.351 8.355-1.196 1.855-.356 1.035 1.503-1.467 1.568-2.11 3.902-4.573 7.591-8.009.735-.684.936-2.715.269-2.715-.1 0-.103.416-.006.924m220.257.603c0 .518 3.568 3.973 4.103 3.973.194 0-.139-.414-.739-.919s-1.604-1.502-2.228-2.213-1.136-1.09-1.136-.841m4.773 4.865c.299.39 1.014 1.215 1.59 1.833s1.867 2.238 2.871 3.599c1.848 2.507 2.678 3.312 1.511 1.467-.976-1.545-4.68-6.051-5.652-6.875-.812-.689-.832-.691-.32-.024m-236.245 8.548c-1.232 1.952-2.554 4.604-2.181 4.374.174-.108.689-.909 1.146-1.78a74.18 74.18 0 0 1 1.538-2.777c.981-1.654.559-1.501-.503.183m7.633 1.238c-6.475 5.968-11.195 18.273-11.171 29.121.008 3.442 3.931 12.458 5.721 13.145.58.223 1.971-.341 1.98-.803l.13-11.445c.08-7.083.289-11.854.571-13.015.99-4.083 2.807-9.007 4.664-12.64 2.046-4.004 2.358-5.279 1.382-5.653-1.108-.425-1.645-.214-3.277 1.29m224.45-1.268c-.576.576-.125 2.071 1.707 5.661 1.073 2.103 2.05 4.151 2.171 4.55s.545 1.634.942 2.743c1.789 4.995 1.994 6.898 2.01 18.607.021 14.847 1.869 16.101 6.619 4.491 2.303-5.63.832-16.989-3.324-25.664-2.969-6.197-8.57-11.943-10.125-10.388m10.766-.146c-.006.156.372.898.84 1.65.788 1.265 2.868 5.527 3.53 7.234.797 2.053 1.44 3.233 1.461 2.68.013-.341-.141-.722-.343-.847s-.366-.487-.366-.805c0-1.147-5.078-10.973-5.122-9.912M91.739 187.04c.077.232-.979 2.666-2.347 5.408s-2.49 5.285-2.493 5.651-.193 1.014-.421 1.44c-1.427 2.667-2.238 10.934-2.085 21.251.075 5.08-.018 7.722-.282 7.987-.533.532-1.344.169-1.851-.828l-2.2-4.301-1.783-3.483.042-4.766c.097-10.806 3.908-21.037 10.005-26.856 1.951-1.863 3.123-2.378 3.415-1.503m225.175 1.631c8.593 8.662 12.513 26.185 7.927 35.439-3.553 7.17-4.629 6.858-4.252-1.231.671-14.412-.717-22.24-5.665-31.941-2.642-5.18-1.824-6.112 1.99-2.267m-239.696 4.587c-.917 2.113-1.183 3.512-.323 1.7 1.092-2.303 1.612-3.65 1.465-3.796-.089-.09-.604.854-1.142 2.096m-1.599 4.056c-.627 1.738-.573 2.18.107.876.309-.592.514-1.317.456-1.612s-.311.037-.563.736m47.664-.705c-.199.252-.707 1.448-1.127 2.658-1.684 4.841-2.089 5.83-5.487 13.382-.499 1.109-1.733 3.736-2.743 5.837-3.236 6.732-.284 6.635 4.703-.156 1.535-2.09 4.335-7.29 5.725-10.631 1.904-4.576 1.02-13.731-1.071-11.09m156.816.105c-.535.645-.26 9.196.333 10.336.185.357 1.275 2.59 2.422 4.962 3.428 7.092 8.037 12.515 9.562 11.25.739-.614.775-.498-1.795-5.908-3.947-8.312-4.522-9.636-6.898-15.875-2.028-5.327-2.568-6.038-3.624-4.765m-155.524 5.001c-.097 2.283-.389 4.646-.649 5.251l-1.015 2.383c-1.913 4.526-4.78 9.05-7.463 11.776-2.842 2.886-3.275 2.299-1.288-1.745 2.371-4.825 4.188-8.771 5.547-12.047l1.876-4.455c.279-.636.507-1.41.507-1.72s.144-.654.319-.762.424-.721.552-1.362c.798-3.986 1.824-2.28 1.614 2.681m157.333-3.237c.494 1.652 2.083 5.853 2.528 6.684.208.387.743 1.612 1.19 2.721 1.075 2.666 2.218 5.178 4.646 10.212 2.535 5.256 2.238 6.204-.878 2.803-3.096-3.379-6.688-9.564-8.335-14.351-.415-1.208-.792-6.834-.616-9.194.063-.842 1.119-.031 1.465 1.125m47.715.538c-.009.467.152 1.166.36 1.553.452.844.947 3.063 1.669 7.475.515 3.146.894 4.406.88 2.925-.027-2.825-2.857-14.454-2.909-11.953m-138.972.662c-4.199 1.044-8.936 2.876-11.45 4.428-.752.464-1.437.844-1.522.844s-1.036.589-2.115 1.309c-6.683 4.459-7.62 8.127-3.741 14.65 2.684 4.513 2.811 4.551 15.382 4.563 13.642.014 12.612 1.107 12.612-13.379 0-13.805-.555-14.557-9.166-12.415m15.839.149c-1.185 1.104-1.216 1.47-1.099 13.087.14 13.87-1.313 12.348 11.942 12.502 12.452.144 13.661-.157 15.582-3.879l1.492-2.802c3.254-6.005-1.636-12.309-12.959-16.71l-3.849-1.495c-3.928-1.522-9.829-1.896-11.109-.703m-131.654-.132c-.023.236-.149.731-.28 1.1-.184.521-.135.578.218.252.25-.23.376-.725.28-1.1s-.194-.488-.218-.252m123.488.721c1.179 1.5 1.179 21.866 0 23.366l-.76.966h-10.378c-12.723 0-12.146.166-14.868-4.283-2.437-3.981-2.722-6.787-.974-9.556 3.846-6.093 24.211-14.013 26.98-10.493m14.561-.388c7.809 1.568 17.302 6.305 20.464 10.212 2.66 3.287.605 11.24-3.562 13.78-1.657 1.01-21.32 1.127-22.834.136l-.904-.592v-11.297-11.297l.967-.76c1.159-.912 2.088-.941 5.869-.182m-138.92 2.905l-.452 2.567c-.107.604.064.3.38-.676s.521-2.132.452-2.567c-.081-.523-.21-.295-.38.676m-1.316 7.516c-.273 2.117-.421 4.345-.33 4.95.11.732.183.462.22-.807a24.83 24.83 0 0 1 .447-3.733c.215-1.005.339-2.374.275-3.043-.068-.705-.326.403-.612 2.633m259.966 4.695c-.069 3.078-.19 3.615-1.244 5.499l-1.67 3.005a52.33 52.33 0 0 1-1.189 2.017c-.732 1.174-.978 2.046-.407 1.448.182-.192.827-1.256 1.432-2.365l2.249-4.1c1.092-1.982 1.142-2.25 1.026-5.499l-.121-3.417-.076 3.412m-184.311-1.471c-1.214.266-1.272.681-1.275 9.242-.006 12.582 1.497 17.264 6.864 21.381.556.426 1.093.864 1.194.972s1.617 1.393 3.37 2.854c5.203 4.339 5.768 3.896 5.784-4.536.022-10.768-1.721-16.152-6.936-21.435-.886-.898-6.595-7.126-6.984-7.62-.503-.637-1.359-1.001-2.017-.858m104.82 2.734c-11.083 11.629-12.244 14.145-12.244 26.533 0 9.475.291 9.642 7 4.041 9.255-7.727 10.232-9.998 10.232-23.785 0-10.884-.472-11.527-4.988-6.789m-102.459-.55l3.664 3.941c7.97 8.533 8.745 10.366 9.073 21.466.289 9.796.122 10.222-3.005 7.641l-3.477-2.841c-4.704-3.805-7.123-7.015-8.601-11.417-.577-1.717-.861-19.746-.32-20.287.518-.518 1.113-.184 2.666 1.497m106.53 8.163c0 10.31.022 10.151-1.969 14.274-.972 2.014-3.994 5.351-6.988 7.719-.893.706-2.45 1.984-3.461 2.841-3.134 2.659-3.3 2.249-3.063-7.568.28-11.61.686-12.48 11.006-23.61 4.684-5.052 4.475-5.348 4.475 6.344M72.23 218.417c-.004.785 4.746 8.304 5.052 7.998.099-.099-.223-.721-.716-1.382-.933-1.249-3.005-4.562-3.848-6.151-.267-.504-.487-.714-.488-.465m54.21 3.118c-.314.255-1.378 1.536-2.364 2.846-1.774 2.357-2.316 3.025-4.272 5.267-.551.632-1 1.314-.996 1.516s.206.108.452-.208c3.579-4.606 7.445-9.141 7.792-9.141.242 0 .851.619 1.353 1.375s1.95 2.612 3.219 4.124 2.942 4.061 3.719 5.664 1.412 2.675 1.411 2.383c-.003-1.128-3.254-6.784-4.414-7.68-.13-.101-1.27-1.586-2.532-3.3-2.566-3.483-2.575-3.491-3.368-2.846m149.137 2.388c-1.152 1.563-2.752 3.666-3.557 4.675-2.533 3.174-4.785 8.652-4.699 11.434.039 1.288.068 1.247.364-.532.795-4.775 2.737-8.445 7.899-14.935 2.614-3.286 2.379-3.357 6.704 2.007l3.688 4.574v2.561c0 3.774 1.032 11.625 2.052 15.606.998 3.9 2.729 8.906 2.989 8.647.147-.147-.395-1.904-1.368-4.431-.649-1.688-1.473-4.895-1.473-5.734 0-.496-.149-1.059-.332-1.251-.414-.435-1.125-6.392-1.396-11.688l-.205-4.008-1.641-2.042-4.767-5.747c-.252-.252-.458-.629-.458-.838 0-.324-1.119-1.139-1.562-1.139-.079 0-1.086 1.278-2.238 2.841m-197.426 4.324c.422.714.847 1.218.945 1.121.174-.175-1.278-2.42-1.565-2.42-.08 0 .199.584.62 1.299m248.962-.126c-.242.242-.44.569-.44.727s-.67 1.38-1.488 2.717-1.417 2.499-1.332 2.585.815-.964 1.621-2.332c2.363-4.011 2.689-4.747 1.639-3.697m-146.348 1.444c-4.658 1.385-4.826 2.037-4.701 18.229l.105 13.492.989 1.297c1.928 2.527 3.315 2.862 11.857 2.862 11.696 0 10.802 1.499 10.802-18.113 0-15.708-.027-15.97-1.767-17.268-1.136-.847-14.787-1.242-17.285-.499m27.271-.039c-2.621.798-2.525.171-2.64 17.254-.135 20.194-.994 18.665 10.48 18.665 7.501 0 8.961-.212 10.697-1.553 2.252-1.738 2.203-1.37 2.206-16.512l.002-13.847-.886-1.403c-1.584-2.51-2.653-2.784-11.213-2.871-4.134-.043-8.024.078-8.646.267m-126.414 4.267l4.202 6.72 5.168 8.196 4.047 6.416c.347.534.895 1.439 1.219 2.013s.672.958.774.856c.171-.171-.86-2.03-1.358-2.449-.12-.1-.332-.43-.471-.733s-.539-.989-.89-1.526c-.857-1.311-6.409-10.109-6.87-10.887-.202-.34-.697-1.11-1.1-1.712a51.93 51.93 0 0 1-1.169-1.825c-1.891-3.181-5.431-8.685-5.688-8.843-.174-.108.787 1.591 2.136 3.774m116.589-2.687l.895 1.042-.103 15.355-.103 15.355-.836.835c-.821.821-.979.835-9.349.835-12.653 0-12.133.697-12.29-16.478-.135-14.735.341-16.876 3.931-17.66.52-.114 1.111-.266 1.312-.339s3.805-.1 8.007-.06l7.64.073.896 1.042m27.758-.015c2.477 1.891 2.445 1.674 2.445 16.563v13.41l-1.612 1.612c-2.025 2.025-2.61 2.121-12.004 1.969-9.781-.159-8.721 1.949-8.736-17.385-.016-19.43-1.294-17.357 10.649-17.26l7.912.064 1.346 1.027m-107.62 5.389c-.142 2.723-.413 5.94-.602 7.15l-.576 3.666c-.17 1.072-.14 1.258.113.692.75-1.681 1.533-8.49 1.429-12.424l-.106-4.033-.258 4.949m203.777.404c-.74 1.242-1.279 2.325-1.199 2.406s.753-.87 1.493-2.113 1.28-2.325 1.199-2.406-.752.87-1.493 2.113m-185.112.33c.371 1.635.374 9.564.005 11.732-.246 1.44-.225 1.533.163.733.639-1.317.652-12.032.016-13.015-.418-.646-.44-.579-.184.55m182.59 4.183c-.548.867-.997 1.765-.997 1.996s-.149.42-.331.42-.505.454-.719 1.008-.88 1.833-1.481 2.842l-1.596 2.749-1.739 3.117-1.739 3.116c-.276.504-.814 1.412-1.194 2.017-1.129 1.793-1.847 3.225-1.694 3.378.132.133 4.993-8.105 4.993-8.461 0-.087.636-1.207 1.413-2.487a114.13 114.13 0 0 0 2.586-4.529l1.612-2.919c1.622-2.658 2.126-3.582 2.013-3.695-.071-.071-.578.58-1.127 1.448m-52.271 4.066c-.013.806.202 2.374.479 3.483.64 2.564.655 1.376.027-2.2-.37-2.111-.488-2.409-.506-1.283m-119.56 1.08c-1.427 1.519-1.012 11.234.622 14.552 1.671 3.396 11.575 13.515 13.227 13.515 2.332 0 2.731-1.207 2.542-7.699-.213-7.32-1.016-9.585-4.584-12.915l-2.248-2.118c-6.124-5.843-8.064-6.926-9.559-5.335m102.168 3.446c-8.39 7.486-9.061 8.813-9.061 17.918 0 8.95 1.421 9.126 9.205 1.139 7.43-7.623 8.211-9.348 7.969-17.607-.218-7.385-1.254-7.57-8.113-1.45m-99.043-2.968l3.827 3.376c8.174 7.185 8.584 7.977 8.6 16.621.012 6.462-.183 7.226-1.845 7.226-1.462 0-12.081-11.888-13.112-14.678-.918-2.487-.897-12.252.028-12.791.944-.55 1.697-.476 2.502.246m105.771-.262c1.572.841.765 12.946-1.003 15.048-.268.318-.487.709-.487.869 0 .259-6.572 7.112-9.899 10.323-3.01 2.905-3.795 1.519-3.596-6.347.219-8.669.44-9.06 9.743-17.273 3.44-3.038 3.969-3.302 5.242-2.62m-140.362 3.745c-.248.684-.434 1.562-.414 1.951s.268-.033.552-.937c.616-1.966.504-2.789-.138-1.014m20.013 1.742c-.743 4.895-.738 4.77-.101 2.81.317-.975.526-2.378.464-3.117l-.113-1.343-.25 1.65m132.058.171c0 .565.153 1.623.341 2.353s.612 3.058.943 5.175c.704 4.505.842 5.249 1.29 6.966l.334 1.283-.154-1.466c-.145-1.387-.462-3.381-1.832-11.532-.604-3.591-.922-4.551-.922-2.779m-153.195 1.861c-.234.514-.414 1.216-.4 1.56s.262-.022.551-.811c.599-1.633.492-2.16-.151-.749m-1.155 3.325c-1.145 3.166-4.071 9.043-5.044 10.133-1.532 1.716-5.436.63-6.835-1.901-1.116-2.019-4.351-7.005-4.674-7.205-.338-.208 1.806 3.362 4.572 7.615 1.805 2.774 5.064 3.61 6.996 1.795 1.392-1.307 6.053-10.811 5.55-11.315-.1-.1-.354.295-.565.878m20.926 2.802c-.284 1.765-.408 3.319-.275 3.453s.243-.291.243-.943.174-1.51.387-1.908.337-1.418.275-2.268c-.095-1.311-.19-1.06-.63 1.666m156.179-1.647c-.013.255.132.75.323 1.1s1.104 2.174 2.028 4.054c2.972 6.041 4.519 7.803 6.791 7.735.968-.029.791-.139-.776-.482-2.052-.45-3.677-2.882-7.744-11.587-.329-.705-.61-1.074-.622-.82m16.221 4.212c-.625.967-1.06 1.739-1.946 3.452-.504.975-.999 1.855-1.1 1.956s-.365.513-.586.916-.761.915-1.198 1.137c-1.021.518-1.379.88-.872.88.708 0 2.451-1.704 3.236-3.164l1.96-3.527c1.021-1.8 1.398-3.029.506-1.65m-173.331 2.774c-.15.871-.185 1.671-.078 1.779.268.267.726-2.286.518-2.884-.091-.263-.289.235-.44 1.105m-.883 5.404c-.274 1.826-.417 3.641-.318 4.033.117.46.197.296.224-.461.024-.645.22-1.998.436-3.005s.34-2.294.275-2.86-.343.467-.617 2.293m138.22-1.487c-.021.806.122 1.714.317 2.016.436.675.436-.671 0-2.383-.269-1.059-.281-1.046-.317.367m.769 3.85c0 .705.076.994.168.641a3.02 3.02 0 0 0 0-1.283c-.092-.353-.168-.064-.168.642m-.055 2.383c-.09 1.216-1.285 2.297-3.183 2.88-.988.303-1.446.563-1.016.577 2.104.069 4.802-2.112 4.418-3.571-.132-.5-.175-.478-.219.114m-139.346.288c-.04 1.903 6.268 4.469 10.443 4.249.807-.043-1.173-.547-4.033-1.027-3.472-.583-4.915-1.187-5.677-2.377-.4-.623-.729-1.004-.733-.845m130.883 3.561c-.302.196-.962.377-1.466.404s-.669.113-.367.191 1.623-.092 2.933-.38c2.143-.47 2.235-.525.917-.547-.807-.012-1.714.137-2.017.332m-117.69 1.298c2.942.717 11.502 2.373 12.12 2.345.849-.039-2.827-.909-6.804-1.611-2.016-.355-4.045-.793-4.508-.972s-1.288-.31-1.833-.29c-.65.024-.297.206 1.025.528m112.191-.198c-.677.438.297.438 2.016 0l1.1-.28-1.283-.037c-.706-.021-1.531.122-1.833.317m-4.195.779c-1.828.429-2.285.871-.571.554 3.351-.621 4.267-.882 3.116-.887-.605-.003-1.75.147-2.545.333m-5.338 1.054c-.302.196-.962.378-1.466.404s-.669.113-.367.191 1.622-.092 2.933-.38c2.143-.47 2.235-.525.917-.546-.807-.013-1.714.136-2.017.331m-87.992 1.299c2.632.657 4.029.637 1.649-.024-1.008-.28-2.245-.502-2.749-.494s-.009.242 1.1.518m82.493-.199c-.677.438.297.438 2.016 0l1.1-.28-1.283-.037c-.706-.021-1.531.122-1.833.317m-78.094 1.1c1.345.431 3.019.431 2.017 0-.404-.173-1.228-.31-1.833-.304-1.073.01-1.078.018-.184.304m72.411 0c-1.002.431.671.431 2.016 0 .894-.286.89-.294-.183-.304-.605-.006-1.43.131-1.833.304m-4.766.927c-.807.266-2.076.496-2.82.512s-1.462.203-1.594.418c-.264.426.995.271 4.78-.587l2.933-.658c.404-.088.156-.162-.55-.164s-1.943.213-2.749.479m-61.962.156c.704.319 2.668.527 2.353.249-.084-.074-.813-.235-1.62-.358-1.022-.155-1.244-.122-.733.109m2.933.557c1.675.751 15.205 2.793 17.965 2.71.807-.024-1.008-.346-4.033-.716s-6.819-.936-8.432-1.257c-3.055-.609-6.134-1.022-5.5-.737m50.336.899c-.949.133-1.843.358-1.986.501-.354.355.338.299 3.346-.271 2.642-.501 1.709-.659-1.36-.23m-8.723 1.262c-1.915.218-2.988.443-2.383.501s2.833-.123 4.95-.402c4.529-.596 2.495-.674-2.567-.099m-17.506.873a231.25 231.25 0 0 0 9.349 0c2.571-.063.467-.115-4.675-.115s-7.246.052-4.674.115" fill="#818696"/></svg>