<svg xmlns="http://www.w3.org/2000/svg" width="400" height="320" fill-rule="evenodd" xmlns:v="https://vecta.io/nano"><path d="M103.836 53.402c-2 .512-5.285 2.839-5.285 3.743 0 .235-.168.484-.373.553s-.544.81-.753 1.648c-.486 1.949-.751 217.618-.269 218.915.174.469.401 1.244.504 1.723.819 3.796 8.323 6.293 12.314 4.097 2.768-1.523 4.47-2.526 5.9-3.479.806-.537 1.534-.977 1.617-.977 2.728 0 8.755-9.693 9.675-15.558l1.915-11.211c.301-1.688.671-4.088.822-5.333s.383-2.441.517-2.657.367-1.499.519-2.851c.3-2.678.791-5.552 1.592-9.308.444-2.083.47-4.435.192-17.05-.492-22.298.362-25.432 9.391-34.462 1.36-1.36 2.473-2.615 2.473-2.789s.22-.5.489-.723c.43-.357.76-.91 2.182-3.66.177-.342.592-1.235.921-1.985l.888-1.953c.159-.323.608-1.551.997-2.728s.845-2.447 1.011-2.822.428-1.372.582-2.216c.275-1.506 1.476-2.347 2.098-1.47.115.161.9.819 1.744 1.46s1.795 1.404 2.115 1.696c1.154 1.055 1.613 1.383 1.934 1.383a.51.51 0 0 1 .441.291c.062.16 1.494 1.341 3.182 2.624l3.41 2.615 1.364 1.126c.563.465 1.131.845 1.263.846s.489.575.793 1.279c1.241 2.87 1.614 3.69 1.906 4.177a8.36 8.36 0 0 1 .506 1.023 10.17 10.17 0 0 0 .917 1.883l1.402 2.387c.864 1.482 3.559 5.199 5.776 7.966 2.398 2.993 10.225 10.203 13.371 12.317 2.243 1.506 4.89 3.069 5.199 3.069.195 0 .405.128.467.284.151.378 6.974 3.623 10.515 5.001l2.557 1.035c.563.24 1.714.702 2.558 1.026s2.018.799 2.609 1.055 1.289.465 1.551.465.623.124.801.277 1.475.623 2.882 1.047 2.793.893 3.08 1.044 1.05.389 1.694.53 1.406.372 1.694.513 1.443.519 2.569.842 2.55.803 3.165 1.066 1.363.478 1.66.478c.595 0 3.437.885 5.115 1.593.591.249 1.379.453 1.752.453s1.116.229 1.653.509 1.313.511 1.724.512.831.138.934.304.764.41 1.469.542 1.436.359 1.624.503.801.374 1.364.508c1.633.388 4.971 3.053 7.22 5.762.657.791 2.499 4.378 2.499 4.866 0 .249.217.956.483 1.572l1.023 2.365c.297.685.54 1.35.54 1.479 0 .315 2.15 3.385 2.472 3.527.141.063.256.28.256.483s.232.613.515.91c.904.947 3.577 4.791 3.577 5.144 0 .187.128.34.284.34s.885.883 1.62 1.961l1.606 2.302c.732.924 5.885 8.082 7.052 9.794.73 1.074 1.492 2.148 1.693 2.387.869 1.038 5.477 7.435 5.477 7.603 0 .102 1.151 1.721 2.558 3.597s2.557 3.503 2.557 3.615c0 .514 3.031 3.16 3.856 3.368.509.127 1.009.368 1.112.535.345.559 5.496.362 6.09-.233.805-.804-.209-4.579-1.229-4.579-.154 0-.281-.172-.281-.383s-.69-1.521-1.534-2.911-1.535-2.618-1.535-2.728-.69-1.338-1.534-2.728-1.535-2.596-1.535-2.68-.614-1.155-1.364-2.381-1.364-2.328-1.364-2.449-.69-1.33-1.534-2.684c-2.32-3.721-1.244-4.93 1.193-1.342.281.414 1.524 1.887 2.762 3.273 3.217 3.604 7.441 8.48 8.832 10.198 3.284 4.051 7.332 8.179 8.022 8.179.234 0 .865.229 1.402.509 3.476 1.813 9.725-.73 7.115-2.896-.281-.234-.511-.555-.511-.714 0-.253-1.933-3.265-2.387-3.719-.094-.094-.785-1.091-1.535-2.217s-1.479-2.097-1.62-2.159-.255-.274-.255-.471-.643-1.295-1.427-2.443l-3.152-4.645c-.949-1.407-1.841-2.609-1.983-2.672s-.259-.27-.259-.462-.422-.909-.937-1.593c-1.059-1.404-1.686-2.367-2.029-3.116-.129-.282-.397-.698-.595-.926-3.884-4.47-2.389-5.124 1.86-.815 1.222 1.239 2.909 2.85 3.751 3.582s3.621 3.34 6.176 5.797c8.396 8.075 11.435 9.443 16.813 7.571 3.982-1.385 3.56-2.121-6.472-11.288l-6.998-6.479-6.496-6.028c-2.348-2.151-2.778-2.697-2.415-3.066s.631-.339 1.535.186a77.85 77.85 0 0 0 2.373 1.312c.705.372 1.366.814 1.47.982s.474.305.822.305.685.132.747.294 1.112.831 2.331 1.488l6.649 3.675c5.082 4.006 12.608 4.635 16.136 1.348 1.086-1.012.566-3.736-.713-3.736-.196 0-1.137-.584-2.092-1.299s-2.311-1.673-3.013-2.131-1.277-.947-1.279-1.088-.155-.256-.343-.256-2.161-1.342-4.387-2.983l-4.816-3.496c-.423-.281-.97-.703-1.215-.938s-.541-.426-.657-.426-1.731-1.151-3.588-2.557-3.473-2.558-3.589-2.558-.412-.192-.657-.426a10.78 10.78 0 0 0-1.21-.938 15.6 15.6 0 0 1-1.165-.852c-.219-.188-.648-.495-.953-.682-5.882-3.619-6.386-4.861-1.634-4.031l5.462.92c1.409.228 2.746.527 2.971.666 1.027.635 6.317-1.269 7.607-2.737 3.286-3.741 2.661-7.606-1.232-7.606-.31 0-1.275-.222-2.145-.494a166.98 166.98 0 0 0-3.626-1.072c-1.125-.319-2.624-.787-3.332-1.041s-1.635-.462-2.063-.462-.923-.138-1.101-.305-1.015-.467-1.859-.664c-2.481-.581-4.554-1.148-5.285-1.447-4.153-1.695-11.293-1.669-14.678.055-1.541.784-11.625-.007-13.536-1.063-.325-.18-.763-.327-.971-.327-.64 0-4.867-1.975-6.798-3.175-2.063-1.284-4.426-3.083-4.426-3.37 0-.151-.208-.275-.462-.275-.478 0-2.661-2.221-5.335-5.426l-2.046-2.408c-1.058-1.174-5.288-7.403-6.261-9.217a39.04 39.04 0 0 0-1.623-2.66c-.54-.806-.983-1.527-.983-1.602s-1.274-2.253-2.832-4.842l-3.073-5.218c-.132-.281-.507-.917-.833-1.412s-1.198-1.877-1.938-3.069c-1.861-3.002-5.53-8.063-6.896-9.515-.625-.664-1.137-1.304-1.137-1.423 0-.445-6.062-6.333-8.355-8.115l-2.557-2.033c-.261-.274-1.371-.938-3.13-1.874-.878-.467-1.693-1.006-1.811-1.197s-.512-.347-.876-.347-.662-.154-.662-.341-.175-.341-.389-.341-1.096-.328-1.961-.729c-2.49-1.154-4.962-1.984-7.458-2.505-.907-.19-1.247-.528-1.834-1.824-.397-.876-.817-1.669-.934-1.763s-.519-.784-.894-1.534c-2.344-4.689-8.759-12.479-12.788-15.53-.844-.639-1.611-1.25-1.705-1.358-1.91-2.196-11.121-6.616-16.025-7.69-2.393-.524-3.382-1.355-3.417-2.873-.01-.469-.239-1.236-.507-1.705s-.492-1.136-.499-1.483-.221-1.114-.477-1.705a74.4 74.4 0 0 1-.988-2.439c-.754-1.968-2.643-6.647-3.166-7.843-.912-2.087-5.667-11.629-6.287-12.617a55.11 55.11 0 0 1-1.338-2.294c-.382-.699-1.352-2.181-2.154-3.294l-1.97-2.777c-.282-.415-.665-.929-.853-1.142s-1.103-1.307-2.034-2.431c-2.545-3.071-6.481-6.647-7.316-6.647-.203 0-.369-.153-.369-.341s-.219-.341-.487-.341-.692-.192-.943-.426c-.517-.484-2.12-1.262-4.367-2.12l-2.557-1.017c-3.298-1.388-9.25-2.752-17.221-3.944-2.84-.424-11.041-.744-12.106-.472m16.198 2.357c16.525 3.093 28.361 12.563 34.927 27.944 1.928 4.517 2.441 6.171 3.965 12.784 1.851 8.027-.556 10.498-7.349 7.546-2.387-1.037-14.069-4.945-15.857-5.304-.656-.131-2.392-.638-3.857-1.125l-2.663-.885-1.205-2.471c-2.136-4.381-6.848-7.973-12.508-9.537-2.958-.816-9.483-1.845-11.716-1.846-1.161 0-2.208-.158-2.327-.35-.546-.883-.157-22.624.415-23.256 3.619-3.999 9.48-5.127 18.175-3.5m-15.265 29.486c.8.184 2.682.575 4.182.869 12.499 2.447 19.817 9.546 21.32 20.682l1.893 12.982c.932 6.081.974 7.219.304 8.242-1.144 1.745-3.39 2.316-6.256 1.591-.678-.171-2.768-.568-4.643-.882l-5.627-1.022c-1.219-.249-3.751-.713-5.627-1.032s-4.34-.793-5.477-1.053-2.318-.473-2.623-.473c-.986 0-1.054-2.897-.938-39.642.002-.698 1.206-.788 3.492-.262m31.974 19.273c.743.469 1.422.853 1.508.853s1.432.869 2.99 1.931c11.746 8.006 19.478 17.273 24.988 29.953 2.952 6.792 5.968 11.583 10.09 16.027 8.15 8.788 8.141 8.772 6.104 10.81-1.139 1.139-3.051 1.181-5.544.123-.6-.255-1.781-.73-2.625-1.056-4.568-1.762-10.592-4.813-12.85-6.505-.597-.448-1.18-.814-1.295-.814-.512 0-7.158-5.314-9.2-7.356-4.316-4.316-6.377-7.769-7.196-12.055-.535-2.806-1.1-5.108-1.469-5.994-.456-1.097-1.106-2.989-1.404-4.092-.251-.926-1.608-4.417-2.387-6.138-.17-.376-.632-1.45-1.028-2.387-1.116-2.648-1.187-2.802-3.385-7.407-2.344-4.91-2.338-4.883-1.329-5.956.968-1.031 2.333-1.009 4.032.063m19.097 2.692c1.031.273 2.873.829 4.092 1.235 2.045.681 2.75.955 5.626 2.189 1.164.5 6.021 2.915 6.912 3.438.694.407 3.508 2.265 4.001 2.642.187.144 1.108.83 2.046 1.525 4.314 3.198 9.324 8.315 12.105 12.366.451.657.914 1.271 1.029 1.364.759.62 5.004 8.326 6.48 11.765 3.658 8.518 3.494 12.447-.519 12.447-2.961 0-10.591-5.272-13.707-9.47-1.74-2.347-4.729-5.028-7.285-6.538-3.443-2.033-6.174-4.954-8.973-9.599-1.958-3.248-5.459-8.216-6.853-9.726-.193-.208-1.193-1.348-2.223-2.531s-3.217-3.509-4.86-5.168c-2.611-2.636-2.986-3.165-2.986-4.208 0-1.283 1.637-2.715 2.727-2.384.282.086 1.356.379 2.388.653m-48.069 21.135a156.15 156.15 0 0 0 4.59 1.046l4.775 1.035c1.125.252 3.58.714 5.456 1.026l5.115.874a78.88 78.88 0 0 0 3.58.539c3.382.418 5.797 2.83 5.797 5.79 0 .501.445 2.463.988 4.359 4.758 16.604 3.57 28.577-3.707 37.367l-2.109 2.557c-.311.382-1.284 1.538-2.163 2.569s-1.739 2.183-1.912 2.558-.778 1.449-1.344 2.387-1.197 2.088-1.403 2.557c-1.684 3.838-2.482 6.026-3.481 9.549-.94 3.311-1.573 6.149-1.796 8.044-.34 2.891-2.026 4.181-4.276 3.27-.316-.127-1.807-1.406-3.314-2.841s-3.151-2.932-3.651-3.326-2.428-2.174-4.283-3.957l-3.372-3.242.013-35.688.375-36.123c.712-.858 3.474-1.015 6.122-.35m103.413 19.192c7.646 3.955 17.873 14.471 28.134 28.934 1.972 2.779 5.184 8.3 7.082 12.174 3.155 6.438 9.049 13.457 15.998 19.052 6.429 5.176 7.482 7.842 5.078 12.85-2.107 4.386-8.314 5.877-12.566 3.018-2.269-1.526-11.579-9.677-17.374-15.21-14.495-13.841-21.517-22.222-25.902-30.913-.866-1.716-1.574-3.228-1.574-3.358s-.221-.722-.491-1.313c-3.992-8.75-5.993-23.068-3.512-25.138.976-.815 3.641-.864 5.127-.096m-12.945 12.715c1.259.478 2.582 2.066 2.996 3.596.39 1.437 2.205 6.02 3.514 8.872 1.286 2.801 1.327 3.111.514 3.869-.407.379-.984.6-1.294.494-.581-.196-.844-.463-6.186-6.263l-4.852-5.242c-3.524-3.767.031-7.333 5.308-5.326m-12.732 8.512c3.024 1.499 7.519 4.988 12.639 9.81l5.286 4.878 3.604 3.069 3.24 2.747c.35.287 1.49 1.285 2.533 2.217l4.078 3.57c6.59 5.667 13.978 13.777 13.969 15.334-.016 2.538-1.388 2.739-5.901.865-29.358-12.191-39.676-20.448-46.146-36.93-2.408-6.134.566-8.602 6.698-5.56m-82.128 39.505l1.817 1.519a70.17 70.17 0 0 0 1.921 1.535c5.889 4.549 6.433 5.122 7.54 7.944.875 2.23.795 2.804-1.277 9.111l-3.449 10.667c-.863 2.72-1.781 5.449-2.041 6.065s-.473 1.408-.473 1.762c0 2.613-4.206 7.138-5.749 6.184-.402-.248-.62-44.734-.223-45.377.333-.539.713-.423 1.934.59m22.925 5.499c.416.46.589 2.416.881 9.941.199 5.153.452 9.857.561 10.453.698 3.815-1.573 15.645-4.187 21.815-.251.591-.456 1.219-.456 1.396 0 3.07-3.958 4.693-8.208 3.366l-2.987-.916c-2.614-.787-4.042-3.276-3.157-5.502.172-.431.799-2.394 1.395-4.364l1.516-4.774c.569-1.571 1.084-3.067 2.055-5.967.814-2.433 4.372-12.061 4.914-13.3.164-.375.561-1.372.882-2.216s.781-1.995 1.022-2.558c1.917-4.478 2.568-6.105 2.568-6.416 0-1.478 2.149-2.121 3.201-.958" fill="#464f6b"/><path d="M0 170.503v170.503h200 200V170.503 0H200 0v170.503M111.679 52.691c13.426.874 25.776 4.718 32.726 10.183 7.028 5.527 15.675 18.822 21.319 32.778l1.397 3.41c.329.763.796 2.088 2.61 7.417 1.072 3.148 1.353 3.666 1.987 3.666 1.507 0 10.862 3.528 11.744 4.428.094.097.862.545 1.705.998 3.837 2.056 9.828 7.279 13.14 11.454.743.937 1.447 1.781 1.564 1.875.427.343 3.99 6.039 5.333 8.525.924 1.711 1.646 2.639 2.181 2.804l3.357.99c1.406.41 2.787.865 3.069 1.012s1.662.825 3.069 1.505c5.695 2.756 9.342 5.441 14.739 10.852 2.459 2.466 7.085 7.828 7.085 8.213 0 .126.156.414.346.641 1.925 2.29 7.904 11.662 9.292 14.563.224.469.501.929.615 1.023.196.162 2.929 4.718 3.477 5.797.143.282.563.972.934 1.535s.776 1.233.901 1.49c2.618 5.404 12.329 16.825 16.104 18.941.306.172.633.402.727.511.39.457 4.803 2.741 7.502 3.882 4.381 1.853 12.001 2.377 15.857 1.092 3.257-1.086 10.008-.979 13.64.215a159.95 159.95 0 0 0 4.774 1.485l3.581 1.032 7.161 2.018c8.303 2.302 9.082 2.972 7.782 6.703-.434 1.244-.431 1.239-1.974 3.085-2.216 2.653-6.943 3.76-11.435 2.68-.75-.181-2.315-.486-3.477-.678s-2.353-.441-2.646-.554c-.972-.373-.235.683 1.099 1.575.7.469 3.289 2.31 5.754 4.092l18.421 13.229 4.94 3.481c4.486 2.896 4.393 5.405-.285 7.669-2.674 1.295-7.65 1.115-9.7-.35-.256-.184-1.08-.635-1.83-1.003s-1.901-.996-2.557-1.395-2.191-1.266-3.41-1.927l-7.581-4.244c-2.804-1.753-2.15-.303 1.012 2.246.331.266 1.99 1.801 3.687 3.41l6.639 6.166c11.058 10.078 11.615 11.367 5.682 13.129-5.419 1.609-7.966.413-16.41-7.705l-5.988-5.633c-1.031-.924-2.47-2.259-3.197-2.966-2.035-1.979-1.89-1.23.416 2.155 1.155 1.694 2.099 3.218 2.099 3.386a.49.49 0 0 0 .266.418c.146.063 1.656 2.186 3.356 4.718l4.678 6.908c.874 1.268 1.59 2.445 1.59 2.615s.115.36.255.423c1.553.69 3.279 5.359 2.41 6.518-.824 1.1-4.203 1.737-6.578 1.24-3.696-.772-4.358-1.28-9.517-7.304l-4.087-4.748-4.679-5.429c-4.749-5.603-4.79-5.176-.258 2.675l2.786 4.945c.124.281.419.812.654 1.18 2.89 4.513 5.076 8.832 4.875 9.632-.53 2.11-5.584 2.756-8.817 1.126-1.894-.956-3.808-2.956-6.112-6.389-.6-.895-2.17-3.106-3.489-4.914l-2.908-4.04c-.281-.415-2.046-2.872-3.922-5.461l-3.921-5.449c-.878-1.273-5.764-8.001-6.102-8.403-.176-.209-.997-1.36-1.823-2.557l-3.46-4.885c-1.998-2.765-2.807-4.289-3.722-7.014-2.97-8.847-5.847-11.153-18.482-14.819-6.489-1.882-23.883-7.515-24.804-8.032-.325-.183-.763-.333-.971-.333s-.863-.21-1.454-.465-1.689-.702-2.439-.991c-6.297-2.427-17.221-7.563-17.221-8.097 0-.141-.268-.347-.596-.457-.86-.289-5.142-3.268-6.429-4.472-.207-.194-1.184-1.043-2.172-1.887-7.536-6.436-13.901-15.11-18.023-24.56-.477-1.093-1.303-2.032-2.839-3.226-1.191-.926-2.242-1.775-2.336-1.887s-1.475-1.183-3.069-2.381-2.975-2.273-3.069-2.39c-.343-.427-4.884-3.748-5.125-3.748-.275 0-.614.867-1.533 3.921-.692 2.304-1.013 3.118-2.516 6.395-.581 1.267-1.056 2.368-1.056 2.448 0 .783-3.134 5.009-5.555 7.491-3.198 3.278-5.475 6.419-6.701 9.242l-1.042 2.387c-1.102 2.483-1.195 4.188-1.205 21.995-.009 15.451-.087 18.23-.575 20.29-.31 1.312-.657 3.154-.769 4.092a49.15 49.15 0 0 1-.519 3.239c-.512 2.505-1.709 9.367-2.379 13.64-2.348 14.979-5.715 20.976-14.162 25.234-.188.094-1.028.617-1.867 1.162-6.738 4.373-13.397 3.227-16.287-2.803-.848-1.771-.948-220.248-.101-221.921 2.048-4.043 6.114-6.463 10.241-6.095.844.075 2.915.227 4.603.337" fill="#ffffff"/><path d="M206.057 147.633c-2.469 2.06-.462 16.429 3.512 25.138.27.591.491 1.182.491 1.313s.708 1.642 1.574 3.358c4.385 8.691 11.407 17.072 25.902 30.913 5.795 5.533 15.105 13.684 17.374 15.21 4.252 2.859 10.459 1.368 12.566-3.018 2.404-5.008 1.351-7.674-5.078-12.85-6.949-5.595-12.843-12.614-15.998-19.052-1.898-3.874-5.11-9.395-7.082-12.174-14.279-20.125-28.709-32.636-33.261-28.838m-13.916 13.136c-1.359 1.359-1.129 2.757.79 4.809l4.852 5.242c5.342 5.8 5.605 6.067 6.186 6.263.31.106.887-.115 1.294-.494.813-.758.772-1.068-.514-3.869-1.309-2.852-3.124-7.435-3.514-8.872-.967-3.571-6.671-5.502-9.094-3.079m-13.287 7.839c-1.472 1.56-1.476 2.072-.045 5.716 6.093 15.522 15.389 23.47 40.287 34.445 9.369 4.13 10.473 4.404 11.504 2.859 1.168-1.749-4.646-8.776-13.713-16.573l-4.078-3.57-2.533-2.217c-.35-.286-1.808-1.523-3.24-2.747l-3.604-3.069c-.551-.464-2.929-2.659-5.286-4.878-10.363-9.759-16.498-12.928-19.292-9.966" fill="#f4084e"/><path d="M103.83 52.653c-3.035.773-5.475 2.794-6.995 5.796-.847 1.673-.747 220.15.101 221.921 2.89 6.03 9.549 7.176 16.287 2.803.839-.545 1.679-1.068 1.867-1.162 8.447-4.258 11.814-10.255 14.162-25.234.67-4.273 1.867-11.135 2.379-13.64a49.15 49.15 0 0 0 .519-3.239c.112-.938.459-2.78.769-4.092.488-2.06.566-4.839.575-20.29.01-17.807.103-19.512 1.205-21.995l1.042-2.387c1.226-2.823 3.503-5.964 6.701-9.242 2.421-2.482 5.555-6.708 5.555-7.491 0-.08.475-1.181 1.056-2.448 1.503-3.277 1.824-4.091 2.516-6.395.919-3.054 1.258-3.921 1.533-3.921.241 0 4.782 3.321 5.125 3.748.094.117 1.475 1.192 3.069 2.39s2.975 2.269 3.069 2.381 1.145.961 2.336 1.887c1.536 1.194 2.362 2.133 2.839 3.226 4.122 9.45 10.487 18.124 18.023 24.56l2.172 1.887c1.287 1.204 5.569 4.183 6.429 4.472.328.11.596.316.596.457 0 .534 10.924 5.67 17.221 8.097.75.289 1.848.735 2.439.991s1.245.465 1.454.465.646.15.971.333c.921.517 18.315 6.15 24.804 8.032 12.635 3.666 15.512 5.972 18.482 14.819.915 2.725 1.724 4.249 3.722 7.014l3.46 4.885c.826 1.197 1.647 2.348 1.823 2.557.338.402 5.224 7.13 6.102 8.403.281.408 2.046 2.86 3.921 5.449l3.922 5.461c.281.415 1.59 2.233 2.908 4.04l3.489 4.914c2.304 3.433 4.218 5.433 6.112 6.389 3.233 1.63 8.287.984 8.817-1.126.201-.8-1.985-5.119-4.875-9.632-.235-.368-.53-.899-.654-1.18s-1.378-2.507-2.786-4.945c-4.532-7.851-4.491-8.278.258-2.675l4.679 5.429 4.087 4.748c5.159 6.024 5.821 6.532 9.517 7.304 2.375.497 5.754-.14 6.578-1.24.869-1.159-.857-5.828-2.41-6.518-.14-.063-.255-.253-.255-.423s-.716-1.347-1.59-2.615l-4.678-6.908c-1.7-2.532-3.21-4.655-3.356-4.718a.49.49 0 0 1-.266-.418c0-.168-.944-1.692-2.099-3.386-2.306-3.385-2.451-4.134-.416-2.155.727.707 2.166 2.042 3.197 2.966s3.726 3.459 5.988 5.633c8.444 8.118 10.991 9.314 16.41 7.705 5.933-1.762 5.376-3.051-5.682-13.129l-6.639-6.166-3.687-3.41c-3.162-2.549-3.816-3.999-1.012-2.246 1.233.77 2.964 1.739 7.581 4.244 1.219.661 2.753 1.528 3.41 1.927s1.807 1.027 2.557 1.395 1.574.819 1.83 1.003c2.05 1.465 7.026 1.645 9.7.35 4.678-2.264 4.771-4.773.285-7.669-.436-.281-2.659-1.848-4.94-3.481l-18.421-13.229-5.754-4.092c-1.334-.892-2.071-1.948-1.099-1.575.293.113 1.484.362 2.646.554s2.727.497 3.477.678c4.492 1.08 9.219-.027 11.435-2.68 1.543-1.846 1.54-1.841 1.974-3.085 1.3-3.731.521-4.401-7.782-6.703l-7.161-2.018-3.581-1.032a159.95 159.95 0 0 1-4.774-1.485c-3.632-1.194-10.383-1.301-13.64-.215-3.856 1.285-11.476.761-15.857-1.092-2.699-1.141-7.112-3.425-7.502-3.882-.094-.109-.421-.339-.727-.511-3.775-2.116-13.486-13.537-16.104-18.941-.125-.257-.53-.928-.901-1.49s-.791-1.253-.934-1.535c-.548-1.079-3.281-5.635-3.477-5.797-.114-.094-.391-.554-.615-1.023-1.388-2.901-7.367-12.273-9.292-14.563-.19-.227-.346-.515-.346-.641 0-.385-4.626-5.747-7.085-8.213-5.397-5.411-9.044-8.096-14.739-10.852l-3.069-1.505c-.282-.147-1.663-.602-3.069-1.012l-3.357-.99c-.535-.165-1.257-1.093-2.181-2.804-1.343-2.486-4.906-8.182-5.333-8.525-.117-.094-.821-.938-1.564-1.875-3.312-4.175-9.303-9.398-13.14-11.454-.843-.453-1.611-.901-1.705-.998-.882-.9-10.237-4.428-11.744-4.428-.634 0-.915-.518-1.987-3.666l-2.61-7.417c-.162-.375-.791-1.909-1.397-3.41-5.644-13.956-14.291-27.251-21.319-32.778-6.95-5.465-19.3-9.309-32.726-10.183l-4.603-.337c-.844-.076-2.305.059-3.246.299m12.283.915c12.643 1.714 21.418 4.697 27.695 9.417 8.741 6.571 19.199 24.317 25.18 42.727 1.56 4.803 1.378 4.573 4.167 5.261 12.843 3.165 24.034 12.551 31.494 26.414 1.096 2.037 1.828 3.013 2.388 3.184 5.43 1.661 6.994 2.22 9.331 3.336 11.755 5.615 21.055 15.715 31.865 34.61 7.51 13.124 12.687 20.461 17.795 25.217 8.471 7.886 19.571 11.427 28.26 9.014 6.145-1.707 9.528-1.24 24.723 3.41a204.86 204.86 0 0 0 3.069.89l3.581 1.028 2.929.82c6.176 1.63.819 10.601-6.329 10.601-.866 0-3.562-.383-5.992-.851-6.539-1.258-7.301-1.094-4.368.943l5.624 4 9.505 6.82 8.784 6.322 5.976 4.232c2.96 2.037 3.452 2.679 3.14 4.097-.451 2.057-3.656 3.522-7.72 3.529-3.268.006-3.489-.081-10.697-4.203l-9.036-5.031c-1.22-.661-2.375-1.324-2.569-1.473-2.673-2.063-2.366-.511.408 2.062l4.904 4.596 4.604 4.26c1.832 1.639 5.702 5.261 9.618 9.003 4.102 3.92 2.663 6.369-3.741 6.364-4.551-.004-5.812-.76-13.227-7.941l-5.808-5.469c-1.024-.906-2.97-2.739-4.324-4.073-2.659-2.62-3.517-2.846-1.941-.51.54.801 1.138 1.727 1.329 2.059s3.261 4.914 6.825 10.183c9.706 14.35 9.717 14.368 9.718 15.378.002 2.752-7.022 3.097-10.741.528-.91-.628-4.634-4.749-8.525-9.435-1.159-1.395-7.332-8.548-10.142-11.752-.471-.536-.945-.83-1.055-.652-.242.392-.353.186 6.919 12.879 7.516 13.119 7.572 13.47 2.137 13.47-4.095 0-6.156-1.379-9.684-6.479-1.556-2.248-11.436-16.028-13.375-18.653l-4.979-6.92-6.692-9.31c-2.525-3.483-3.242-4.817-4.803-8.936-3.048-8.041-6.086-10.656-15.786-13.589-18.051-5.457-24.36-7.534-33.589-11.057-21.413-8.173-35.121-20.579-43.046-38.958-.53-1.229-1.338-2.057-3.992-4.092l-10.621-8.263c-2.47-1.984-2.736-1.998-3.249-.171-2.579 9.175-5.456 14.645-10.381 19.737-8.709 9.004-9.257 11.589-8.482 40.024.205 7.528.177 8.049-.707 12.959l-1.385 8.013-1.002 5.968-1.011 5.797c-2.03 11.728-2.293 12.947-3.25 15.057-3.545 7.818-14.563 15.931-20.867 15.365-3.807-.342-6.826-2.684-7.909-6.136-.898-2.86-.679-218.707.224-220.628 2.495-5.311 7.227-6.565 18.833-4.992m-5.286 2.055c-3.185.357-5.689 1.537-8.099 3.819l-1.108 1.05.005 10.419c.006 12.149-.302 11.165 3.58 11.44 11.986.85 20.096 4.88 23.294 11.575.773 1.62 1.339 2.356 2.017 2.625 1.253.496 3.99 1.29 5.886 1.707.844.185 1.765.43 2.046.543s1.126.392 1.876.619 3.359 1.128 5.797 2.003c9.041 3.242 9.438 3.351 10.743 2.963 1.822-.543 2.561-2.146 2.083-4.518-1.966-9.752-3.913-15.695-6.588-20.11-.524-.865-.952-1.672-.952-1.794 0-.878-5.547-7.942-8.16-10.394-8.085-7.583-22.836-13.019-32.42-11.947m-8.959 30.176c-.136.136-.248 8.819-.248 19.295v19.047l.767.305c.422.168 2.148.544 3.836.836l5.115.915 9.378 1.686c1.219.196 2.754.496 3.41.668 7.777 2.035 8.911.613 7.336-9.199l-.986-6.479-.888-6.093c-.783-5.368-2.875-9.706-6.332-13.129-1.822-1.803-5.812-4.648-6.52-4.648-.098 0-.663-.209-1.254-.464-1.528-.66-4.765-1.582-5.551-1.582-.366 0-1.504-.215-2.528-.477-2.546-.651-5.234-.982-5.535-.681m31.106 19.305c-.336.738-.131 1.368 1.657 5.073 1.122 2.327 2.607 5.612 3.299 7.3s1.398 3.335 1.57 3.661c.764 1.447 4.273 11.975 4.594 13.781.856 4.827 2.028 7.315 5.168 10.963 6.029 7.006 17.375 14.201 28.081 17.808 5.673 1.911 7.281-.621 3.167-4.988-7.997-8.488-11.664-13.695-14.742-20.936-2.623-6.169-5.843-11.66-9.297-15.855-4.283-5.202-9.514-10.02-14.442-13.302-1.125-.749-2.097-1.478-2.16-1.618s-.246-.256-.409-.256-1.001-.476-1.862-1.058c-2.176-1.468-4.107-1.708-4.624-.573m18.601 3.121c-.753 1.149-.624 1.35 3.8 5.862 1.85 1.887 3.747 3.883 4.216 4.437 2.915 3.439 6.138 7.519 6.138 7.771 0 .064.69 1.168 1.534 2.453s1.535 2.536 1.535 2.779.119.442.263.442.543.518.884 1.151c.867 1.611 4.661 5.366 6.235 6.171 2.156 1.104 5.129 3.505 6.679 5.397 4.631 5.649 11.633 10.811 14.666 10.811 2.235 0 3.478-1.771 2.682-3.821-.167-.43-.721-2.087-1.231-3.681-1.219-3.816-1.841-5.238-4.621-10.572-1.317-2.527-5.46-8.478-7.143-10.26-5.198-5.504-5.347-5.641-9.548-8.753l-3.239-2.411a5.67 5.67 0 0 0-.853-.506c-.281-.133-.972-.536-1.534-.894-1.278-.814-4.574-2.469-6.821-3.426l-2.387-1.023c-5.512-2.398-10.398-3.235-11.255-1.927m-49.197 20.865l-.758.531v35.256 35.256l1.606 1.468 9.362 8.736c4.794 4.589 5.93 4.557 6.937-.193.911-4.297 2.346-9.89 2.864-11.167l1.407-3.581c1.681-4.314 5.109-9.791 8.111-12.958 8.54-9.007 10.491-21.691 5.876-38.192-.55-1.97-1.186-4.548-1.412-5.73-.627-3.284-2.704-5.183-5.667-5.182-.711 0-2.597-.237-4.191-.526l-5.797-1.051a183.56 183.56 0 0 1-4.944-.967l-4.775-1.023c-1.5-.32-3.199-.722-3.775-.895-1.606-.48-4.001-.372-4.844.218m-.591 79.321c-.095.251-.134 10.199-.085 22.109l.088 21.654.77.109c.994.141 3.351-2.121 3.674-3.525.263-1.146 1.718-5.853 2.369-7.667.236-.656.91-2.728 1.498-4.603l2.659-8.185c2.597-7.798 2.177-10.023-2.607-13.81l-3.401-2.736c-4.198-3.42-4.785-3.815-4.965-3.346m22.222 6.023c-.311.343-.565.784-.565.98s-.317 1.104-.704 2.019l-1.059 2.516-.787 1.875c-.238.563-.667 1.637-.953 2.387l-1.362 3.415c-.463 1.127-.951 2.545-1.084 3.15s-.383 1.188-.556 1.295-.315.431-.315.719-.217 1.009-.481 1.6-.807 2.072-1.204 3.291-.861 2.524-1.03 2.899-.797 2.216-1.394 4.092l-1.525 4.603c-2.546 6.905-2.275 8.964 1.32 10.024 8.659 2.553 8.674 2.545 11.392-5.42 3.491-10.23 3.802-13.81 2.783-32.055-.478-8.568-.73-9.32-2.476-7.39" fill="#9baaca"/><path d="M105.627 53.103c.609.075 1.607.075 2.216 0s.111-.138-1.108-.138-1.718.062-1.108.138m-4.053.779c-1.225.647-4.046 3.548-4.046 4.161 0 .175.23.088.511-.194s.512-.651.512-.822c0-.813 3.52-3.211 5.285-3.601.54-.119.505-.155-.17-.174-.469-.014-1.41.27-2.092.63m11.469-.346l4.263.456c2.256.166 2.336.154.682-.105l-4.263-.456c-1.999-.136-2.11-.119-.682.105m8.526 1.203c.937.241 2.088.44 2.557.442s.009-.207-1.023-.464-2.182-.456-2.557-.442.085.223 1.023.464m-13.703.799c-1.862.696-5.066 2.681-6.007 3.721-.572.632-.961 22.373-.415 23.256.119.192 1.166.35 2.327.35 2.233.001 8.758 1.03 11.716 1.846 5.66 1.564 10.372 5.156 12.508 9.537l1.205 2.471 2.663.885c1.465.487 3.201.994 3.857 1.125 1.788.359 13.47 4.267 15.857 5.304 3.804 1.653 5.26 1.682 6.809.133 1.738-1.739 1.674-3.28-.503-12.094-3.495-14.151-13.383-26.862-25.237-32.444-7.785-3.666-20.365-5.743-24.78-4.09m12.509.843c8.922 1.702 16.937 5.623 22.872 11.189 2.613 2.452 8.16 9.516 8.16 10.394 0 .122.428.929.952 1.794 2.675 4.415 4.622 10.358 6.588 20.11.478 2.372-.261 3.975-2.083 4.518-1.305.388-1.702.279-10.743-2.963l-5.797-2.003c-.75-.227-1.594-.506-1.876-.619s-1.202-.358-2.046-.543c-1.896-.417-4.633-1.211-5.886-1.707-.678-.269-1.244-1.005-2.017-2.625-3.198-6.695-11.308-10.725-23.294-11.575-3.882-.275-3.574.709-3.58-11.44l-.005-10.419 1.108-1.05c4.18-3.959 8.767-4.754 17.647-3.061m4.803-.996c.154.154 5.064 1.49 6.45 1.756l.853.163-.853-.37c-1.74-.753-6.892-1.991-6.45-1.549m7.965 2.388c.364.296.857.539 1.096.539.731 0 5.165 2.004 5.848 2.643.251.234.675.426.943.426s.487.154.487.341.187.341.415.341c1.632 0-4.283-3.104-8.769-4.602-.673-.224-.673-.22-.02.312m-36.17 1.733c-.527 1.808-.379 219.142.149 219.948.404.617.422.584.185-.341-.457-1.788-.548-217.031-.092-218.46.218-.681.319-1.449.226-1.705-.1-.274-.293-.044-.468.558m46.42 3.41l2.453 2.194c.786.704 2.243 2.263 3.237 3.464l2.15 2.569c.189.212.574.725.856 1.14s1.168 1.665 1.97 2.777 1.772 2.595 2.154 3.294a55.11 55.11 0 0 0 1.338 2.294c.62.988 5.375 10.53 6.287 12.617.531 1.213 2.426 5.91 3.165 7.843.801 2.096 1.438 3.447 1.446 3.068.009-.4-2.062-5.843-3.885-10.208-5.5-13.175-14.996-27.277-21-31.19l-1.194-.777 1.023.915m-42.116 22.591c-.116 36.745-.048 39.642.938 39.642.305 0 1.485.213 2.623.473s3.602.734 5.477 1.053l5.627 1.032c1.219.248 3.751.708 5.627 1.022s3.965.711 4.643.882c2.866.725 5.112.154 6.256-1.591.67-1.023.628-2.161-.304-8.242l-1.893-12.982c-1.503-11.136-8.821-18.235-21.32-20.682l-4.182-.869c-2.286-.526-3.49-.436-3.492.262m6.126.973c1.024.262 2.162.477 2.528.477.786 0 4.023.922 5.551 1.582.591.255 1.156.464 1.254.464.708 0 4.698 2.845 6.52 4.648 3.457 3.423 5.549 7.761 6.332 13.129l.888 6.093.986 6.479c1.575 9.812.441 11.234-7.336 9.199-.656-.172-2.191-.472-3.41-.668-2.064-.331-4.316-.736-9.378-1.686l-5.115-.915c-1.688-.292-3.414-.668-3.836-.836l-.767-.305v-19.047l.248-19.295c.301-.301 2.989.03 5.535.681m25.308 17.975c-1.009 1.073-1.015 1.046 1.329 5.956 2.198 4.605 2.269 4.759 3.385 7.407l1.028 2.387c.779 1.721 2.136 5.212 2.387 6.138.298 1.103.948 2.995 1.404 4.092.369.886.934 3.188 1.469 5.994.819 4.286 2.88 7.739 7.196 12.055 2.042 2.042 8.688 7.356 9.2 7.356.115 0 .698.366 1.295.814 2.258 1.692 8.282 4.743 12.85 6.505l2.625 1.056c2.493 1.058 4.405 1.016 5.544-.123 2.037-2.038 2.046-2.022-6.104-10.81-4.122-4.444-7.138-9.235-10.09-16.027-5.51-12.68-13.242-21.947-24.988-29.953-1.558-1.062-2.904-1.931-2.99-1.931s-.765-.384-1.508-.853c-1.699-1.072-3.064-1.094-4.032-.063m4.887 1.222c.861.582 1.7 1.058 1.862 1.058s.347.115.409.256 1.035.869 2.16 1.618c4.928 3.282 10.159 8.1 14.442 13.302 3.454 4.195 6.674 9.686 9.297 15.855 3.078 7.241 6.745 12.448 14.742 20.936 4.114 4.367 2.506 6.899-3.167 4.988-10.706-3.607-22.052-10.802-28.081-17.808-3.14-3.648-4.312-6.136-5.168-10.963-.321-1.806-3.83-12.334-4.594-13.781-.172-.326-.879-1.973-1.57-3.661s-2.177-4.973-3.299-7.3c-2.861-5.929-1.718-7.662 2.967-4.5m30.884-.477c-.001.714.965 2.674.986 2 .007-.213-.212-.903-.486-1.534-.344-.793-.499-.937-.5-.466m-16.65 1.875c-2.042 1.241-1.649 2.512 1.879 6.074 1.643 1.659 3.83 3.984 4.86 5.168l2.223 2.531c1.394 1.51 4.895 6.478 6.853 9.726 2.799 4.645 5.53 7.566 8.973 9.599 2.556 1.51 5.545 4.191 7.285 6.538 3.116 4.198 10.746 9.47 13.707 9.47 4.013 0 4.177-3.929.519-12.447-1.476-3.439-5.721-11.145-6.48-11.765-.115-.093-.578-.707-1.029-1.364-2.781-4.051-7.791-9.168-12.105-12.366l-2.046-1.525c-2.282-1.744-7.218-4.495-10.913-6.08-2.876-1.234-3.581-1.508-5.626-2.189-1.219-.406-3.061-.962-4.092-1.235l-2.388-.653c-.282-.086-1.011.147-1.62.518m7.104 1.701c1.767.594 3.519 1.213 3.894 1.376l2.387 1.023c2.247.957 5.543 2.612 6.821 3.426.562.358 1.253.761 1.534.894a5.67 5.67 0 0 1 .853.506c.187.145 1.645 1.23 3.239 2.411 4.201 3.112 4.35 3.249 9.548 8.753 1.683 1.782 5.826 7.733 7.143 10.26 2.78 5.334 3.402 6.756 4.621 10.572l1.231 3.681c.796 2.05-.447 3.821-2.682 3.821-3.033 0-10.035-5.162-14.666-10.811-1.55-1.892-4.523-4.293-6.679-5.397-1.574-.805-5.368-4.56-6.235-6.171-.341-.633-.739-1.151-.884-1.151s-.263-.199-.263-.442-.691-1.494-1.535-2.779-1.534-2.389-1.534-2.453c0-.252-3.223-4.332-6.138-7.771-.469-.554-2.366-2.55-4.216-4.437-4.424-4.512-4.553-4.713-3.8-5.862.758-1.158 2.711-1.011 7.361.551m10.571-.409c-.06 1.729 2.978 3.675 4.793 3.07.223-.075-.451-.327-1.499-.562-2.052-.459-2.355-.696-2.907-2.265-.313-.887-.364-.92-.387-.243m6.111 3.653c.469.268 1.159.487 1.535.487.471-.001.326-.156-.466-.5-1.463-.635-2.188-.626-1.069.013m2.879 1.034c.364.276.908.501 1.21.501a1.56 1.56 0 0 1 .952.404c.222.221.505.302.628.179s-.5-.536-1.386-.915c-1.891-.811-2.322-.863-1.404-.169m4.282 1.93c2.215 1.365 5.967 3.822 6.138 4.019.094.108.861.719 1.705 1.358 4.024 3.047 10.427 10.821 12.788 15.525.626 1.247 1.535 2.495 1.535 2.108 0-1.163-5.803-9.613-8.875-12.923-3.945-4.252-12.643-10.866-14.239-10.828-.135.003.292.337.948.741m-80.026 13.131c-1.494.29-1.465-.438-1.479 36.703l-.013 35.688 3.372 3.242c1.855 1.783 3.782 3.564 4.283 3.957s2.143 1.89 3.651 3.326 2.998 2.714 3.314 2.841c2.25.911 3.936-.379 4.276-3.27.223-1.895.856-4.733 1.796-8.044.999-3.523 1.797-5.711 3.481-9.549.206-.469.837-1.619 1.403-2.557s1.171-2.012 1.344-2.387 1.034-1.526 1.912-2.558l2.163-2.569 2.109-2.557c7.277-8.79 8.465-20.763 3.707-37.367-.543-1.896-.988-3.858-.988-4.359 0-2.96-2.415-5.372-5.797-5.79a78.88 78.88 0 0 1-3.58-.539l-5.115-.874c-1.876-.312-4.331-.774-5.456-1.026l-4.775-1.035-4.59-1.046c-1.802-.453-3.479-.53-5.018-.23m4.469.757c.576.173 2.275.575 3.775.895l4.775 1.023a183.56 183.56 0 0 0 4.944.967l5.797 1.051c1.594.289 3.48.526 4.191.526 2.963-.001 5.04 1.898 5.667 5.182.226 1.182.862 3.76 1.412 5.73 4.615 16.501 2.664 29.185-5.876 38.192-3.002 3.167-6.43 8.644-8.111 12.958l-1.407 3.581c-.518 1.277-1.953 6.87-2.864 11.167-1.007 4.75-2.143 4.782-6.937.193l-9.362-8.736-1.606-1.468v-35.256-35.256l.758-.531c.843-.59 3.238-.698 4.844-.218m97.723 9.695c0 .856 1.226 2.257 2.144 2.448 2.477.517 4.956 1.351 7.441 2.502.865.401 1.747.729 1.961.729s.389.153.389.341.223.341.496.341 1.036.345 1.696.767c2.998 1.918 3.702 2.319 3.835 2.185.809-.808-10.696-6.092-15.654-7.189-.566-.125-1.139-.606-1.458-1.224-.454-.877-.85-1.297-.85-.9m18.428 9.644c.007.163.956.988 2.108 1.832 2.055 1.505 8.79 7.965 8.79 8.43 0 .13.512.78 1.137 1.444 1.366 1.452 5.035 6.513 6.896 9.515l1.938 3.069c.326.495.701 1.131.833 1.412s1.515 2.629 3.073 5.218l2.832 4.842c0 .075.443.796.983 1.602a39.04 39.04 0 0 1 1.623 2.66c.973 1.814 5.203 8.043 6.261 9.217.281.313 1.202 1.397 2.046 2.408 2.674 3.205 4.857 5.426 5.335 5.426.254 0 .462.124.462.275 0 .287 2.363 2.086 4.426 3.37 2.079 1.292 6.167 3.175 6.895 3.175.263 0 .645.168.85.373s.656.318 1.002.252c.401-.078.073-.3-.901-.611-11.591-3.711-19.292-11.867-31.729-33.603-7.583-13.254-14.173-21.858-21.123-27.579-3.513-2.891-3.753-3.067-3.737-2.727m-71.395 12.659c-.084.14-.265.94-.404 1.777s-.378 1.757-.532 2.046-.597 1.487-.984 2.664c-.712 2.169-.817 2.425-1.833 4.452-.313.625-.569 1.28-.569 1.456s-.395.946-.878 1.71-.808 1.458-.724 1.542c.588.588 4.36-8.292 5.996-14.113.513-1.827.779-1.813 3.249.171 2.217 1.78 5.531 4.359 10.621 8.263 2.654 2.035 3.462 2.863 3.992 4.092 4.768 11.059 13.468 22.004 22.586 28.416 1.861 1.309.219-.372-2.031-2.079-1.959-1.486-8.417-7.755-9.955-9.662-2.133-2.647-4.91-6.474-5.78-7.966l-1.402-2.387c-.227-.379-.507-.92-.622-1.201a8.15 8.15 0 0 0-.527-1.023c-.175-.281-.409-.742-.52-1.023a51.45 51.45 0 0 0-.654-1.534l-1.006-2.302c-.304-.704-.661-1.279-.793-1.279s-.7-.381-1.263-.846l-1.364-1.126c-.187-.155-1.722-1.331-3.41-2.615s-3.12-2.464-3.182-2.624a.51.51 0 0 0-.441-.291c-.321 0-.78-.328-1.934-1.383-.32-.292-1.271-1.058-2.115-1.702s-1.586-1.289-1.648-1.431c-.148-.334-1.676-.336-1.873-.002m-6.827 16.736c-.311.343-.564.734-.564.87s-1.113 1.359-2.473 2.719c-5.163 5.163-9.203 12.096-9.097 15.611.013.444.325-.249.692-1.539 1.464-5.134 3.521-8.506 8.095-13.267 1.844-1.92 3.537-3.834 3.762-4.254.495-.926.343-.978-.415-.14m-12.572 22.138c-.093 1.079-.063 6.334.068 11.68l.238 9.718-.01-11.679-.069-11.68c-.032 0-.134.883-.227 1.961m61.262 4.485c.513.83 11.347 6.724 11.704 6.367.08-.08-1.212-.791-2.87-1.579s-3.067-1.567-3.13-1.73-.3-.296-.527-.296-1.465-.691-2.75-1.535c-2.406-1.58-2.754-1.756-2.427-1.227m-92.396 3.45c-.397.643-.179 45.129.223 45.377 1.543.954 5.749-3.571 5.749-6.184 0-.354.213-1.146.473-1.762s1.178-3.345 2.041-6.065l3.449-10.667c2.072-6.307 2.152-6.881 1.277-9.111-1.107-2.822-1.651-3.395-7.54-7.944a70.17 70.17 0 0 1-1.921-1.535c-3.136-2.654-3.342-2.77-3.751-2.109m5.307 4.078l3.401 2.736c4.784 3.787 5.204 6.012 2.607 13.81l-2.659 8.185-1.498 4.603c-.651 1.814-2.106 6.521-2.369 7.667-.323 1.404-2.68 3.666-3.674 3.525l-.77-.109-.088-21.654.085-22.109c.18-.469.767-.074 4.965 3.346m99.898-.504c1.115.638 1.72.631.872-.011-.364-.275-.901-.495-1.193-.488-.341.008-.226.187.321.499m3.722 1.57c1.203.554 2.33.959 2.504.901.314-.104-.1-.33-2.572-1.401-2.266-.981-2.207-.548.068.5m85.962-.518c-1.092.446-1.106.469-.17.27 3.772-.803 9.328-.365 11.975.946.398.196 1.011.299 1.364.229s-.822-.546-2.611-1.057c-3.737-1.066-8.474-1.24-10.558-.388m-172.525 1.31c-.388.413-.706.913-.706 1.111 0 .311-.651 1.938-2.568 6.416-.241.563-.701 1.714-1.022 2.558s-.718 1.841-.882 2.216c-.542 1.239-4.1 10.867-4.914 13.3l-2.055 5.967c-.238.657-.92 2.805-1.516 4.774l-1.395 4.364c-.885 2.226.543 4.715 3.157 5.502l2.987.916c4.25 1.327 8.208-.296 8.208-3.366 0-.177.205-.805.456-1.396 2.614-6.17 4.885-18 4.187-21.815-.109-.596-.362-5.3-.561-10.453-.292-7.525-.465-9.481-.881-9.941-.833-.921-1.722-.976-2.495-.153m158.885-.423c1.573.508 9.827.757 10.727.323.383-.185.927-.425 1.208-.532s-.102-.081-.852.06c-1.737.326-8.34.332-10.572.01-1.579-.228-1.617-.218-.511.139m-156.723 1.386c.084.422.316 3.683.514 7.246 1.019 18.245.708 21.825-2.783 32.055-2.718 7.965-2.733 7.973-11.392 5.42-3.595-1.06-3.866-3.119-1.32-10.024.242-.656.929-2.728 1.525-4.603s1.224-3.717 1.394-4.092.633-1.68 1.03-2.899.939-2.7 1.204-3.291.481-1.311.481-1.6.142-.612.315-.719.423-.69.556-1.295.621-2.023 1.084-3.15l1.362-3.415.953-2.387.787-1.875 1.059-2.516c.387-.915.704-1.823.704-2.019 0-1.362 2.273-2.114 2.527-.836m87.499-.627c0 .181 4.508 1.908 4.952 1.898.318-.007-.033-.18-3.003-1.475-1.267-.553-1.949-.701-1.949-.423m97.698.331c.563.245 1.637.56 2.387.7s1.547.405 1.771.59.762.285 1.194.222c.475-.07-.529-.485-2.534-1.049-3.63-1.021-4.389-1.146-2.818-.463m-91.817 1.943c.534.311 9.64 3.383 10.028 3.383.666 0-.467-.652-1.455-.837-.681-.128-1.489-.365-1.794-.526s-1.705-.641-3.112-1.064-2.703-.895-2.882-1.047-.561-.273-.852-.267c-.436.009-.424.072.067.358m99.149.111c.656.245 2.114.705 3.239 1.023l3.626 1.073c.87.272 1.867.483 2.217.47.614-.022-1.777-.82-5.672-1.893-1.032-.284-2.228-.659-2.659-.834s-1.045-.31-1.364-.301-.044.218.613.462m10.741 3.152c.563.293 1.215.777 1.45 1.074s.426.369.426.159c0-.527-1.676-1.798-2.348-1.782-.32.008-.122.238.472.549m-96.675 1.152c1.594.549 3.04.955 3.213.901s-.134-.259-.682-.457c-2.457-.886-4.447-1.478-4.918-1.461-.281.01.793.468 2.387 1.017m98.417 1.212a4.04 4.04 0 0 0-.207 1.206c0 .571-.792 2.142-1.356 2.691-.098.095-.562.632-1.031 1.193l-.853 1.02.979-.852c1.37-1.194 2.456-3.014 2.696-4.518.214-1.344.12-1.648-.228-.74m-197.917 4.186c-.04 2.505-.294 5.574-.564 6.82-.886 4.09-1.308 6.67-1.405 8.574-.107 2.128-.119 2.182 1.247-5.525.845-4.763.992-6.409.903-10.059l-.106-4.365-.075 4.555m103.28-4.253c.197.181 9.316 2.938 9.711 2.936.176-.001-.12-.232-.657-.512s-1.281-.509-1.653-.509-1.161-.204-1.752-.453c-2.539-1.071-6.274-2.038-5.649-1.462m11.207 3.475c.646.28 1.414.446 1.705.367.328-.089.245-.158-.218-.182-.411-.022-.842-.194-.958-.381s-.547-.335-.958-.328c-.589.011-.498.122.429.524m5.814 2.069c3.85 1.995 6.937 5.853 8.966 11.205 1.454 3.838 2.132 5.257 3.222 6.751.656.899 1.286 1.543 1.398 1.43s.056-.312-.126-.442c-.427-.306-2.547-3.345-2.547-3.651 0-.129-.243-.794-.54-1.479l-1.023-2.365c-.266-.616-.483-1.323-.483-1.572 0-.488-1.842-4.075-2.499-4.866-2.26-2.723-5.6-5.383-7.22-5.751-.702-.159-.434.073.852.74m56.152.269c-.118.308.169.791.727 1.223 2.098 1.625 4.134 3.063 4.336 3.063.118 0 .416.192.661.426a10.8 10.8 0 0 0 1.211.938 10.78 10.78 0 0 1 1.21.938c.245.234.541.426.657.426s1.731 1.151 3.589 2.558 3.472 2.557 3.588 2.557.412.192.657.426.792.657 1.215.938 2.591 1.854 4.816 3.496 4.2 2.983 4.387 2.983.342.115.343.256.577.63 1.279 1.088 2.086 1.439 3.075 2.179 1.884 1.263 1.987 1.16-.782-.846-1.969-1.65-3.65-2.544-5.474-3.867l-8.784-6.327-9.505-6.82-5.624-4c-2.655-1.844-2.076-2.107 2.848-1.294.864.143 1.005.113.511-.11-.375-.169-1.526-.414-2.558-.545s-2.125-.309-2.431-.394-.645.073-.752.352m17.027.45c-.138.14-1.199.509-2.359.819-1.257.337-1.753.577-1.23.597 1.018.038 3.977-.909 4.258-1.363.23-.372-.313-.415-.669-.053m-8.387.928c2.692.582 3.487.642 2.728.208-.282-.161-1.509-.382-2.728-.49l-2.217-.197 2.217.479M130.35 244.944c-.235.887-.415 2.186-.4 2.887.023 1.08.102.936.516-.943.587-2.662.492-4.247-.116-1.944m181.463 1.663c-.153.248.828 1.383 2.58 2.984l6.468 5.993 6.998 6.479c9.279 8.479 9.372 8.598 8.141 10.41l-.573.843.743-.649c1.371-1.197.991-2.266-1.728-4.864l-9.618-9.003a307.43 307.43 0 0 1-4.604-4.26l-4.904-4.596c-2.774-2.573-3.081-4.125-.408-2.062.194.149 1.349.812 2.569 1.473l9.036 5.031c7.3 4.174 9.496 4.874 12.958 4.128 1.124-.242.771-.301-2.006-.333-3.274-.038-6.928-1.353-9.588-3.449-.32-.252-1.09-.678-6.649-3.675-1.219-.657-2.268-1.327-2.331-1.488s-.389-.294-.725-.294a1.55 1.55 0 0 1-1.036-.511c-.234-.281-.557-.512-.719-.512s-1.042-.46-1.957-1.023c-1.82-1.119-2.274-1.226-2.647-.622m-43.52 2.422c.712.979 1.57 2.216 1.907 2.748s.688.892.78.801-.534-1.12-1.391-2.284-1.558-2.237-1.558-2.384-.232-.356-.516-.465.067.604.778 1.584m-138.897 1.765c-.13.87-.153 1.666-.051 1.768s.293-.526.423-1.396.154-1.665.051-1.767-.292.526-.423 1.395m214.774 2.247c.28.476.586 1.167.679 1.534.157.617.173.612.209-.062.022-.401-.284-1.091-.679-1.534l-.719-.805.51.867m-215.584 2.519c-.254 1.43-.38 2.683-.279 2.784.227.227 1.043-4.481.868-5.006-.07-.209-.335.791-.589 2.222m145.177 1.132l4.183 5.788 6.964 9.691 7.262 10.154c3.668 5.254 5.536 6.507 9.694 6.507 5.435 0 5.379-.351-2.137-13.47-7.272-12.693-7.161-12.487-6.919-12.879.11-.178.584.116 1.055.652l9.791 11.343c6.041 7.304 8.424 9.748 10.354 10.618 1.728.78 2.723.898 1.296.153-.537-.28-1.168-.509-1.402-.509-.69 0-4.738-4.128-8.022-8.179-1.391-1.718-5.615-6.594-8.832-10.198-1.238-1.386-2.481-2.859-2.762-3.273-2.437-3.588-3.513-2.379-1.193 1.342.844 1.354 1.534 2.562 1.534 2.684s.614 1.224 1.364 2.449 1.364 2.297 1.364 2.381.691 1.29 1.535 2.68 1.534 2.618 1.534 2.728.691 1.338 1.535 2.728 1.534 2.7 1.534 2.911.127.383.281.383c1.02 0 2.034 3.775 1.229 4.579-.594.595-5.745.792-6.09.233-.103-.167-.603-.408-1.112-.535-.825-.208-3.856-2.854-3.856-3.368 0-.112-1.151-1.739-2.557-3.615s-2.558-3.495-2.558-3.597c0-.168-4.608-6.565-5.477-7.603-.201-.239-.963-1.313-1.693-2.387-1.167-1.712-6.32-8.87-7.052-9.794-.149-.188-.872-1.223-1.606-2.302s-1.466-1.961-1.626-1.961.914 1.65 2.385 3.666m29.894-2.969c-.2.323.384 1.464 1.345 2.631 1.122 1.362 1.76 2.303 2.133 3.152.123.281.66 1.07 1.191 1.754s.966 1.399.966 1.591.117.4.259.462 1.034 1.265 1.983 2.672l3.152 4.645c.784 1.148 1.427 2.247 1.427 2.443s.115.408.255.471.87 1.034 1.62 2.159 1.441 2.123 1.535 2.217c.454.454 2.387 3.466 2.387 3.719 0 .159.23.48.511.714.942.781.636 2.24-.597 2.848-.609.301-.873.55-.587.554.969.015 2.037-1.02 2.036-1.972-.001-.997-.034-1.05-9.718-15.367l-6.825-10.183c-.191-.332-.789-1.258-1.329-2.059-1.576-2.336-.718-2.11 1.941.51 1.354 1.334 3.3 3.167 4.324 4.073s3.638 3.367 5.808 5.469c5.028 4.868 7.862 7.138 9.469 7.585 1.868.519 6.205.418 7.413-.173.831-.406.863-.457.171-.272-6.097 1.632-8.527.547-17-7.586l-6.185-5.797c-.842-.732-2.529-2.343-3.751-3.582-2.438-2.473-3.58-3.251-3.934-2.678m40.248 2.441c-.376.364-1.187.902-1.803 1.194s-1.052.6-.969.683c.188.188 1.808-.679 2.937-1.57.466-.369.773-.737.682-.82s-.472.149-.847.513m-215.949 3.683c0 .656.071.925.156.596s.086-.865 0-1.193-.156-.06-.156.597m-.514 2.046a7.6 7.6 0 0 0-.208 1.875c.027.931.058.902.347-.331.36-1.539.238-2.899-.139-1.544m-.593 3.665c-.012 1.418-1.58 5.177-3.236 7.758-1.367 2.13-5.422 6.309-6.122 6.309-.083 0-.811.44-1.617.977-1.43.953-3.132 1.956-5.9 3.479-3.598 1.98-8.926.665-11.682-2.882-.42-.541-.764-.838-.764-.658 0 1.678 4.403 4.51 7.437 4.783 4.645.417 14.334-5.398 18.333-11.001 2.312-3.24 4.777-9.361 3.77-9.361-.117 0-.216.268-.219.596m190.542 20.452a10.95 10.95 0 0 0 2.217 0c.609-.076.111-.138-1.108-.138s-1.718.062-1.109.138" fill="#7e8191"/></svg>