<svg xmlns="http://www.w3.org/2000/svg" width="400" height="320" fill-rule="evenodd" xmlns:v="https://vecta.io/nano"><path d="M126.195 49.071c-1.276.849-2.035 2.245-2.312 4.256-.116.836-.354 1.853-.529 2.259-.339.786-.938 3.302-1.471 6.186-.178.964-.433 1.929-.566 2.144s-.385 1.255-.561 2.31l-1.495 7.141c-.193.639-.509 2.218-.701 3.509l-.899 5.857-.927 7.572-.742 6.833c-.473 3.599-.473 30.012 0 33.61.201 1.523.535 4.931.743 7.571s.609 6.63.891 8.865l.942 7.571c.236 1.93.58 3.667.764 3.86s.336 1.205.336 2.25.247 2.714.55 3.712.551 2.425.554 3.174.176 1.813.386 2.367.537 1.935.725 3.071l.735 4.466c.216 1.32.555 2.689.753 3.042s.359 1.123.359 1.712.234 1.879.52 2.867c.615 2.128 1.242 5.081 1.676 7.891.172 1.117.413 2.281.534 2.586s.383 1.551.58 2.77l.941 5.355c.32 1.727.738 4.326.929 5.776s.516 3.081.723 3.625.382 1.684.389 2.535.251 2.626.541 3.946.534 3.265.541 4.322.175 2.304.372 2.77.534 2.76.749 5.096c1.377 14.971 1.946 19.489 2.611 20.73 1.15 2.149.187 11.68-1.487 14.724-.993 1.804-4.021 4.066-5.444 4.066-.312 0-1.42.267-2.463.594l-3.558 1.11c-.914.284-2.027.515-2.472.514s-.9.145-1.011.325-.948.439-1.86.575-1.754.406-1.873.597-.579.347-1.024.346c-.728-.002-2.4.459-5.611 1.546-.609.206-1.69.513-2.4.682-2.619.622-4.636 1.169-5.356 1.45-.701.273-2.212.692-5.54 1.533-.813.205-1.635.53-1.828.722s-.657.348-1.032.348c-1.46 0-6.165 4.542-6.201 5.986-.006.263-.256.8-.554 1.194-.822 1.087-.735 7.155.117 8.148 1.044 1.217 4.178 2.485 7.382 2.988.868.137 1.667.392 1.776.569s.563.32 1.008.319 1.557.236 2.471.528 2.576.781 3.694 1.089l4.013 1.134c1.089.316 2.368.575 2.84.575s.955.154 1.072.343 1.126.458 2.242.597 2.122.401 2.232.58.696.327 1.3.327 1.695.249 2.424.554 2.012.559 2.851.567 1.94.25 2.448.541 1.64.533 2.517.54 1.926.191 2.331.408 1.848.544 3.207.727l6.164.897c2.032.31 5.19.72 7.018.911s4.446.527 5.816.747c4.602.739 19.276.684 20.118-.075.394-.356.875-.647 1.067-.647 2.809 0 4.967-10.044 3.849-17.913l-.908-6.833c-.268-2.133-.534-3.878-.591-3.878-.263 0-1.208-13.681-2.042-29.547-.933-17.769-.421-42.628.932-45.26.161-.313.415-1.476.565-2.585s.378-2.183.507-2.386.423-1.284.654-2.401.699-2.946 1.041-4.063.707-2.53.812-3.139.426-1.632.713-2.272.523-1.563.523-2.05.149-1.044.331-1.237.499-1.099.704-2.013.647-2.576.981-3.693.759-2.74.947-3.607.512-1.894.721-2.284.379-1.209.379-1.819.152-1.205.337-1.319.445-.914.575-1.776.384-1.901.563-2.307.491-1.653.695-2.77a251.83 251.83 0 0 1 .985-4.986c.338-1.625.734-4.128.88-5.561s.403-2.829.572-3.102c1.26-2.039 1.142-31.771-.146-36.767-.209-.812-.389-2.391-.398-3.508s-.193-2.78-.407-3.694-.535-2.908-.713-4.432c-.612-5.223-1.071-8.311-1.427-9.603-.332-1.201-.654-3.066-1.501-8.682-.183-1.22-.511-2.685-.728-3.255s-.395-1.584-.395-2.252-.165-1.695-.367-2.284-.531-2.068-.73-3.287c-.865-5.28-1.322-7.531-1.581-7.789-.152-.151-.277-.885-.277-1.632s-.247-2.173-.55-3.17-.553-2.395-.558-3.106-.255-2.108-.558-3.106-.55-2.355-.55-3.017c0-1.341-1.057-3.474-1.723-3.478-.237-.001-.5-.21-.585-.464-.292-.877-45.244-.838-46.566.041m102.429-.418c-1.897.345-3.689 3.227-3.698 5.948-.002.745-.249 2.269-.549 3.386s-.55 2.53-.555 3.14-.25 1.772-.543 2.585-.539 2.156-.548 2.985-.141 1.632-.293 1.784-.487 1.467-.744 2.924l-1.027 5.603c-.308 1.625-.702 3.952-.875 5.171s-.502 2.684-.728 3.256-.412 1.779-.412 2.683-.164 1.931-.363 2.284-.53 1.888-.732 3.411l-.944 6.464c-.316 2.031-.728 5.066-.914 6.743s-.511 3.672-.722 4.432-.386 2.214-.389 3.229-.258 3.759-.567 6.095c-.683 5.155-.792 24.899-.156 28.07.224 1.117.557 3.278.74 4.801.458 3.809 1.228 8.234 1.512 8.68.129.203.357 1.277.507 2.386s.4 2.272.557 2.585c.262.525.692 2.375 1.417 6.109.158.813.484 1.841.725 2.284s.437 1.17.437 1.613c0 .722.746 3.361 1.508 5.337.157.406.395 1.403.53 2.216s.374 1.643.532 1.847.405 1.013.546 1.799.394 1.701.559 2.032.496 1.349.734 2.263l.773 2.955.839 3.324c.275 1.117.591 2.28.702 2.585.314.859 1.032 4.382 1.394 6.835.18 1.22.506 2.688.724 3.261s.503 3.98.632 7.57l.528 13.544c.443 10.622.405 51.674-.05 54.293-.211 1.219-.479 4.431-.595 7.138-.223 5.227-.257 5.047 1.843 9.638.814 1.78 4.388 5.57 5.253 5.57.296 0 .538.134.538.298 0 .282 1.093.792 4.063 1.897 2.925 1.089 11.111 1.298 14.219.363.61-.183 2.106-.493 3.324-.689a126.15 126.15 0 0 0 4.987-.946c1.523-.324 3.761-.75 4.973-.947s2.367-.521 2.567-.721 1.037-.369 1.859-.377 1.912-.25 2.42-.54 1.526-.534 2.263-.541 1.936-.263 2.666-.567 1.903-.554 2.608-.554 1.372-.145 1.481-.321 1.048-.433 2.086-.571 2.163-.401 2.501-.584 1.4-.435 2.36-.558 1.843-.382 1.961-.573.792-.348 1.498-.348 1.879-.25 2.609-.554 1.815-.554 2.413-.554 1.419-.178 1.826-.396 1.517-.543 2.469-.724 2.893-.586 4.315-.902l3.73-.793c1.349-.258 3.472-2.116 3.472-3.04 0-.355.184-.83.409-1.055.656-.656-.135-5.684-1.176-7.477-1.813-3.122-4.66-5.927-6.017-5.927-.282 0-1.109-.25-1.838-.554s-1.797-.554-2.372-.554-1.204-.154-1.397-.341-1.182-.516-2.198-.729c-2.598-.546-5.808-1.347-6.464-1.613-.571-.231-3.135-.837-5.724-1.354-.813-.162-1.946-.483-2.517-.714s-1.518-.42-2.102-.42-1.159-.157-1.278-.348-1-.449-1.961-.573-2.034-.383-2.387-.575-.951-.351-1.329-.351c-2.664 0-9.294-8.101-9.294-11.355 0-.377-.163-.848-.361-1.046s-.461-1.852-.584-3.675-.392-3.761-.598-4.308c-.211-.559-.238-1.205-.063-1.477.172-.266.513-3.143.757-6.394.681-9.077 1.169-13.885 1.581-15.583.207-.852.382-2.431.389-3.509s.254-2.957.548-4.176.538-2.998.541-3.953.174-2.119.379-2.586.53-2.095.723-3.618.61-4.266.929-6.094l.935-5.725c.196-1.321.467-2.65.603-2.955s.376-1.468.535-2.585c.358-2.514 1.012-5.708 1.491-7.287.199-.656.515-1.985.702-2.955l.925-4.532c.322-1.524.735-3.7.918-4.835s.506-2.518.717-3.072.384-1.618.386-2.367.252-2.177.554-3.174.55-2.443.55-3.214.163-1.783.362-2.25.545-2.344.769-4.172l.919-7.018c.28-2.031.676-5.614.878-7.961s.572-5.504.822-7.017c.654-3.957.646-37.542-.011-41.347a113.95 113.95 0 0 1-.816-5.909c-.312-2.899-.776-6.132-1.826-12.721-.224-1.41-.563-2.854-.752-3.208s-.345-1.134-.345-1.733-.232-1.899-.515-2.887c-.84-2.927-1.43-5.405-1.615-6.783-.095-.711-.301-1.459-.457-1.662s-.402-1.242-.545-2.308-.412-2.032-.596-2.145-.334-.629-.334-1.145c0-1.559-1.08-3.353-2.393-3.976-1.183-.562-42.326-.847-45.253-.314m-74.411 8.028c2.077 2.203 4.791 8.508 7.556 17.557l1.509 4.802c.178.508.485 1.588.681 2.4l.705 2.771 1.317 4.986 2.22 8.31c.305 1.117 1.315 5.189 2.246 9.049l2.042 8.31c2.429 8.948 3.41 24.205 2.613 40.628-1.378 28.364-6.709 43.747-13.644 39.369-7.086-4.472-12.287-21.254-13.747-44.355-.206-3.25-.529-6.658-.717-7.572-.586-2.834-.756-41.955-.231-53.185 1.21-25.923 1.422-28.315 2.788-31.501 1.355-3.162 2.725-3.623 4.662-1.569m94.351-.46c2.425 2.602 3.076 9.17 4.33 43.687 1.318 36.297-1.921 71.834-7.726 84.753-.408.907-.877 2.005-1.042 2.44-2.656 6.986-8.678 10.142-11.705 6.134-7.541-9.988-11.245-57.443-6.002-76.892.496-1.842 3.294-13.196 3.685-14.958.18-.813.573-2.391.873-3.509l3.538-13.481c5.356-20.535 10.868-31.589 14.049-28.174M142.29 57.762c.355.27.81 1.358 1.011 2.418s.443 2.052.538 2.205.017 2.426-.171 5.05c-1.129 15.716-1.135 68.621-.01 80.672l.934 9.972c1.169 12.475 1.299 14.522 1.299 20.42 0 11.055-1.976 14.731-7.28 13.543-12.396-2.778-23.29-50.906-18.179-80.315.924-5.32 3.2-14.43 5.719-22.9 2.764-9.293 5.69-17.093 8.661-23.084 3.578-7.216 5.618-9.393 7.478-7.981m116.737-.084c3.233 1.722 9.572 15.686 14.142 31.149 5.268 17.828 6.774 26.496 6.787 39.053.014 14.039-1.775 27.061-5.621 40.91-.818 2.946-1.631 5.514-1.808 5.707s-.32.566-.32.828c0 4.523-7.975 15.875-11.717 16.678-7.208 1.546-8.81-6.043-6.185-29.307.298-2.641.542-5.832.542-7.092s.165-2.673.366-3.14c1.006-2.332 2.063-62.787 1.155-66.037-.734-2.629-.684-26.619.059-27.978.699-1.28 1.306-1.46 2.6-.771" fill="#434c6a"/><path d="M150.691 56.227c-1.836 1.971-2.666 7.626-3.323 22.628l-.777 17.544c-2.458 54.862 5.206 98.984 17.194 98.984 9.605 0 15.516-51.799 9.02-79.04-11.374-47.699-17.689-64.866-22.114-60.116m94.516.375c-1.385 1.384-4.165 7.083-5.809 11.911-1.743 5.117-4.443 14.311-6.346 21.607l-2.028 7.756c-5.988 22.827-6.814 28.248-6.812 44.691.005 37.296 6.94 59.663 15.715 50.679 8.679-8.887 12.623-31.713 12.87-74.502.112-19.229.03-23.033-.884-41.182-.993-19.725-2.675-24.984-6.706-20.96m-105.834 1.832c-5.084 5.367-12.294 24.518-17.422 46.275-3.272 13.883-3.577 31.604-.815 47.461 4.425 25.41 10.848 39.348 18.351 39.826 6.023.384 7.701-7.554 5.651-26.732-.432-4.045-.942-9.89-1.691-19.373-.846-10.72-1.097-43.678-.464-60.942.751-20.493.703-25.167-.268-26.473-1.088-1.462-1.986-1.473-3.342-.042m117.533-.606c-1.335 1.336-1.411 4.292-.627 24.536.652 16.859.395 53.733-.448 64.081l-2.11 22.454c-1.205 10.824.01 21.407 2.604 22.692 11.069 5.483 23.631-28.231 23.637-63.44.004-25.37-16.789-76.59-23.056-70.323" fill="#f6074d"/><path d="M0 184.672v184.672h200 200V184.672 0H200 0v184.672M172.068 47.854c2.695 1.079 3.771 2.897 4.468 7.548.391 2.612.794 4.862 2 11.172l.93 4.894c.231 1.219.572 2.881.759 3.694s.606 2.973.932 4.801l.966 5.026c.206.935.523 2.681.704 3.878l1.046 6.424 1.322 8.495.98 6.648c.205 1.32.527 4.229.714 6.464l.703 7.756c.489 4.996.507 18.515.029 22.16l-.754 5.91c-.201 1.625-.531 3.786-.732 4.801l-1.099 5.541c-.753 3.795-.978 4.728-2.889 12.003l-2.353 8.495c-.404 1.321-.974 3.315-1.268 4.432l-.848 3.14c-1.456 5.15-3.028 11.054-3.343 12.557l-.897 4.248c-1.7 8.01-1.959 14.825-1.329 34.903.683 21.744 2.051 40.144 3.558 47.83 1.876 9.577.401 18.133-3.653 21.187-3.275 2.466-5.476 2.56-22.984.977-7.912-.715-17.204-2.199-26.777-4.276l-4.247-.898c-1.474-.295-4.832-1.081-8.68-2.031-1.934-.477-3.618-.923-8.404-2.226l-6.555-1.832a80.09 80.09 0 0 0-3.878-.991c-4.901-1.069-7.017-3.268-7.017-7.294 0-4.661 3.474-10.35 7.387-12.094 1.308-.583 1.88-.763 5.54-1.745a706.7 706.7 0 0 0 8.495-2.42l8.31-2.409 7.387-2.074c10.054-2.797 10.751-3.154 12.482-6.39 1.018-1.903 1.227-13.624.29-16.297-.285-.812-.646-2.973-.803-4.801-.523-6.073-1.038-11.05-1.417-13.666l-.955-7.202-1.106-7.941-.69-4.432c-.555-3.724-2.48-14.328-3.519-19.391l-2.11-9.972c-1.317-5.851-2.896-13.858-3.496-17.728l-.926-5.91-.905-6.279-.7-4.986c-3.243-20.638-2.749-53.155 1.087-71.468l.902-4.432c3.453-17.259 4.879-21.804 7.345-23.403l1.502-.974h21.525c18.675 0 21.717.077 22.971.578m101.363-.163c2.808 1.442 3.457 2.752 5.068 10.228.188.877.431 1.737.538 1.911s.354 1.118.547 2.099.615 2.946.937 4.368c2.669 11.803 3.778 19.521 5.014 34.879.493 6.134.267 24.266-.392 31.419-.619 6.72-1.82 17.377-2.413 21.422l-1.642 10.526-.922 4.986a538.08 538.08 0 0 1-3.71 18.098c-.575 2.532-1.097 5.152-2.026 10.157l-.93 4.986c-.947 5.069-1.696 9.604-2.043 12.373-.178 1.422-.496 3.583-.707 4.802-.519 3.006-1.338 9.563-2.028 16.251l-.989 9.403c-1.581 14.663 2.436 25.447 10.194 27.362l2.775.7 3.509.889 3.878 1.008c.914.248 2.243.575 2.954.726s3.537.862 6.279 1.58l8.126 2.116c11.963 3.085 16.2 18.742 5.54 20.476a58.32 58.32 0 0 0-3.693.766l-6.095 1.451-10.157 2.43c-.711.188-3.536.85-6.278 1.473l-7.203 1.655-4.986 1.109-4.063.913c-.711.18-2.622.599-4.247.93l-5.356 1.108c-15.353 3.226-24.527.415-29.134-8.926-2.116-4.289-2.19-5.61-.985-17.677.721-7.229.833-29.958.212-43.213a427.21 427.21 0 0 1-.378-15.698c-.015-8.095-.594-13.846-2.044-20.313l-.954-4.413c-.182-.904-.496-2.15-.697-2.77s-.962-3.288-1.69-5.929l-2.43-8.68-1.404-4.986-1.108-4.063c-.445-1.625-.95-3.619-1.122-4.432s-.667-2.973-1.099-4.801c-5.018-21.233-4.965-38.699.209-69.991l.917-5.725c.186-1.219.498-2.964.693-3.878s.613-3.075.929-4.802l4.238-21.976c.204-1.015.639-3.425.967-5.355.688-4.057 1.609-5.596 3.997-6.68 1.84-.836 43.821-1.106 45.404-.292" fill="#14181D"/><path d="M127.793 48.015c-.361.233 7.03.362 21.237.369l22.715.184c.508.095.259-.061-.554-.346-1.795-.631-42.442-.825-43.398-.207m101.426.12c-1.128.34 3.394.411 20.987.328 19.838-.094 22.559-.039 23.597.477.883.439 1.036.455.62.063-1.352-1.273-2.843-1.358-23.416-1.329-14.433.02-20.769.154-21.788.461m-3.153 1.995c-.625.758-1.122 1.713-1.105 2.124.022.538.186.385.586-.546.306-.711.903-1.666 1.327-2.124s.671-.831.549-.831-.733.62-1.357 1.377m-52.105-.41c0 .203.244.692.542 1.087s.543.55.543.347-.244-.692-.543-1.086-.542-.551-.542-.348m101.768 1.145c.295.565.537 1.475.538 2.022s.187 1.107.411 1.246c.287.178.328-.119.138-.994-.38-1.747-.807-2.797-1.247-3.069-.207-.128-.135.23.16.795m-151.61.253c-.261.488-.385 1.111-.276 1.385.12.302.21.2.228-.259.016-.417.225-.954.466-1.194s.351-.523.247-.628-.404.209-.665.696m51.015 1.883c-.004.812.211 2.142.479 2.955.635 1.928.646.988.024-2.032-.429-2.077-.496-2.201-.503-.923m-52.259 2.77c-1.003 4.146-1.099 4.713-.687 4.063.193-.305.472-1.302.619-2.216s.428-1.86.622-2.102.301-.906.236-1.477c-.087-.756-.302-.284-.79 1.732m101.587-.739c-.652 4.664-.652 4.695-.079 2.77.303-1.015.508-2.511.457-3.324-.09-1.414-.106-1.39-.378.554m52.789 1.293c.117 1.016.36 2.005.539 2.198.458.492.406-.024-.22-2.198l-.532-1.847.213 1.847m-101.037 2.77c-.014.711.21 2.041.498 2.955.665 2.11.681.874.027-2.032-.413-1.828-.504-1.99-.525-.923m101.955.923c.002.61.228 1.69.501 2.401.654 1.698.659.68.009-1.662-.403-1.453-.512-1.61-.51-.739m-54.782 1.109l-.474 2.77c-.212 1.196-.185 1.173.362-.301.325-.876.539-2.122.475-2.77-.114-1.153-.122-1.147-.363.301M121.21 62.59c-.268 1.163-.416 2.187-.328 2.275.257.257 1.086-3.029.945-3.743-.07-.355-.348.305-.617 1.468m22.551.937c0 .711.076 1.002.169.647s.092-.938 0-1.293-.169-.065-.169.646m33.562 1.733c-.021.851.109 1.638.288 1.749s.438 1.248.575 2.527.42 2.569.629 2.867c.275.394.314.188.141-.75l-.595-3.324c-.197-1.118-.502-2.613-.679-3.324l-.321-1.293-.038 1.548m101.932-.625c-.011.508.22 1.588.513 2.401.678 1.883.69.941.019-1.477-.323-1.163-.52-1.505-.532-.924M120.129 67.25c-.62 2.719-.554 3.475.132 1.516.308-.877.507-2.032.444-2.568-.085-.725-.232-.457-.576 1.052m102.273-1.137a13.13 13.13 0 0 1-.297 1.846c-.176.709-.126.828.215.511.257-.239.383-1.018.297-1.847-.083-.811-.177-1.033-.215-.51m-74.564 1.108c0 .914.072 1.288.16.831s.088-1.205 0-1.662-.16-.083-.16.831m73.854 2.954c0 .711.076 1.002.169.647s.093-.937 0-1.293-.169-.065-.169.646m58.795 0c.212 1.752.873 4.059.899 3.14.012-.406-.221-1.57-.517-2.586-.414-1.417-.502-1.546-.382-.554m-161.509 2.696c-.278 1.381-.403 2.614-.277 2.739s.228-.142.228-.596a3.93 3.93 0 0 1 .391-1.556c.216-.402.34-1.264.277-1.915-.09-.936-.219-.66-.619 1.328m102.305-.849c-.031.305-.148.97-.261 1.478-.177.798-.148.834.214.266.231-.361.348-1.026.261-1.477s-.184-.572-.214-.267m-41.951 3.013c.092 1.149.339 2.479.547 2.955.415.944.245-.58-.398-3.567-.28-1.303-.298-1.231-.149.612m102.158.311c-.021.711.123 1.542.32 1.847.44.682.44-.299 0-2.031l-.282-1.108-.038 1.292m-61.119 1.293c-.125.914-.324 2.119-.443 2.677-.155.734-.116.863.142.462.382-.594 1.001-4.801.706-4.801-.097 0-.279.748-.405 1.662m-102.327 1.225c-.163.877-.205 1.686-.093 1.798.305.305.69-1.53.529-2.524-.103-.641-.217-.451-.436.726m133.967 1.545c0 1.32.067 1.861.149 1.2a11.74 11.74 0 0 0 0-2.4c-.082-.661-.149-.12-.149 1.2m4.086 2.031c0 2.438.06 3.387.133 2.11a45.15 45.15 0 0 0-.002-4.432c-.073-1.161-.132-.115-.131 2.322m26.328-.76c.11 1.614.352 3.276.539 3.694.35.785.13-1.663-.447-4.965-.201-1.145-.229-.75-.092 1.271m-102.148-.532c-.014.711.21 2.04.498 2.954.665 2.111.681.874.026-2.031-.412-1.829-.503-1.99-.524-.923m-62.732 1.292c.004.813.079 1.102.168.642s.085-1.124-.008-1.477-.164.023-.16.835m101.557 1.805c-.26 1.399-.408 2.609-.328 2.688.289.29 1.044-3.103.924-4.153-.088-.772-.257-.357-.596 1.465M116.883 85.12c-.143 1.143-.17 2.169-.061 2.278s.316-.737.459-1.881.17-2.168.061-2.278-.316.737-.459 1.881m64.631 1.307c.196 2.194.85 4.952.876 3.693.01-.508-.216-1.921-.503-3.139-.475-2.015-.509-2.065-.373-.554m101.852.738c-.013 1.118.21 3.278.494 4.802l.516 2.77-.217-2.586c-.12-1.422-.342-3.582-.494-4.801l-.277-2.216-.022 2.031m-65.403 2.272c-.278 1.555-.416 3.051-.307 3.324s.212-.092.228-.813.206-1.488.422-1.704.341-1.122.277-2.013c-.109-1.523-.146-1.452-.62 1.206M116.25 90.674c-.629 6.694-.665 8.825-.077 4.617.298-2.133.499-4.709.448-5.725-.081-1.609-.129-1.466-.371 1.108m26.472 6.648c0 4.063.054 5.775.12 3.806s.067-5.294.001-7.387-.121-.482-.121 3.581m39.74-4.77c.003.795.176 1.695.384 2 .269.394.308.019.132-1.293-.309-2.305-.524-2.6-.516-.707m34.395 3.501c-.276 1.536-.42 3.115-.32 3.508s.202.082.225-.693.219-1.738.434-2.14.339-1.346.277-2.099c-.095-1.142-.197-.905-.616 1.424m67.723 17.89c0 10.563.106 17.045.235 14.404.296-6.052.291-23.331-.008-29.178-.125-2.438-.227 4.211-.227 14.774M183.645 98.984c-.004.711.126 1.709.289 2.216.413 1.292.413-.775 0-2.4l-.282-1.108-.007 1.292m-68.241 14.774l.108 7.295v-14.589c-.06-4.012-.108-.73-.108 7.294m100.534-11.693c-.163.984-.209 1.876-.102 1.983.309.309.67-1.546.528-2.711-.106-.862-.186-.726-.426.728m-31.567 1.721c-.02.914.203 2.659.494 3.878l.53 2.216-.235-2.031-.494-3.879-.259-1.846-.036 1.662m31.019 2.105c-.034.854-.241 2.387-.46 3.408s-.333 2.151-.253 2.511c.237 1.067 1.084-4.474.923-6.037l-.148-1.433-.062 1.551m37.769 10.083c0 4.571.053 6.441.118 4.155a179.86 179.86 0 0 0 0-8.31c-.065-2.285-.118-.415-.118 4.155m-67.531-2.77c.097 1.625.328 3.786.514 4.802.416 2.269.135-1.788-.383-5.541-.281-2.035-.292-1.974-.131.739m28.505 2.401c-.647 7.494-.667 8.534-.088 4.617.301-2.032.504-4.608.453-5.725-.085-1.837-.12-1.73-.365 1.108M186.755 126.5c.202 6.807.202 13.821-.001 18.837-.157 3.901-.149 3.96.216 1.477.476-3.25.471-17.739-.009-22.16-.346-3.19-.354-3.116-.206 1.846m-44.041 1.293c0 2.946.057 4.151.127 2.678a68.33 68.33 0 0 0 0-5.356c-.07-1.472-.127-.267-.127 2.678m70.314 3.601c-.11 4.012-.084 8.957.056 10.988.183 2.645.273.572.317-7.294.071-12.67-.084-14.209-.373-3.694m-93.993-3.786c.002 1.016.074 1.388.159.826s.083-1.392-.005-1.846-.157.005-.154 1.02m55.751 2.032c0 .711.076 1.002.169.646a3.06 3.06 0 0 0 0-1.292c-.093-.356-.169-.065-.169.646m-58.926 2.585l.479 6.464.259 2.955.023-2.771c.012-1.523-.204-4.432-.479-6.463l-.501-3.693.219 3.508m108.443-.369c0 1.117.069 1.574.154 1.016s.084-1.473 0-2.032-.154-.101-.154 1.016m59.413 5.332c-.236 1.919-.404 4.371-.373 5.45s.11 1.462.176.852c.732-6.67.966-9.451.811-9.606-.102-.102-.378 1.385-.614 3.304m-27.639 1.501c.002 1.422.068 1.958.148 1.192s.079-1.93-.003-2.585-.147-.029-.145 1.393M146.73 140.72c0 .914.072 1.288.16.831s.088-1.205 0-1.662-.16-.083-.16.831m-29.946 2.032c-.009.609.117 1.856.279 2.77l.296 1.662.003-1.662c.001-.914-.125-2.161-.28-2.77l-.282-1.108-.016 1.108m165.943 3.983c-.138 1.107-.18 2.326-.093 2.708s.289-.434.45-1.814.203-2.6.094-2.709-.312.707-.451 1.815m-30.734.633c0 .915.073 1.289.161.831s.088-1.205 0-1.662-.161-.083-.161.831m-134.436 1.662c.003 1.016.075 1.388.16.826s.082-1.392-.005-1.846-.158.005-.155 1.02m95.976-.554c-.011.508.205 2.337.481 4.063.389 2.43.505 2.764.516 1.478.007-.915-.209-2.743-.482-4.063s-.504-1.985-.515-1.478m-69.772 1.847c0 .711.076 1.002.169.647s.092-.938 0-1.293-.169-.065-.169.646m42.274 1.293c-.147.812-.344 2.474-.438 3.693-.164 2.118-.146 2.085.388-.738.308-1.625.505-3.288.438-3.694-.072-.44-.229-.142-.388.739m96.067.185c-.639 4.42-.684 5.89-.096 3.139.304-1.422.504-3.084.445-3.693-.091-.926-.148-.835-.349.554m-164.211.184c.031 1.978.577 3.66.599 1.847.01-.813-.125-1.81-.3-2.216-.269-.626-.314-.569-.299.369m106.419 2.032c0 1.32.067 1.86.149 1.2a11.75 11.75 0 0 0 0-2.401c-.082-.66-.149-.12-.149 1.201m30.631.184c.004.813.08 1.102.168.642s.085-1.124-.008-1.477-.164.023-.16.835m-136.296 2.77c0 .711.076 1.002.169.647s.093-.937 0-1.293-.169-.065-.169.646m95.978-.369c.006.305.248 1.634.536 2.955l.524 2.401-.205-2.391c-.183-2.128-.888-4.576-.855-2.965m-70.124 2.585c0 .711.076 1.002.169.647s.093-.937 0-1.293-.169-.065-.169.646m40.213.834c-.254 1.169-.387 2.416-.294 2.77.109.417.184.305.211-.317.024-.528.223-1.476.443-2.107s.333-1.444.251-1.809-.357.293-.611 1.463m96.242-.464c-.607 3.659-.638 5.117-.055 2.585.304-1.32.503-2.816.442-3.324-.078-.648-.193-.429-.387.739m-161.807.799c.33 2.584.521 2.728.521.392 0-1.037-.174-1.994-.387-2.125-.262-.162-.305.396-.134 1.733m55.654-.43c0 .914.072 1.288.16.831s.088-1.205 0-1.662-.16-.083-.16.831m-29.932 2.216c0 .711.076 1.002.169.647s.093-.938 0-1.293-.169-.065-.169.646m70.828.071c.001.347 1.153 5.454 1.442 6.393l.341 1.108.032-1.179c.018-.648-.118-1.271-.301-1.384s-.449-1.204-.591-2.423-.407-2.31-.59-2.424-.333-.154-.333-.091m-95.802 2.515c.133.914.364 2.326.515 3.139l.273 1.477.041-1.477c.022-.813-.209-2.225-.515-3.139l-.555-1.662.241 1.662m63.935-.617c-.146.373-.255 1.037-.242 1.478.022.76.041.755.383-.1.197-.495.307-1.16.242-1.477-.096-.475-.164-.457-.383.099m95.856 2.592c-.254.951-.448 2.266-.432 2.924.021.853.18.508.556-1.206.629-2.865.534-4.182-.124-1.718m-96.984 2.334c-.135.135-.232.675-.214 1.2.031.937.038.934.357-.135.336-1.124.286-1.494-.143-1.065m-61.864.861c-.008.305.21 1.552.484 2.771.397 1.76.5 1.95.502.923.003-1.242-.955-4.829-.986-3.694m96.729.37c-.005.304.222 1.385.505 2.401.332 1.194.524 1.52.541.923.015-.508-.212-1.588-.504-2.401s-.537-1.228-.542-.923m-71.94 2.031c.003 1.016.075 1.388.16.826s.082-1.392-.005-1.847-.157.005-.155 1.021m36.489-.299c-.016.445-.195.912-.399 1.038s-.357.758-.343 1.407c.023 1.076.073 1.023.574-.607.302-.983.47-1.98.373-2.217s-.189-.066-.205.379m96.434.934c-.238.948-.42 2.19-.404 2.76.016.584.257-.012.551-1.363.61-2.802.491-3.931-.147-1.397m-59.709 2.505l.54 2.031.303 1.108.025-1.108c.014-.609-.229-1.524-.539-2.031l-.564-.924.235.924m-96.93 0c.003.304.238 1.551.524 2.77l.519 2.216-.211-2.216c-.195-2.053-.845-4.216-.832-2.77m131.221 2.77c-.001 1.828.061 2.622.139 1.765s.078-2.353.002-3.324-.14-.27-.141 1.559m-72.48-1.257c-.227.65-.4 1.531-.386 1.958s.273-.031.576-1.017c.615-2.002.455-2.792-.19-.941m96.978.475c-.139.361-.237 1.101-.219 1.643.031.919.057.902.389-.249.384-1.334.245-2.475-.17-1.394m-57.673 2.074c.874 3.922 1.65 5.959 1.65 4.331 0-.53-.167-1.066-.37-1.191s-.377-.593-.386-1.038-.26-1.308-.558-1.917c-.467-.955-.513-.981-.336-.185m-40.434 1.73l-.835 2.797c-.228.762-.33 1.47-.228 1.573s.555-1.08 1.004-2.628.742-2.89.649-2.983-.358.466-.59 1.241m-56.494-.182c.11 1.45.627 2.346.665 1.152.02-.648-.13-1.281-.333-1.407s-.353-.011-.332.255m153.493 1.548c-.139.362-.237 1.102-.219 1.644.031.918.057.901.389-.249.384-1.334.245-2.476-.17-1.395m-152.76 1.706c-.001 1.222 1.013 4.645 1.039 3.509.015-.61-.213-1.773-.506-2.586s-.532-1.228-.533-.923m151.861 2.555c-.254.823-.45 1.956-.437 2.518.017.71.189.407.566-.995.644-2.397.536-3.677-.129-1.523m-97.57-.084c-.016.445-.195.912-.398 1.038s-.362.675-.352 1.222c.015.831.109.733.576-.601.308-.877.479-1.792.381-2.032s-.191-.072-.207.373m44.034.345l.816 2.909 1.18 4.247c.305 1.117.787 2.768 1.071 3.667s.535 1.98.558 2.401c.036.644.07.66.215.104.161-.622-.344-2.725-1.573-6.541-.294-.914-.534-2.026-.533-2.471s-.155-.906-.346-1.025-.46-.961-.597-1.873-.413-1.76-.615-1.884c-.213-.132-.287.063-.176.466m-97.209 2.355c.02 1.446 1.007 4.979 1.032 3.693.014-.711-.214-1.957-.507-2.77s-.529-1.228-.525-.923m51.757 1.762c-.252.534-.446 1.394-.432 1.912.018.67.185.424.577-.851.618-2.012.547-2.528-.145-1.061m97.871.839c-.249.797-.433 2.076-.41 2.841s.109 1.058.189.652l.571-2.68c.509-2.327.285-2.847-.35-.813m-99.079 3.734c-.238.883-.568 1.958-.734 2.388s-.392 1.595-.502 2.586-.113 1.47-.007 1.064.606-2.212 1.112-4.013.839-3.355.741-3.453-.372.545-.61 1.428m-49.246.128c.635 3.775.849 4.518.674 2.343-.093-1.149-.338-2.479-.545-2.955-.302-.692-.327-.57-.129.612m36.792-.299c.356.093.937.093 1.293 0s.065-.169-.646-.169-1.002.076-.647.169m110.56 1.453c-.133.348-.315 1.643-.403 2.878-.166 2.318-.09 2.163.591-1.198.393-1.94.284-2.911-.188-1.68m-146.436 4.017c.063 1.506.618 2.758.654 1.477.017-.609-.13-1.357-.327-1.662-.295-.456-.353-.424-.327.185m98.979.625c.11 1.449.627 2.345.665 1.151.02-.648-.13-1.281-.333-1.407s-.353-.01-.332.256m46.383 1.178c-.139.362-.237 1.102-.219 1.644.031.918.058.901.389-.249.384-1.334.245-2.476-.17-1.395m-98.973.112c-.098.165-.278 1.215-.399 2.332l-.22 2.032.552-2.181c.5-1.979.531-2.962.067-2.183m-45.607 1.963c0 .711.076 1.002.169.647s.093-.938 0-1.293-.169-.065-.169.646m98.93-.369c-.001 1.222 1.013 4.645 1.04 3.509.014-.61-.214-1.773-.507-2.586s-.532-1.228-.533-.923m45.122 2.401c.004.812.079 1.101.168.642s.085-1.125-.008-1.478-.164.023-.16.836m-143.542 1.292c.133 1.118.304 2.101.378 2.186.325.372.085-3.166-.249-3.663-.26-.386-.299.061-.129 1.477m43.972-.492c-.136.135-.227 1.008-.203 1.939l.043 1.693.307-1.835c.314-1.878.285-2.23-.147-1.797m98.99 1.372c-.139.362-.234 1.268-.212 2.013l.041 1.355.327-1.662c.35-1.782.259-2.786-.156-1.706m-43.246 2.075l.511 3.878.276 2.216.045-2.216c.025-1.219-.205-2.964-.51-3.878l-.555-1.662.233 1.662m-99.15.369c.003.508.225 2.087.494 3.509.453 2.391.491 2.46.509.923.01-.914-.212-2.493-.494-3.508-.296-1.064-.511-1.456-.509-.924m42.599 1.549c-.539 3.135-.556 30.815-.024 38.895l.51 7.756-.202-6.279c-.49-15.257-.524-35.476-.066-38.506.471-3.11.278-4.757-.218-1.866m99.009 1.295c-.138.772-.309 2.401-.38 3.62s-.061 1.8.022 1.293l.582-3.419c.237-1.372.34-2.586.229-2.696s-.314.43-.453 1.202m-140.312 5.467c.125 1.218.349 2.964.497 3.878l.271 1.662.033-1.662c.018-.914-.206-2.66-.498-3.878l-.531-2.216.228 2.216m98.879 1.662c0 2.133.061 3.005.136 1.939a33.9 33.9 0 0 0 0-3.878c-.075-1.067-.136-.194-.136 1.939m40.194 1.048c-.243 1.174-.416 2.957-.386 3.96.032 1.063.109 1.362.184.716.07-.609.319-2.316.552-3.793.512-3.245.266-3.867-.35-.883m-40.154 4.083c.107.689.3 8.086.427 16.436l.419 15.367c.373.367-.277-31.311-.66-32.185-.336-.766-.359-.72-.186.382m-97.846 1.517c.746 6.014.85 6.455.654 2.77-.109-2.031-.357-3.943-.552-4.248-.234-.366-.268.133-.102 1.478m137.007 2.274c-.131.882-.398 3.266-.593 5.297l-.679 7.018c-.177 1.828-.314 4.487-.303 5.909.018 2.261.053 2.12.283-1.124.255-3.587.678-7.694 1.532-14.863.408-3.425.21-5.271-.24-2.237m-136.068 6.036c.015.61.156 1.939.315 2.955l.287 1.847.044-2.401c.024-1.321-.117-2.65-.314-2.955-.273-.422-.352-.291-.332.554m.822 7.387c.002 1.422.069 1.958.149 1.192s.078-1.93-.003-2.585-.147-.029-.146 1.393m.298 3.324c.021.406.165 1.237.32 1.847l.282 1.108.038-1.293c.021-.711-.123-1.542-.32-1.847-.295-.455-.352-.423-.32.185m.985 5.171c.342 2.937.329 9.597-.022 11.45l-.281 1.477.576-1.287c.673-1.502.587-10.33-.121-12.563-.358-1.129-.378-1.012-.152.923m131.772-.491c-.148.34-.09.952.129 1.361s.428 1.793.466 3.076c.066 2.265.072 2.278.202.447.164-2.316-.403-5.79-.797-4.884m.896 7.979c0 .631.164 1.249.364 1.373.227.14.276-.233.131-.994-.311-1.633-.495-1.774-.495-.379m-94.873 4.7c-.02 2.641.092 5.006.251 5.255.266.419.183-8.259-.092-9.502-.067-.305-.139 1.606-.159 4.247m95.641-2.245c-.037.904 2.025 5.161 2.816 5.813.365.301.245-.083-.307-.982a27.43 27.43 0 0 1-2.299-4.986c-.129-.394-.189-.349-.21.155m-134.414 4.14c-.851 2.055-2.97 3.795-5.594 4.593-.843.256-.854.284-.125.313 2.094.083 6.81-4.097 6.311-5.594-.075-.226-.342.084-.592.688m138.069 2.907c1.403 1.917 4.568 4.247 5.768 4.247.465 0 .948.166 1.074.37s.759.356 1.407.341c.95-.023.725-.162-1.166-.72-2.65-.782-3.528-1.293-5.932-3.455-.93-.837-1.448-1.19-1.151-.783m-147.175 2.596c-1.149.378-1.272.489-.554.498.508.007 1.422-.216 2.032-.496 1.403-.642.469-.644-1.478-.002m48.687 2.39c0 1.32.067 1.86.149 1.2a11.74 11.74 0 0 0 0-2.4c-.082-.661-.149-.121-.149 1.2m-51.561-1.619c-.125.125-.776.357-1.447.516-1.003.238-1.056.292-.295.31 1.011.023 3.502-.975 2.554-1.024-.321-.016-.687.073-.812.198m-4.143 1.25c-.712.306-.71.318.07.343.445.014.912-.14 1.038-.343.27-.437-.092-.437-1.108 0m-3.509.946c-1.162.44-1.197.491-.351.51.518.012 1.1-.129 1.293-.313s.683-.413 1.089-.511l.739-.177-.739.001c-.406 0-1.32.221-2.031.49m167.867-.314c.406.098.897.328 1.09.511s.857.323 1.477.309c1.026-.022.978-.071-.535-.548-.915-.288-1.912-.507-2.217-.487s-.223.117.185.215m-51.922 4.261c-.034 4.257-.14 6.47-.465 9.696-.189 1.879-.166 2.019.154.923.423-1.451.94-14.404.575-14.404-.129 0-.248 1.703-.264 3.785m-120.008-2.839c-.941.356-1.078.495-.504.51.434.012 1.348-.222 2.032-.519 1.58-.686.289-.678-1.528.009m176.866-.041c.684.315 1.681.555 2.216.534.864-.033.828-.077-.319-.39-2.594-.707-3.225-.754-1.897-.144m-180.559 1.149c-1.127.426-1.174.49-.369.497.507.004 1.338-.23 1.846-.52 1.139-.651.269-.637-1.477.023m184.303-.208c.304.197.886.349 1.292.338l.739-.02-.739-.318c-1.104-.474-2.027-.474-1.292 0m-117.082 2.687c0 1.545.153 2.905.341 3.021.315.195.114-5.308-.207-5.677-.074-.085-.134 1.111-.134 2.656m-71.099-1.354l-1.478.516 1.478-.219c1.537-.229 3.151-.897 2.031-.841-.305.015-1.219.26-2.031.544m192.428-.225c.126.203.676.358 1.222.344.888-.023.915-.06.256-.344-1.027-.441-1.75-.441-1.478 0m3.694.934c.812.293 1.809.524 2.216.513s-.01-.254-.924-.542c-2.168-.684-3.205-.66-1.292.029m-199.262.174l-.923.296.994.037c.546.02 1.096-.129 1.222-.333.259-.419.018-.419-1.293 0m-3.324.924c-.711.274-1.021.51-.689.526s1.164-.215 1.847-.512c1.557-.676.592-.688-1.158-.014m206.279-.291c.406.098.897.328 1.09.511s.857.323 1.477.309c1.026-.022.978-.072-.536-.548-.914-.288-1.911-.507-2.216-.487s-.223.117.185.215m-209.808 1.351c-2.286.845-3.858 2.126-5.498 4.48-.937 1.344-.101.594 1.037-.931.703-.942 3.446-2.947 4.031-2.947.303 0 1.027-.248 1.609-.552 1.218-.635.486-.667-1.179-.05m214.744.062c.684.297 1.515.533 1.847.525s.045-.257-.639-.554-1.514-.533-1.847-.525-.044.257.639.554m2.636.706c0 .097.58.571 1.288 1.052 1.273.865 2.84 2.81 3.854 4.783.287.558.589.948.672.865.209-.208-.947-2.388-2.004-3.779-.793-1.042-3.81-3.356-3.81-2.921m-135.457 3.712c.004.812.08 1.101.168.642s.085-1.124-.007-1.477-.165.022-.161.835m-89.026 2.561c-.619 1.357-.56 1.642.133.651.32-.457.522-1.011.448-1.232s-.335.04-.581.581m89.352.578c-.021.711.123 1.542.32 1.847.441.682.441-.299 0-2.031l-.282-1.108-.038 1.292m141.072 1.108c-.011.508.141 1.173.337 1.478.47.727.47-.569 0-1.662-.29-.677-.319-.661-.337.184M84.34 293.259c0 1.727.063 2.434.141 1.57s.078-2.276 0-3.139-.141-.157-.141 1.569m144.424 1.847c0 2.336.06 3.292.133 2.124a41.23 41.23 0 0 0 0-4.248c-.073-1.168-.133-.212-.133 2.124m-53.51 3.509c0 3.817.115 6.293.256 5.502s.255-3.268.255-5.502-.115-4.71-.255-5.502-.256 1.685-.256 5.502m140.998-5.171c.004.813.08 1.102.168.642s.085-1.124-.007-1.477-.165.023-.161.835m-.586 1.908c-.135.136-.246.543-.246.905 0 .856-2.186 2.901-3.139 2.936a4.53 4.53 0 0 0-1.478.378c-.569.27-.423.312.635.184 1.621-.196 3.787-1.808 4.391-3.268.419-1.01.33-1.627-.163-1.135M86.59 298.627c.394.298.883.542 1.086.542s.047-.244-.348-.542-.883-.543-1.086-.543-.047.244.348.543m2.791 1.065c.711.291 1.709.524 2.216.519.739-.008.666-.08-.369-.362-2.385-.65-3.227-.721-1.847-.157m139.636.508c-.058 1.18 2.374 5.433 4.145 7.249 2.001 2.051 3.588 3.132 3.588 2.444 0-.21-.242-.382-.538-.382-.867 0-4.441-3.794-5.247-5.57l-1.332-2.925c-.326-.711-.603-1.078-.616-.816m77.982.072c-1.161.275-2.053.761-1.336.728.923-.043 4.274-1.029 3.478-1.023-.508.003-1.472.136-2.142.295m-213.924.374c.727.471 1.583.471 1.292 0-.125-.203-.592-.366-1.037-.363-.658.004-.706.072-.255.363m2.77.749c2.681.734 3.024.771 1.847.195-.61-.297-1.524-.531-2.032-.52-.85.02-.835.045.185.325m206.094.161c-1.436.658-.844.667 1.477.022 1.481-.411 1.627-.514.739-.521-.609-.004-1.607.22-2.216.499m-201.477 1.141c2.142.675 2.749.657 1.158-.034-.684-.296-1.598-.528-2.032-.515-.443.014-.061.254.874.549m196.676-.006c-1.406.644-.911.644 1.662.003 1.76-.44 1.859-.508.738-.509-.711-.001-1.791.227-2.4.506m-192.614 1.114c2.169.683 3.206.659 1.293-.03-.812-.293-1.81-.523-2.216-.513s.009.255.923.543m188.551-.204c-.126.203-.593.383-1.038.399s-.63.103-.412.193 1.298-.077 2.4-.374c1.914-.514 1.943-.54.641-.563-.749-.013-1.466.142-1.591.345m-184.303 1.332c.812.298 1.81.475 2.216.394.537-.108.467-.162-.255-.198-.547-.028-1.097-.217-1.222-.42s-.676-.357-1.223-.343c-.879.023-.823.088.484.567m179.871-.224c-.126.203-.676.389-1.223.412-.562.025-.727.114-.38.206.338.089 1.418-.085 2.401-.387 1.631-.501 1.684-.551.608-.574-.648-.015-1.281.14-1.406.343m-176.178 1.108c1.026.441 1.75.441 1.478 0-.126-.203-.676-.357-1.222-.343-.888.023-.915.06-.256.343m171.746 0c-.273.441.451.441 1.477 0 .659-.283.632-.32-.255-.343-.547-.014-1.097.14-1.222.343m-110.177 1.766c-.863 1.909-2.259 3.774-2.826 3.774-.18 0-.651.291-1.045.647-.944.851-15.418.793-21.265-.085-2.057-.309-4.531-.535-5.498-.503-1.418.048-1.507.085-.464.19.711.072 3.204.369 5.54.659 11.478 1.428 20.592 1.163 22.98-.668 1.453-1.115 3.778-4.73 3.527-5.485-.067-.199-.494.463-.949 1.471m-57.875-.834c2.321.645 2.913.636 1.477-.022-.609-.279-1.606-.503-2.216-.499-.888.007-.742.11.739.521m163.989.01l-1.108.54 1.108-.239 2.4-.514 1.293-.275-1.293-.025c-.711-.015-1.791.217-2.4.513m-159.742.895l2.401.533 1.108.258-.923-.562c-.508-.309-1.588-.549-2.401-.533l-1.477.03 1.292.274m154.756.229l-.924.562 1.108-.258 2.401-.533 1.293-.274-1.478-.03c-.812-.016-1.893.224-2.4.533m-148.477 1.089c2.651.662 3.533.648 1.662-.026-.812-.293-1.976-.521-2.585-.506-.831.019-.6.152.923.532m144.229-.2c-.125.203-.592.382-1.037.398s-.631.104-.413.194 1.298-.078 2.401-.374c1.913-.514 1.942-.54.641-.563-.75-.013-1.466.142-1.592.345m-139.243 1.108c1.732.441 2.714.441 2.032 0-.305-.197-1.136-.341-1.847-.32l-1.293.038 1.108.282m134.257 0c-.305.197-1.053.385-1.662.419-.966.053-.99.078-.185.191.508.072 1.755-.104 2.77-.391 1.531-.433 1.658-.527.739-.55-.609-.015-1.357.134-1.662.331m-130.009.707c3.302.577 5.75.797 4.965.447-.418-.186-2.081-.429-3.694-.538-2.021-.138-2.417-.109-1.271.091m124.838.401c-.705.456.054.456 1.478 0l.923-.296-.923-.031c-.508-.017-1.173.13-1.478.327m-20.364.938c.684.297 1.432.533 1.662.526.73-.022-1.393-1.069-2.166-1.067-.51.001-.354.168.504.541m15.563-.109c-2.607.596-1.22.701 1.662.126 1.693-.338 2.139-.515 1.292-.511-.711.002-2.04.176-2.954.385m-10.835 1.152c1.57.196 3.975.194 5.91-.006 3.134-.322 3.03-.335-2.647-.33-5.217.005-5.599.044-3.263.336" fill="#747c8c"/><path d="M126.07 48.25c-2.466 1.599-3.892 6.144-7.345 23.403l-.902 4.432c-3.836 18.313-4.33 50.83-1.087 71.468.192 1.219.507 3.463.7 4.986s.601 4.349.905 6.279l.926 5.91c.6 3.87 2.179 11.877 3.496 17.728l2.11 9.972c1.039 5.063 2.964 15.667 3.519 19.391l.69 4.432c.289 1.828.787 5.402 1.106 7.941l.955 7.202c.379 2.616.894 7.593 1.417 13.666.157 1.828.518 3.989.803 4.801.937 2.673.728 14.394-.29 16.297-1.731 3.236-2.428 3.593-12.482 6.39l-7.387 2.074-8.31 2.409-8.495 2.42c-3.66.982-4.232 1.162-5.54 1.745-3.913 1.744-7.387 7.433-7.387 12.094 0 4.026 2.116 6.225 7.017 7.294a80.09 80.09 0 0 1 3.878.991l6.555 1.832 8.404 2.226 8.68 2.031 4.247.898c9.573 2.077 18.865 3.561 26.777 4.276 17.508 1.583 19.709 1.489 22.984-.977 4.054-3.054 5.529-11.61 3.653-21.187-1.507-7.686-2.875-26.086-3.558-47.83-.63-20.078-.371-26.893 1.329-34.903l.897-4.248c.315-1.503 1.887-7.407 3.343-12.557l.848-3.14c.294-1.117.864-3.111 1.268-4.432.853-2.791.885-2.905 2.353-8.495 1.911-7.275 2.136-8.208 2.889-12.003l1.099-5.541c.201-1.015.531-3.176.732-4.801l.754-5.91c.478-3.645.46-17.164-.029-22.16l-.703-7.756c-.187-2.235-.509-5.144-.714-6.464l-.98-6.648-1.322-8.495-1.046-6.424c-.181-1.197-.498-2.943-.704-3.878s-.64-3.198-.966-5.026-.746-3.989-.932-4.801-.528-2.475-.759-3.694l-.93-4.894-2-11.172c-1.259-8.402-.328-8.126-27.439-8.126h-21.525l-1.502.974m101.957-.267c-2.388 1.084-3.309 2.623-3.997 6.68l-.967 5.355-4.238 21.976-.929 4.802c-.195.914-.507 2.659-.693 3.878l-.917 5.725c-5.174 31.292-5.227 48.758-.209 69.991l1.099 4.801c.172.813.677 2.807 1.122 4.432l1.108 4.063 1.404 4.986 2.43 8.68 1.69 5.929c.201.62.515 1.866.697 2.77l.954 4.413c1.45 6.467 2.029 12.218 2.044 20.313a427.21 427.21 0 0 0 .378 15.698c.621 13.255.509 35.984-.212 43.213-1.205 12.067-1.131 13.388.985 17.677 4.607 9.341 13.781 12.152 29.134 8.926l5.356-1.108 4.247-.93c.711-.18 2.54-.591 4.063-.913l4.986-1.109 7.203-1.655 6.278-1.473c1.314-.346 2.904-.727 10.157-2.43l6.095-1.451a58.32 58.32 0 0 1 3.693-.766c10.66-1.734 6.423-17.391-5.54-20.476l-8.126-2.116-6.279-1.58c-.711-.151-2.04-.478-2.954-.726l-3.878-1.008-3.509-.889-2.775-.7c-7.758-1.915-11.775-12.699-10.194-27.362l.989-9.403c.69-6.688 1.509-13.245 2.028-16.251.211-1.219.529-3.38.707-4.802.347-2.769 1.096-7.304 2.043-12.373l.93-4.986 2.026-10.157a538.08 538.08 0 0 0 3.71-18.098l.922-4.986c.35-1.866.704-4.136 1.642-10.526.593-4.045 1.794-14.702 2.413-21.422 1.897-20.581.194-44.999-4.622-66.298l-.937-4.368c-.193-.981-.439-1.925-.547-2.099s-.35-1.034-.538-1.911c-1.611-7.476-2.26-8.786-5.068-10.228-1.583-.814-43.564-.544-45.404.292m-55.543.668c2.245 1.109 2.502 1.639 3.514 7.249l1.469 7.812.934 4.801.877 4.617 3.905 21.237 1.464 9.234.735 5.54c1.037 7.774 1.283 10.451 1.917 20.879.888 14.605-.933 27.749-6.78 48.927l-2.132 7.757-1.986 7.119c-2.061 7.33-3.675 14.296-4.341 18.735-.558 3.715-.699 29.512-.212 38.966l.623 12.188c.576 11.323 1.567 21.351 2.772 28.07 2.085 11.612-.896 20.372-7.228 21.242-8.449 1.163-32.351-1.781-52.595-6.476-4.916-1.141-5.402-1.266-13.666-3.533l-9.787-2.606c-3.206-.678-5.577-1.739-6.673-2.987-2.345-2.67-1.167-9.212 2.353-13.072 2.305-2.527 2.959-2.804 13.971-5.906l7.154-2.042 3.693-1.042 4.063-1.124 3.324-.933c6.643-1.808 9.227-2.626 10.421-3.297 4.108-2.309 5.483-8.989 3.803-18.482-.45-2.54-.958-6.196-1.131-8.126-.586-6.561-1.924-18.075-2.554-21.976l-1.14-7.387c-1.414-9.349-2.831-17.024-5.149-27.885-2.233-10.467-4.091-20.134-4.987-25.947-1.404-9.102-1.633-10.762-2.178-15.789l-1.001-9.049c-.602-5.303-.869-32.35-.37-37.53l1.54-14.178c.92-5.79 2.206-12.732 2.944-15.882l1.288-5.54c2.903-12.525 2.95-12.633 6.078-14.104 1.981-.932 43.089-.457 45.068.52m100.129-.587c2.833.945 3.456 2.03 5.134 8.952 3.796 15.65 4.786 20.918 6.532 34.766.801 6.355.928 36.595.181 42.844-.244 2.031-.605 5.522-.804 7.756s-.532 5.226-.741 6.648l-3.138 19.576a569.11 569.11 0 0 1-3.142 15.697l-2.404 11.634-2.942 16.621c-1.347 8.374-2.543 17.488-3.148 24.007l-.753 7.018c-1.543 12.515.201 21.393 5.195 26.449 2.627 2.659 3.207 2.936 9.411 4.51l15.494 3.923c13.084 3.31 15.028 4.272 17.186 8.501 3.362 6.591 1.74 11.944-3.932 12.979-1.185.216-4.897 1.052-8.249 1.857l-26.408 6.251-3.878.871-5.356 1.154-5.355 1.118c-7.794 1.638-8.884 1.781-13.481 1.775-6.635-.009-11.107-1.671-14.853-5.518-4.185-4.299-5.276-9.355-4.057-18.818 1.097-8.525 1.125-33.794.067-60.856-.589-15.054-1.361-20.463-4.47-31.288l-1.064-3.878c-.264-1.016-1.078-3.924-1.808-6.463l-1.847-6.464-1.095-3.878c-.911-3.209-3.191-13.121-3.908-16.99-.743-4.012-1.47-9.572-1.672-12.79l-.394-6.046c-.221-3.27.354-16.709.94-21.976 1.156-10.392 3.577-26.383 5.172-34.165l1.486-7.756 2.013-10.526 2.221-12.231c.321-2.525 1.84-4.379 4.178-5.098 2.259-.695 41.655-.844 43.689-.166" fill="#a2a5af"/></svg>