<svg xmlns="http://www.w3.org/2000/svg" width="400" height="320" fill-rule="evenodd" xmlns:v="https://vecta.io/nano"><path d="M119.742 50.675c-2.633.52-2.848 2.101-2.499 18.325l.43 29.016.127 15.015-2.272 4.585c-2.374 4.789-3.613 7.495-5.123 11.184l-1.402 3.4c-.276.66-.813 2.1-1.195 3.2s-.845 2.36-1.032 2.8c-.777 1.834-4.519 13.546-5.119 16.02-.21.869-.768 3.02-1.239 4.78s-1.025 4.01-1.23 5l-.999 4.6c-1.418 6.338-2.53 13.555-3.605 23.4-1.233 11.302-1.079 31.703.376 49.8.513 6.375.86 9.611 2.23 20.8.593 4.845 2.314 16.152 3.409 22.4l.983 5.879a139.78 139.78 0 0 0 .763 4.4l2.271 12.321c.34 1.87.784 4.12.987 5s.642 3.13.976 5l1.025 5.6c.23 1.21.78 4.9 1.222 8.2.79 5.903.825 6.021 2.183 7.3l1.379 1.3 24.906.1c36.942.148 33.695.252 35.128-1.121.665-.637 1.447-1.613 1.739-2.169 3.323-6.335 4.352-8.461 6.008-12.41l2.438-5.8c.281-.66 1.247-3.45 2.148-6.2l2.053-6.26a92.18 92.18 0 0 0 1.047-3.6l1.014-3.74c.375-1.373.983-3.815 2.142-8.6a98.02 98.02 0 0 0 1.005-4.771c.233-1.304.522-2.529.642-2.722s.369-1.287.554-2.43l.973-5.677c.351-1.98.83-4.95 1.065-6.6.643-4.508.694-4.693 1.362-4.949.747-.287.72-.378 1.565 5.349.373 2.53.927 5.86 1.231 7.4l3.053 14.6c4.771 20.822 14.614 46.203 19.045 49.106 1.19.78-1.219.739 34.763.594l24.87-.1 1.179-.992c1.306-1.1 1.469-1.665 2.302-8.008.318-2.42.835-5.75 1.15-7.4l1.166-6.2 1.247-6.6 1.024-5.4 1.015-5.4 2.346-13.4c3.109-18.328 4.909-32.144 6.019-46.2 1.338-16.953 1.377-40.764.081-50-.108-.77-.308-2.57-.445-4a69.74 69.74 0 0 0-.607-4.6l-1.022-6c-.8-4.818-2.439-12.668-3.382-16.2-4.408-16.508-8.796-28.592-15.108-41.6l-2.62-5.4.278-17.6.283-29.966.005-12.365-1.034-1.035-1.034-1.034-76.691-.047c-42.18-.026-77.077.029-77.549.122m72.227 4.761l1.231 1.035v41.103c0 38.645-.042 41.139-.7 41.713-2.935 2.56-4.434 1.77-7.637-4.026-12.83-23.22-17.263-40.405-17.263-66.923 0-12.846 1.087-13.863 14.869-13.91l8.27-.028 1.23 1.036m29.356-.046c3.909 1.865 4.052 2.333 4.213 13.78.364 26.02-3.985 42.645-17.536 67.03-2.337 4.207-3.754 5.162-5.962 4.021-2.074-1.073-2.04-.37-2.04-42.621 0-41.95-.019-41.528 1.942-42.593 2.075-1.127 16.829-.835 19.383.383m-81.816.824c3.009 1.501 10.058 10.189 13.782 16.986 6.812 12.432 9.949 33.958 5.261 36.095-1.846.841-2.541.216-12.952-11.632l-4.012-4.473c-8.301-9.22-9.999-11.753-11.393-16.99-1.831-6.88-.91-16.702 1.775-18.921 2.032-1.679 5.363-2.15 7.539-1.065m120.506.194c2.614 1.333 3.451 3.084 3.993 8.351 1.097 10.656-.91 15.818-10.208 26.261-18.26 20.506-17.408 19.748-19.946 17.751-1.044-.821-1.054-.881-1.051-6.1.008-16.359 5.799-30.712 17.585-43.589 3.16-3.452 6.36-4.341 9.627-2.674M135.076 90.494c5.658 7.857 5.851 8.207 6.032 10.906.175 2.596.21 2.498-4.211 11.8l-2.811 6-2.451 5.324c-.899 1.938-1.635 3.593-1.635 3.678s-.969 2.279-2.152 4.876l-3.022 6.722-1.224 2.8c-.195.44-.916 2.15-1.602 3.8l-1.606 3.8c-.197.44-1.192 2.87-2.21 5.4-2.273 5.645-3.001 7.541-5.178 13.471-1.495 4.074-2.946 4.883-4.172 2.326-1.387-2.895 1.456-18.298 4.725-25.597.197-.44.747-1.79 1.221-3l1.213-3c.192-.44 1.188-2.96 2.211-5.6l2.216-5.6c2.291-5.184 8.127-20.842 8.409-22.561.201-1.231.367-6.229.369-11.106.002-9.194.007-9.223 1.678-9.301.424-.02 1.992 1.795 4.2 4.862M265.513 86.1c.248.302.471 4.611.564 10.9l.153 10.4 1.317 3.2 1.853 4.6 3.41 8.6c.202.44.738 1.79 1.19 3s.987 2.56 1.19 3 1.194 2.96 2.206 5.6l2.205 5.6c6.245 13.626 9.102 31.8 4.999 31.8-.598 0-2.2-1.853-2.2-2.545 0-.241-.47-1.702-1.045-3.247l-4.941-12.808c-.567-1.259-1.397-3.227-3.59-8.514-1.121-2.703-2.666-6.272-3.431-7.93S268 134.669 268 134.58s-.61-1.471-1.356-3.071L260.483 118l-3.463-7.375c-4.687-9.861-4.749-9.577 5.062-22.925 1.537-2.09 2.615-2.593 3.431-1.6m-121.635 37.882c2.012 1.227 2.326 2.036 4.744 12.218l9.395 42c3.655 23.46 2.602 48.519-3.039 72.4-4.464 18.893-7.29 22.906-15.879 22.542-6.114-.258-9.135-3.15-11.129-10.652-1.338-5.038-2.298-8.038-5.325-16.643-7.954-22.617-8.187-49.527-.666-76.947 3.019-11.006 8.416-26.694 13.782-40.062 2.12-5.281 4.795-6.881 8.117-4.856m110.635-.237c2.253.953 3.008 2.393 7.058 13.455l2.227 6c2.646 6.832 6.931 20.262 9.061 28.4 6.657 25.436 6.179 53.966-1.24 74-2.354 6.355-4.254 12.161-5.426 16.577-2.271 8.56-4.779 10.823-11.993 10.823-7.253 0-9.169-2.047-12.733-13.6-6.124-19.851-9.282-53.179-6.728-71 .236-1.65.522-3.92.635-5.044.475-4.74 2.645-15.992 4.776-24.756l2.159-9c6.056-25.497 5.7-24.329 7.81-25.616 1.512-.922 2.637-.983 4.394-.239m-89.349 16.016c.496.529 2.283 2.853 3.969 5.164l9.448 12.913c9.848 13.444 10.027 14.137 8.213 31.962a180.6 180.6 0 0 0-.569 7.6c-.111 2.2-.38 6.07-.597 8.6l-1.038 13.6c-1.109 15.529-1.711 21.681-2.169 22.139-.91.91-1.805-.456-3.262-4.973l-4.563-14.166-4.585-14.2c-3.578-11.003-3.457-10.413-4.404-21.4l-1.007-10.2-1.198-11.8-1.205-12c-1.076-9.858-1.164-12.776-.411-13.529.95-.95 2.323-.832 3.378.29m66.667.031c.573.874.597 1.5.198 5.3l-2.231 22.108-1.011 9.8-.796 8.357c-.222 2.616-.484 5.136-.581 5.6s-.284 2.342-.416 4.173-.4 3.722-.596 4.2-1.918 5.73-3.824 11.67l-4.97 15.4-3.189 9.926c-1.649 5.21-2.281 6.215-3.351 5.327-.571-.474-1.249-8.108-3.666-41.253l-1.051-13.503c-1.382-15.987-1.624-15.29 11.592-33.297l3.349-4.6c7.743-10.805 8.859-11.779 10.543-9.208M111.198 177.99c.561.355.703 10.399.16 11.278-.092.148-.271 4.649-.399 10.001-.487 20.459 1.588 39.792 5.641 52.531 2.088 6.564 7.698 20.843 10.012 25.485 4.229 8.482 4.595 23.357.659 26.862-6.815 6.071-18.282-14.849-22.444-40.947-2.098-13.159-2.778-43.703-1.269-57 2.604-22.943 4.558-30.158 7.64-28.21m177.153 1.353c.438.53 1.033 3.318 1.832 8.583l.792 4.8c2.707 12.8 1.398 52.493-2.337 70.874-4.26 20.963-14.601 42-20.647 42-4.557 0-5.622-2.115-5.709-11.336-.078-8.23.353-10.069 4.065-17.342 2.96-5.798 5.304-10.845 7.116-15.322l1.739-4.2c6.582-14.537 9.991-36.836 10.016-65.505.01-11.212.085-12.713.653-13.031.741-.414 1.932-.184 2.48.479M167.285 218.7c1.542 1.774 6.938 20.361 8.274 28.5 1.834 11.176 1.83 11.118 1.821 25-.006 8.902-.178 14.567-.499 16.4-.269 1.54-.67 4.78-.891 7.2-1.238 13.591-1.956 16.571-4.783 19.858-10.236 11.904-30.205 5.15-30.1-10.182.062-9.091 3.786-19.529 9.994-28.01 7.95-10.864 11.599-24.408 13.102-48.63.67-10.802 1.145-12.363 3.082-10.136m61.078.03c.215.402.501 3.507.637 6.9.97 24.217 5.103 40.37 13.197 51.57 2.668 3.693 6.932 11.53 7.508 13.8a391.87 391.87 0 0 0 1.018 3.8c2.925 10.762 1.893 17.563-3.398 22.399-10.594 9.682-28.935 2.409-28.924-11.47.001-.841-.259-3.779-.578-6.529-1.891-16.301-1.945-17.095-1.923-27.8.036-17.522 2.105-29.491 8.261-47.8 1.895-5.638 3.065-6.994 4.202-4.87" fill="#444d6b"/><path d="M139.33 123.784c-1.841.8-2.355 1.734-5.513 10.016-9.093 23.848-14.405 41.974-16.235 55.4-.225 1.65-.519 8.516-.653 15.257-.393 19.717.585 26.801 5.716 41.39 3.027 8.605 3.987 11.605 5.325 16.643 1.994 7.502 5.015 10.394 11.129 10.652 7.492.317 10.007-2.182 13.341-13.253 8.344-27.708 9.957-58.224 4.616-87.289-.515-2.799-1.844-8.618-5.254-23-6.095-25.708-5.636-24.223-7.924-25.618-1.493-.91-2.783-.966-4.548-.198m110.789.2c-2.11 1.287-1.754.119-7.81 25.616l-2.159 9c-2.131 8.764-4.301 20.016-4.776 24.756-.113 1.124-.399 3.394-.635 5.044-2.188 15.27-.129 43.707 4.532 62.6 4.723 19.142 6.662 22 14.929 22 7.214 0 9.722-2.263 11.993-10.823 1.172-4.416 3.072-10.222 5.426-16.577 7.419-20.034 7.897-48.564 1.24-74-2.13-8.138-6.415-21.568-9.061-28.4l-2.227-6c-4.05-11.062-4.805-12.502-7.058-13.455-1.757-.744-2.882-.683-4.394.239" fill="#f30c4e"/><path d="M0 203.2v203.2h200 200V203.2 0H200 0v203.2M274.318 50.219c.682.34 1.638 1.263 2.125 2.05l.884 1.432-.517 29.449-.518 29.45 3.054 6.247 3.054 6.557c0 .169.384 1.138.854 2.152l3.174 7.831c1.601 4.3 2.172 5.97 3.972 11.613 7.644 23.965 11.268 51.219 10.044 75.54-.674 13.381-1.06 18.914-1.803 25.86-1.019 9.517-2.324 20.013-3.009 24.2l-1.002 6.2-2.836 16.8-2.355 12.8-2.271 12c-1.211 6.499-1.687 9.36-2.133 12.8-.663 5.125-1.098 6.013-3.455 7.058-.719.318-9.606.495-30 .597L222.6 341l-1.322-.943c-.727-.519-1.786-1.677-2.352-2.574-2.345-3.715-7.119-13.788-8.666-18.283a131.69 131.69 0 0 0-1.474-4c-.47-1.21-1.002-2.74-1.182-3.4s-.683-2.28-1.119-3.6c-.746-2.258-1.507-4.817-2.676-9-.276-.99-.81-3.15-1.185-4.8l-1.243-5.4c-1.421-6.072-3.548-17.008-3.996-20.542-.373-2.942-1.161-2.063-1.742 1.942-.239 1.65-.689 4.35-.999 6l-1.018 5.6c-.249 1.43-.609 3.14-.799 3.8s-.641 2.55-1.003 4.2l-1.285 5.6c-.605 2.507-.84 3.368-2.339 8.6-.782 2.727-3.983 12.418-4.655 14.092-2.466 6.143-2.979 7.334-5.13 11.908-2.95 6.273-4.894 9.193-6.815 10.233-1.694.918-58.562.55-60.2-.39-1.777-1.018-2.986-3.426-2.993-5.96-.004-1.164-.258-3.414-.566-5l-1.222-6.683-2.253-11.8c-.207-.88-.557-2.77-.778-4.2a157.14 157.14 0 0 0-1.001-5.6 263.96 263.96 0 0 1-1.173-6.4l-1.212-7c-.352-1.98-.79-4.68-.975-6s-.53-3.48-.767-4.8-.715-4.47-1.062-7l-1.019-7.2c-1.611-10.751-2.968-28.135-3.435-44.014-.637-21.673 2.402-45.456 8.407-65.786l1.049-3.6c.815-2.851 4.88-14.788 5.176-15.2.157-.22.611-1.3 1.009-2.4.634-1.754 1.379-3.582 2.608-6.4.191-.44 1.646-3.484 3.231-6.764l2.883-5.964-.602-28.836c-.677-32.395-.752-31.243 2.168-33.024 1.825-1.113 153.224-1.301 155.445-.193" fill="#14181D"/><path d="M108.636 178.5c-1.433 2.213-3.408 12.988-5.078 27.7-2.285 20.13-.353 54.09 3.971 69.816 5.712 20.772 14.287 32.99 19.742 28.131 3.936-3.505 3.57-18.38-.659-26.862-2.314-4.642-7.924-18.921-10.012-25.485-4.053-12.739-6.128-32.072-5.641-52.531.128-5.352.307-9.853.399-10.001.543-.879.401-10.923-.16-11.278-.995-.629-1.948-.439-2.562.51m177.235.364c-.568.318-.643 1.819-.653 13.031-.025 28.669-3.434 50.968-10.016 65.505-.199.44-.982 2.33-1.739 4.2-1.812 4.477-4.156 9.524-7.116 15.322-5.367 10.514-5.99 25.573-1.163 28.07 3.308 1.71 5.764.283 9.7-5.635 8.69-13.069 14.406-31.837 16.311-53.557 1.553-17.705 1.439-45.231-.22-53.074-.125-.59-.481-2.75-.792-4.8-1.34-8.834-2.051-10.327-4.312-9.062m-120.618 39.672c-.257.31-.699 4.638-1.05 10.3-1.503 24.222-5.152 37.766-13.102 48.63-6.208 8.481-9.932 18.919-9.994 28.01-.105 15.332 19.864 22.086 30.1 10.182 2.827-3.287 3.545-6.267 4.783-19.858.221-2.42.622-5.66.891-7.2.815-4.653.678-28.935-.194-34.4-1.379-8.652-1.57-9.663-2.751-14.6-3.78-15.791-6.859-23.261-8.683-21.064m60.68.364c-1.049 1.909-4.87 14.03-6.311 20.021-2.747 11.424-3.696 19.699-3.722 32.479-.022 10.705.032 11.499 1.923 27.8.319 2.75.579 5.688.578 6.529-.011 13.879 18.33 21.152 28.924 11.47 5.291-4.836 6.323-11.637 3.398-22.399l-1.018-3.8c-.576-2.27-4.84-10.107-7.508-13.8-8.094-11.2-12.227-27.353-13.197-51.57-.296-7.396-1.386-9.787-3.067-6.73" fill="#f78365"/><path d="M118.873 50.412c-2.92 1.781-2.845.629-2.168 33.024l.602 28.836-2.883 5.964-3.231 6.764c-1.229 2.818-1.974 4.646-2.608 6.4-.398 1.1-.852 2.18-1.009 2.4-.296.412-4.361 12.349-5.176 15.2l-1.049 3.6c-4.357 14.749-7.186 31.484-8.179 48.386-.901 15.324.596 43.994 3.207 61.414l1.019 7.2 1.062 7c.237 1.32.582 3.48.767 4.8s.623 4.02.975 6l1.212 7 1.173 6.4a157.14 157.14 0 0 1 1.001 5.6c.221 1.43.571 3.32.778 4.2.449 1.908 1.34 6.573 2.253 11.8l1.222 6.683c.308 1.586.562 3.836.566 5 .007 2.534 1.216 4.942 2.993 5.96 1.638.94 58.506 1.308 60.2.39 1.921-1.04 3.865-3.96 6.815-10.233 2.151-4.574 2.664-5.765 5.13-11.908.672-1.674 3.873-11.365 4.655-14.092l2.339-8.6 1.285-5.6c.362-1.65.813-3.54 1.003-4.2s.55-2.37.799-3.8l1.018-5.6c.31-1.65.76-4.35.999-6 .581-4.005 1.369-4.884 1.742-1.942.448 3.534 2.575 14.47 3.996 20.542l1.243 5.4c.375 1.65.909 3.81 1.185 4.8 1.169 4.183 1.93 6.742 2.676 9 .436 1.32.939 2.94 1.119 3.6s.712 2.19 1.182 3.4a131.69 131.69 0 0 1 1.474 4c1.547 4.495 6.321 14.568 8.666 18.283.566.897 1.625 2.055 2.352 2.574l1.322.943 28.98-.145c20.394-.102 29.281-.279 30-.597 2.357-1.045 2.792-1.933 3.455-7.058.446-3.44.922-6.301 2.133-12.8l2.271-12 2.355-12.8 2.836-16.8 1.002-6.2c1.226-7.495 3.411-26.768 3.967-35 1.433-21.208 1.433-29.619.002-45.6-1.249-13.941-4.741-31.017-9.201-45-1.8-5.643-2.371-7.313-3.972-11.613-1.78-4.782-1.914-5.111-3.174-7.831-.47-1.014-.854-1.983-.854-2.152s-1.374-3.121-3.054-6.557l-3.054-6.247.518-29.45.517-29.449-.884-1.432c-1.791-2.897 5.033-2.669-79.804-2.668l-77.766.811m156.143 1.222l1.034 1.035-.005 12.365L275.762 95l-.278 17.6 2.62 5.4c6.312 13.008 10.7 25.092 15.108 41.6.943 3.532 2.582 11.382 3.382 16.2l1.022 6a69.74 69.74 0 0 1 .607 4.6c.137 1.43.337 3.23.445 4 .964 6.87 1.257 30.567.515 41.6-1.322 19.636-2.916 32.8-6.615 54.6l-2.346 13.4-1.015 5.4-1.024 5.4-1.247 6.6-1.166 6.2c-.315 1.65-.832 4.98-1.15 7.4-.833 6.343-.996 6.908-2.302 8.008l-1.179.992-24.87.1c-35.982.145-33.573.186-34.763-.594-3.445-2.257-11.793-21.965-16.48-38.906-1.227-4.434-1.415-5.182-2.565-10.2-1.054-4.601-1.494-6.706-3.053-14.6-.304-1.54-.858-4.87-1.231-7.4-.845-5.727-.818-5.636-1.565-5.349-.668.256-.719.441-1.362 4.949-.235 1.65-.714 4.62-1.065 6.6l-.973 5.677c-.185 1.143-.435 2.236-.554 2.43s-.409 1.418-.642 2.722a98.02 98.02 0 0 1-1.005 4.771l-2.142 8.6-1.014 3.74a92.18 92.18 0 0 1-1.047 3.6l-2.053 6.26c-.901 2.75-1.867 5.54-2.148 6.2l-2.438 5.8c-1.656 3.949-2.685 6.075-6.008 12.41-.292.556-1.074 1.532-1.739 2.169-1.433 1.373 1.814 1.269-35.128 1.121l-24.906-.1-1.379-1.3c-1.358-1.279-1.393-1.397-2.183-7.3-.442-3.3-.992-6.99-1.222-8.2l-1.025-5.6c-.334-1.87-.774-4.12-.976-5s-.647-3.13-.987-5l-2.271-12.321a139.78 139.78 0 0 1-.763-4.4l-.983-5.879c-1.095-6.248-2.816-17.555-3.409-22.4-1.37-11.189-1.717-14.425-2.23-20.8-1.455-18.097-1.609-38.498-.376-49.8 1.075-9.845 2.187-17.062 3.605-23.4l.999-4.6c.205-.99.759-3.24 1.23-5l1.239-4.78c.6-2.474 4.342-14.186 5.119-16.02.187-.44.651-1.7 1.032-2.8s.919-2.54 1.195-3.2l1.402-3.4c1.51-3.689 2.749-6.395 5.123-11.184l2.272-4.585-.127-15.015-.43-29.016c-.349-16.224-.134-17.805 2.499-18.325.472-.093 35.369-.148 77.549-.122l76.691.047 1.034 1.034M172.6 55.025c-4.007 1.425-5 4.07-5 13.313 0 26.518 4.433 43.703 17.263 66.923 3.203 5.796 4.702 6.586 7.637 4.026.658-.574.7-3.068.7-41.713V56.471l-1.231-1.035-1.23-1.036-8.27.028c-6.073.021-8.694.179-9.869.597m29.342-.018C199.981 56.072 200 55.65 200 97.6c0 42.251-.034 41.548 2.04 42.621 2.208 1.141 3.625.186 5.962-4.021 13.551-24.385 17.9-41.01 17.536-67.03-.161-11.447-.304-11.915-4.213-13.78-2.554-1.218-17.308-1.51-19.383-.383M133.8 56.195c-5.532 2.598-6.342 15.737-1.554 25.193 1.402 2.77 2.796 4.531 9.342 11.802l4.012 4.473c10.411 11.848 11.106 12.473 12.952 11.632 2.272-1.035 2.443-1.873 1.926-9.437-1.109-16.233-6.397-28.936-16.482-39.59-4.425-4.674-6.852-5.644-10.196-4.073m119.788.187c-2.684 1.419-8.181 8.004-12.038 14.418-8.593 14.29-12.187 38.8-5.69 38.8 1.341 0 2.039-.723 17.94-18.58 9.298-10.443 11.305-15.605 10.208-26.261-.8-7.772-5.071-11.206-10.42-8.377M129.7 85.865c-.379.153-.501 2.351-.502 9.068-.002 4.877-.168 9.875-.369 11.106-.282 1.719-6.118 17.377-8.409 22.561-.195.44-1.192 2.96-2.216 5.6l-2.211 5.6c-.193.44-.738 1.79-1.213 3l-1.221 3c-3.269 7.299-6.112 22.702-4.725 25.597 1.226 2.557 2.677 1.748 4.172-2.326 2.177-5.93 2.905-7.826 5.178-13.471l2.21-5.4a248.57 248.57 0 0 0 1.606-3.8l1.602-3.8 1.224-2.8 3.022-6.722 2.152-4.876c0-.085.736-1.74 1.635-3.678l2.451-5.324 2.811-6c6.022-12.67 6.099-11.708-1.821-22.706-3.376-4.688-3.967-5.198-5.376-4.629M262.082 87.7c-9.811 13.348-9.749 13.064-5.062 22.925l3.463 7.375 6.161 13.509c.746 1.6 1.356 2.981 1.356 3.071s.627 1.518 1.393 3.176 2.31 5.227 3.431 7.93l3.59 8.514c.404.897 3.343 8.514 4.941 12.808.575 1.545 1.045 3.006 1.045 3.247 0 .692 1.602 2.545 2.2 2.545 4.103 0 1.246-18.174-4.999-31.8-.202-.44-1.194-2.96-2.205-5.6l-2.206-5.6c-.203-.44-.738-1.79-1.19-3s-.988-2.56-1.19-3c-.339-.738-2.136-5.27-3.41-8.6-.295-.77-1.128-2.84-1.853-4.6l-1.317-3.2-.153-10.4c-.093-6.289-.316-10.598-.564-10.9-.816-.993-1.894-.49-3.431 1.6m-100.296 51.771c-.753.753-.665 3.671.411 13.529l1.205 12 1.198 11.8 1.007 10.2c.947 10.987.826 10.397 4.404 21.4l4.585 14.2 4.563 14.166c1.457 4.517 2.352 5.883 3.262 4.973.458-.458 1.06-6.61 2.169-22.139l1.038-13.6c.217-2.53.486-6.4.597-8.6a180.6 180.6 0 0 1 .569-7.6c1.814-17.825 1.635-18.518-8.213-31.962l-9.448-12.913c-4.689-6.427-5.656-7.145-7.347-5.454m66.903-.171c-.578.435-3.599 4.394-7.401 9.7l-3.349 4.6c-13.216 18.007-12.974 17.31-11.592 33.297l1.051 13.503c2.417 33.145 3.095 40.779 3.666 41.253 1.07.888 1.702-.117 3.351-5.327l3.189-9.926 4.97-15.4 3.824-11.67c.196-.478.465-2.368.596-4.2s.319-3.71.416-4.173.359-2.984.581-5.6l.796-8.357 1.011-9.8 2.231-22.108c.587-5.592-.682-7.793-3.34-5.792" fill="#9baaca"/></svg>